<svg width="456" height="419" viewBox="0 0 456 419" fill="none" xmlns="http://www.w3.org/2000/svg">
<path d="M127.475 75.1084C132.903 71.1155 134.951 64.6815 132.05 60.7377C129.148 56.794 122.396 56.8338 116.969 60.8268C111.541 64.8197 109.493 71.2537 112.394 75.1975C115.295 79.1412 122.047 79.1014 127.475 75.1084Z" fill="#D4E8E8"/>
<path d="M131.756 48.4491C134.891 46.1432 136.085 42.4425 134.423 40.1834C132.761 37.9243 128.873 37.9623 125.738 40.2682C122.604 42.5741 121.41 46.2747 123.072 48.5338C124.734 50.7929 128.622 50.755 131.756 48.4491Z" fill="#D4E8E8"/>
<path d="M289.507 69.8382C297.584 69.8382 304.132 64.6819 304.132 58.3214C304.132 51.9609 297.584 46.8047 289.507 46.8047C281.43 46.8047 274.883 51.9609 274.883 58.3214C274.883 64.6819 281.43 69.8382 289.507 69.8382Z" fill="#D4E8E8"/>
<path d="M265.438 72.5668C269.26 72.5668 272.359 70.3732 272.359 67.6672C272.359 64.9612 269.26 62.7676 265.438 62.7676C261.615 62.7676 258.516 64.9612 258.516 67.6672C258.516 70.3732 261.615 72.5668 265.438 72.5668Z" fill="#D4E8E8"/>
<path d="M253.947 79.9423C256.053 79.9423 257.761 78.5631 257.761 76.8618C257.761 75.1605 256.053 73.7812 253.947 73.7812C251.84 73.7812 250.133 75.1605 250.133 76.8618C250.133 78.5631 251.84 79.9423 253.947 79.9423Z" fill="#D4E8E8"/>
<path d="M11.3656 222.8C1.37308 214.787 -2.64923 200.247 1.80182 188.247C5.60851 177.974 15.3185 170.344 26.0596 168.624C26.167 167.621 26.3256 166.581 26.5354 165.506C28.1391 157.428 31.5257 149.809 36.4482 143.207C41.3707 136.604 47.7049 131.183 54.9889 127.34L55.6953 128.691C41.6581 136.026 31.0583 150.239 28.0323 165.786C27.8563 166.686 27.7176 167.56 27.616 168.403C28.9327 168.263 30.2578 168.215 31.5813 168.262C35.7225 168.403 39.036 169.451 41.4276 171.382C44.0447 173.498 45.9555 177.536 44.5354 181.164C43.6358 183.466 41.5391 185.05 38.7808 185.511C35.2516 186.101 31.4251 184.767 29.2566 182.225C26.7609 179.283 25.6482 175.243 25.9356 170.175C15.8712 171.91 6.81546 179.117 3.23925 188.762C-0.991229 200.163 2.83033 213.982 12.3272 221.595L11.3656 222.8ZM27.4747 169.964C27.1476 174.775 28.1314 178.559 30.4164 181.251C32.2504 183.412 35.5094 184.524 38.528 184.019C39.8291 183.803 42.1562 183.072 43.1153 180.621C44.2653 177.677 42.6544 174.349 40.466 172.581C38.3396 170.864 35.3309 169.927 31.5267 169.796C30.1721 169.751 28.816 169.808 27.4697 169.964H27.4747Z" fill="black"/>
<path d="M293.723 291.287C293.723 291.287 290.772 274.167 267.285 268.457C243.798 262.747 237.297 268.068 237.297 268.068L235.48 285.716L245.862 295.449L272.982 298.301C281.193 297.473 290.226 297.622 293.723 291.287Z" fill="black"/>
<path d="M259.74 241.811C259.74 241.811 268.692 226.165 270.29 220.398C272.694 211.724 280.157 214.203 280.36 221.848C280.36 221.848 284.077 215.714 287.639 217.387C291.619 219.261 290.313 225.476 290.313 225.476C290.313 225.476 294.129 219.422 297.71 220.696C301.292 221.97 300.57 228.775 300.57 228.775C300.57 228.775 308.082 226.094 310.499 231.209C312.915 236.324 301.557 263.095 296.603 271.925C293.054 278.247 279.549 301.474 279.549 301.474L238.137 283.667C238.137 283.667 249.093 263.412 248.712 257.053" fill="white"/>
<path d="M279.551 302.255C279.448 302.255 279.345 302.234 279.251 302.193L237.836 284.378C237.739 284.337 237.651 284.275 237.579 284.197C237.507 284.12 237.452 284.028 237.417 283.928C237.383 283.828 237.369 283.722 237.377 283.617C237.386 283.511 237.416 283.408 237.466 283.315C237.576 283.115 248.317 263.179 247.952 257.107C247.951 256.912 248.025 256.723 248.158 256.581C248.292 256.438 248.475 256.352 248.67 256.34C248.865 256.328 249.057 256.392 249.206 256.517C249.356 256.643 249.452 256.821 249.474 257.015C249.826 262.894 241.196 279.543 239.201 283.305L279.231 300.52C281.35 296.872 292.748 277.248 295.937 271.563C301.638 261.402 311.875 235.922 309.816 231.546C307.727 227.122 300.894 229.481 300.835 229.506C300.713 229.549 300.583 229.56 300.456 229.54C300.329 229.519 300.209 229.466 300.108 229.386C300.007 229.307 299.927 229.203 299.877 229.084C299.827 228.965 299.808 228.836 299.821 228.708C300.002 226.973 299.93 222.304 297.464 221.427C294.998 220.549 291.937 224.356 290.966 225.888C290.87 226.04 290.725 226.153 290.554 226.208C290.383 226.263 290.199 226.256 290.033 226.189C289.867 226.121 289.73 225.998 289.645 225.839C289.561 225.681 289.536 225.498 289.573 225.323C289.573 225.268 290.706 219.672 287.323 218.081C284.458 216.733 281.055 222.183 281.02 222.237C280.935 222.378 280.806 222.487 280.653 222.549C280.501 222.61 280.332 222.62 280.173 222.578C280.014 222.536 279.873 222.444 279.77 222.315C279.668 222.186 279.61 222.028 279.605 221.863C279.506 218.111 277.573 215.915 275.714 215.687C273.732 215.439 271.94 217.328 271.035 220.597C269.429 226.391 260.778 241.541 260.411 242.185C260.306 242.352 260.14 242.471 259.949 242.519C259.758 242.567 259.556 242.538 259.385 242.441C259.215 242.343 259.088 242.183 259.033 241.994C258.977 241.805 258.997 241.602 259.087 241.427C259.177 241.271 268.009 225.799 269.566 220.19C270.906 215.347 273.719 213.908 275.9 214.175C278.361 214.475 280.26 216.688 280.901 219.794C282.403 217.94 285.139 215.367 287.972 216.701C290.649 217.96 291.251 220.812 291.291 222.961C292.872 221.181 295.407 219.065 297.982 219.987C301.144 221.112 301.452 225.608 301.407 227.742C304.45 226.966 309.305 226.872 311.204 230.894C313.905 236.614 301.665 264.497 297.283 272.307C293.771 278.562 280.359 301.635 280.225 301.868C280.157 301.987 280.059 302.085 279.941 302.153C279.822 302.221 279.687 302.256 279.551 302.255Z" fill="black"/>
<path d="M280.362 221.848C280.362 221.848 276.828 233.649 273.227 239.488Z" fill="white"/>
<path d="M273.222 240.249C273.081 240.25 272.943 240.212 272.823 240.138C272.738 240.085 272.664 240.016 272.605 239.935C272.546 239.853 272.504 239.761 272.481 239.663C272.458 239.566 272.455 239.465 272.471 239.366C272.487 239.267 272.522 239.172 272.575 239.087C276.082 233.401 279.594 221.739 279.628 221.63C279.691 221.441 279.824 221.285 280 221.194C280.176 221.102 280.381 221.083 280.571 221.139C280.761 221.196 280.921 221.324 281.018 221.497C281.115 221.67 281.141 221.874 281.091 222.066C280.944 222.561 277.485 234.031 273.871 239.887C273.803 239.998 273.708 240.09 273.594 240.154C273.48 240.217 273.352 240.25 273.222 240.249Z" fill="black"/>
<path d="M290.314 225.482C288.652 231.316 286.141 236.872 282.859 241.973Z" fill="white"/>
<path d="M282.856 242.736C282.708 242.735 282.564 242.692 282.439 242.612C282.27 242.501 282.152 242.328 282.11 242.13C282.069 241.933 282.107 241.726 282.216 241.557C285.447 236.524 287.924 231.046 289.569 225.296C289.619 225.099 289.745 224.93 289.92 224.825C290.094 224.721 290.303 224.69 290.5 224.74C290.697 224.79 290.867 224.916 290.971 225.09C291.075 225.265 291.106 225.473 291.056 225.671C289.383 231.588 286.837 237.223 283.503 242.389C283.432 242.497 283.336 242.584 283.223 242.645C283.11 242.706 282.984 242.737 282.856 242.736Z" fill="black"/>
<path d="M300.572 228.781C300.572 228.781 298.269 237.929 293.727 244.548Z" fill="white"/>
<path d="M293.726 245.31C293.587 245.31 293.451 245.272 293.332 245.2C293.214 245.129 293.117 245.026 293.052 244.903C292.988 244.78 292.958 244.642 292.966 244.504C292.974 244.366 293.02 244.232 293.099 244.118C297.508 237.694 299.81 228.685 299.832 228.596C299.882 228.399 300.007 228.229 300.182 228.125C300.356 228.02 300.565 227.989 300.762 228.039C300.959 228.088 301.129 228.213 301.233 228.388C301.338 228.562 301.369 228.771 301.319 228.968C301.225 229.347 298.933 238.326 294.365 244.98C294.294 245.084 294.199 245.168 294.087 245.225C293.975 245.283 293.851 245.312 293.726 245.31Z" fill="black"/>
<path d="M137.648 257.084C146.694 257.084 155.611 259.226 163.671 263.333C171.731 267.44 178.704 273.396 184.02 280.715L211.797 323.367L237.324 268.068C236.285 289.478 279.886 301.805 293.738 291.287C293.738 291.287 252.35 378.732 213.688 378.732C167.968 378.732 145.358 326.573 145.358 326.573L137.648 257.084Z" fill="#8670C5"/>
<path d="M176.097 395.439C178.157 412.165 51.7601 427.843 49.7031 411.117L53.4206 257.107C83.5842 256.493 136.657 253.945 148.65 257.811C160.794 261.712 168.952 273.343 168.699 286.346L176.097 395.439Z" fill="#8670C5"/>
<path d="M175.158 382.439C174.966 382.439 174.78 382.366 174.639 382.234C174.498 382.103 174.413 381.922 174.4 381.73L167.927 286.392C167.915 286.289 167.924 286.185 167.954 286.087C167.984 285.988 168.033 285.896 168.099 285.817C168.166 285.738 168.247 285.673 168.339 285.626C168.431 285.579 168.531 285.552 168.634 285.545C168.737 285.538 168.841 285.552 168.938 285.586C169.035 285.62 169.125 285.674 169.201 285.743C169.277 285.813 169.338 285.897 169.38 285.991C169.423 286.085 169.446 286.187 169.448 286.29L175.919 381.633C175.933 381.835 175.866 382.034 175.733 382.186C175.6 382.339 175.412 382.432 175.21 382.446L175.158 382.439Z" fill="black"/>
<path d="M88.7344 320.224C88.7344 320.224 97.7778 305.988 99.3044 301.158C103.589 287.617 106.551 281.857 115.119 291.944C115.119 291.944 143.312 266.417 150.083 273.247C154.972 278.184 130.601 294.387 130.601 294.387C130.601 294.387 140.412 295.354 139.721 302.952C139.721 302.952 149.047 307.166 145.039 314.144C145.039 314.144 150.705 320.985 148.286 326.236C145.867 331.488 139.443 327.342 139.443 327.342L119.961 341.907L88.7344 320.224Z" fill="white"/>
<path d="M119.961 342.68C119.806 342.681 119.654 342.633 119.528 342.544L88.3008 320.851C88.1387 320.739 88.0264 320.568 87.9876 320.375C87.9487 320.182 87.9864 319.981 88.0926 319.815C88.1819 319.674 97.0989 305.609 98.5784 300.928C101.505 291.671 103.627 286.846 107.084 286.15C109.362 285.689 111.946 287.188 115.186 290.858C120.006 286.558 143.887 265.904 150.625 272.71C150.95 273.04 151.195 273.44 151.342 273.879C151.489 274.319 151.534 274.786 151.473 275.245C150.903 280.834 137.468 290.588 132.588 293.959C136.152 294.826 140.685 297.29 140.519 302.496C141.825 303.18 145.394 305.314 146.487 308.692C147.052 310.442 146.873 312.246 145.954 314.063C147.173 315.674 151.25 321.632 148.985 326.549C148.288 328.06 147.225 329.027 145.825 329.441C143.362 330.159 140.583 328.848 139.5 328.249L120.417 342.524C120.286 342.623 120.126 342.678 119.961 342.68ZM89.7705 320.016L119.946 340.977L138.987 326.729C139.112 326.637 139.262 326.585 139.418 326.58C139.573 326.575 139.726 326.616 139.857 326.7C139.887 326.72 142.99 328.682 145.399 327.981C146.368 327.698 147.084 327.024 147.595 325.917C149.783 321.168 144.507 314.697 144.452 314.63C144.354 314.51 144.294 314.364 144.281 314.209C144.268 314.055 144.303 313.9 144.38 313.765C145.287 312.184 145.505 310.638 145.032 309.166C143.917 305.721 139.451 303.669 139.406 303.649C139.262 303.583 139.142 303.474 139.062 303.338C138.982 303.201 138.947 303.043 138.96 302.886C139.575 296.135 130.896 295.183 130.534 295.146C130.378 295.13 130.231 295.066 130.112 294.963C129.994 294.86 129.91 294.723 129.872 294.571C129.834 294.419 129.844 294.259 129.9 294.112C129.957 293.966 130.057 293.84 130.187 293.753C135.52 290.206 149.468 279.941 149.964 275.089C150.003 274.854 149.986 274.613 149.914 274.386C149.842 274.159 149.718 273.952 149.55 273.783C144.415 268.598 123.329 285.542 115.637 292.509C115.561 292.577 115.473 292.63 115.376 292.664C115.28 292.697 115.178 292.711 115.077 292.705C114.974 292.697 114.875 292.67 114.783 292.624C114.692 292.578 114.611 292.514 114.544 292.437C111.503 288.853 109.161 287.287 107.394 287.644C104.42 288.241 102.224 294.484 100.041 301.386C98.6577 305.723 91.5474 317.188 89.7705 320.016Z" fill="black"/>
<path d="M130.602 294.387C130.602 294.387 125.698 293.765 121.207 296.122Z" fill="white"/>
<path d="M121.202 296.875C121.031 296.876 120.865 296.819 120.73 296.714C120.595 296.609 120.5 296.461 120.459 296.295C120.419 296.129 120.435 295.954 120.506 295.799C120.577 295.643 120.698 295.516 120.85 295.438C125.497 293.006 130.484 293.604 130.694 293.631C130.895 293.656 131.077 293.76 131.201 293.92C131.325 294.079 131.38 294.282 131.355 294.482C131.329 294.683 131.225 294.865 131.066 294.989C130.906 295.113 130.704 295.168 130.503 295.143C130.456 295.143 125.77 294.585 121.557 296.788C121.447 296.845 121.326 296.875 121.202 296.875Z" fill="black"/>
<path d="M139.719 302.953C139.719 302.953 133.157 302.817 128.527 305.027Z" fill="white"/>
<path d="M128.529 305.788C128.356 305.787 128.189 305.728 128.055 305.62C127.921 305.512 127.827 305.362 127.789 305.194C127.75 305.026 127.77 304.85 127.845 304.695C127.919 304.539 128.044 304.414 128.199 304.339C132.938 302.076 139.458 302.185 139.736 302.192C139.836 302.195 139.934 302.216 140.026 302.257C140.117 302.297 140.2 302.355 140.269 302.427C140.338 302.5 140.392 302.585 140.428 302.678C140.464 302.771 140.481 302.871 140.479 302.97C140.479 303.071 140.459 303.171 140.419 303.263C140.38 303.356 140.322 303.439 140.249 303.509C140.177 303.578 140.09 303.632 139.996 303.668C139.902 303.703 139.801 303.719 139.701 303.714C139.637 303.714 133.257 303.607 128.856 305.711C128.754 305.762 128.642 305.788 128.529 305.788Z" fill="black"/>
<path d="M145.036 314.149C145.036 314.149 138.543 312.91 133.086 314.841Z" fill="white"/>
<path d="M133.081 315.599C132.899 315.601 132.723 315.537 132.584 315.42C132.445 315.303 132.353 315.141 132.323 314.961C132.293 314.782 132.328 314.599 132.422 314.443C132.515 314.287 132.661 314.17 132.833 314.112C138.422 312.13 144.91 313.339 145.182 313.391C145.363 313.445 145.518 313.564 145.615 313.725C145.713 313.886 145.748 314.078 145.712 314.264C145.677 314.449 145.574 314.614 145.423 314.728C145.273 314.841 145.085 314.895 144.897 314.878C144.833 314.878 138.533 313.701 133.344 315.54C133.26 315.575 133.171 315.595 133.081 315.599Z" fill="black"/>
<path d="M53.4093 257.094C46.9781 257.956 33.615 260.202 22.2272 282.99C9.73401 307.991 -17.3589 388.013 22.2272 398.519C64.2693 409.671 125.424 346.781 125.424 346.781L88.7452 304.259L39.8951 346.781L65.8183 281.733L53.4093 257.094Z" fill="#8670C5"/>
<path d="M39.8958 347.545C39.7712 347.545 39.6485 347.514 39.5384 347.456C39.4283 347.398 39.3342 347.313 39.2643 347.21C39.1943 347.107 39.1507 346.988 39.1373 346.864C39.1238 346.74 39.1409 346.615 39.187 346.499L57.244 301.198C57.2811 301.105 57.3362 301.021 57.406 300.949C57.4758 300.877 57.5591 300.82 57.6511 300.781C57.743 300.741 57.8418 300.72 57.9418 300.719C58.0419 300.718 58.1412 300.736 58.2341 300.773C58.327 300.81 58.4117 300.865 58.4834 300.935C58.555 301.005 58.6122 301.088 58.6517 301.18C58.6911 301.272 58.7121 301.371 58.7134 301.471C58.7147 301.571 58.6963 301.67 58.6592 301.763L41.7719 344.142L88.223 303.684C88.2962 303.606 88.3851 303.544 88.4837 303.503C88.5824 303.461 88.6886 303.441 88.7956 303.444C88.9025 303.446 89.0078 303.471 89.1046 303.516C89.2014 303.562 89.2875 303.627 89.3573 303.708C89.4272 303.789 89.4792 303.884 89.5101 303.987C89.5409 304.089 89.5499 304.197 89.5364 304.303C89.5229 304.409 89.4873 304.511 89.4318 304.603C89.3763 304.694 89.3022 304.773 89.2143 304.834L40.4039 347.359C40.2627 347.481 40.0821 347.547 39.8958 347.545Z" fill="black"/>
<path d="M32.7091 400.589C29.1068 400.61 25.5171 400.162 22.0301 399.258C21.9324 399.232 21.8408 399.187 21.7605 399.126C21.6801 399.065 21.6126 398.989 21.5617 398.902C21.5108 398.814 21.4777 398.718 21.464 398.618C21.4504 398.518 21.4567 398.416 21.4824 398.319C21.5081 398.221 21.5528 398.129 21.6139 398.049C21.675 397.969 21.7514 397.901 21.8386 397.85C21.9258 397.799 22.0222 397.766 22.1222 397.753C22.2223 397.739 22.324 397.745 22.4217 397.771C61.579 408.18 118.501 352.613 124.384 346.735L88.1565 304.757C88.0819 304.683 88.0235 304.594 87.985 304.496C87.9464 304.398 87.9285 304.293 87.9324 304.188C87.9363 304.083 87.9619 303.98 88.0076 303.885C88.0534 303.79 88.1182 303.706 88.198 303.637C88.2779 303.569 88.3711 303.517 88.4717 303.487C88.5724 303.456 88.6783 303.446 88.7828 303.458C88.8874 303.47 88.9883 303.504 89.0793 303.557C89.1702 303.61 89.2493 303.681 89.3114 303.766L126.003 346.289C126.127 346.434 126.193 346.62 126.187 346.811C126.181 347.001 126.104 347.183 125.971 347.32C125.819 347.476 110.397 363.26 90.035 377.466C74.1144 388.561 52.3374 400.589 32.7091 400.589Z" fill="black"/>
<path d="M436.956 121.786L248.698 85.6497C245.918 85.1172 243.041 85.7104 240.698 87.2988C238.355 88.8873 236.739 91.341 236.205 94.1205L212.636 217C212.103 219.78 212.696 222.658 214.285 225.001C215.873 227.344 218.327 228.96 221.107 229.494L409.363 265.625C412.143 266.158 415.02 265.565 417.363 263.977C419.706 262.388 421.322 259.934 421.856 257.154L445.439 134.279C445.703 132.902 445.693 131.486 445.409 130.112C445.126 128.739 444.574 127.435 443.787 126.275C442.999 125.114 441.99 124.121 440.818 123.351C439.646 122.58 438.334 122.049 436.956 121.786Z" fill="black"/>
<path d="M426.659 127.57L256.119 94.8415C253.736 94.3846 251.27 94.8926 249.262 96.2538C247.254 97.6151 245.868 99.7181 245.41 102.101L224.129 212.998C223.902 214.177 223.91 215.39 224.153 216.567C224.395 217.744 224.866 218.861 225.54 219.856C226.215 220.85 227.078 221.702 228.081 222.363C229.085 223.023 230.208 223.48 231.388 223.706L401.928 256.435C403.108 256.662 404.321 256.654 405.497 256.411C406.674 256.169 407.791 255.698 408.785 255.023C409.779 254.349 410.631 253.486 411.292 252.483C411.952 251.479 412.408 250.356 412.635 249.176L433.918 138.279C434.375 135.896 433.867 133.43 432.506 131.422C431.145 129.413 429.042 128.028 426.659 127.57Z" fill="white"/>
<path d="M248.712 257.051C248.328 250.689 240.702 230.214 246.278 227.195C257.555 221.093 262.097 244.97 262.097 244.97" fill="white"/>
<path d="M248.71 257.814C248.516 257.813 248.33 257.739 248.189 257.606C248.048 257.473 247.963 257.291 247.952 257.097C247.84 255.261 247.094 252.16 246.217 248.572C243.986 239.36 241.481 228.919 245.905 226.515C248.309 225.214 250.613 225.075 252.794 226.106C259.838 229.449 262.708 244.198 262.834 244.817C262.864 244.919 262.873 245.026 262.859 245.132C262.846 245.237 262.81 245.339 262.755 245.43C262.7 245.52 262.626 245.599 262.539 245.659C262.452 245.72 262.353 245.762 262.248 245.782C262.144 245.802 262.036 245.8 261.933 245.776C261.829 245.751 261.732 245.706 261.647 245.642C261.562 245.578 261.491 245.497 261.44 245.404C261.388 245.311 261.357 245.208 261.347 245.102C261.32 244.959 258.495 230.495 252.15 227.481C250.415 226.661 248.621 226.785 246.641 227.856C243.248 229.692 245.932 240.832 247.709 248.205C248.589 251.863 249.352 255.025 249.471 256.996C249.477 257.096 249.463 257.196 249.431 257.291C249.398 257.386 249.347 257.473 249.28 257.548C249.214 257.623 249.133 257.684 249.043 257.728C248.953 257.772 248.855 257.798 248.755 257.804L248.71 257.814Z" fill="black"/>
<path d="M84.1016 256.735C84.1016 256.735 91.4027 224.517 85.7174 207.092L122.136 217.082L122.88 256.931C115.487 261.426 101.175 262.807 84.1016 256.735Z" fill="white"/>
<path d="M105.859 261.54C99.5644 261.54 92.1196 260.397 83.842 257.453C83.6649 257.392 83.5165 257.268 83.4251 257.104C83.3337 256.941 83.3056 256.749 83.3464 256.566C83.4182 256.246 90.5335 224.348 84.982 207.327C84.939 207.196 84.9322 207.056 84.9624 206.922C84.9927 206.788 85.0587 206.664 85.1536 206.564C85.2484 206.465 85.3685 206.393 85.5011 206.356C85.6337 206.319 85.7738 206.319 85.9064 206.355L122.338 216.348C122.496 216.392 122.637 216.486 122.737 216.616C122.838 216.745 122.895 216.905 122.898 217.069L123.641 256.915C123.644 257.049 123.612 257.18 123.547 257.297C123.483 257.414 123.389 257.511 123.274 257.58C119.604 259.81 113.602 261.54 105.859 261.54ZM84.9994 256.239C102.303 262.229 115.673 260.187 122.122 256.499L121.393 217.666L86.8556 208.192C91.443 224.603 85.9907 251.545 84.9994 256.239Z" fill="black"/>
<path d="M113.59 232.408C121.622 234.73 130.194 234.827 137.349 229.399C166.725 207.094 133.049 156.096 133.049 156.096L90.5759 159.052C90.5759 159.052 77.2302 178.879 76.8238 178.316C76.4173 177.754 87.141 217.446 87.141 217.446" fill="white"/>
<path d="M123.418 234.682C120.014 234.642 116.632 234.123 113.373 233.141C113.188 233.077 113.034 232.944 112.944 232.77C112.854 232.597 112.834 232.395 112.888 232.207C112.943 232.018 113.067 231.858 113.236 231.76C113.406 231.661 113.606 231.631 113.797 231.676C123.068 234.355 130.835 233.383 136.882 228.791C164.05 208.159 135.591 161.537 132.647 156.885L91.0013 159.787C81.8092 173.43 78.7906 177.426 77.6382 178.6C78.3123 181.678 84.0124 202.962 87.8786 217.247C87.9196 217.438 87.8857 217.638 87.7837 217.805C87.6818 217.972 87.5197 218.093 87.3308 218.144C87.1419 218.195 86.9407 218.171 86.7688 218.078C86.5968 217.985 86.4671 217.83 86.4065 217.644C86.4065 217.644 83.7696 207.886 81.1599 198.114C79.8563 193.227 78.5577 188.338 77.5986 184.662C75.8439 177.929 75.8439 177.929 76.4883 177.621C76.5173 177.61 76.5471 177.601 76.5775 177.594C77.8885 176.295 85.3879 165.398 89.9431 158.635C90.0079 158.539 90.0936 158.46 90.1935 158.402C90.2935 158.344 90.4053 158.309 90.5205 158.3L132.996 155.344C133.131 155.334 133.266 155.361 133.387 155.42C133.508 155.48 133.611 155.571 133.685 155.683C133.77 155.812 142.218 168.704 146.944 184.167C153.257 204.831 150.097 220.685 137.809 230.015C133.713 233.121 128.897 234.682 123.418 234.682Z" fill="black"/>
<path d="M89.1432 217.455C89.1432 217.455 89.7256 199.691 92.3006 203.059C92.3006 203.059 117.827 199.681 104.94 177.299C104.94 177.299 128.34 184.675 135.076 174.573L145.406 181.911C145.406 181.911 153.899 174.476 153.009 163.185C152.12 151.894 139.441 154.571 139.441 154.571C139.441 154.571 141.718 146.548 134.588 141.002C127.458 135.455 116.97 145.755 116.97 145.755C116.97 145.755 117.168 136.338 107.661 136.833C98.1543 137.329 80.1296 157.136 78.1494 173.76C78.1494 173.76 59.6339 174.125 57.6512 187.592C55.6686 201.059 72.0081 213.175 72.0081 213.175C72.0081 213.175 58.4567 225.071 87.0763 233.892L89.1432 217.455Z" fill="black"/>
<path d="M93.0844 200.774C93.0844 200.774 80.8688 191.317 76.8242 201.808C72.7796 212.298 82.1005 220.115 92.7102 218.165" fill="white"/>
<path d="M89.4443 219.23C84.7603 219.23 80.4778 217.418 77.7962 214.169C74.9189 210.7 74.3266 206.216 76.1283 201.53C77.199 198.754 78.9139 197.019 81.2312 196.372C86.6339 194.866 93.2857 199.949 93.5657 200.167C93.6511 200.226 93.7235 200.302 93.7785 200.39C93.8336 200.478 93.8701 200.576 93.8859 200.678C93.9017 200.781 93.8965 200.885 93.8705 200.986C93.8444 201.086 93.7982 201.18 93.7347 201.262C93.6711 201.344 93.5914 201.413 93.5006 201.463C93.4098 201.513 93.3097 201.544 93.2065 201.554C93.1032 201.564 92.999 201.553 92.9001 201.522C92.8012 201.491 92.7098 201.439 92.6314 201.371C92.5695 201.324 86.3068 196.539 81.6376 197.842C79.8136 198.353 78.4381 199.778 77.5509 202.078C75.9573 206.216 76.4604 210.162 78.9709 213.188C81.9449 216.786 87.1742 218.392 92.6017 217.401C92.7052 217.367 92.8149 217.355 92.9234 217.366C93.0318 217.378 93.1366 217.413 93.2305 217.468C93.3244 217.524 93.4053 217.599 93.4678 217.688C93.5303 217.778 93.5729 217.879 93.5927 217.987C93.6126 218.094 93.6092 218.204 93.5828 218.31C93.5565 218.416 93.5077 218.515 93.4399 218.6C93.372 218.686 93.2867 218.756 93.1895 218.805C93.0924 218.855 92.9858 218.883 92.8768 218.888C91.7455 219.106 90.5965 219.221 89.4443 219.23Z" fill="black"/>
<path d="M86.3619 203.391C85.6483 203.929 85.0838 204.641 84.7214 205.458C84.359 206.275 84.2107 207.172 84.2906 208.062C84.3704 208.952 84.6757 209.808 85.1777 210.548C85.6798 211.287 86.3619 211.887 87.1599 212.29" fill="white"/>
<path d="M87.1566 213.055C87.0379 213.054 86.9208 213.026 86.8146 212.973C85.9014 212.511 85.1209 211.824 84.5466 210.977C83.9723 210.13 83.623 209.15 83.5318 208.131C83.4406 207.111 83.6103 206.085 84.0251 205.15C84.4399 204.214 85.086 203.399 85.9026 202.782C86.064 202.661 86.267 202.608 86.4671 202.636C86.6672 202.664 86.8479 202.771 86.9695 202.932C87.0911 203.094 87.1436 203.297 87.1155 203.497C87.0874 203.697 86.981 203.878 86.8196 203.999C86.2097 204.46 85.7272 205.069 85.4175 205.768C85.1078 206.467 84.9811 207.233 85.0493 207.995C85.1174 208.756 85.3783 209.488 85.8072 210.121C86.2361 210.754 86.8191 211.267 87.5011 211.613C87.6553 211.689 87.779 211.816 87.852 211.972C87.925 212.127 87.943 212.303 87.903 212.471C87.863 212.638 87.7674 212.787 87.6319 212.893C87.4963 212.999 87.3288 213.056 87.1566 213.055Z" fill="black"/>
<path d="M141.662 188.613C140.592 188.097 139.386 187.936 138.218 188.152C137.095 188.362 136.081 188.956 135.348 189.832" fill="white"/>
<path d="M135.35 190.596C135.207 190.595 135.067 190.553 134.947 190.476C134.826 190.399 134.729 190.29 134.668 190.161C134.606 190.031 134.582 189.888 134.599 189.745C134.615 189.603 134.671 189.469 134.76 189.357C135.604 188.342 136.776 187.653 138.074 187.411C139.403 187.162 140.776 187.345 141.994 187.932C142.168 188.024 142.3 188.18 142.361 188.367C142.422 188.554 142.409 188.758 142.324 188.935C142.239 189.113 142.089 189.251 141.904 189.32C141.72 189.389 141.516 189.385 141.335 189.307C140.411 188.864 139.37 188.725 138.361 188.908C137.413 189.082 136.555 189.583 135.937 190.323C135.865 190.409 135.776 190.478 135.674 190.525C135.573 190.572 135.462 190.596 135.35 190.596Z" fill="black"/>
<path d="M137.528 194.848C137.811 196.613 139.037 197.887 140.272 197.688C141.506 197.49 142.272 195.899 141.989 194.132C141.706 192.365 140.477 191.094 139.245 191.292C138.014 191.49 137.243 193.081 137.528 194.848Z" fill="black"/>
<path d="M121.432 192.489C120.361 191.975 119.154 191.813 117.985 192.028C116.863 192.239 115.849 192.834 115.117 193.711" fill="white"/>
<path d="M115.118 194.472C114.975 194.472 114.834 194.431 114.713 194.354C114.592 194.278 114.495 194.168 114.433 194.038C114.372 193.909 114.348 193.765 114.365 193.622C114.382 193.48 114.438 193.345 114.529 193.233C115.372 192.218 116.544 191.529 117.842 191.285C119.171 191.037 120.545 191.221 121.763 191.808C121.937 191.901 122.068 192.057 122.129 192.244C122.191 192.431 122.177 192.634 122.092 192.812C122.007 192.989 121.857 193.127 121.673 193.196C121.488 193.266 121.284 193.261 121.104 193.184C120.179 192.741 119.138 192.601 118.13 192.782C117.181 192.958 116.324 193.46 115.706 194.2C115.634 194.286 115.544 194.354 115.442 194.402C115.341 194.449 115.23 194.473 115.118 194.472Z" fill="black"/>
<path d="M117.293 198.725C117.575 200.492 118.804 201.763 120.036 201.567C121.268 201.371 122.039 199.778 121.756 198.011C121.474 196.244 120.244 194.972 119.013 195.171C117.781 195.369 117.01 196.96 117.293 198.725Z" fill="black"/>
<path d="M119.271 221.84C119.187 221.839 119.103 221.825 119.023 221.798C118.928 221.765 118.841 221.714 118.766 221.648C118.69 221.582 118.629 221.501 118.585 221.411C118.541 221.321 118.515 221.224 118.509 221.124C118.503 221.023 118.517 220.923 118.55 220.829C119.132 219.128 120.639 218.102 121.799 217.53C125.531 215.711 130.337 216.333 133.484 219.042C133.62 219.178 133.699 219.36 133.706 219.552C133.713 219.744 133.648 219.932 133.522 220.078C133.397 220.223 133.222 220.317 133.031 220.339C132.84 220.361 132.648 220.31 132.493 220.197C131.118 219.051 129.446 218.321 127.671 218.091C125.897 217.862 124.094 218.142 122.473 218.9C121.571 219.342 120.408 220.117 119.995 221.324C119.942 221.475 119.845 221.605 119.715 221.698C119.585 221.79 119.43 221.84 119.271 221.84Z" fill="black"/>
<path d="M131.657 210.999C131.469 210.996 131.288 210.924 131.15 210.796C131.011 210.668 130.925 210.493 130.908 210.305C130.891 210.118 130.944 209.93 131.056 209.779C131.169 209.628 131.334 209.524 131.519 209.487C133.283 209.157 134.651 207.301 134.443 205.522C134.277 204.084 133.276 202.82 132.309 201.599C131.07 200.037 129.997 198.605 129.281 196.89C128.426 194.843 128.322 192.771 128.991 191.056C129.027 190.963 129.081 190.877 129.151 190.805C129.22 190.733 129.303 190.675 129.394 190.635C129.486 190.594 129.584 190.573 129.684 190.57C129.784 190.568 129.884 190.586 129.977 190.622C130.07 190.658 130.156 190.713 130.228 190.782C130.3 190.851 130.358 190.934 130.398 191.026C130.439 191.117 130.46 191.216 130.463 191.316C130.465 191.416 130.447 191.515 130.411 191.609C129.888 192.954 129.985 194.62 130.688 196.302C131.328 197.834 132.344 199.175 133.506 200.647C134.555 201.973 135.737 203.475 135.957 205.341C136.257 207.921 134.354 210.508 131.799 210.986C131.752 210.994 131.705 210.998 131.657 210.999Z" fill="black"/>
<path d="M122.882 241.975L135.348 257.053L122.882 276.567L110.406 260.607L122.882 241.975Z" fill="white"/>
<path d="M122.88 277.329C122.764 277.329 122.65 277.303 122.545 277.252C122.441 277.201 122.35 277.128 122.278 277.036L109.802 261.076C109.703 260.949 109.647 260.794 109.641 260.634C109.635 260.473 109.68 260.315 109.77 260.181L122.246 241.549C122.312 241.451 122.4 241.369 122.504 241.31C122.607 241.252 122.723 241.218 122.841 241.212C122.96 241.206 123.078 241.228 123.187 241.275C123.296 241.323 123.392 241.396 123.468 241.487L135.934 256.565C136.036 256.689 136.097 256.843 136.107 257.004C136.116 257.165 136.075 257.324 135.988 257.46L123.522 276.977C123.456 277.079 123.367 277.165 123.261 277.226C123.155 277.287 123.037 277.322 122.915 277.329H122.88ZM111.344 260.57L122.816 275.249L134.404 257.108L122.945 243.247L111.344 260.57Z" fill="black"/>
<path d="M110.406 260.606L101.062 280.071L78.0859 256.435L86.2644 244.549L110.406 260.606Z" fill="white"/>
<path d="M101.061 280.834C100.959 280.835 100.858 280.815 100.764 280.774C100.67 280.734 100.586 280.675 100.516 280.601L77.5394 256.968C77.4169 256.841 77.3419 256.676 77.327 256.501C77.3121 256.325 77.3582 256.15 77.4576 256.004L85.636 244.108C85.7499 243.944 85.9239 243.83 86.1204 243.793C86.3169 243.755 86.5203 243.796 86.6868 243.907L110.826 259.964C110.978 260.066 111.089 260.22 111.137 260.397C111.186 260.574 111.168 260.763 111.088 260.928L101.748 280.393C101.694 280.504 101.615 280.6 101.516 280.674C101.418 280.747 101.304 280.796 101.183 280.817C101.142 280.825 101.102 280.831 101.061 280.834ZM79.0685 256.353L100.848 278.757L109.43 260.874L86.4688 245.6L79.0685 256.353Z" fill="black"/>
<path d="M220.02 143.941C221.225 139.716 217.733 135.016 212.219 133.444C206.705 131.871 201.258 134.021 200.053 138.246C198.848 142.471 202.341 147.171 207.855 148.744C213.368 150.317 218.815 148.167 220.02 143.941Z" fill="#D4E8E8"/>
<path d="M181.087 149.049C194.771 149.049 205.865 140.344 205.865 129.606C205.865 118.869 194.771 110.164 181.087 110.164C167.402 110.164 156.309 118.869 156.309 129.606C156.309 140.344 167.402 149.049 181.087 149.049Z" fill="#D4E8E8"/>
<path d="M192.068 104.299C194.929 91.8334 185.299 78.9849 170.558 75.6006C155.817 72.2164 141.547 79.5779 138.686 92.0431C135.824 104.508 145.454 117.357 160.195 120.741C174.936 124.125 189.206 116.764 192.068 104.299Z" fill="#D4E8E8"/>
<path d="M211.229 81.2554C219.581 66.7893 212.484 47.0555 195.377 37.1787C178.27 27.3019 157.631 31.0223 149.279 45.4884C140.927 59.9545 148.024 79.6884 165.131 89.5652C182.239 99.442 202.877 95.7216 211.229 81.2554Z" fill="#D4E8E8"/>
<path d="M259.28 42.3796C261.813 22.6856 244.986 4.2918 221.696 1.29587C198.406 -1.70006 177.472 11.8364 174.939 31.5303C172.405 51.2243 189.232 69.6181 212.522 72.6141C235.812 75.61 256.746 62.0735 259.28 42.3796Z" fill="#D4E8E8"/>
<path d="M435.396 340.029L345.339 293.084C335.567 287.999 335.163 274.163 344.615 268.507L427.832 218.678C436.843 213.29 448.38 219.295 449.126 229.778L455.963 326.542C456.749 337.528 445.168 345.129 435.396 340.029Z" fill="#FFD966"/>
<path d="M433.97 251.805C433.974 253.655 433.377 255.456 432.27 256.938L409.504 286.762C408.65 287.916 407.388 288.701 405.976 288.958C404.563 289.216 403.106 288.925 401.9 288.146C400.694 287.367 399.83 286.158 399.483 284.765C399.137 283.372 399.334 281.899 400.034 280.646L417.829 247.615C418.756 245.946 420.211 244.632 421.965 243.88C423.72 243.128 425.674 242.98 427.522 243.46C429.37 243.94 431.006 245.02 432.173 246.53C433.34 248.041 433.972 249.897 433.97 251.805Z" fill="#FF5252"/>
<path d="M402.223 301.882C401.395 303.167 400.204 304.177 398.802 304.786C397.399 305.394 395.848 305.572 394.344 305.299C392.84 305.025 391.451 304.311 390.352 303.248C389.254 302.185 388.496 300.819 388.174 299.325C387.851 297.831 387.98 296.274 388.542 294.853C389.105 293.431 390.076 292.209 391.334 291.34C392.591 290.47 394.078 289.994 395.607 289.97C397.135 289.946 398.636 290.376 399.921 291.205C401.641 292.316 402.85 294.065 403.282 296.067C403.714 298.069 403.333 300.161 402.223 301.882Z" fill="#FF5252"/>
<path d="M323.547 326.514L351.782 390.734L305.438 395.319L323.547 326.514Z" fill="#37CDC7"/>
<path d="M330.852 328.275L362.083 343.852L350.326 353.909L330.852 328.275Z" fill="#D4E8E8"/>
<path d="M287.811 377.598L292.269 351.809L269.875 366.143L287.811 377.598Z" fill="white"/>
<path d="M287.812 378.357C287.667 378.357 287.524 378.316 287.401 378.238L269.465 366.786C269.357 366.717 269.269 366.622 269.207 366.509C269.146 366.397 269.113 366.271 269.113 366.143C269.113 366.014 269.146 365.888 269.207 365.776C269.269 365.663 269.357 365.568 269.465 365.499L291.86 351.165C291.984 351.084 292.129 351.042 292.277 351.043C292.425 351.044 292.57 351.088 292.693 351.17C292.816 351.252 292.913 351.368 292.972 351.504C293.03 351.64 293.047 351.79 293.022 351.936L288.561 377.725C288.539 377.849 288.487 377.965 288.41 378.064C288.333 378.163 288.232 378.241 288.117 378.292C288.021 378.335 287.917 378.357 287.812 378.357ZM271.292 366.141L287.257 376.335L291.223 353.38L271.292 366.141Z" fill="black"/>
<path d="M285.975 178.51L288.057 167.663L266 163.43L267.735 154.386L297.688 124.646L306.362 126.312L299.799 160.513L306.491 161.796L304.756 170.877L298.064 169.593L295.983 180.438L285.975 178.51ZM289.799 158.582L293.336 140.161L277.41 156.203L289.799 158.582Z" fill="#1B8EE4"/>
<path d="M335.447 131.891C340.666 132.892 344.389 135.536 346.616 139.822C349.276 144.904 349.625 152.557 347.662 162.781C345.704 172.977 342.533 179.966 338.148 183.75C334.525 186.868 330.103 187.926 324.882 186.925C319.661 185.923 315.82 183.095 313.36 178.439C310.921 173.79 310.695 166.294 312.681 155.951C314.632 145.809 317.799 138.849 322.18 135.068C325.804 131.947 330.226 130.888 335.447 131.891ZM333.801 140.456C332.582 140.215 331.317 140.413 330.23 141.016C329.095 141.626 328.06 142.908 327.127 144.863C325.903 147.399 324.684 151.828 323.471 158.151C322.259 164.474 321.744 168.881 321.927 171.371C322.109 173.849 322.605 175.577 323.414 176.555C324.212 177.502 325.312 178.144 326.528 178.374C327.744 178.604 329.002 178.408 330.091 177.819C331.226 177.21 332.26 175.928 333.194 173.973C334.412 171.463 335.628 167.046 336.842 160.721C338.056 154.397 338.572 149.99 338.388 147.502C338.205 145.024 337.709 143.289 336.901 142.298C336.12 141.334 335.021 140.681 333.801 140.456Z" fill="#1B8EE4"/>
<path d="M369.733 194.584L371.815 183.737L349.758 179.504L351.493 170.46L381.446 140.721L390.12 142.386L383.56 176.587L390.251 177.871L388.516 186.951L381.825 185.667L379.743 196.515L369.733 194.584ZM373.557 174.656L377.094 156.235L361.165 172.28L373.557 174.656Z" fill="#1B8EE4"/>
<path d="M364.487 218.357L363.011 226.097L358.062 225.153L362.297 202.949L370.1 204.437C375.143 205.399 377.761 208.397 376.944 212.679L376.732 213.789C376.2 216.58 374.397 218.275 371.914 218.886L374.969 228.378L369.355 227.307L366.993 218.835L364.487 218.357ZM368.897 208.679L366.422 208.207L365.309 214.043L367.784 214.515C370.099 214.957 371.403 214.153 371.699 212.599L371.826 211.933C372.129 210.347 371.212 209.12 368.897 208.679Z" fill="#1B8EE4"/>
<path d="M341.787 222.377C336.268 221.325 333.264 217.596 334.317 212.077L335.4 206.399C336.452 200.88 340.623 198.486 346.143 199.539C351.694 200.598 354.691 204.358 353.639 209.877L352.556 215.555C351.503 221.074 347.338 223.436 341.787 222.377ZM345.32 203.853C342.592 203.333 340.953 204.861 340.432 207.589L339.434 212.823C338.92 215.519 339.882 217.543 342.61 218.063C345.369 218.59 347.009 217.061 347.523 214.365L348.521 209.131C349.041 206.403 348.08 204.379 345.32 203.853Z" fill="#1B8EE4"/>
<path d="M317.424 209.381L315.948 217.12L311 216.177L315.234 193.973L323.037 195.461C328.081 196.423 330.698 199.42 329.881 203.702L329.67 204.813C329.137 207.604 327.335 209.298 324.851 209.91L327.906 219.401L322.292 218.33L319.93 209.859L317.424 209.381ZM321.834 199.702L319.36 199.23L318.247 205.067L320.721 205.539C323.037 205.98 324.34 205.177 324.637 203.623L324.764 202.957C325.066 201.371 324.15 200.144 321.834 199.702Z" fill="#1B8EE4"/>
<path d="M294.823 205.07L293.347 212.81L288.398 211.866L292.633 189.662L300.436 191.15C305.479 192.112 308.096 195.11 307.28 199.392L307.068 200.502C306.536 203.293 304.733 204.988 302.25 205.599L305.305 215.09L299.69 214.02L297.328 205.548L294.823 205.07ZM299.233 195.392L296.758 194.92L295.645 200.756L298.119 201.228C300.435 201.67 301.739 200.866 302.035 199.312L302.162 198.646C302.465 197.06 301.548 195.833 299.233 195.392Z" fill="#1B8EE4"/>
<path d="M266.816 207.751L271.051 185.547L285.801 188.36L284.978 192.674L275.176 190.804L274.36 195.087L282.575 196.653L281.752 200.967L273.537 199.401L272.587 204.381L282.389 206.25L281.566 210.564L266.816 207.751Z" fill="#1B8EE4"/>
</svg>
