<svg width="456" height="417" viewBox="0 0 456 417" fill="none" xmlns="http://www.w3.org/2000/svg">
<g clip-path="url(#clip0_805_6000)">
<path d="M127.475 74.1065C132.903 70.1135 134.951 63.6795 132.05 59.7358C129.148 55.792 122.396 55.8319 116.969 59.8248C111.541 63.8178 109.493 70.2517 112.394 74.1955C115.295 78.1393 122.047 78.0994 127.475 74.1065Z" fill="#85DCFF"/>
<path d="M131.756 47.451C134.891 45.1451 136.085 41.4445 134.423 39.1854C132.761 36.9263 128.873 36.9642 125.738 39.2701C122.604 41.576 121.41 45.2767 123.072 47.5358C124.734 49.7949 128.622 49.7569 131.756 47.451Z" fill="#85DCFF"/>
<path d="M289.507 68.8382C297.584 68.8382 304.132 63.6819 304.132 57.3214C304.132 50.9609 297.584 45.8047 289.507 45.8047C281.43 45.8047 274.883 50.9609 274.883 57.3214C274.883 63.6819 281.43 68.8382 289.507 68.8382Z" fill="#85DCFF"/>
<path d="M265.438 71.5649C269.26 71.5649 272.359 69.3712 272.359 66.6653C272.359 63.9593 269.26 61.7656 265.438 61.7656C261.615 61.7656 258.516 63.9593 258.516 66.6653C258.516 69.3712 261.615 71.5649 265.438 71.5649Z" fill="#85DCFF"/>
<path d="M253.947 78.9423C256.053 78.9423 257.761 77.5631 257.761 75.8618C257.761 74.1605 256.053 72.7812 253.947 72.7812C251.84 72.7812 250.133 74.1605 250.133 75.8618C250.133 77.5631 251.84 78.9423 253.947 78.9423Z" fill="#85DCFF"/>
<path d="M11.3656 221.796C1.37308 213.783 -2.64923 199.243 1.80182 187.243C5.60851 176.97 15.3185 169.34 26.0596 167.62C26.167 166.617 26.3256 165.578 26.5354 164.502C28.1391 156.424 31.5257 148.806 36.4482 142.203C41.3707 135.6 47.7049 130.179 54.9889 126.336L55.6953 127.687C41.6581 135.022 31.0583 149.236 28.0323 164.782C27.8563 165.682 27.7176 166.557 27.616 167.399C28.9327 167.259 30.2578 167.211 31.5813 167.258C35.7225 167.399 39.036 168.447 41.4276 170.378C44.0447 172.495 45.9555 176.532 44.5354 180.16C43.6358 182.462 41.5391 184.046 38.7808 184.507C35.2516 185.097 31.4251 183.763 29.2566 181.221C26.7609 178.279 25.6482 174.239 25.9356 169.171C15.8712 170.906 6.81546 178.113 3.23925 187.759C-0.991229 199.159 2.83033 212.978 12.3272 220.591L11.3656 221.796ZM27.4747 168.96C27.1476 173.771 28.1314 177.555 30.4164 180.247C32.2504 182.408 35.5094 183.521 38.528 183.015C39.8291 182.799 42.1562 182.068 43.1153 179.617C44.2653 176.673 42.6544 173.345 40.466 171.578C38.3396 169.86 35.3309 168.923 31.5267 168.792C30.1721 168.747 28.816 168.804 27.4697 168.96H27.4747Z" fill="black"/>
<path d="M293.723 290.285C293.723 290.285 290.772 273.165 267.285 267.455C243.798 261.745 237.297 267.066 237.297 267.066L235.48 284.714L245.862 294.447L272.982 297.299C281.193 296.471 290.226 296.62 293.723 290.285Z" fill="black"/>
<path d="M259.74 240.809C259.74 240.809 268.692 225.163 270.29 219.396C272.694 210.722 280.157 213.201 280.36 220.846C280.36 220.846 284.077 214.712 287.639 216.385C291.619 218.259 290.313 224.474 290.313 224.474C290.313 224.474 294.129 218.42 297.71 219.694C301.292 220.968 300.57 227.773 300.57 227.773C300.57 227.773 308.082 225.092 310.499 230.207C312.915 235.322 301.557 262.093 296.603 270.923C293.054 277.245 279.549 300.472 279.549 300.472L238.137 282.665C238.137 282.665 249.093 262.41 248.712 256.051" fill="white"/>
<path d="M279.551 301.251C279.448 301.251 279.345 301.23 279.251 301.189L237.836 283.375C237.739 283.333 237.651 283.271 237.579 283.193C237.507 283.116 237.452 283.024 237.417 282.924C237.383 282.824 237.369 282.718 237.377 282.613C237.386 282.507 237.416 282.404 237.466 282.311C237.576 282.111 248.317 262.175 247.952 256.103C247.951 255.908 248.025 255.719 248.158 255.577C248.292 255.434 248.475 255.348 248.67 255.336C248.865 255.325 249.057 255.388 249.206 255.514C249.356 255.639 249.452 255.817 249.474 256.011C249.826 261.89 241.196 278.539 239.201 282.301L279.231 299.516C281.35 295.868 292.748 276.244 295.937 270.559C301.638 260.398 311.875 234.919 309.816 230.542C307.727 226.118 300.894 228.477 300.835 228.502C300.713 228.545 300.583 228.557 300.456 228.536C300.329 228.515 300.209 228.462 300.108 228.382C300.007 228.303 299.927 228.199 299.877 228.08C299.827 227.962 299.808 227.832 299.821 227.704C300.002 225.969 299.93 221.3 297.464 220.423C294.998 219.546 291.937 223.352 290.966 224.884C290.87 225.036 290.725 225.149 290.554 225.204C290.383 225.259 290.199 225.252 290.033 225.185C289.867 225.117 289.73 224.994 289.645 224.835C289.561 224.677 289.536 224.494 289.573 224.319C289.573 224.264 290.706 218.668 287.323 217.077C284.458 215.729 281.055 221.179 281.02 221.233C280.935 221.374 280.806 221.483 280.653 221.545C280.501 221.606 280.332 221.617 280.173 221.575C280.014 221.532 279.873 221.44 279.77 221.311C279.668 221.182 279.61 221.024 279.605 220.859C279.506 217.107 277.573 214.911 275.714 214.683C273.732 214.435 271.94 216.324 271.035 219.593C269.429 225.387 260.778 240.537 260.411 241.181C260.306 241.348 260.14 241.467 259.949 241.515C259.758 241.563 259.556 241.535 259.385 241.437C259.215 241.339 259.088 241.179 259.033 240.99C258.977 240.801 258.997 240.598 259.087 240.423C259.177 240.267 268.009 224.795 269.566 219.186C270.906 214.344 273.719 212.904 275.9 213.171C278.361 213.471 280.26 215.684 280.901 218.79C282.403 216.936 285.139 214.363 287.972 215.697C290.649 216.956 291.251 219.808 291.291 221.957C292.872 220.178 295.407 218.061 297.982 218.983C301.144 220.108 301.452 224.604 301.407 226.738C304.45 225.962 309.305 225.868 311.204 229.89C313.905 235.61 301.665 263.494 297.283 271.303C293.771 277.558 280.359 300.631 280.225 300.864C280.157 300.983 280.059 301.082 279.941 301.15C279.822 301.218 279.687 301.252 279.551 301.251Z" fill="black"/>
<path d="M280.362 220.844C280.362 220.844 276.828 232.645 273.227 238.484Z" fill="white"/>
<path d="M273.222 239.251C273.081 239.252 272.943 239.214 272.823 239.14C272.738 239.087 272.664 239.018 272.605 238.936C272.546 238.855 272.504 238.763 272.481 238.665C272.458 238.568 272.455 238.467 272.471 238.368C272.487 238.269 272.522 238.174 272.575 238.089C276.082 232.403 279.594 220.741 279.628 220.631C279.691 220.443 279.824 220.287 280 220.196C280.176 220.104 280.381 220.085 280.571 220.141C280.761 220.198 280.921 220.326 281.018 220.499C281.115 220.672 281.141 220.876 281.091 221.068C280.944 221.563 277.485 233.033 273.871 238.889C273.803 239 273.708 239.092 273.594 239.155C273.48 239.219 273.352 239.252 273.222 239.251Z" fill="black"/>
<path d="M290.314 224.484C288.652 230.318 286.141 235.874 282.859 240.975Z" fill="white"/>
<path d="M282.856 241.738C282.708 241.737 282.564 241.694 282.439 241.614C282.27 241.503 282.152 241.33 282.11 241.132C282.069 240.935 282.107 240.728 282.216 240.559C285.447 235.526 287.924 230.048 289.569 224.298C289.619 224.101 289.745 223.932 289.92 223.827C290.094 223.723 290.303 223.692 290.5 223.742C290.697 223.792 290.867 223.917 290.971 224.092C291.075 224.267 291.106 224.475 291.056 224.673C289.383 230.59 286.837 236.225 283.503 241.391C283.432 241.498 283.336 241.586 283.223 241.647C283.11 241.708 282.984 241.739 282.856 241.738Z" fill="black"/>
<path d="M300.572 227.781C300.572 227.781 298.269 236.929 293.727 243.548Z" fill="white"/>
<path d="M293.726 244.31C293.587 244.31 293.451 244.272 293.332 244.2C293.214 244.129 293.117 244.026 293.052 243.903C292.988 243.78 292.958 243.642 292.966 243.504C292.974 243.366 293.02 243.232 293.099 243.118C297.508 236.694 299.81 227.685 299.832 227.596C299.882 227.399 300.007 227.229 300.182 227.125C300.356 227.02 300.565 226.989 300.762 227.039C300.959 227.088 301.129 227.213 301.233 227.388C301.338 227.562 301.369 227.771 301.319 227.968C301.225 228.347 298.933 237.326 294.365 243.98C294.294 244.084 294.199 244.168 294.087 244.225C293.975 244.283 293.851 244.312 293.726 244.31Z" fill="black"/>
<path d="M137.648 256.086C146.694 256.086 155.611 258.228 163.671 262.335C171.731 266.442 178.704 272.398 184.02 279.717L211.797 322.368L237.324 267.07C236.285 288.48 279.886 300.807 293.738 290.289C293.738 290.289 252.35 377.734 213.688 377.734C167.968 377.734 145.358 325.575 145.358 325.575L137.648 256.086Z" fill="#000080"/>
<path d="M176.097 394.435C178.157 411.162 51.7601 426.839 49.7031 410.113L53.4206 256.103C83.5842 255.489 136.657 252.941 148.65 256.807C160.794 260.708 168.952 272.339 168.699 285.342L176.097 394.435Z" fill="#000080"/>
<path d="M175.158 381.443C174.966 381.443 174.78 381.37 174.639 381.238C174.498 381.107 174.413 380.926 174.4 380.734L167.927 285.396C167.915 285.293 167.924 285.189 167.954 285.09C167.984 284.992 168.033 284.9 168.099 284.821C168.166 284.742 168.247 284.677 168.339 284.63C168.431 284.583 168.531 284.555 168.634 284.549C168.737 284.542 168.841 284.556 168.938 284.59C169.035 284.624 169.125 284.678 169.201 284.747C169.277 284.817 169.338 284.901 169.38 284.995C169.423 285.089 169.446 285.191 169.448 285.294L175.919 380.637C175.933 380.839 175.866 381.038 175.733 381.19C175.6 381.343 175.412 381.436 175.21 381.45L175.158 381.443Z" fill="black"/>
<path d="M88.7344 319.224C88.7344 319.224 97.7778 304.988 99.3044 300.158C103.589 286.617 106.551 280.857 115.119 290.944C115.119 290.944 143.312 265.417 150.083 272.247C154.972 277.184 130.601 293.387 130.601 293.387C130.601 293.387 140.412 294.354 139.721 301.952C139.721 301.952 149.047 306.166 145.039 313.144C145.039 313.144 150.705 319.985 148.286 325.236C145.867 330.488 139.443 326.342 139.443 326.342L119.961 340.907L88.7344 319.224Z" fill="white"/>
<path d="M119.961 341.678C119.806 341.679 119.654 341.631 119.528 341.542L88.3008 319.849C88.1387 319.737 88.0264 319.566 87.9876 319.373C87.9487 319.18 87.9864 318.979 88.0926 318.813C88.1819 318.672 97.0989 304.607 98.5784 299.926C101.505 290.669 103.627 285.844 107.084 285.148C109.362 284.687 111.946 286.186 115.186 289.856C120.006 285.556 143.887 264.902 150.625 271.708C150.95 272.038 151.195 272.438 151.342 272.877C151.489 273.317 151.534 273.784 151.473 274.243C150.903 279.832 137.468 289.586 132.588 292.957C136.152 293.824 140.685 296.288 140.519 301.495C141.825 302.179 145.394 304.312 146.487 307.69C147.052 309.44 146.873 311.244 145.954 313.061C147.173 314.672 151.25 320.63 148.985 325.547C148.288 327.058 147.225 328.025 145.825 328.439C143.362 329.157 140.583 327.846 139.5 327.247L120.417 341.522C120.286 341.622 120.126 341.676 119.961 341.678ZM89.7705 319.014L119.946 339.975L138.987 325.727C139.112 325.635 139.262 325.583 139.418 325.578C139.573 325.573 139.726 325.614 139.857 325.698C139.887 325.718 142.99 327.68 145.399 326.979C146.368 326.697 147.084 326.022 147.595 324.915C149.783 320.166 144.507 313.695 144.452 313.628C144.354 313.509 144.294 313.362 144.281 313.207C144.268 313.053 144.303 312.898 144.38 312.763C145.287 311.182 145.505 309.636 145.032 308.164C143.917 304.719 139.451 302.667 139.406 302.647C139.262 302.581 139.142 302.472 139.062 302.336C138.982 302.199 138.947 302.041 138.96 301.884C139.575 295.133 130.896 294.181 130.534 294.144C130.378 294.128 130.231 294.064 130.112 293.961C129.994 293.858 129.91 293.721 129.872 293.569C129.834 293.417 129.844 293.257 129.9 293.11C129.957 292.964 130.057 292.838 130.187 292.751C135.52 289.205 149.468 278.939 149.964 274.087C150.003 273.852 149.986 273.611 149.914 273.384C149.842 273.157 149.718 272.95 149.55 272.781C144.415 267.596 123.329 284.54 115.637 291.507C115.561 291.575 115.473 291.628 115.376 291.662C115.28 291.695 115.178 291.709 115.077 291.703C114.974 291.695 114.875 291.668 114.783 291.622C114.692 291.576 114.611 291.512 114.544 291.435C111.503 287.851 109.161 286.285 107.394 286.642C104.42 287.239 102.224 293.482 100.041 300.384C98.6577 304.721 91.5474 316.186 89.7705 319.014Z" fill="black"/>
<path d="M130.602 293.387C130.602 293.387 125.698 292.765 121.207 295.122Z" fill="white"/>
<path d="M121.202 295.875C121.031 295.876 120.865 295.819 120.73 295.714C120.595 295.609 120.5 295.461 120.459 295.295C120.419 295.129 120.435 294.954 120.506 294.799C120.577 294.643 120.698 294.516 120.85 294.438C125.497 292.006 130.484 292.604 130.694 292.631C130.895 292.656 131.077 292.76 131.201 292.92C131.325 293.079 131.38 293.282 131.355 293.482C131.329 293.683 131.225 293.865 131.066 293.989C130.906 294.113 130.704 294.168 130.503 294.143C130.456 294.143 125.77 293.585 121.557 295.788C121.447 295.845 121.326 295.875 121.202 295.875Z" fill="black"/>
<path d="M139.719 301.955C139.719 301.955 133.157 301.818 128.527 304.029Z" fill="white"/>
<path d="M128.529 304.786C128.356 304.785 128.189 304.726 128.055 304.618C127.921 304.511 127.827 304.36 127.789 304.192C127.75 304.024 127.77 303.848 127.845 303.693C127.919 303.537 128.044 303.412 128.199 303.337C132.938 301.074 139.458 301.183 139.736 301.19C139.836 301.193 139.934 301.215 140.026 301.255C140.117 301.295 140.2 301.353 140.269 301.425C140.338 301.498 140.392 301.583 140.428 301.676C140.464 301.769 140.481 301.869 140.479 301.969C140.479 302.069 140.459 302.169 140.419 302.261C140.38 302.354 140.322 302.437 140.249 302.507C140.177 302.576 140.09 302.63 139.996 302.666C139.902 302.701 139.801 302.717 139.701 302.712C139.637 302.712 133.257 302.605 128.856 304.71C128.754 304.76 128.642 304.786 128.529 304.786Z" fill="black"/>
<path d="M145.036 313.149C145.036 313.149 138.543 311.91 133.086 313.841Z" fill="white"/>
<path d="M133.081 314.597C132.899 314.599 132.723 314.535 132.584 314.418C132.445 314.301 132.353 314.139 132.323 313.96C132.293 313.78 132.328 313.597 132.422 313.441C132.515 313.285 132.661 313.168 132.833 313.11C138.422 311.128 144.91 312.337 145.182 312.389C145.363 312.443 145.518 312.562 145.615 312.723C145.713 312.885 145.748 313.076 145.712 313.262C145.677 313.447 145.574 313.612 145.423 313.726C145.273 313.839 145.085 313.893 144.897 313.876C144.833 313.876 138.533 312.699 133.344 314.538C133.26 314.573 133.171 314.593 133.081 314.597Z" fill="black"/>
<path d="M53.4093 256.094C46.9781 256.956 33.615 259.202 22.2272 281.99C9.73401 306.991 -17.3589 387.013 22.2272 397.519C64.2693 408.671 125.424 345.781 125.424 345.781L88.7452 303.259L39.8951 345.781L65.8183 280.733L53.4093 256.094Z" fill="#000080"/>
<path d="M39.8958 346.545C39.7712 346.545 39.6485 346.514 39.5384 346.456C39.4283 346.398 39.3342 346.313 39.2643 346.21C39.1943 346.107 39.1507 345.988 39.1373 345.864C39.1238 345.74 39.1409 345.615 39.187 345.499L57.244 300.198C57.2811 300.105 57.3362 300.021 57.406 299.949C57.4758 299.877 57.5591 299.82 57.6511 299.781C57.743 299.741 57.8418 299.72 57.9418 299.719C58.0419 299.718 58.1412 299.736 58.2341 299.773C58.327 299.81 58.4117 299.865 58.4834 299.935C58.555 300.005 58.6122 300.088 58.6517 300.18C58.6911 300.272 58.7121 300.371 58.7134 300.471C58.7147 300.571 58.6963 300.67 58.6592 300.763L41.7719 343.142L88.223 302.684C88.2962 302.606 88.3851 302.544 88.4837 302.503C88.5824 302.461 88.6886 302.441 88.7956 302.444C88.9025 302.446 89.0078 302.471 89.1046 302.516C89.2014 302.562 89.2875 302.627 89.3573 302.708C89.4272 302.789 89.4792 302.884 89.5101 302.987C89.5409 303.089 89.5499 303.197 89.5364 303.303C89.5229 303.409 89.4873 303.511 89.4318 303.603C89.3763 303.694 89.3022 303.773 89.2143 303.834L40.4039 346.359C40.2627 346.481 40.0821 346.547 39.8958 346.545Z" fill="black"/>
<path d="M32.7091 399.589C29.1068 399.61 25.5171 399.162 22.0301 398.258C21.9324 398.232 21.8408 398.187 21.7605 398.126C21.6801 398.065 21.6126 397.989 21.5617 397.902C21.5108 397.814 21.4777 397.718 21.464 397.618C21.4504 397.518 21.4567 397.416 21.4824 397.319C21.5081 397.221 21.5528 397.129 21.6139 397.049C21.675 396.969 21.7514 396.901 21.8386 396.85C21.9258 396.799 22.0222 396.766 22.1222 396.753C22.2223 396.739 22.324 396.745 22.4217 396.771C61.579 407.18 118.501 351.613 124.384 345.735L88.1565 303.757C88.0819 303.683 88.0235 303.594 87.985 303.496C87.9464 303.398 87.9285 303.293 87.9324 303.188C87.9363 303.083 87.9619 302.98 88.0076 302.885C88.0534 302.79 88.1182 302.706 88.198 302.637C88.2779 302.569 88.3711 302.517 88.4717 302.487C88.5724 302.456 88.6783 302.446 88.7828 302.458C88.8874 302.47 88.9883 302.504 89.0793 302.557C89.1702 302.61 89.2493 302.681 89.3114 302.766L126.003 345.289C126.127 345.434 126.193 345.62 126.187 345.811C126.181 346.001 126.104 346.183 125.971 346.32C125.819 346.476 110.397 362.26 90.035 376.466C74.1144 387.561 52.3374 399.589 32.7091 399.589Z" fill="black"/>
<path d="M436.956 120.788L248.698 84.6516C245.918 84.1191 243.041 84.7123 240.698 86.3008C238.355 87.8892 236.739 90.3429 236.205 93.1225L212.636 216.002C212.103 218.782 212.696 221.66 214.285 224.003C215.873 226.346 218.327 227.962 221.107 228.495L409.363 264.627C412.143 265.16 415.02 264.567 417.363 262.979C419.706 261.39 421.322 258.936 421.856 256.156L445.439 133.281C445.703 131.904 445.693 130.488 445.409 129.114C445.126 127.741 444.574 126.437 443.787 125.277C442.999 124.116 441.99 123.123 440.818 122.353C439.646 121.582 438.334 121.051 436.956 120.788Z" fill="black"/>
<path d="M426.659 126.572L256.119 93.8435C253.736 93.3865 251.27 93.8945 249.262 95.2558C247.254 96.617 245.868 98.72 245.41 101.102L224.129 212C223.902 213.179 223.91 214.392 224.153 215.569C224.395 216.746 224.866 217.863 225.54 218.858C226.215 219.852 227.078 220.704 228.081 221.365C229.085 222.025 230.208 222.482 231.388 222.708L401.928 255.437C403.108 255.664 404.321 255.656 405.497 255.413C406.674 255.171 407.791 254.7 408.785 254.025C409.779 253.351 410.631 252.488 411.292 251.485C411.952 250.481 412.408 249.358 412.635 248.178L433.918 137.281C434.375 134.898 433.867 132.432 432.506 130.424C431.145 128.415 429.042 127.03 426.659 126.572Z" fill="white"/>
<path d="M285.975 177.512L288.057 166.665L266 162.432L267.735 153.388L297.688 123.648L306.362 125.314L299.799 159.515L306.491 160.798L304.756 169.879L298.064 168.595L295.983 179.44L285.975 177.512ZM289.799 157.584L293.336 139.163L277.41 155.205L289.799 157.584Z" fill="#000080"/>
<path d="M335.447 130.889C340.666 131.891 344.389 134.534 346.616 138.82C349.276 143.902 349.625 151.555 347.662 161.779C345.704 171.975 342.533 178.964 338.148 182.748C334.525 185.866 330.103 186.924 324.882 185.923C319.661 184.921 315.82 182.093 313.36 177.437C310.921 172.788 310.695 165.292 312.681 154.949C314.632 144.807 317.799 137.847 322.18 134.066C325.804 130.945 330.226 129.886 335.447 130.889ZM333.801 139.454C332.582 139.213 331.317 139.411 330.23 140.014C329.095 140.624 328.06 141.906 327.127 143.861C325.903 146.397 324.684 150.826 323.471 157.15C322.259 163.473 321.744 167.879 321.927 170.369C322.109 172.847 322.605 174.575 323.414 175.553C324.212 176.5 325.312 177.142 326.528 177.372C327.744 177.602 329.002 177.406 330.091 176.817C331.226 176.208 332.26 174.926 333.194 172.971C334.412 170.461 335.628 166.044 336.842 159.72C338.056 153.395 338.572 148.988 338.388 146.5C338.205 144.022 337.709 142.287 336.901 141.296C336.12 140.332 335.021 139.679 333.801 139.454Z" fill="#000080"/>
<path d="M369.733 193.59L371.815 182.743L349.758 178.51L351.493 169.466L381.446 139.727L390.12 141.392L383.56 175.593L390.251 176.876L388.516 185.957L381.825 184.673L379.743 195.521L369.733 193.59ZM373.557 173.662L377.094 155.241L361.165 171.285L373.557 173.662Z" fill="#000080"/>
<path d="M248.712 256.049C248.328 249.688 240.702 229.212 246.278 226.193C257.555 220.092 262.097 243.968 262.097 243.968" fill="white"/>
<path d="M248.71 256.812C248.516 256.811 248.33 256.737 248.189 256.604C248.048 256.471 247.963 256.289 247.952 256.095C247.84 254.259 247.094 251.159 246.217 247.57C243.986 238.358 241.481 227.917 245.905 225.513C248.309 224.212 250.613 224.073 252.794 225.104C259.838 228.447 262.708 243.196 262.834 243.815C262.864 243.917 262.873 244.024 262.859 244.13C262.846 244.235 262.81 244.337 262.755 244.428C262.7 244.518 262.626 244.597 262.539 244.657C262.452 244.718 262.353 244.76 262.248 244.78C262.144 244.8 262.036 244.798 261.933 244.774C261.829 244.75 261.732 244.704 261.647 244.64C261.562 244.576 261.491 244.495 261.44 244.402C261.388 244.309 261.357 244.206 261.347 244.1C261.32 243.957 258.495 229.493 252.15 226.479C250.415 225.659 248.621 225.783 246.641 226.854C243.248 228.69 245.932 239.83 247.709 247.203C248.589 250.861 249.352 254.023 249.471 255.994C249.477 256.094 249.463 256.194 249.431 256.289C249.398 256.384 249.347 256.471 249.28 256.546C249.214 256.621 249.133 256.682 249.043 256.726C248.953 256.77 248.855 256.796 248.755 256.802L248.71 256.812Z" fill="black"/>
<path d="M84.1016 255.737C84.1016 255.737 91.4027 223.519 85.7174 206.094L122.136 216.084L122.88 255.933C115.487 260.428 101.175 261.809 84.1016 255.737Z" fill="white"/>
<path d="M105.859 260.54C99.5644 260.54 92.1196 259.397 83.842 256.453C83.6649 256.392 83.5165 256.268 83.4251 256.104C83.3337 255.941 83.3056 255.749 83.3464 255.566C83.4182 255.246 90.5335 223.348 84.982 206.327C84.939 206.196 84.9322 206.056 84.9624 205.922C84.9927 205.788 85.0587 205.664 85.1536 205.564C85.2484 205.465 85.3685 205.393 85.5011 205.356C85.6337 205.319 85.7738 205.319 85.9064 205.355L122.338 215.348C122.496 215.392 122.637 215.486 122.737 215.616C122.838 215.745 122.895 215.905 122.898 216.069L123.641 255.915C123.644 256.049 123.612 256.18 123.547 256.297C123.483 256.414 123.389 256.511 123.274 256.58C119.604 258.81 113.602 260.54 105.859 260.54ZM84.9994 255.239C102.303 261.229 115.673 259.187 122.122 255.499L121.393 216.666L86.8556 207.192C91.443 223.603 85.9907 250.545 84.9994 255.239Z" fill="black"/>
<path d="M113.59 231.406C121.622 233.728 130.194 233.825 137.349 228.397C166.725 206.093 133.049 155.094 133.049 155.094L90.5759 158.05C90.5759 158.05 77.2302 177.877 76.8238 177.314C76.4173 176.752 87.141 216.444 87.141 216.444" fill="white"/>
<path d="M123.418 233.684C120.014 233.644 116.632 233.125 113.373 232.142C113.188 232.079 113.034 231.946 112.944 231.772C112.854 231.599 112.834 231.397 112.888 231.208C112.943 231.02 113.067 230.86 113.236 230.761C113.406 230.663 113.606 230.633 113.797 230.678C123.068 233.357 130.835 232.385 136.882 227.793C164.05 207.161 135.591 160.539 132.647 155.887L91.0013 158.789C81.8092 172.432 78.7906 176.427 77.6382 177.602C78.3123 180.68 84.0124 201.964 87.8786 216.249C87.9196 216.44 87.8857 216.64 87.7837 216.807C87.6818 216.974 87.5197 217.095 87.3308 217.146C87.1419 217.197 86.9407 217.173 86.7688 217.08C86.5968 216.987 86.4671 216.832 86.4065 216.646C86.4065 216.646 83.7696 206.888 81.1599 197.116C79.8563 192.229 78.5577 187.339 77.5986 183.664C75.8439 176.931 75.8439 176.931 76.4883 176.623C76.5173 176.612 76.5471 176.603 76.5775 176.596C77.8885 175.297 85.3879 164.4 89.9431 157.637C90.0079 157.541 90.0936 157.462 90.1935 157.404C90.2935 157.346 90.4053 157.311 90.5205 157.302L132.996 154.346C133.131 154.336 133.266 154.362 133.387 154.422C133.508 154.482 133.611 154.573 133.685 154.685C133.77 154.814 142.218 167.706 146.944 183.168C153.257 203.833 150.097 219.686 137.809 229.017C133.713 232.123 128.897 233.684 123.418 233.684Z" fill="black"/>
<path d="M89.1432 216.453C89.1432 216.453 89.7256 198.689 92.3006 202.057C92.3006 202.057 117.827 198.679 104.94 176.297C104.94 176.297 128.34 183.673 135.076 173.571L145.406 180.909C145.406 180.909 153.899 173.475 153.009 162.183C152.12 150.892 139.441 153.569 139.441 153.569C139.441 153.569 141.718 145.546 134.588 140C127.458 134.453 116.97 144.753 116.97 144.753C116.97 144.753 117.168 135.336 107.661 135.831C98.1543 136.327 80.1296 156.134 78.1494 172.758C78.1494 172.758 59.6339 173.123 57.6512 186.59C55.6686 200.057 72.0081 212.173 72.0081 212.173C72.0081 212.173 58.4567 224.069 87.0763 232.89L89.1432 216.453Z" fill="black"/>
<path d="M93.0844 199.772C93.0844 199.772 80.8688 190.315 76.8242 200.806C72.7796 211.297 82.1005 219.113 92.7102 217.163" fill="white"/>
<path d="M89.4443 218.23C84.7603 218.23 80.4778 216.418 77.7962 213.169C74.9189 209.7 74.3266 205.216 76.1283 200.53C77.199 197.754 78.9139 196.019 81.2312 195.372C86.6339 193.866 93.2857 198.949 93.5657 199.167C93.6511 199.226 93.7235 199.302 93.7785 199.39C93.8336 199.478 93.8701 199.576 93.8859 199.678C93.9017 199.781 93.8965 199.885 93.8705 199.986C93.8444 200.086 93.7982 200.18 93.7347 200.262C93.6711 200.344 93.5914 200.413 93.5006 200.463C93.4098 200.513 93.3097 200.544 93.2065 200.554C93.1032 200.564 92.999 200.553 92.9001 200.522C92.8012 200.491 92.7098 200.439 92.6314 200.371C92.5695 200.324 86.3068 195.539 81.6376 196.842C79.8136 197.353 78.4381 198.778 77.5509 201.078C75.9573 205.216 76.4604 209.162 78.9709 212.188C81.9449 215.786 87.1742 217.392 92.6017 216.401C92.7052 216.367 92.8149 216.355 92.9234 216.366C93.0318 216.378 93.1366 216.413 93.2305 216.468C93.3244 216.524 93.4053 216.599 93.4678 216.688C93.5303 216.778 93.5729 216.879 93.5927 216.987C93.6126 217.094 93.6092 217.204 93.5828 217.31C93.5565 217.416 93.5077 217.515 93.4399 217.6C93.372 217.686 93.2867 217.756 93.1895 217.805C93.0924 217.855 92.9858 217.883 92.8768 217.888C91.7455 218.106 90.5965 218.221 89.4443 218.23Z" fill="black"/>
<path d="M86.3619 202.391C85.6483 202.929 85.0838 203.641 84.7214 204.458C84.359 205.275 84.2107 206.172 84.2906 207.062C84.3704 207.952 84.6757 208.808 85.1777 209.548C85.6798 210.287 86.3619 210.887 87.1599 211.29" fill="white"/>
<path d="M87.1566 212.051C87.0379 212.05 86.9208 212.022 86.8146 211.969C85.9014 211.507 85.1209 210.82 84.5466 209.973C83.9723 209.126 83.623 208.146 83.5318 207.127C83.4406 206.107 83.6103 205.082 84.0251 204.146C84.4399 203.21 85.086 202.395 85.9026 201.778C86.064 201.657 86.267 201.604 86.4671 201.632C86.6672 201.661 86.8479 201.767 86.9695 201.928C87.0911 202.09 87.1436 202.293 87.1155 202.493C87.0874 202.693 86.981 202.874 86.8196 202.995C86.2097 203.456 85.7272 204.065 85.4175 204.764C85.1078 205.463 84.9811 206.229 85.0493 206.991C85.1174 207.752 85.3783 208.484 85.8072 209.117C86.2361 209.75 86.8191 210.263 87.5011 210.609C87.6553 210.685 87.779 210.812 87.852 210.968C87.925 211.123 87.943 211.3 87.903 211.467C87.863 211.634 87.7674 211.783 87.6319 211.889C87.4963 211.995 87.3288 212.052 87.1566 212.051Z" fill="black"/>
<path d="M141.662 187.617C140.592 187.101 139.386 186.94 138.218 187.156C137.095 187.366 136.081 187.96 135.348 188.836" fill="white"/>
<path d="M135.35 189.598C135.207 189.597 135.067 189.555 134.947 189.478C134.826 189.401 134.729 189.292 134.668 189.163C134.606 189.033 134.582 188.89 134.599 188.747C134.615 188.605 134.671 188.471 134.76 188.359C135.604 187.343 136.776 186.655 138.074 186.413C139.403 186.164 140.776 186.346 141.994 186.934C142.168 187.026 142.3 187.182 142.361 187.369C142.422 187.556 142.409 187.76 142.324 187.937C142.239 188.115 142.089 188.253 141.904 188.322C141.72 188.391 141.516 188.387 141.335 188.309C140.411 187.866 139.37 187.727 138.361 187.91C137.413 188.084 136.555 188.585 135.937 189.325C135.865 189.411 135.776 189.48 135.674 189.527C135.573 189.574 135.462 189.598 135.35 189.598Z" fill="black"/>
<path d="M137.528 193.85C137.811 195.615 139.037 196.889 140.272 196.69C141.506 196.492 142.272 194.901 141.989 193.134C141.706 191.367 140.477 190.096 139.245 190.294C138.014 190.492 137.243 192.083 137.528 193.85Z" fill="black"/>
<path d="M121.432 191.491C120.361 190.977 119.154 190.815 117.985 191.03C116.863 191.241 115.849 191.836 115.117 192.713" fill="white"/>
<path d="M115.118 193.474C114.975 193.474 114.834 193.433 114.713 193.356C114.592 193.279 114.495 193.17 114.433 193.04C114.372 192.911 114.348 192.767 114.365 192.624C114.382 192.482 114.438 192.347 114.529 192.235C115.372 191.22 116.544 190.531 117.842 190.287C119.171 190.039 120.545 190.223 121.763 190.81C121.937 190.903 122.068 191.059 122.129 191.246C122.191 191.433 122.177 191.636 122.092 191.814C122.007 191.991 121.857 192.129 121.673 192.198C121.488 192.268 121.284 192.263 121.104 192.186C120.179 191.743 119.138 191.603 118.13 191.784C117.181 191.96 116.324 192.462 115.706 193.202C115.634 193.288 115.544 193.356 115.442 193.404C115.341 193.451 115.23 193.475 115.118 193.474Z" fill="black"/>
<path d="M117.293 197.723C117.575 199.49 118.804 200.761 120.036 200.565C121.268 200.37 122.039 198.776 121.756 197.009C121.474 195.242 120.244 193.971 119.013 194.169C117.781 194.367 117.01 195.958 117.293 197.723Z" fill="black"/>
<path d="M119.271 220.838C119.187 220.837 119.103 220.823 119.023 220.796C118.928 220.763 118.841 220.712 118.766 220.646C118.69 220.58 118.629 220.5 118.585 220.409C118.541 220.319 118.515 220.222 118.509 220.122C118.503 220.022 118.517 219.921 118.55 219.827C119.132 218.126 120.639 217.1 121.799 216.528C125.531 214.709 130.337 215.331 133.484 218.04C133.62 218.176 133.699 218.358 133.706 218.55C133.713 218.742 133.648 218.93 133.522 219.076C133.397 219.221 133.222 219.315 133.031 219.337C132.84 219.359 132.648 219.308 132.493 219.195C131.118 218.049 129.446 217.319 127.671 217.089C125.897 216.86 124.094 217.14 122.473 217.898C121.571 218.34 120.408 219.115 119.995 220.322C119.942 220.473 119.845 220.603 119.715 220.696C119.585 220.788 119.43 220.838 119.271 220.838Z" fill="black"/>
<path d="M131.657 209.999C131.469 209.996 131.288 209.924 131.15 209.796C131.011 209.668 130.925 209.493 130.908 209.305C130.891 209.118 130.944 208.93 131.056 208.779C131.169 208.628 131.334 208.524 131.519 208.487C133.283 208.157 134.651 206.301 134.443 204.522C134.277 203.084 133.276 201.82 132.309 200.599C131.07 199.037 129.997 197.605 129.281 195.89C128.426 193.843 128.322 191.771 128.991 190.056C129.027 189.963 129.081 189.877 129.151 189.805C129.22 189.733 129.303 189.675 129.394 189.635C129.486 189.594 129.584 189.573 129.684 189.57C129.784 189.568 129.884 189.586 129.977 189.622C130.07 189.658 130.156 189.713 130.228 189.782C130.3 189.851 130.358 189.934 130.398 190.026C130.439 190.117 130.46 190.216 130.463 190.316C130.465 190.416 130.447 190.515 130.411 190.609C129.888 191.954 129.985 193.62 130.688 195.302C131.328 196.834 132.344 198.175 133.506 199.647C134.555 200.973 135.737 202.475 135.957 204.341C136.257 206.921 134.354 209.508 131.799 209.986C131.752 209.994 131.705 209.998 131.657 209.999Z" fill="black"/>
<path d="M122.882 240.977L135.348 256.055L122.882 275.569L110.406 259.609L122.882 240.977Z" fill="white"/>
<path d="M122.88 276.329C122.764 276.329 122.65 276.303 122.545 276.252C122.441 276.201 122.35 276.128 122.278 276.036L109.802 260.076C109.703 259.949 109.647 259.794 109.641 259.634C109.635 259.473 109.68 259.315 109.77 259.181L122.246 240.549C122.312 240.451 122.4 240.369 122.504 240.31C122.607 240.252 122.723 240.218 122.841 240.212C122.96 240.206 123.078 240.228 123.187 240.275C123.296 240.323 123.392 240.396 123.468 240.487L135.934 255.565C136.036 255.689 136.097 255.843 136.107 256.004C136.116 256.165 136.075 256.324 135.988 256.46L123.522 275.977C123.456 276.079 123.367 276.165 123.261 276.226C123.155 276.287 123.037 276.322 122.915 276.329H122.88ZM111.344 259.57L122.816 274.249L134.404 256.108L122.945 242.247L111.344 259.57Z" fill="black"/>
<path d="M110.406 259.604L101.062 279.069L78.0859 255.433L86.2644 243.547L110.406 259.604Z" fill="white"/>
<path d="M101.061 279.836C100.959 279.837 100.858 279.817 100.764 279.776C100.67 279.736 100.586 279.677 100.516 279.603L77.5394 255.97C77.4169 255.843 77.3419 255.678 77.327 255.503C77.3121 255.327 77.3582 255.152 77.4576 255.006L85.636 243.11C85.7499 242.946 85.9239 242.832 86.1204 242.795C86.3169 242.757 86.5203 242.798 86.6868 242.909L110.826 258.966C110.978 259.068 111.089 259.222 111.137 259.399C111.186 259.576 111.168 259.765 111.088 259.93L101.748 279.395C101.694 279.506 101.615 279.602 101.516 279.676C101.418 279.749 101.304 279.798 101.183 279.819C101.142 279.827 101.102 279.833 101.061 279.836ZM79.0685 255.355L100.848 277.759L109.43 259.876L86.4688 244.602L79.0685 255.355Z" fill="black"/>
<path d="M220.02 142.943C221.225 138.718 217.733 134.018 212.219 132.446C206.705 130.873 201.258 133.023 200.053 137.248C198.848 141.473 202.341 146.173 207.855 147.746C213.368 149.319 218.815 147.169 220.02 142.943Z" fill="#85DCFF"/>
<path d="M181.087 148.049C194.771 148.049 205.865 139.344 205.865 128.606C205.865 117.869 194.771 109.164 181.087 109.164C167.402 109.164 156.309 117.869 156.309 128.606C156.309 139.344 167.402 148.049 181.087 148.049Z" fill="#85DCFF"/>
<path d="M192.068 103.295C194.929 90.8295 185.299 77.981 170.558 74.5967C155.817 71.2125 141.547 78.574 138.686 91.0392C135.824 103.504 145.454 116.353 160.195 119.737C174.936 123.121 189.206 115.76 192.068 103.295Z" fill="#85DCFF"/>
<path d="M211.229 80.2535C219.581 65.7873 212.484 46.0535 195.377 36.1767C178.27 26.2999 157.631 30.0203 149.279 44.4864C140.927 58.9526 148.024 78.6864 165.131 88.5632C182.239 98.44 202.877 94.7196 211.229 80.2535Z" fill="#85DCFF"/>
<path d="M259.28 41.3776C261.813 21.6836 244.986 3.28985 221.696 0.293918C198.406 -2.70201 177.472 10.8344 174.939 30.5284C172.405 50.2224 189.232 68.6162 212.522 71.6121C235.812 74.608 256.746 61.0716 259.28 41.3776Z" fill="#85DCFF"/>
<path d="M435.396 339.029L345.339 292.084C335.567 286.999 335.163 273.163 344.615 267.507L427.832 217.678C436.843 212.29 448.38 218.295 449.126 228.778L455.963 325.542C456.749 336.528 445.168 344.129 435.396 339.029Z" fill="#FFDE59"/>
<path d="M433.97 250.802C433.974 252.651 433.377 254.452 432.27 255.934L409.504 285.758C408.65 286.912 407.388 287.697 405.976 287.955C404.563 288.212 403.106 287.921 401.9 287.142C400.694 286.363 399.83 285.154 399.483 283.761C399.137 282.368 399.334 280.895 400.034 279.642L417.829 246.611C418.756 244.942 420.211 243.628 421.965 242.876C423.72 242.124 425.674 241.976 427.522 242.456C429.37 242.936 431.006 244.016 432.173 245.526C433.34 247.037 433.972 248.893 433.97 250.802Z" fill="black"/>
<path d="M402.223 300.882C401.395 302.167 400.204 303.177 398.802 303.786C397.399 304.394 395.848 304.572 394.344 304.299C392.84 304.025 391.451 303.311 390.352 302.248C389.254 301.185 388.496 299.819 388.174 298.325C387.851 296.831 387.98 295.274 388.542 293.853C389.105 292.431 390.076 291.209 391.334 290.34C392.591 289.47 394.078 288.994 395.607 288.97C397.135 288.946 398.636 289.376 399.921 290.205C401.641 291.316 402.85 293.065 403.282 295.067C403.714 297.069 403.333 299.161 402.223 300.882Z" fill="black"/>
<path d="M323.547 325.516L351.782 389.736L305.438 394.321L323.547 325.516Z" fill="#FFDE59"/>
<path d="M330.852 327.273L362.083 342.85L350.326 352.907L330.852 327.273Z" fill="#D4E8E8"/>
<path d="M287.811 376.594L292.269 350.805L269.875 365.139L287.811 376.594Z" fill="white"/>
<path d="M287.812 377.361C287.667 377.361 287.524 377.32 287.401 377.242L269.465 365.79C269.357 365.721 269.269 365.625 269.207 365.513C269.146 365.401 269.113 365.275 269.113 365.146C269.113 365.018 269.146 364.892 269.207 364.78C269.269 364.667 269.357 364.572 269.465 364.503L291.86 350.169C291.984 350.088 292.129 350.046 292.277 350.047C292.425 350.048 292.57 350.092 292.693 350.174C292.816 350.255 292.913 350.371 292.972 350.508C293.03 350.644 293.047 350.794 293.022 350.939L288.561 376.729C288.539 376.853 288.487 376.969 288.41 377.068C288.333 377.167 288.232 377.245 288.117 377.296C288.021 377.339 287.917 377.361 287.812 377.361ZM271.292 365.145L287.257 375.338L291.223 352.384L271.292 365.145Z" fill="black"/>
<path d="M364.487 217.361L363.011 225.101L358.062 224.157L362.297 201.953L370.1 203.441C375.143 204.403 377.761 207.401 376.944 211.683L376.732 212.793C376.2 215.584 374.397 217.279 371.914 217.89L374.969 227.381L369.355 226.311L366.993 217.839L364.487 217.361ZM368.897 207.683L366.422 207.211L365.309 213.047L367.784 213.519C370.099 213.961 371.403 213.157 371.699 211.603L371.826 210.937C372.129 209.351 371.212 208.124 368.897 207.683Z" fill="#000080"/>
<path d="M341.787 221.379C336.268 220.327 333.264 216.598 334.317 211.079L335.4 205.401C336.452 199.882 340.623 197.488 346.143 198.541C351.694 199.6 354.691 203.36 353.639 208.879L352.556 214.557C351.503 220.076 347.338 222.438 341.787 221.379ZM345.32 202.855C342.592 202.335 340.953 203.863 340.432 206.591L339.434 211.825C338.92 214.521 339.882 216.545 342.61 217.065C345.369 217.592 347.009 216.063 347.523 213.367L348.521 208.133C349.041 205.405 348.08 203.381 345.32 202.855Z" fill="#000080"/>
<path d="M317.424 208.385L315.948 216.124L311 215.18L315.234 192.977L323.037 194.465C328.081 195.427 330.698 198.424 329.881 202.706L329.67 203.816C329.137 206.608 327.335 208.302 324.851 208.913L327.906 218.405L322.292 217.334L319.93 208.862L317.424 208.385ZM321.834 198.706L319.36 198.234L318.247 204.071L320.721 204.542C323.037 204.984 324.34 204.181 324.637 202.627L324.764 201.96C325.066 200.374 324.15 199.148 321.834 198.706Z" fill="#000080"/>
<path d="M294.823 204.072L293.347 211.812L288.398 210.868L292.633 188.664L300.436 190.152C305.479 191.114 308.096 194.112 307.28 198.394L307.068 199.504C306.536 202.295 304.733 203.99 302.25 204.601L305.305 214.092L299.69 213.022L297.328 204.55L294.823 204.072ZM299.233 194.394L296.758 193.922L295.645 199.758L298.119 200.23C300.435 200.672 301.739 199.868 302.035 198.314L302.162 197.648C302.465 196.062 301.548 194.835 299.233 194.394Z" fill="#000080"/>
<path d="M266.816 206.751L271.051 184.547L285.801 187.36L284.978 191.674L275.176 189.804L274.36 194.087L282.575 195.653L281.752 199.967L273.537 198.401L272.587 203.381L282.389 205.25L281.566 209.564L266.816 206.751Z" fill="#000080"/>
</g>
<defs>
<clipPath id="clip0_805_6000">
<rect width="456" height="417" fill="white"/>
</clipPath>
</defs>
</svg>
