<?xml version="1.0" encoding="utf-8"?>
<!-- Generator: Adobe Illustrator 25.4.1, SVG Export Plug-In . SVG Version: 6.00 Build 0)  -->
<svg version="1.1" id="Layer_1" xmlns="http://www.w3.org/2000/svg" xmlns:xlink="http://www.w3.org/1999/xlink" x="0px" y="0px"
	 viewBox="0 0 1284 356" style="enable-background:new 0 0 1284 356;" xml:space="preserve">
<style type="text/css">
	.st0{fill:#000080;}
	.st1{clip-path:url(#SVGID_00000066488490934729563590000016697202580368476553_);fill:#000080;}
	.st2{clip-path:url(#SVGID_00000066488490934729563590000016697202580368476553_);fill:#5257A7;}
	.st3{clip-path:url(#SVGID_00000066488490934729563590000016697202580368476553_);fill:#FFFFFF;}
	.st4{clip-path:url(#SVGID_00000066488490934729563590000016697202580368476553_);fill:#E6907A;}
	.st5{clip-path:url(#SVGID_00000066488490934729563590000016697202580368476553_);fill:#CE6F5D;}
	.st6{clip-path:url(#SVGID_00000066488490934729563590000016697202580368476553_);fill:#22201A;}
	.st7{clip-path:url(#SVGID_00000066488490934729563590000016697202580368476553_);fill:#E49723;}
	
		.st8{clip-path:url(#SVGID_00000066488490934729563590000016697202580368476553_);fill:none;stroke:#B0200C;stroke-width:1.07;stroke-linecap:round;stroke-miterlimit:10;}
	
		.st9{clip-path:url(#SVGID_00000066488490934729563590000016697202580368476553_);fill:none;stroke:#3B3A42;stroke-width:1.07;stroke-miterlimit:10;}
	.st10{clip-path:url(#SVGID_00000066488490934729563590000016697202580368476553_);fill:#954F1C;}
	.st11{clip-path:url(#SVGID_00000066488490934729563590000016697202580368476553_);fill:#762F0B;}
	.st12{clip-path:url(#SVGID_00000066488490934729563590000016697202580368476553_);fill:#56545E;}
	
		.st13{clip-path:url(#SVGID_00000066488490934729563590000016697202580368476553_);fill:none;stroke:#22201A;stroke-width:0.78;stroke-miterlimit:10;}
	
		.st14{clip-path:url(#SVGID_00000066488490934729563590000016697202580368476553_);fill:#FFFFFF;filter:url(#Adobe_OpacityMaskFilter);}
	
		.st15{clip-path:url(#SVGID_00000066488490934729563590000016697202580368476553_);mask:url(#mask1_884_4313_00000003067903901683939500000002044105102956090769_);}
	.st16{fill:none;stroke:#000000;stroke-miterlimit:10;}
	.st17{clip-path:url(#SVGID_00000066488490934729563590000016697202580368476553_);fill:#FFFFFF;stroke:#000000;}
	.st18{clip-path:url(#SVGID_00000066488490934729563590000016697202580368476553_);fill:#E5E2DF;stroke:#000000;}
	.st19{clip-path:url(#SVGID_00000066488490934729563590000016697202580368476553_);fill:#FFDE59;}
	.st20{clip-path:url(#SVGID_00000066488490934729563590000016697202580368476553_);}
	
		.st21{clip-path:url(#SVGID_00000066488490934729563590000016697202580368476553_);fill:none;stroke:#B7B6B6;stroke-width:4.2;stroke-miterlimit:10;}
	.st22{clip-path:url(#SVGID_00000066488490934729563590000016697202580368476553_);fill:#F4AA4A;}
	.st23{clip-path:url(#SVGID_00000066488490934729563590000016697202580368476553_);fill:#DD4A2B;}
	.st24{clip-path:url(#SVGID_00000066488490934729563590000016697202580368476553_);fill:#D3AF81;}
	.st25{clip-path:url(#SVGID_00000066488490934729563590000016697202580368476553_);fill:none;stroke:#255123;stroke-opacity:0.5;}
	.st26{clip-path:url(#SVGID_00000066488490934729563590000016697202580368476553_);fill:#4669DD;}
	.st27{clip-path:url(#SVGID_00000066488490934729563590000016697202580368476553_);fill:#6F9AFB;}
	
		.st28{clip-path:url(#SVGID_00000066488490934729563590000016697202580368476553_);fill:#FFFFFF;filter:url(#Adobe_OpacityMaskFilter_00000069373708230940811440000005966463752025514658_);}
	
		.st29{clip-path:url(#SVGID_00000066488490934729563590000016697202580368476553_);mask:url(#path-86-inside-1_884_4313_00000055698937491341670940000003297464250844197816_);fill:#255123;fill-opacity:0.5;}
	
		.st30{clip-path:url(#SVGID_00000066488490934729563590000016697202580368476553_);fill:#FFFFFF;filter:url(#Adobe_OpacityMaskFilter_00000000902416201699743250000017300707861864315779_);}
	
		.st31{clip-path:url(#SVGID_00000066488490934729563590000016697202580368476553_);mask:url(#path-94-inside-2_884_4313_00000139983090843018573910000011337167005509565364_);fill:#FFFFFF;stroke:#255123;stroke-width:2;stroke-opacity:0.5;}
	
		.st32{clip-path:url(#SVGID_00000066488490934729563590000016697202580368476553_);fill:#FFFFFF;filter:url(#Adobe_OpacityMaskFilter_00000171684974367581302540000007441770004167665340_);}
	
		.st33{clip-path:url(#SVGID_00000066488490934729563590000016697202580368476553_);mask:url(#path-95-inside-3_884_4313_00000003812160242220266330000004049368827943377314_);fill:#FFFFFF;stroke:#255123;stroke-width:2;stroke-opacity:0.5;}
	
		.st34{clip-path:url(#SVGID_00000066488490934729563590000016697202580368476553_);fill:#FFFFFF;filter:url(#Adobe_OpacityMaskFilter_00000163760221413999259460000015349410626816276107_);}
	
		.st35{clip-path:url(#SVGID_00000066488490934729563590000016697202580368476553_);mask:url(#path-98-inside-4_884_4313_00000025406024706183867970000009845832115750428599_);fill:#FFFFFF;stroke:#255123;stroke-width:2;stroke-opacity:0.5;}
	
		.st36{clip-path:url(#SVGID_00000066488490934729563590000016697202580368476553_);fill:#FFFFFF;filter:url(#Adobe_OpacityMaskFilter_00000085929862267152548710000017163551812016505738_);}
	
		.st37{clip-path:url(#SVGID_00000066488490934729563590000016697202580368476553_);mask:url(#path-99-inside-5_884_4313_00000020382415937237844320000013447305195713479822_);fill:#FFFFFF;stroke:#255123;stroke-width:2;stroke-opacity:0.5;}
	.st38{clip-path:url(#SVGID_00000026884697736696818810000008988371556783110797_);}
	.st39{clip-path:url(#SVGID_00000121972736822831408990000016562467037414867114_);}
	.st40{fill:#FFDE59;}
	.st41{fill:#F9F9F9;}
	.st42{fill:#FFFFFF;}
	.st43{fill:url(#SVGID_00000142886413409706778430000004668173072820350873_);}
	.st44{fill:url(#SVGID_00000023273958145011410570000007287621504307259030_);}
	.st45{fill:url(#SVGID_00000116913989283027543790000005065684559717248169_);}
	.st46{fill:url(#SVGID_00000165932335007400088770000012419774463701527438_);}
	.st47{fill:url(#SVGID_00000035517947598216452810000011424676430955231622_);}
	.st48{fill:url(#SVGID_00000147922309893854992740000011696502136616869009_);}
	.st49{fill:url(#SVGID_00000036244352155885109560000010635104879881118398_);}
	.st50{fill:url(#SVGID_00000128460775754386668740000006342046718457805997_);}
	.st51{fill:url(#SVGID_00000019644153352092195000000010407249706249160325_);}
	.st52{fill:url(#SVGID_00000077284829176571197690000016765069835462815915_);}
	.st53{fill:#B1B1E5;}
	.st54{fill:#EAF2F4;}
	.st55{fill:url(#SVGID_00000173844849090119966410000016478709300017375649_);}
	.st56{fill:url(#SVGID_00000172405874459544076760000014436485113779757231_);}
	.st57{fill:url(#SVGID_00000170960606753980623860000010180759836570917771_);}
	.st58{fill:url(#SVGID_00000130627725928762235530000003294391132436323205_);}
	.st59{fill:url(#SVGID_00000010995215989762586510000007282119442742279566_);}
	.st60{fill:url(#SVGID_00000080194820673367100030000015504500499003731088_);}
	.st61{fill:#C0C0FC;}
	.st62{fill:#022C30;}
	.st63{fill:#EAEAEA;}
	.st64{fill:url(#SVGID_00000156583788495429870860000003967095450436682380_);}
	.st65{fill:url(#SVGID_00000146478958010122907850000016011363535408677535_);}
	.st66{opacity:0.35;fill:#F4A664;}
	.st67{fill:url(#SVGID_00000145737974114095624610000002422775112623214499_);}
	.st68{fill:#F2E4E7;}
	.st69{fill:#CE6155;}
	.st70{fill:#8C3F3A;}
	.st71{fill:#5FAD9F;}
	.st72{fill:#F14D9F;}
	.st73{fill:#FFB25F;}
	.st74{fill:#E87764;}
	.st75{fill:#FFF7FF;}
	.st76{fill:#75CBB8;}
	.st77{fill:#42171E;}
	.st78{fill:#702A30;}
	.st79{fill:#7F3034;}
	.st80{opacity:0.55;}
	.st81{fill:#D3D9E5;}
	.st82{fill:#8E3B51;}
	.st83{fill:#9D4257;}
	.st84{fill:#843331;}
	.st85{fill:#396F65;}
	.st86{fill:#2C1856;}
	.st87{fill:#B0B0FF;}
	.st88{fill:#10365B;}
	.st89{fill:#094784;}
	.st90{fill:#116FD7;}
	.st91{opacity:0.18;}
	.st92{opacity:0.25;}
	.st93{fill:#662C30;}
	.st94{fill:#A54849;}
	.st95{fill:#ADADE0;}
	.st96{fill:#0F66D4;}
	.st97{fill:#B75653;}
	.st98{fill:#D36559;}
	.st99{fill:#E3EAFF;}
	.st100{fill:#F37A50;}
	.st101{fill:#DE623C;}
	.st102{fill:#201D40;}
	.st103{fill:#748DDB;}
	.st104{fill:#89A2F0;}
	.st105{fill:#E62552;}
	.st106{fill:#C4204A;}
	.st107{fill:#2C2858;}
	.st108{fill:#95A6DB;}
	.st109{fill:#494C7F;}
	.st110{fill:#070635;}
	.st111{fill:#F5A3B7;}
	.st112{fill:#7890DB;}
	.st113{fill:#3F964F;}
	.st114{fill:#768FDB;}
	.st115{fill:#0E6A41;}
	.st116{fill:#FF4F78;}
	.st117{clip-path:url(#SVGID_00000060015724441838454500000008634621391150171285_);}
	.st118{clip-path:url(#SVGID_00000078733323135155717630000006036609888988884121_);}
	.st119{clip-path:url(#SVGID_00000070828559544344819170000008118852573432325045_);}
	.st120{fill:none;stroke:#FFFFFF;stroke-width:2;stroke-linecap:round;stroke-miterlimit:10;}
	.st121{clip-path:url(#SVGID_00000119089961774341296850000000862371092673426621_);fill:#000080;}
	.st122{clip-path:url(#SVGID_00000119089961774341296850000000862371092673426621_);fill:#C0C0FC;}
	.st123{clip-path:url(#SVGID_00000119089961774341296850000000862371092673426621_);}
	.st124{clip-path:url(#SVGID_00000166672202534856946110000014099672437828677302_);}
	.st125{clip-path:url(#SVGID_00000080172576524476084940000005808164934006052532_);}
	.st126{clip-path:url(#SVGID_00000168110554528662643030000012794687395666794112_);}
	.st127{clip-path:url(#SVGID_00000119089961774341296850000000862371092673426621_);fill:none;}
	.st128{fill:#653A24;}
	.st129{fill:#7A8091;}
	.st130{fill:#EBF0FA;}
	.st131{fill:url(#SVGID_00000021079115314496629300000017378364508376293014_);}
	.st132{fill:#D6E4EE;}
	.st133{fill:#7B472D;}
	.st134{clip-path:url(#SVGID_00000137818306700138949200000007267590370040956815_);fill:#D6E4EE;}
	.st135{clip-path:url(#SVGID_00000047056821246705201050000009971141224387884190_);}
	.st136{clip-path:url(#SVGID_00000011019700475434301600000015339628883996625025_);}
	.st137{clip-path:url(#SVGID_00000121240753746438315600000016335650229816325308_);fill:#D6E4EE;}
	.st138{clip-path:url(#SVGID_00000179623764746047054400000009310233036493381537_);}
	.st139{fill:#111214;}
	.st140{clip-path:url(#SVGID_00000119089961774341296850000000862371092673426621_);fill:#EBF0FA;}
	.st141{clip-path:url(#SVGID_00000068635064473229501230000000629513186453285282_);fill:#EBF0FA;}
	.st142{clip-path:url(#SVGID_00000161598212940172810390000016197608956008118696_);fill:#EBF0FA;}
	.st143{clip-path:url(#SVGID_00000180326586787646881260000001842229757639522184_);fill:#EBF0FA;}
	.st144{clip-path:url(#SVGID_00000056387679385379768340000017166614057075099838_);}
	.st145{fill:url(#SVGID_00000143578202180789754820000006382307082707367588_);}
	.st146{fill:url(#SVGID_00000165217570336682165660000007378372004804761477_);}
	.st147{fill:#717687;}
	.st148{fill:url(#SVGID_00000054248076384542342440000005183466157248689590_);}
	.st149{fill:url(#SVGID_00000016770348090015933320000017248519018609923773_);}
	.st150{fill:url(#SVGID_00000002364237779765629140000002269302830119143301_);}
	.st151{fill:url(#SVGID_00000026154256441305586090000013677698843328373915_);}
	.st152{clip-path:url(#SVGID_00000161597539162512484360000016227682741956851338_);}
	.st153{fill:none;stroke:#93A5F9;stroke-miterlimit:10;}
	.st154{fill:#FFDAC5;}
	.st155{fill:#E2405B;}
	.st156{fill:none;stroke:#AA3047;stroke-width:0.75;stroke-miterlimit:10;}
	.st157{fill:#423EAC;}
	.st158{fill:none;stroke:#6E75F4;stroke-width:0.75;stroke-miterlimit:10;}
	.st159{fill:#FF6675;}
	.st160{fill:none;stroke:#C93F53;stroke-width:0.75;stroke-miterlimit:10;}
	.st161{fill:#93A5F9;}
	.st162{fill:none;stroke:#F2A486;stroke-width:0.75;stroke-linejoin:round;stroke-miterlimit:10;}
	.st163{fill:none;stroke:#1D4893;stroke-width:0.75;stroke-miterlimit:10;}
	.st164{fill:#282872;}
	.st165{fill:#00276F;}
	.st166{fill:none;stroke:#00276F;stroke-width:0.5;stroke-linecap:round;stroke-linejoin:round;stroke-miterlimit:10;}
	.st167{fill:none;stroke:#3D4FB7;stroke-miterlimit:10;}
	.st168{fill:#E8EEFE;}
	.st169{fill:#CDDBFC;}
	.st170{fill:#212237;}
	.st171{fill:#3B4DC6;}
	.st172{fill:none;stroke:#E8EEFE;stroke-width:0.75;stroke-miterlimit:10;}
	.st173{fill:#F2A486;}
	.st174{fill:#2D2E35;}
	.st175{fill:#222222;}
	.st176{fill:#313131;}
	.st177{fill:none;stroke:#515151;stroke-width:0.75;stroke-miterlimit:10;}
	.st178{fill:#212121;}
	.st179{fill:none;stroke:#313131;stroke-miterlimit:10;}
	.st180{fill:none;stroke:#212237;stroke-width:0.5;stroke-miterlimit:10;}
	.st181{fill:#C9CED6;}
	.st182{fill:#E8EAEF;}
	.st183{fill:#CFDAE5;}
	.st184{fill:none;stroke:#7289F7;stroke-miterlimit:10;}
	.st185{fill:none;stroke:#3F71EF;stroke-miterlimit:10;}
	.st186{fill:#3D4FB7;}
	.st187{fill:#F2F9FF;}
	.st188{fill:none;stroke:#CDDBFC;stroke-miterlimit:10;}
	.st189{fill:#FFFFFF;stroke:#CDDBFC;stroke-miterlimit:10;}
	.st190{fill:#F0F2FC;}
	.st191{fill:#E1E5F9;}
	.st192{fill:url(#SVGID_00000060016435991862000540000006845355366966638489_);}
	.st193{fill:none;stroke:#CDDBFC;stroke-width:0.5;stroke-miterlimit:10;}
	.st194{fill:#EEEDF2;}
	.st195{fill:#E8EBF9;}
	.st196{fill:none;stroke:url(#SVGID_00000178890128760540381520000000359102640163003304_);stroke-miterlimit:10;}
	.st197{fill:none;stroke:url(#SVGID_00000148659361911179268980000008598375528549662853_);stroke-miterlimit:10;}
	.st198{fill:none;stroke:url(#SVGID_00000129921564903289121360000002838485304374239408_);stroke-miterlimit:10;}
	.st199{fill:url(#SVGID_00000124856553875179868220000013215927019629172920_);}
	.st200{fill:url(#SVGID_00000150072134807477847520000008854326550607568784_);}
	.st201{fill:none;stroke:url(#SVGID_00000093158787787080999150000008957044349503131828_);stroke-miterlimit:10;}
	.st202{fill:url(#SVGID_00000159434071721527207000000007532922210043462320_);}
	.st203{fill:#FFA992;}
	.st204{fill:none;}
	.st205{fill:#06009E;}
	.st206{fill:#6C90FE;}
	.st207{fill:#122A36;}
	.st208{fill:#DB553C;}
	.st209{fill:#EC7162;}
	.st210{fill:#DEE7FF;}
	.st211{fill:#6576EA;}
	.st212{fill:none;stroke:#3B4EA8;stroke-width:0.75;stroke-miterlimit:10;}
	.st213{fill:none;stroke:#CDDBFC;stroke-width:0.75;stroke-miterlimit:10;}
	.st214{fill:#E7ECFE;}
</style>
<g>
	<defs>
		<rect id="SVGID_00000005966603900981041500000014646939867692218558_" y="1" width="1284" height="355"/>
	</defs>
	<clipPath id="SVGID_00000168830730206994787200000013945872067993534388_">
		<use xlink:href="#SVGID_00000005966603900981041500000014646939867692218558_"  style="overflow:visible;"/>
	</clipPath>
	<g style="clip-path:url(#SVGID_00000168830730206994787200000013945872067993534388_);">
		<path class="st157" d="M140.8,270.8c0,0-4.1,14.1-0.6,38.5c1.8,15.3,6,125.9,6,125.9h33.9c0,0-3.3-117.3-8.9-169.7"/>
		<path class="st157" d="M106.8,270.8c0,0-4.1,14.1-0.6,38.5c1.8,15.3,0,125.9,0,125.9h37.9c0,0,4.2-125.6,2.8-169.7"/>
		<path class="st158" d="M112.8,270.8c0,0-4.1,14.1-0.6,38.5c1.8,15.3,0,125.9,0,125.9"/>
		<path class="st158" d="M144.9,409c1.1-39.3,3-112,2-143.4"/>
		<path class="st158" d="M111.3,279.6c0,0,11-1.6,14.7-11.1"/>
		<path class="st158" d="M147.2,285.3c0,0,2.7-0.2,3.2-1c0.4-0.8,0-16.9,0-16.9"/>
		<path class="st158" d="M162,268.6c0,0,1.7,11.1,10.6,11.1"/>
		<path class="st161" d="M164.5,197.3c5.2,15.1,8.4,56.9,8.7,73.5h-67c0,0-3-47.4,4.1-72.6l19.8-17.6l16.3,0.8L164.5,197.3z"/>
		<path class="st154" d="M98.4,214.5c0,0,0.5,35.9,12,35.9c13.1,0,44.3-21,44.3-21l3.4,0.1l-0.4-9.3c0,0-2.4-0.9-7.4-0.6
			c-5,0.3-26.8,6.2-26.8,6.2l-0.8-16"/>
		<path class="st154" d="M176.8,208.2c0,0,6.8,39.4-5.6,40.3c-20.2,1.5-49.1-12.7-49.1-12.7l5-7.3l31,1.1l-1.1-22.9"/>
		<path class="st162" d="M135.2,240.9l19.4-11.5l3.4,0.1l-0.6-12.7"/>
		<path class="st161" d="M130.1,180.7c0,0-22-1.4-29.6,12.3c-6.3,11.5-2.1,31.1-2.1,31.1l25.7-3.6l-0.1-20.2"/>
		<path class="st161" d="M146.5,181.5c0,0,15-0.9,23.1,7.4c8,8.3,8.8,28,8.8,28h-23.7l-1.3-17.7"/>
		<path class="st163" d="M124.2,216.6l-26.4,3.1"/>
		<path class="st163" d="M156.3,212.9l21.7-0.3"/>
		<path class="st163" d="M124.2,220.5l-0.1-16.9"/>
		<path class="st163" d="M155,202.4l1.8,14.5"/>
		<path class="st154" d="M154.4,151.3c0,0,1.7,16.7-3.4,21.9c-2.6,2.7-9.2,2.1-12.3-0.7c-2.3-2-5.5-14-4.1-16.2
			C140,148.1,154.4,151.3,154.4,151.3z"/>
		<path class="st154" d="M131,170.3l-1.8,10.4c0,0,9.4,7.7,17.3,0.8l0.7-10.9l-8.1-4.2L131,170.3z"/>
		<path class="st164" d="M156.1,151.1c-0.9-2.2-2.8-3.8-7-4.2c-8.4-5.4-18.6-0.5-20.1,8.9c-0.7,4.3-0.3,8.4,1.1,12.3
			c0.5,1.3,0.9,2.2,0.9,2.2s4.7-0.2,5.1-1.1c0.9-2,0.2-4.3,0.6-6.4l0.1-0.2c0.1-0.4,0.3-0.8,0.6-1.2c0.6-0.7,1.2-1.4,1.7-2.2
			c0.3-0.6,0.5-1.2,0.8-1.8c0.6-1,1.8-1.6,3-1.6c0.9,0,1.8,0.4,2.7,0.2c0.8-0.2,1.5-0.8,2.2-1.1c3.2,0.2,8.6,3.4,8.6,3.4
			C157.4,156.2,157.1,153.3,156.1,151.1z M153.7,150.9C153.7,150.8,153.8,150.9,153.7,150.9L153.7,150.9z"/>
		<path class="st162" d="M146.7,175.4c-5.2-0.6-8.8-2.9-8.8-2.9"/>
		<path class="st162" d="M149,161.5c0,0,1.6,4.3,1.1,5.3c-0.5,1-3,0.6-3,0.6"/>
		<path class="st42" d="M149.7,169l-6.9-0.6c0,0,0.5,3.8,4.3,3.8C149.8,172.2,149.7,169,149.7,169z"/>
		<path class="st165" d="M151.3,161.1c0,0.3,0,0.6,0,0.9c0,0.5,0.8,0.5,0.8,0c0-0.3-0.1-0.7-0.1-1
			C151.9,160.6,151.3,160.8,151.3,161.1z"/>
		<path class="st166" d="M150.7,159.2c0,0,1.3-1.2,2.6,0.3"/>
		<path class="st165" d="M144.2,161.1c0,0.3-0.1,0.6-0.1,0.9c0,0.5,0.8,0.5,0.8,0c0-0.3,0-0.6,0-0.9
			C144.8,160.7,144.2,160.7,144.2,161.1z"/>
		<path class="st166" d="M145.8,158.6c0,0-1.5-0.9-3.7,0.6"/>
		<path class="st154" d="M137.5,163.9c-1.4-2.5-2.8-2.3-3.7-1.2c-1.2,1.6,0.2,5.3,1.1,6c1.7,1.5,3.3,1.5,3.7-0.1"/>
		<path class="st167" d="M474.4,353.7l17.6,91.2"/>
		<path class="st167" d="M436.7,353.7l-17.6,91.2"/>
		<path class="st167" d="M456.5,353.7l4.8,91.2"/>
		<path class="st168" d="M461.3,215.2c88.2,0,65.5,140.3,27.7,140.3s-86.4,0-86.4,0c-11.7,0-15.1-14.8-2.9-14.8
			c12.2,0,21.6,0,21.6,0S396.9,215.2,461.3,215.2z"/>
		<path class="st169" d="M480.1,343.7c-37.8,0-86.4,0-86.4,0c-0.3,0-0.6,0-0.8,0c1.1-1.7,3.3-3,6.8-3c12.2,0,21.6,0,21.6,0
			s-21.4-110.2,28.8-124.1c0.7,0,1.5-0.1,2.3-0.1C540.6,216.5,517.8,343.7,480.1,343.7z"/>
		<path class="st154" d="M432,360.4l14.6,62.8l19.4-4.9l-10.4-63.3"/>
		<path class="st154" d="M444.8,259c0,0-13,23.8-24.5,20.8c-11.4-3-26.7-40.9-26.7-40.9l13.4-5.8c0,0,13.1,19.8,15.3,19.9
			c2.2,0.1,7.5-11.6,7.5-11.6"/>
		<path class="st154" d="M409.4,236.6c0,0-10.3-15.7-11.1-15.7c-0.9,0,0.6,3-0.1,2.9c-0.7-0.1-4.1-6.8-4.9-6.6
			c-1.2,0.3,2.1,6.2,2.1,6.2s-0.9-1.1-1.9-0.6c-0.7,0.4-0.1,2.2-0.1,2.2s-1-0.7-1.7-0.3c-0.7,0.4-0.1,2-0.1,2s-0.9-1.3-1.7-0.3
			c-0.7,0.9,2.4,9.5,6.5,18.5"/>
		<path class="st162" d="M398.9,225.2c0,0,0.2,3.2,1,5.8"/>
		<path class="st171" d="M493.1,235.6c6,10.7,3.8,66.5,3.8,66.5h-58.9l-0.4-32.8c-2.2-5.2-4.5-10.9-4.1-15
			c0.9-11,11.6-18.7,11.6-18.7l12.7-14l13.6,0.6L493.1,235.6z"/>
		<path class="st154" d="M490.4,257.1c0,0,15.5,16.8,27.3,16.8c11.8,0,36.1-32.9,36.1-32.9l-11.5-9c0,0-21.2,19.1-23.4,18.6
			c-2.1-0.5-14.1-10.4-14.1-10.4"/>
		<path class="st171" d="M471.4,222.3c0,0,14.6-0.8,21.6,4.2c5.9,4.2,17.6,17.6,17.6,17.6L493,262.3l-13.7-13.3"/>
		<path class="st171" d="M457.8,221.7c0,0-11.2-0.6-18.4,4.7c-6.6,4.9-14.9,23.9-14.9,23.9l22.6,6.7l7-17.7"/>
		<path class="st172" d="M493,262.3l-13.7-13.3"/>
		<path class="st172" d="M442.5,237.9c-0.8,0.1-9.9,10.4-8.9,17.5"/>
		<path class="st154" d="M539.2,234.8c0,0,13.9-12.6,14.7-12.4c0.8,0.2-1.3,2.8-0.6,2.8c0.7,0.1,5.7-5.6,6.4-5.1
			c1.1,0.6-3.6,5.5-3.6,5.5s5.3-5.2,6.1-4.4c0.5,0.6-4.6,6.5-4.6,6.5s4.6-3.8,5.1-3.2c0.5,0.6-3.8,5.3-3.8,5.3s4-3.1,4.5-2.5
			c0.5,0.5-7.5,11.2-13.7,18.9"/>
		<path class="st162" d="M558.1,230.7c-1.9,1.7-6.4,1.2-8.2,3.4"/>
		<path class="st162" d="M552.3,226.4c0,0-1,3-2.4,5.4"/>
		<path class="st173" d="M389.9,228.4c0.5,0.7,1,1.5,1.5,2.2c0.3,0.3,0.6,0.7,0.9,1c0.1,0.2,0.3,0.3,0.5,0.4
			c0.2,0.1,0.3,0.1,0.3,0.1c0,0,0.1-0.3,0-0.5c0-0.2-0.1-0.4-0.1-0.6c-0.1-0.4-0.3-0.8-0.4-1.2c-0.3-0.8-0.7-1.6-1-2.4
			c-0.1-0.2,0-0.4,0.2-0.4c0.2-0.1,0.3,0,0.4,0.1c0.5,0.9,0.9,1.8,1.5,2.6c0.3,0.4,0.5,0.8,0.9,1.2c0.1,0.2,0.3,0.3,0.5,0.4
			c0.1,0.1,0.1,0,0,0c-0.1,0.1,0,0,0,0c0-0.4-0.1-0.9-0.2-1.3c-0.1-0.5-0.2-1-0.4-1.4c-0.3-0.9-0.6-1.9-1-2.8l0,0
			c-0.1-0.2,0-0.4,0.2-0.4c0.2-0.1,0.4,0,0.4,0.2c0.4,0.9,0.9,1.8,1.3,2.7c0.2,0.4,0.5,0.9,0.8,1.3c0.1,0.2,0.3,0.4,0.5,0.5
			c0.1,0.1,0.2,0.1,0.2,0.1c0,0,0,0,0-0.1c0.1-0.4,0-0.9-0.1-1.4c-0.1-0.5-0.2-1-0.3-1.5c-0.2-1-0.5-2-0.8-3
			c0.4,0.9,0.8,1.9,1.1,2.9c0.2,0.5,0.3,1,0.4,1.5c0.1,0.5,0.3,1,0.2,1.6c0,0.1-0.1,0.4-0.4,0.5c-0.3,0-0.4-0.1-0.5-0.2
			c-0.2-0.2-0.4-0.4-0.6-0.6c-0.3-0.4-0.6-0.9-0.9-1.3c-0.5-0.9-1-1.8-1.4-2.8l0.6-0.3c0.4,0.9,0.7,1.9,1,2.9c0.2,0.5,0.3,1,0.4,1.5
			c0.1,0.5,0.2,1,0.2,1.6c0,0.1-0.1,0.4-0.4,0.6c-0.3,0.1-0.6,0-0.7-0.1c-0.3-0.2-0.5-0.4-0.6-0.6c-0.3-0.4-0.6-0.8-0.9-1.3
			c-0.5-0.9-1-1.8-1.5-2.7l0.6-0.3c0.4,0.8,0.7,1.7,1,2.5c0.1,0.4,0.3,0.9,0.4,1.3c0,0.2,0.1,0.5,0.1,0.7c0,0.2,0.1,0.5-0.2,0.8
			c-0.2,0.2-0.4,0.1-0.5,0.1c-0.1,0-0.3-0.1-0.3-0.2c-0.2-0.1-0.4-0.3-0.5-0.5c-0.3-0.3-0.6-0.7-0.8-1.1
			C390.7,230,390.3,229.2,389.9,228.4z"/>
		<path class="st174" d="M455.7,191.3c-2.5,4.3-6.7,16.1-7.4,22.7c0,0.4,6.9,1.3,7.6,1.4c1.2,0.1,4.3,0.4,5.5,0.2
			c1.1-0.2-0.1-2.1,0.1-3.1c0.7-3.9,3-17.3,3.2-21.3"/>
		<path class="st154" d="M458.2,190.2c0,0-7.3,14.7-4.2,21.1c2.3,4.6,8.2,5.2,12,3.7c2.8-1.2,9.6-11.3,9-13.7
			C472.5,191.8,458.2,190.2,458.2,190.2z"/>
		<path class="st154" d="M471.2,211.4l1.3,10.5c0,0-7,6.5-14.8-0.2l1.3-10.7L471.2,211.4z"/>
		<path class="st174" d="M466.8,217.6c5.4-0.5,9.1-1.3,13.8-3.2c0.4-3.5,0.6-14.2-1.7-19.7c-1.1-2.8-3.1-5.5-5.9-6.6
			c-3.1-1.2-6.1-1.2-9.4-0.3c-3.6-2.4-10.2-1.3-11.1,6c5.6-0.6,9.5,0.1,15.1,1c0,2.5,0.3,5.1,0.7,7.6
			C468.7,204.4,468.5,214.4,466.8,217.6z"/>
		<path class="st162" d="M458.6,215.6c5.7,0.6,8.1-1.9,8.1-1.9"/>
		<path class="st162" d="M459.2,201.2c0,0-2.8,3.5-2.7,4.5c0.1,1.1,2.6,1.5,2.6,1.5"/>
		<path class="st42" d="M456,208.1l6.6,1.7c0,0-1.7,3.3-5.2,2.2C454.8,211.1,456,208.1,456,208.1z"/>
		<path class="st165" d="M456.1,199.7c-0.2,0.3-0.3,0.6-0.4,0.9c-0.2,0.5,0.6,0.7,0.8,0.2c0.1-0.3,0.2-0.6,0.3-0.9
			C456.8,199.6,456.3,199.3,456.1,199.7z"/>
		<path class="st166" d="M457.8,198.3c0,0-0.9-1.5-2.5-0.6"/>
		<path class="st165" d="M463.9,202.3c-0.1,0.3-0.3,0.6-0.4,0.9c-0.2,0.5,0.6,0.7,0.8,0.2c0.1-0.3,0.2-0.6,0.2-0.9
			C464.6,202.2,464.1,201.9,463.9,202.3z"/>
		<path class="st166" d="M463.8,199.7c0,0,1.7-0.4,3.2,1.8"/>
		<path class="st154" d="M467.8,205.2c1.5-2.4,2.9-2.1,3.7-0.9c1.1,1.6-0.7,5.2-1.6,5.8c-1.8,1.3-3,0.9-3.2-0.7"/>
		<path class="st175" d="M497,302.2c0,0,12.7,41.3-18.1,41.3h-20.2c-1.3,0-2.2,1.1-2,2.4l4.4,26.1h-71.3c0,0-4.2-42.3-2.2-50.3
			c2.2-9.2,11.5-19.5,28.4-19.5s23.2-0.4,23.2-0.4"/>
		<path class="st167" d="M224.2,353.7l-17.6,91.2"/>
		<path class="st167" d="M262,353.7l17.6,91.2"/>
		<path class="st167" d="M242.2,353.7l-4.8,91.2"/>
		<path class="st168" d="M237.4,215.2c-88.2,0-65.5,140.3-27.7,140.3s86.4,0,86.4,0c11.7,0,15.1-14.8,2.9-14.8
			c-12.2,0-21.6,0-21.6,0S301.8,215.2,237.4,215.2z"/>
		<path class="st169" d="M218.6,343.7c37.8,0,86.4,0,86.4,0c0.3,0,0.6,0,0.8,0c-1.1-1.7-3.3-3-6.8-3c-12.2,0-21.6,0-21.6,0
			s21.4-110.2-28.8-124.1c-0.7,0-1.5-0.1-2.3-0.1C158.1,216.5,180.8,343.7,218.6,343.7z"/>
		<path class="st178" d="M250.5,306c-6.4,8.8-8,37.5,10.8,37.5c18.8,0,43.7,0,43.7,0l10.7,79.6l31.9-4.1c0,0-9.9-77.8-11.2-84.4
			c-2.5-12.7-9.3-24.7-28.6-24.7c-18.1,0-34.9,0-34.9,0"/>
		<path class="st179" d="M266.5,332.2h39.1c2.6,0,4.9,2,5.2,4.6l11.5,85.5"/>
		<path class="st176" d="M214.1,306c-6.4,8.8-9.5,37.5,10.8,37.5s47.6,0,47.6,0l-10.1,75.2l32.9,4.4c0,0,12.4-81.9,13.5-88.5
			c1.1-6.6,1.6-24.7-24.1-24.7c-18.1,0-48.1,0-48.1,0"/>
		<path class="st177" d="M221.3,306c-9.2,11.6-7,31.8,7.3,31.8h46.8c2.3,0,3.9,2.2,3.2,4.4l-12,77"/>
		<path class="st177" d="M216.4,316.4c0,0,8.5,0,15.6-10.4"/>
		<path class="st154" d="M314.3,241.2c0,0,10.9-15.3,11.8-15.2c0.9,0-0.7,3,0,2.9c0.7-0.1,4.4-6.6,5.2-6.4c1.2,0.4-2.3,6.2-2.3,6.2
			s1-1.1,1.9-0.5c0.6,0.4,0,2.2,0,2.2s1-0.6,1.7-0.2c0.7,0.5,0.1,2,0.1,2s1-1.3,1.7-0.3c0.7,0.9-2.8,9.4-7.3,18.2"/>
		<path class="st162" d="M325.3,230.2c0,0-0.4,3.2-1.2,5.8"/>
		<path class="st173" d="M334.2,233.9c-0.4,0.8-0.9,1.5-1.4,2.2c-0.3,0.4-0.5,0.7-0.8,1.1c-0.2,0.2-0.3,0.3-0.5,0.5
			c-0.1,0.1-0.2,0.1-0.4,0.2c-0.1,0-0.4,0-0.5-0.1c-0.2-0.3-0.1-0.6-0.1-0.8c0-0.2,0.1-0.5,0.1-0.7c0.1-0.4,0.3-0.9,0.4-1.3
			c0.3-0.8,0.7-1.7,1.1-2.5l0.6,0.3c-0.5,0.9-1,1.8-1.6,2.6c-0.3,0.4-0.6,0.8-0.9,1.2c-0.2,0.2-0.4,0.4-0.7,0.6
			c-0.1,0.1-0.4,0.2-0.7,0.1c-0.3-0.2-0.3-0.5-0.4-0.6c0-0.6,0.1-1.1,0.2-1.6c0.1-0.5,0.3-1,0.5-1.5c0.3-1,0.7-1.9,1.1-2.8l0.6,0.3
			c-0.5,0.9-1,1.8-1.5,2.7c-0.3,0.4-0.6,0.9-0.9,1.3c-0.2,0.2-0.4,0.4-0.6,0.6c-0.1,0.1-0.3,0.2-0.5,0.2c-0.3,0-0.4-0.3-0.4-0.5
			c-0.1-0.6,0.1-1.1,0.2-1.6c0.1-0.5,0.3-1,0.5-1.5c0.4-1,0.8-1.9,1.2-2.8c-0.3,1-0.7,1.9-1,2.9c-0.1,0.5-0.3,1-0.4,1.5
			c-0.1,0.5-0.2,1-0.2,1.4c0,0.1,0,0.1,0,0.1c0,0,0.1,0,0.2-0.1c0.2-0.1,0.3-0.3,0.5-0.5c0.3-0.4,0.6-0.8,0.8-1.3
			c0.5-0.9,1-1.8,1.4-2.7c0.1-0.2,0.3-0.2,0.4-0.2c0.2,0.1,0.2,0.3,0.2,0.4l0,0c-0.4,0.9-0.7,1.8-1.1,2.8c-0.2,0.5-0.3,0.9-0.4,1.4
			c-0.1,0.5-0.2,1-0.2,1.3c0,0.1,0.1,0.1,0,0c-0.1,0-0.1,0,0,0c0.1-0.1,0.3-0.2,0.5-0.4c0.3-0.3,0.6-0.7,0.9-1.1
			c0.6-0.8,1.1-1.7,1.6-2.5c0.1-0.2,0.3-0.2,0.4-0.1c0.1,0.1,0.2,0.3,0.1,0.4c-0.4,0.8-0.8,1.6-1.1,2.4c-0.2,0.4-0.3,0.8-0.5,1.2
			c-0.1,0.2-0.1,0.4-0.2,0.6c0,0.2,0,0.4,0,0.5c0,0,0.2,0,0.3-0.1c0.2-0.1,0.3-0.2,0.5-0.4c0.3-0.3,0.6-0.6,0.9-1
			C333.1,235.3,333.7,234.6,334.2,233.9z"/>
		<path class="st161" d="M219,223.9c-2.7,7.4-5.1,85.9-5.1,85.9h74.8c0,0-7.6-58.7-12.9-71.9l-19.1-17.1l-16.5-1.1
			C240.3,219.7,234.2,218.9,219,223.9z"/>
		<path class="st180" d="M261,196.9l-4.3,3.3"/>
		<path class="st154" d="M256.2,190.2c0,0,7.8,14.8,4.7,21.3c-1.6,3.4-8.8,5-12.5,3.4c-2.8-1.2-9.6-11.3-9-13.7
			C241.8,191.8,256.2,190.2,256.2,190.2z"/>
		<path class="st154" d="M242.3,211.4l-2.1,8.3c3.5,2.5,10.3,5,16.5,1.1l0.7-9.9L242.3,211.4z"/>
		<path class="st174" d="M237.2,208.9c-1.5-3.1-1.9-4.5-2.8-8.3c-0.9-4,2.1-5.5,2.1-5.5s-0.5,0.5,0.9-3.2c0.7-1.9,3.5-3.7,5.3-4.3
			c1.2-0.3,2.5-0.5,3.5-1.3c0.8-0.6,1.3-1.4,2.1-2c1.4-1,3.4-1.1,4.8-0.1c1.3,0.8,2.1,2.4,3.6,2.8c0.6,0.2,1.2,0.1,1.7,0.2
			c1,0.2,1.8,1,2.2,1.9c0.4,0.9,0.5,2,0.4,3c-0.1,0.8-0.3,1.5-0.9,2.1c-1.1,1.1-2.9,1-4.4,0.8c-1.5-0.2-3.3-0.5-4.5,0.5
			c-0.7,0.5-1.1,1.4-1.8,1.8c-0.8,0.5-1.7,0.4-2.5,0.6c-1.1,0.3-2,1.3-2.2,2.4c-0.1,0.6-0.1,1.3-0.2,1.9c-0.1,0.9-0.5,1.7-0.8,2.6
			c-0.9,2.8,1.5,4.9,1.3,7.7c-0.1,1-3.5,2.4-3.5,2.4S238.8,212.3,237.2,208.9z"/>
		<path class="st162" d="M256.7,215c-5,1.1-9.1,0.1-9.1,0.1"/>
		<path class="st162" d="M255.2,201.2c0,0,2.8,3.5,2.7,4.5c-0.1,1.1-2.6,1.5-2.6,1.5"/>
		<path class="st42" d="M258.3,208.1l-6.6,1.7c0,0,1.7,3.3,5.2,2.2C259.5,211.1,258.3,208.1,258.3,208.1z"/>
		<path class="st165" d="M257.6,199.9c0.1,0.3,0.2,0.6,0.3,0.9c0.2,0.5,1,0.3,0.8-0.2c-0.1-0.3-0.3-0.6-0.4-0.9
			C258.1,199.3,257.5,199.6,257.6,199.9z"/>
		<path class="st166" d="M256.5,198.3c0,0,0.9-1.5,2.5-0.6"/>
		<path class="st165" d="M249.8,202.6c0.1,0.3,0.1,0.6,0.2,0.9c0.2,0.5,0.9,0.3,0.8-0.2c-0.1-0.3-0.2-0.6-0.4-0.9
			C250.3,201.9,249.7,202.2,249.8,202.6z"/>
		<path class="st166" d="M250.5,199.7c0,0-1.7-0.4-3.2,1.8"/>
		<path class="st180" d="M253.7,202.5c0,2.2-1.8,4.1-4.1,4.1c-2.2,0-4.1-1.8-4.1-4.1c0-2.2,1.8-4.1,4.1-4.1
			C251.8,198.4,253.7,200.2,253.7,202.5z"/>
		<path class="st180" d="M261.8,198.4c0.7,2.1,0,4.3-1.6,4.8c-1.6,0.5-3.5-0.7-4.2-2.9c-0.7-2.1,0-4.3,1.6-4.8
			C259.2,195,261.1,196.2,261.8,198.4z"/>
		<path class="st180" d="M255.8,199.3l-2.7,0.9"/>
		<path class="st180" d="M245.6,202.9l-3.6,4.2"/>
		<path class="st154" d="M247,211.4c0.2,1.6-1.3,2.1-3.4,1.2c-1-0.4-3.6-3.4-2.9-5.3c0.5-1.4,1.8-2,3.8-0.1"/>
		<path class="st161" d="M256.7,220.8c0,0,17.1-1.3,25.4,8.9c5.1,6.3,13.3,31.4,13.3,31.4l20.3-24.5l15.3,9.4c0,0-18.7,46-35.7,46
			c-24.1,0-32.4-43.4-32.4-43.4"/>
		<path class="st163" d="M285.9,289.2c-1-8.2-5.5-42.7-8.9-48"/>
		<path class="st42" d="M238,219.8l2.9-2.9c0,0,5.9,5.3,10.4,5.8l-3,6.2C242,227.9,238,219.8,238,219.8z"/>
		<path class="st42" d="M257.1,217.9c-2,3.6-5.8,4.9-5.8,4.9l3.9,5.6c3.2-2.7,3.7-7.6,3.7-7.6L257.1,217.9z"/>
		<path class="st163" d="M313.3,239.5l15.6,10.7"/>
		<path class="st154" d="M259.7,274.1c0,0,17.3,3.2,17.7,4c0.3,0.8-3,0.6-2.6,1.2c0.4,0.6,8,0.8,8.2,1.6c0.2,1.2-6.7,0.9-6.7,0.9
			s7.6,0.7,7.4,1.8c-0.1,0.8-5.9,0.5-8.1,0.6c2.4,0.1,6.4,0.8,6.2,1.6c-0.1,0.8-4.1,0.7-7.1,0.8c1.9,0.1,5.3,0.6,5.2,1.3
			c-0.1,0.7-13.1,1.2-22.2,1.2"/>
		<path class="st161" d="M233.7,220.2c-7.6,0.9-19.1,3.7-23,11.4c-6.2,12.4-11.7,57.8,1.9,57.8c13.7,0,48.4,0,48.4,0v-16l-34.1-4.9
			c-0.2-3.8,2-23.8,2-23.8"/>
		<path class="st163" d="M261,273.3l-34.1-4.9c-0.2-3.8,2-23.8,2-23.8"/>
		<path class="st163" d="M255.9,272.6l-0.5,16.8"/>
		<path class="st181" d="M250.1,286.9h43.2v2.4h-45.7C247.6,288,248.7,286.9,250.1,286.9z"/>
		<path class="st181" d="M346,289.4h-60.8l11.6-37.3c0.6-1.9,2.4-3.2,4.4-3.2h54.9c1.2,0,2.1,1.2,1.7,2.3L346,289.4z"/>
		<path class="st182" d="M348.7,289.4H288l11.6-37.3c0.6-1.9,2.4-3.2,4.4-3.2h54.9c1.2,0,2.1,1.2,1.7,2.3L348.7,289.4z"/>
		<path class="st181" d="M330.8,269.7c-0.4,1.7-2.5,3.2-4.7,3.2c-2.2,0-3.8-1.4-3.4-3.2c0.4-1.7,2.5-3.2,4.7-3.2
			C329.6,266.5,331.2,268,330.8,269.7z"/>
		<path class="st182" d="M389.9,284.4h-3.2v-1.5h3.2c1,0,1.9-0.8,1.9-1.9v-2.7c0-1-0.8-1.9-1.9-1.9h-3.2v-1.5h3.2
			c1.9,0,3.4,1.5,3.4,3.4v2.7C393.4,282.9,391.8,284.4,389.9,284.4z"/>
		<path class="st182" d="M383,288.5h-0.8c-3.4,0-6.1-2.7-6.1-6.1v-9.7h13.1v9.7C389.1,285.8,386.4,288.5,383,288.5z"/>
		<path class="st183" d="M373.9,286.3c0,0,0.1,3.1,4.9,3.1h7.5c4.8,0,4.9-3.1,4.9-3.1H373.9z"/>
		<path class="st181" d="M505.5,286.9h-43.2l-0.1,2.4h45.7C507.9,288,506.9,286.9,505.5,286.9z"/>
		<path class="st181" d="M409.5,289.4h60.8l-9.7-37.3c-0.5-1.9-2.2-3.2-4.2-3.2h-54.9c-1.2,0-2.2,1.2-1.8,2.3L409.5,289.4z"/>
		<path class="st182" d="M406.7,289.4h60.8l-9.7-37.3c-0.5-1.9-2.2-3.2-4.2-3.2h-54.9c-1.2,0-2.2,1.2-1.8,2.3L406.7,289.4z"/>
		<path class="st181" d="M425.7,269.7c0.3,1.7,2.3,3.2,4.6,3.2c2.2,0,3.9-1.4,3.6-3.2c-0.3-1.7-2.3-3.2-4.6-3.2
			C427,266.5,425.4,268,425.7,269.7z"/>
		<path class="st182" d="M501.9,284.4h-3.2v-1.5h3.2c1,0,1.9-0.8,1.9-1.9v-2.7c0-1-0.8-1.9-1.9-1.9h-3.2v-1.5h3.2
			c1.9,0,3.4,1.5,3.4,3.4v2.7C505.4,282.9,503.8,284.4,501.9,284.4z"/>
		<path class="st182" d="M495,289.4h-0.8c-3.4,0-6.1-2.7-6.1-6.1v-10.5h13.1v10.5C501.1,286.6,498.4,289.4,495,289.4z"/>
		<path class="st42" d="M485.9,286.3c0,0,0.1,3.1,4.9,3.1h7.5c4.8,0,4.9-3.1,4.9-3.1H485.9z"/>
		<path class="st161" d="M609.9,332.2c-0.7,0.5-1.3,1.2-1.6,2.1c-0.6,1.9,0.5,3.8,1.6,5.4c2.6,4.1,5.2,8.1,7.9,12.2
			c2,3.2,7.8,9.8,11.9,6.8c3.5-2.5,1.5-8.5-0.1-11.5c-2.2-4.3-5.2-8.2-8.5-11.6c-1.5-1.5-3.2-3-5.1-3.8
			C614,330.9,611.7,330.9,609.9,332.2z"/>
		<path class="st184" d="M612.3,334.7c4.6,4.6,8.5,9.9,11.6,15.6"/>
		<path class="st169" d="M628.9,285.3c-0.7,0.5-1.3,1.2-1.6,2.1c-0.6,1.9,0.5,3.8,1.6,5.4c2.6,4.1,5.2,8.1,7.9,12.2
			c2,3.2,7.8,9.8,11.9,6.8c3.5-2.5,1.5-8.5-0.1-11.5c-2.2-4.3-5.2-8.2-8.5-11.6c-1.5-1.5-3.2-3-5.1-3.8
			C633,284,630.6,284,628.9,285.3z"/>
		<path class="st184" d="M631.3,287.8c4.6,4.6,8.5,9.9,11.6,15.6"/>
		<path class="st161" d="M594.6,328.7c-3.2-2.5-8.4-1.1-11.7,0.2c-6.7,2.7-13.1,7.1-16.5,13.7c-1.7,3.3-2.6,7.4-1.4,10.9
			c0.8,2.3,2.8,4.4,5.1,4c0.8-0.1,1.5-0.6,2.2-1c5.9-3.7,11.3-8.2,15.9-13.4C591.1,339.9,600.1,333.3,594.6,328.7z"/>
		<path class="st184" d="M576.2,346.2c5-5.9,10.8-11.1,17.2-15.2"/>
		<path class="st161" d="M606.5,263.6c-0.7-5.1-4.9-8.9-9.3-11.4c-7.7-4.4-17.3-6-25.3-2.1c-0.9,0.4-1.8,1-2.1,2
			c-0.2,0.8,0.2,1.7,0.6,2.5c1.5,2.7,3.7,4.8,6.1,6.6c6.1,4.5,13.1,6.1,19.7,9.2c3.8,1.8,8.7,3,11.9,0.3"/>
		<path class="st185" d="M584.9,281.3c14.2,29.5,9.6,61.7,16,94"/>
		<path class="st185" d="M631.4,276.1c-2.6,0.1-3.8,3.3-4.3,6c-5.4,25.7-10.1,61.7-10.1,88"/>
		<path class="st185" d="M578.2,313.7c11.3,21.4,7,45.1,14.4,68.3"/>
		<path class="st161" d="M578.7,308.5c-3.5-3.4-9.9-2.6-14-1.5c-8.3,2.2-16.5,6.5-21.4,13.9c-2.5,3.7-4,8.4-3,12.8
			c0.6,2.8,2.8,5.6,5.5,5.5c1,0,1.9-0.5,2.8-0.9c7.5-3.5,14.4-8.1,20.7-13.7C573.1,321.3,584.7,314.7,578.7,308.5z"/>
		<path class="st184" d="M554.6,326.7c6.6-6.4,14.2-11.7,22.4-15.6"/>
		<path class="st169" d="M587.2,283c-1.3-4-10.2-4.5-13.5-4.7c-3.8-0.2-7.8,0.4-11.1,2.4c-3.3,2.1-5.8,5.7-6,9.7
			c0,0.6,0,1.2,0.3,1.8c0.4,0.7,1.2,1.2,1.9,1.5c3.5,1.4,7.3,1.6,11,1c3.7-0.6,7.2-1.8,10.7-3.1c1.5-0.5,3-1.1,4.3-2.1
			C586.6,288,587.9,285.3,587.2,283z"/>
		<path class="st184" d="M565.7,286.1c6.4-1.7,13-2.4,19.6-2"/>
		<path class="st169" d="M566.4,317.7c-0.7,4.3-2.4,15.1,2.6,17.4c6.5,3,14.2-12.3,16.4-16.8c2.4-4.8,4.9-9.6,6.7-14.6
			c1.2-3.4,1.9-7.7-0.7-10.1c-1.4-1.3-3.5-1.6-5.4-1.3c-3.9,0.5-7.3,3-10,5.8C570.8,303.3,567.5,310.3,566.4,317.7z"/>
		<path class="st184" d="M574.5,319.1c3.6-8.6,8.5-16.7,14.5-23.7"/>
		<path class="st184" d="M585.8,257.2c6.4,1.6,12.4,4.5,17.6,8.6"/>
		<path class="st185" d="M612.1,263.6c0,0-0.8,27.3,0.3,50.4c0.9,19.7,0.4,36.5-1.6,56.1"/>
		<path class="st169" d="M610.6,257.6c-2.5-0.1-4.8,1.5-6.2,3.7c-1.4,2.2-2,4.7-2.6,7.2c-1.1,4.6-3.4,8.7-4.6,13.4
			c-1.2,5-1.7,10.1-1.4,15.2c0.2,2.6,0.7,5.6,2.9,7c1.5,1,3.4,1,5,0.3c1.6-0.7,3-1.9,4.1-3.2c3.7-4.3,5.8-9.9,6.9-15.6
			c1.1-6.1,1-12.3,2.1-18.2C617.6,262.7,615.5,258,610.6,257.6z"/>
		<path class="st184" d="M601.5,295.9c1.4-11.9,4.7-23.5,9.5-34.4"/>
		<path class="st161" d="M623.9,301.6c2.7-2.6,8.8-1.1,12.2-0.1c5,1.6,9.8,4.6,13.9,7.9c2.7,2.1,5.2,4.6,6.9,7.6
			c1.6,3.1,2.2,6.8,1,10c-0.5,1.2-1.2,2.3-2.2,2.9c-0.8,0.5-1.7,0.7-2.6,0.8c-3.3,0.5-6.8-0.3-9.7-2.1c-2.4-1.5-4.4-3.5-6.3-5.6
			c-3.8-4-7.5-8-11.4-11.8C622.9,308.5,620.7,304.9,623.9,301.6z"/>
		<path class="st184" d="M649.8,320.1c-7.1-6.5-15.3-11.9-24-15.9"/>
		<path class="st169" d="M591.7,314c-1.8,2.9,5.7,9.9,7.4,11.7c3.9,4,8.2,7.5,12.9,10.5c4.1,2.6,9,4.8,13.7,3.6
			c1.7-0.4,3.4-1.4,4.1-3.1c0.5-1.2,0.4-2.7,0.2-4c-0.7-3.8-2.2-7.5-4.5-10.6c-4-5.4-9.9-8.7-16.2-10.4
			C604.1,310.3,595.1,308,591.7,314z"/>
		<path class="st184" d="M595.2,314.8c9,4.7,17.8,10,26.3,15.7"/>
		<path class="st169" d="M625.1,280.7c2-7,10.6-5.5,15.4-6.6c4-0.9,8.2-1.6,12.3-1.3c4.1,0.3,8.3,1.6,11.4,4.4
			c1.4,1.2,2.6,2.7,3,4.5c0.7,3.1-1.2,6.3-3.5,8.4c-6.9,6.4-14.4,5.3-22.3,2.9C635.8,291.3,621.5,290.6,625.1,280.7z"/>
		<path class="st184" d="M661,288.1c-10.6-3.6-21.7-5.4-32.8-5.5"/>
		<path class="st161" d="M89.1,298c3.5-0.6,7.1-1.1,10.4,0.4c2.9,1.3,5,4,7.3,6.4c2.3,2.4,5.2,4.5,8.3,4.2c3.3-0.3,6-3.6,6.4-7.2
			c0.4-3.6-1.1-7.2-3.6-9.6c-2.5-2.4-5.7-3.7-9-4.3c-3.3-0.5-6.6-0.4-9.9-0.2"/>
		<path class="st161" d="M109.7,326.2c2.5,0.2,5,0.5,7.2,1.6s4.1,3.3,4.4,5.8c0.3,2.6-1.6,5.3-4.1,5.4c-1.5,0-2.9-0.9-4-2
			c-1.2-1.2-2.3-2.5-3.7-3.6c-1.5-1.2-3.2-1.7-5-2.4c-1.9-0.7-4-1.8-4.6-3.9"/>
		<path class="st169" d="M77.2,349.9c-0.3-7.9,2.7-16.1,8.5-21.3c5.7-5.2,14.1-7.3,21.4-4.8c3,1,7.1,2.2,10.7,4.6
			c-10.6-1.4-19.8,7.5-21.5,8.8c-1.1,0.8-2,1.7-3,2.7C89.1,343.7,82.2,347.3,77.2,349.9z"/>
		<path class="st169" d="M71.6,331.3c0.6-3.8-0.5-7.6-1.2-11.4c-1.5-7.7-1.3-16,2.2-23s10.8-12.2,18.3-11.3c2.7,0.3,5.3,1.3,8,1.8
			c2.5,0.4,5.1,0.4,7.7,0.3c1.1,0,2.7,0.3,3.5,0.9c-7.3,1.9-11.5,8.7-18.6,12.6C84.1,305.1,83.1,319.3,71.6,331.3z"/>
		<path class="st169" d="M65.6,322c-0.3-4-2.8-7.6-5.6-10.4s-6.1-5.1-8.6-8.2c-1.5-1.8-2.8-3.9-4-6c-1.8-3-3.7-6.1-5.5-9.1
			c-1.2-1.9-2.3-3.8-3.3-5.9c-1.1-2.2-1.9-4.6-2.6-7c-0.8-2.3-1.5-4.7-2.1-7.1c-0.5-1.8-1-3.7-1-5.6s0.5-3.9,1.7-5.3
			c1.6-1.9,4.3-2.5,6.6-2.1c2.4,0.4,4.5,1.7,6.5,3.2c1.2,0.9,2.4,1.9,3.3,3.1c2.6,3.2,3.3,7.5,4.7,11.4c2.5,7,7.3,13,9.5,20.1
			c0.7,2.3,1.1,4.7,1.5,7C67.3,305.3,68.2,316.5,65.6,322z"/>
		<path class="st184" d="M42.7,263.7c4.1,7.9,8.2,15.9,12.3,23.8c1.5,2.9,3,5.9,4.4,9c7.1,16.7,9.4,55.5,8.7,80.9"/>
		<path class="st184" d="M98,287.6c-3.7-0.4-7.3,1.4-10.2,3.8c-9.2,7.6-12.7,20.4-14.6,32.5c-2.3,14.6-3.2,29.5-2.4,44.3"/>
		<path class="st184" d="M109,325.6c-7.9-1.9-16.5,1.5-22.3,7.4c-5.8,5.9-9.1,14.1-10.6,22.4c-1.5,8.3-1.5,16.9-1.4,25.3"/>
		<path class="st161" d="M54.4,320.4c-8.3-10.5-20.6-18.8-33.7-15.5c-5.4,1.3-10.6,3.7-15.7,6.1c11.7-2.5,15.8-2.2,24.1,1.9
			c8.3,4.2,12.8,14.6,18.1,22.5c1.7,2.5,12.4,15.9,13.1,7.6C61.1,335.4,59,326.2,54.4,320.4z"/>
		<path class="st184" d="M16.3,306.2c9.2-1.8,19.3-0.9,26.3,5.9c7.1,6.8,14.3,22.4,17.2,32.3c3,9.9,4.4,20.3,5.8,30.6"/>
		<path class="st169" d="M5.3,310.7c-5,3.6-7.8,8.6-3.5,14.9c3.1,4.6,9.9,5,14.7,2.5c4.9-2.5,8.4-7,12.2-11.1
			c3.7-4.1,15.5-6.6,15.5-6.6s-2.7-2.8-5.7-4c-1.5-0.6-3-1.2-4.5-1.5c-3.2-0.8-6.6-1.1-10-0.8C17.5,304.6,10.7,306.8,5.3,310.7z"/>
		<path class="st184" d="M34,304.8c-11.8,1.1-21.8,6.8-25.6,13.7"/>
		<path class="st167" d="M191.7,293.4v151.4"/>
		<path class="st167" d="M530.3,293.4v151.4"/>
		<path class="st187" d="M541.7,289.1H180.3v8.6h361.5V289.1z"/>
		<path class="st188" d="M716.1,145.1c0,1.2-1,2.2-2.2,2.2c-1.2,0-2.2-1-2.2-2.2c0-1.2,1-2.2,2.2-2.2
			C715.1,142.9,716.1,143.9,716.1,145.1z"/>
		<path class="st188" d="M1155.9,178.7c0,1.2-1,2.2-2.2,2.2s-2.2-1-2.2-2.2c0-1.2,1-2.2,2.2-2.2S1155.9,177.5,1155.9,178.7z"/>
		<path class="st188" d="M1223.2,207.1c0,1.2-1,2.2-2.2,2.2c-1.2,0-2.2-1-2.2-2.2c0-1.2,1-2.2,2.2-2.2S1223.2,205.9,1223.2,207.1z"
			/>
		<path class="st188" d="M952.5,85.1c0,1.2-1,2.2-2.2,2.2c-1.2,0-2.2-1-2.2-2.2c0-1.2,1-2.2,2.2-2.2
			C951.5,82.8,952.5,83.8,952.5,85.1z"/>
		<path class="st188" d="M1005.4,178v6.9"/>
		<path class="st188" d="M1008.8,181.5h-6.9"/>
		<path class="st188" d="M1260.4,234.1v6.9"/>
		<path class="st188" d="M1263.9,237.5h-6.9"/>
		<path class="st188" d="M705.3,2.7v6.9"/>
		<path class="st188" d="M708.8,6.1h-6.9"/>
		<path class="st188" d="M738.5,92.6v6.9"/>
		<path class="st188" d="M741.9,96.1H735"/>
		<path class="st188" d="M713.8,239.5v6.9"/>
		<path class="st188" d="M717.3,243h-6.9"/>
		<path class="st188" d="M914.3,54.4v6.9"/>
		<path class="st188" d="M917.7,57.9h-6.9"/>
		<path class="st188" d="M720.3,203.8h-69.1c-1.2,0-2.2-1-2.2-2.2c0-1.2,1-2.2,2.2-2.2h69c1.2,0,2.2,1,2.2,2.2
			C722.5,202.8,721.5,203.8,720.3,203.8z"/>
		<path class="st188" d="M752.9,39.7h-69.1c-1.2,0-2.2-1-2.2-2.2c0-1.2,1-2.2,2.2-2.2h69.1c1.2,0,2.2,1,2.2,2.2
			C755.1,38.7,754.1,39.7,752.9,39.7z"/>
		<path class="st169" d="M772.7,51.4h-25.5c-0.6,0-1.1-0.5-1.1-1.1s0.5-1.1,1.1-1.1h25.5c0.6,0,1.1,0.5,1.1,1.1
			S773.3,51.4,772.7,51.4z"/>
		<path class="st169" d="M864.4,143.4h-25.5c-0.6,0-1.1-0.5-1.1-1.1c0-0.6,0.5-1.1,1.1-1.1h25.5c0.6,0,1.1,0.5,1.1,1.1
			C865.5,142.9,865.1,143.4,864.4,143.4z"/>
		<path class="st169" d="M690.7,186.5h-19.5c-0.6,0-1.1-0.5-1.1-1.1s0.5-1.1,1.1-1.1h19.5c0.6,0,1.1,0.5,1.1,1.1
			C691.8,186,691.3,186.5,690.7,186.5z"/>
		<path class="st189" d="M923.2,147.2c0-8.1,6.6-14.7,14.7-14.7s14.7,6.6,14.7,14.7c0,3.2-1,6.2-2.8,8.6c-2.1,3.2-7.5,6.7-7.5,8.9
			v2.4c0,0.5-0.4,0.9-0.9,0.9H939h-2.2h-2.4c-0.5,0-0.9-0.4-0.9-0.9v-2.4c0-2.1-5.4-5.7-7.5-8.9
			C924.2,153.4,923.2,150.4,923.2,147.2z"/>
		<path class="st189" d="M939.5,167.8c0-0.4-0.3-6.3,0.2-11.4c-0.6,0.1-1.2,0.1-1.9,0.1s-1.3,0-1.9-0.1c0.5,5.2,0.2,11.1,0.2,11.4
			l-0.3,0c0-0.1,0.3-6.2-0.2-11.4c-4.4-0.6-6.3-3.1-6.6-5.4c-0.2-1.4,0.3-2.7,1.1-3.2c0.5-0.3,1.1-0.4,1.8-0.2c1,0.3,2,1.2,2.6,2.4
			c0.7,1.4,1.1,3.7,1.4,6.2c0.6,0.1,1.2,0.1,1.9,0.1c0.7,0,1.3,0,1.9-0.1c0.2-2.5,0.7-4.8,1.4-6.2c0.6-1.2,1.6-2.1,2.6-2.4
			c0.7-0.2,1.3-0.1,1.8,0.2c0.8,0.5,1.3,1.9,1.1,3.2c-0.3,2.3-2.3,4.8-6.6,5.4c-0.5,5.3-0.2,11.4-0.2,11.4L939.5,167.8z
			 M944.5,147.7c-0.2,0-0.4,0-0.7,0.1c-1,0.3-1.9,1.1-2.5,2.3c-0.7,1.3-1.1,3.6-1.3,6c4.2-0.6,6-3,6.4-5.2c0.2-1.2-0.2-2.5-1-3
			C945.1,147.8,944.8,147.7,944.5,147.7z M931.3,147.7c-0.3,0-0.7,0.1-0.9,0.2c-0.7,0.4-1.2,1.7-1,3c0.3,2.2,2.2,4.6,6.4,5.2
			c-0.2-2.4-0.6-4.7-1.3-6c-0.6-1.1-1.5-2-2.5-2.3C931.7,147.7,931.5,147.7,931.3,147.7z"/>
		<path class="st189" d="M942.5,165.7h-9.3v4.5c0,0.7,0.2,1.4,0.6,2.1c0.7,1.2,2,1.9,3.4,1.9h1.4c1.4,0,2.7-0.7,3.4-1.9
			c0.4-0.6,0.6-1.3,0.6-2.1V165.7z"/>
		<path class="st188" d="M937.8,120.9v7.3"/>
		<path class="st188" d="M951.5,125.4l-5.2,5.2"/>
		<path class="st188" d="M924.3,125.8l5.2,5.2"/>
		<path class="st189" d="M175.7,98c0-8.1,6.6-14.7,14.7-14.7c8.1,0,14.7,6.6,14.7,14.7c0,3.2-1,6.2-2.8,8.6
			c-2.1,3.2-7.5,6.7-7.5,8.9v2.4c0,0.5-0.4,0.9-0.9,0.9h-2.4h-2.2h-2.4c-0.5,0-0.9-0.4-0.9-0.9v-2.4c0-2.1-5.4-5.7-7.5-8.9
			C176.7,104.2,175.7,101.2,175.7,98z"/>
		<path class="st189" d="M192,118.6c0-0.4-0.3-6.3,0.2-11.4c-0.6,0.1-1.2,0.1-1.9,0.1s-1.3,0-1.9-0.1c0.5,5.2,0.2,11.1,0.2,11.4
			l-0.3,0c0-0.1,0.3-6.2-0.2-11.4c-4.4-0.6-6.3-3.1-6.6-5.4c-0.2-1.4,0.3-2.7,1.1-3.2c0.5-0.3,1.1-0.4,1.8-0.2c1,0.3,2,1.2,2.6,2.4
			c0.7,1.4,1.1,3.7,1.4,6.2c0.6,0.1,1.2,0.1,1.9,0.1c0.7,0,1.3,0,1.9-0.1c0.2-2.5,0.7-4.8,1.4-6.2c0.6-1.2,1.6-2.1,2.6-2.4
			c0.7-0.2,1.3-0.1,1.8,0.2c0.8,0.5,1.3,1.9,1.1,3.2c-0.3,2.3-2.3,4.8-6.6,5.4c-0.5,5.3-0.2,11.4-0.2,11.4L192,118.6z M197,98.5
			c-0.2,0-0.4,0-0.7,0.1c-1,0.3-1.9,1.1-2.5,2.3c-0.7,1.3-1.1,3.6-1.3,6c4.2-0.6,6-3,6.4-5.2c0.2-1.2-0.2-2.5-1-3
			C197.6,98.6,197.3,98.5,197,98.5z M183.8,98.5c-0.3,0-0.7,0.1-0.9,0.2c-0.7,0.4-1.2,1.7-1,3c0.3,2.2,2.2,4.6,6.4,5.2
			c-0.2-2.4-0.6-4.7-1.3-6c-0.6-1.1-1.5-2-2.5-2.3C184.2,98.5,184,98.5,183.8,98.5z"/>
		<path class="st189" d="M195,116.5h-9.3v4.5c0,0.7,0.2,1.4,0.6,2.1c0.7,1.2,2,1.9,3.4,1.9h1.4c1.4,0,2.7-0.7,3.4-1.9
			c0.4-0.6,0.6-1.3,0.6-2.1V116.5z"/>
		<path class="st188" d="M190.3,71.7V79"/>
		<path class="st188" d="M204,76.2l-5.2,5.2"/>
		<path class="st188" d="M176.8,76.6l5.2,5.2"/>
		<path class="st189" d="M1036.7,166.6h17.4c7.2,0,13,5.8,13,13c0,5.3-3.2,9.9-7.8,11.9l1.7,4.8l-6.4-3.7c-0.2,0-0.4,0-0.6,0h-17.4
			c-7.2,0-13-5.8-13-13C1023.7,172.5,1029.5,166.6,1036.7,166.6z"/>
		<path class="st188" d="M1034,185.2l8.8-7.4l4.8,4.1l9-8.9"/>
		<path class="st188" d="M1052.1,173h4.5v4.5"/>
		<path class="st189" d="M418.7,119.7h-37c-9.9,0-18,8.1-18,18c0,7.4,4.4,13.7,10.8,16.5l-2.4,6.6l8.9-5.2c0.3,0,0.5,0,0.8,0h37
			c9.9,0,18-8.1,18-18C436.7,127.7,428.7,119.7,418.7,119.7z"/>
		<path class="st189" d="M386.4,147.6c5.6,0,10.1-4.5,10.1-10.1s-4.5-10.1-10.1-10.1c-5.6,0-10.1,4.5-10.1,10.1
			S380.8,147.6,386.4,147.6z"/>
		<path class="st190" d="M386.4,144c3.6,0,6.5-2.9,6.5-6.5c0-3.6-2.9-6.5-6.5-6.5c-3.6,0-6.5,2.9-6.5,6.5
			C379.9,141.1,382.8,144,386.4,144z"/>
		<path class="st191" d="M382.1,142.4c1.1,1,2.6,1.6,4.3,1.6c3.6,0,6.5-2.9,6.5-6.5c0-3.6-2.9-6.5-6.5-6.5v6.5L382.1,142.4z"/>
		<path class="st188" d="M403.6,127.7h21.5"/>
		<path class="st188" d="M403.6,134.3h21.5"/>
		<path class="st188" d="M403.6,140.8h21.5"/>
		<path class="st188" d="M403.6,147.4h9.6"/>
		<path class="st189" d="M664.2,25.7H487.7v116.6h176.5V25.7z"/>
		
			<linearGradient id="SVGID_00000025426671821253966390000015864051368826271898_" gradientUnits="userSpaceOnUse" x1="358.3882" y1="3562.3474" x2="358.3882" y2="3613.1333" gradientTransform="matrix(1 0 0 -1 202.3622 3671.0552)">
			<stop  offset="0" style="stop-color:#F7F7FF;stop-opacity:0.4"/>
			<stop  offset="1" style="stop-color:#D1E4F2;stop-opacity:0.5"/>
		</linearGradient>
		<path style="fill:url(#SVGID_00000025426671821253966390000015864051368826271898_);" d="M606.9,57.9c-9.7,0-6,44.4-15.4,44.4
			c-7.3,0-7.6-27.4-15.4-27.4s-7.3,11.1-15.4,11.1c-8.1,0-8.1-16.6-14.9-16.6c-6.4,0-8.6,26-15.8,26c-7.2,0-9.2-9.3-15.4-8.5
			c-11.2,1.4-15.4,21.9-15.4,21.9h123V78.2C613.3,78.2,613.9,57.9,606.9,57.9z"/>
		<path class="st193" d="M499.3,108.7c0,0,4.2-20.6,15.4-21.9c6.2-0.8,8.1,8.5,15.4,8.5c7.2,0,9.4-26,15.8-26
			c6.8,0,6.8,16.6,14.9,16.6s7.6-11.1,15.4-11.1s8,27.4,15.4,27.4c9.3,0,5.7-44.4,15.4-44.4c7,0,6.4,20.2,15.4,20.2"/>
		<path class="st193" d="M499.3,49.2v59.5H630"/>
		<path class="st193" d="M514.6,49.2v59.5"/>
		<path class="st193" d="M530,49.2v59.5"/>
		<path class="st193" d="M545.4,49.2v59.5"/>
		<path class="st193" d="M560.8,49.2v59.5"/>
		<path class="st193" d="M576.1,49.2v59.5"/>
		<path class="st193" d="M591.5,49.2v59.5"/>
		<path class="st193" d="M606.9,49.2v59.5"/>
		<path class="st193" d="M622.2,49.2v59.5"/>
		<path class="st169" d="M516,86.8c0,0.8-0.6,1.4-1.4,1.4s-1.4-0.6-1.4-1.4c0-0.8,0.6-1.4,1.4-1.4C515.4,85.4,516,86,516,86.8z"/>
		<path class="st193" d="M514.6,86.8l3.6-8.3h5.5"/>
		<path class="st194" d="M526.2,72.3h-8v0.8h8V72.3z"/>
		<path class="st194" d="M526.2,74h-8v0.8h8V74z"/>
		<path class="st194" d="M524.6,75.8h-6.4v0.8h6.4V75.8z"/>
		<path class="st169" d="M577.5,75.4c0,0.8-0.6,1.4-1.4,1.4c-0.8,0-1.4-0.6-1.4-1.4c0-0.8,0.6-1.4,1.4-1.4
			C576.9,74,577.5,74.6,577.5,75.4z"/>
		<path class="st193" d="M576.1,75.4l3.6-8.3h5.5"/>
		<path class="st194" d="M587.7,60.8h-8v0.8h8V60.8z"/>
		<path class="st194" d="M587.7,62.6h-8v0.8h8V62.6z"/>
		<path class="st194" d="M586.1,64.3h-6.4v0.8h6.4V64.3z"/>
		<path class="st169" d="M608.2,57.9c0,0.8-0.6,1.4-1.4,1.4s-1.4-0.6-1.4-1.4c0-0.8,0.6-1.4,1.4-1.4S608.2,57.2,608.2,57.9z"/>
		<path class="st193" d="M606.9,57.9l3.6-8.3h5.5"/>
		<path class="st194" d="M618.4,43.4h-8v0.8h8V43.4z"/>
		<path class="st194" d="M618.4,45.1h-8V46h8V45.1z"/>
		<path class="st194" d="M616.9,46.9h-6.4v0.8h6.4V46.9z"/>
		<path class="st195" d="M499.3,134.1h61.1v-17.5h-61.1V134.1z"/>
		
			<linearGradient id="SVGID_00000122686378256629828660000009652554208047927723_" gradientUnits="userSpaceOnUse" x1="300.5117" y1="3541.7834" x2="336.7967" y2="3541.7834" gradientTransform="matrix(1 0 0 -1 202.3622 3671.0552)">
			<stop  offset="0" style="stop-color:#FFFFFF;stop-opacity:0.7"/>
			<stop  offset="1" style="stop-color:#FFFFFF"/>
		</linearGradient>
		<path style="fill:none;stroke:url(#SVGID_00000122686378256629828660000009652554208047927723_);stroke-miterlimit:10;" d="
			M539.2,129.3h-36.3"/>
		
			<linearGradient id="SVGID_00000044143210970225560110000011892005873210203009_" gradientUnits="userSpaceOnUse" x1="300.5117" y1="3545.6843" x2="354.3587" y2="3545.6843" gradientTransform="matrix(1 0 0 -1 202.3622 3671.0552)">
			<stop  offset="0" style="stop-color:#FFFFFF;stop-opacity:0.7"/>
			<stop  offset="1" style="stop-color:#FFFFFF"/>
		</linearGradient>
		<path style="fill:none;stroke:url(#SVGID_00000044143210970225560110000011892005873210203009_);stroke-miterlimit:10;" d="
			M556.7,125.4h-53.8"/>
		
			<linearGradient id="SVGID_00000018199302641010014320000006950588194834722237_" gradientUnits="userSpaceOnUse" x1="300.5117" y1="3549.5854" x2="354.3587" y2="3549.5854" gradientTransform="matrix(1 0 0 -1 202.3622 3671.0552)">
			<stop  offset="0" style="stop-color:#FFFFFF;stop-opacity:0.7"/>
			<stop  offset="1" style="stop-color:#FFFFFF"/>
		</linearGradient>
		<path style="fill:none;stroke:url(#SVGID_00000018199302641010014320000006950588194834722237_);stroke-miterlimit:10;" d="
			M556.7,121.5h-53.8"/>
		<path class="st191" d="M535,33.4h81.9c0.9,0,1.7,0.8,1.7,1.7c0,0.9-0.8,1.7-1.7,1.7H535c-0.9,0-1.7-0.8-1.7-1.7
			C533.3,34.2,534.1,33.4,535,33.4z"/>
		
			<linearGradient id="SVGID_00000159434215036213192810000003763176079632758162_" gradientUnits="userSpaceOnUse" x1="440.9137" y1="3620.2556" x2="432.8528" y2="3620.2556" gradientTransform="matrix(1 0 0 -1 202.3622 3671.0552)">
			<stop  offset="0" style="stop-color:#F5F5FF;stop-opacity:0.6"/>
			<stop  offset="1" style="stop-color:#E4E4F2;stop-opacity:0.5"/>
		</linearGradient>
		<path style="fill:url(#SVGID_00000159434215036213192810000003763176079632758162_);" d="M635.2,48.7h8.1v4.3h-8.1V48.7z"/>
		<path class="st194" d="M654.1,48.6H646v0.8h8.1V48.6z"/>
		<path class="st194" d="M654.1,50.3H646v0.8h8.1V50.3z"/>
		<path class="st194" d="M652.5,52.1H646v0.8h6.5V52.1z"/>
		
			<linearGradient id="SVGID_00000180330738829368794220000003879421238671298689_" gradientUnits="userSpaceOnUse" x1="440.9137" y1="3610.7732" x2="432.8528" y2="3610.7732" gradientTransform="matrix(1 0 0 -1 202.3622 3671.0552)">
			<stop  offset="0" style="stop-color:#F5F5FF;stop-opacity:0.6"/>
			<stop  offset="1" style="stop-color:#E4E4F2;stop-opacity:0.5"/>
		</linearGradient>
		<path style="fill:url(#SVGID_00000180330738829368794220000003879421238671298689_);" d="M635.2,58.1h8.1v4.3h-8.1V58.1z"/>
		<path class="st194" d="M654.1,58.1H646v0.8h8.1V58.1z"/>
		<path class="st194" d="M654.1,59.8H646v0.8h8.1V59.8z"/>
		<path class="st194" d="M652.5,61.6H646v0.8h6.5V61.6z"/>
		
			<linearGradient id="SVGID_00000036960545959953888290000012229972707851114117_" gradientUnits="userSpaceOnUse" x1="432.8528" y1="3576.906" x2="456.6808" y2="3576.906" gradientTransform="matrix(1 0 0 -1 202.3622 3671.0552)">
			<stop  offset="0" style="stop-color:#E7E9F0"/>
			<stop  offset="1" style="stop-color:#F5F5FF"/>
		</linearGradient>
		<path style="fill:none;stroke:url(#SVGID_00000036960545959953888290000012229972707851114117_);stroke-miterlimit:10;" d="
			M635.2,79.6H659 M635.2,82.5H659 M646,85.4h-10.8 M659,85.4h-10.8 M659,88.3h-23.8 M635.2,91.2H659 M652.5,94.1h-17.3 M653.6,94.1
			h5.4 M635.2,97H659 M659,100h-23.8 M641.2,102.9h-6 M643.3,102.9H659 M635.2,105.8H659 M648.7,108.7h-13.4 M649.8,108.7h9.2"/>
		
			<linearGradient id="SVGID_00000130636034786272695890000007744857117167826561_" gradientUnits="userSpaceOnUse" x1="440.9137" y1="3601.2898" x2="432.8528" y2="3601.2898" gradientTransform="matrix(1 0 0 -1 202.3622 3671.0552)">
			<stop  offset="0" style="stop-color:#F5F5FF;stop-opacity:0.6"/>
			<stop  offset="1" style="stop-color:#E4E4F2;stop-opacity:0.5"/>
		</linearGradient>
		<path style="fill:url(#SVGID_00000130636034786272695890000007744857117167826561_);" d="M635.2,67.6h8.1v4.3h-8.1V67.6z"/>
		<path class="st194" d="M654.1,67.5H646v0.8h8.1V67.5z"/>
		<path class="st194" d="M654.1,69.3H646v0.8h8.1V69.3z"/>
		<path class="st194" d="M652.5,71.1H646v0.8h6.5V71.1z"/>
		<path class="st189" d="M583.4,133.6c4.5-1.9,6.6-7,4.8-11.5c-1.9-4.5-7-6.6-11.5-4.8c-4.5,1.9-6.6,7-4.8,11.5
			C573.8,133.3,578.9,135.4,583.4,133.6z"/>
		<path class="st190" d="M585.8,125.4c0,3.1-2.5,5.7-5.7,5.7s-5.7-2.5-5.7-5.7c0-3.1,2.5-5.7,5.7-5.7S585.8,122.3,585.8,125.4z"/>
		<path class="st191" d="M585,128.3c0.5-0.8,0.8-1.8,0.8-2.8c0-3.1-2.5-5.7-5.7-5.7v5.7L585,128.3z"/>
		<path class="st189" d="M613.6,127.5c1.1-4.7-1.8-9.5-6.5-10.6c-4.7-1.1-9.5,1.8-10.6,6.5c-1.1,4.7,1.8,9.5,6.5,10.6
			C607.8,135.1,612.5,132.2,613.6,127.5z"/>
		<path class="st190" d="M610.7,125.4c0,3.1-2.5,5.7-5.7,5.7s-5.7-2.5-5.7-5.7c0-3.1,2.5-5.7,5.7-5.7
			C608.2,119.8,610.7,122.3,610.7,125.4z"/>
		<path class="st191" d="M601.3,129.7c1,0.9,2.3,1.4,3.7,1.4c3.1,0,5.7-2.5,5.7-5.7c0-3.1-2.5-5.7-5.7-5.7v5.7L601.3,129.7z"/>
		<path class="st189" d="M633.4,133.6c4.5-1.9,6.6-7,4.8-11.5c-1.9-4.5-7-6.6-11.5-4.8c-4.5,1.9-6.6,7-4.8,11.5
			C623.7,133.3,628.9,135.4,633.4,133.6z"/>
		<path class="st190" d="M635.7,125.4c0,3.1-2.5,5.7-5.7,5.7c-3.1,0-5.7-2.5-5.7-5.7c0-3.1,2.5-5.7,5.7-5.7
			C633.2,119.8,635.7,122.3,635.7,125.4z"/>
		<path class="st191" d="M634.2,121.6c-1-1.1-2.5-1.8-4.2-1.8v5.7L634.2,121.6z"/>
		<path class="st203" d="M756,126.7c-0.1,0.8-0.2,1.5-0.3,2.3c-0.2,1.2-0.4,2.3-0.8,3.4c-1.7,4.8-4.8,6.1-4.8,6.1
			c0,0.1-0.1,0.3-0.2,0.6c-0.5,1.3-1.7,4.2-2.4,6.1c-0.2,0.6-0.4,1.2-0.5,1.5c-0.4,1.1-1.2,2-2.3,2.5c-1,0.5-2.2,0.6-3.3,0.2
			c-1.7-0.6-2-2.5-2-3.7c0-0.6-0.1-7.1-2.2-9.4c-1.4-1.9-2.6-4-3.3-6.3v-0.1c-5,0.4-6.9-5.7-6.1-8c0.1-0.3,0.2-0.6,0.4-0.8
			c0.2-0.2,0.5-0.4,0.8-0.4c0.7,0,1.5,0.1,2.1,0.4s1.3,0.7,1.7,1.3v-0.1c0-0.9,0.3-7.8,1.2-8.4c0.9-0.6,3.8,0.5,9.4-0.6
			c3.4-0.7,6.6-1.6,9.8-2.9c1.8,2.4,2.8,5.2,3,8.2C756.4,121.2,756.3,123.9,756,126.7z"/>
		<rect x="727.1" y="119.9" class="st204" width="7.3" height="10.9"/>
		<path class="st203" d="M743.9,306.6v93.7h-6.7c0,0-7.8-22.3-11.2-37c-7.5-32.5-1.9-40.9-1.3-43.5c0.4-1.5-2.1-7.6-4.5-14.8
			c-0.3-0.8-0.5-1.7-0.8-2.5C727.4,304.6,735.6,306,743.9,306.6z"/>
		<path class="st203" d="M787.3,314.9c-0.2,2.6-11.7,85.7-11.7,85.7l-7.3-0.5c0,0-7.1-44.6-6.5-61.3c0.6-16.8,5.5-21.1,5.5-21.1
			s-1.1-2.9-2.6-6.8c-0.7-1.8-1.5-3.7-2.3-5.7c12.7-2.6,20.1-7.4,21.4-8.3c0,0,0,0.1,0,0.1C785.5,304.6,787.4,313.5,787.3,314.9z"/>
		<path class="st205" d="M764.7,215.8c-0.1-2,0-4,0.2-6.1c-0.8,0.9-9.3,4.1-18.8,3.8c-9.5-0.3-16.4-2-16.8-2.6c0,0,1.1,5.6,0.7,6.1
			c-0.4,0.4-11.6,10.3-16.8,23.3c-5.1,13-0.1,57,0.9,60.5c0,0,2,0.6,5.3,1.5c8,2.2,16.2,3.6,24.5,4.2c3.2,0.2,6.5,0.2,9.8-0.1
			c3-0.3,5.9-0.7,8.8-1.3c12.7-2.6,20.1-7.4,21.4-8.3l0.3-0.2C784.1,296.7,765,216.9,764.7,215.8z"/>
		<path class="st203" d="M705.2,172.1c-1.6,6.4-0.7,24.4,1.1,39.2c1.8,14.8,6.5,31.9,6.5,31.9l7.5-15c0,0,2.4-26.7,1-42.4l-2.7-6.5
			C714.6,176,710,173.6,705.2,172.1z"/>
		<path class="st203" d="M841.3,186.9c-0.1,0.3-0.2,0.6-0.4,0.8c-0.2,0.3-0.3,0.6-0.5,0.9c-0.8,1.2-1.6,2.4-2.6,3.5
			c-0.2,0.3-0.5,0.6-0.7,0.9c-2.2,2.7-4.6,5.2-5.7,5.7c-2.2,1-6.4-0.9-8,0.3c-2.3,1.7-20.6,12.7-28.3,15.4
			c-10.3,3.5-13.9,0.4-16.7-4.8c-2.6-5.1-8.5-16.3-10.9-21.9c1.4-1.7,2.5-3.6,3.3-5.6c1.3-3.3,1.6-6.8,1-10.2c0,0,5.7-3.6,6-4.7
			c3.5,9.8,11.8,35.9,11.8,35.9s30.9-9.1,31.7-9.8c0.8-0.8,8.5-8.7,9.2-8.3c0.8,0.4-1.2,6.3-1.2,6.3S841.8,184.7,841.3,186.9z"/>
		<rect x="724.7" y="95.7" class="st204" width="32.7" height="26.6"/>
		<path class="st206" d="M777.8,167c0,0,0,0.1,0,0.1c-0.2,1.1-6,4.7-6,4.7c0.6,3.4,0.3,7-1,10.2c-0.8,2-1.9,3.9-3.3,5.6
			c-0.1,0.1-0.2,0.3-0.4,0.4c0,0-1.4,21-2.2,21.8s-8.3,3.6-17.1,3.8H746c-9.5-0.3-16.4-2-16.8-2.6s-4.8-17.4-4.8-17.4l-3.3-7.8
			l-2.7-6.5c-3.9-3.3-8.4-5.8-13.3-7.3c1.3-6.3,4.4-14.8,6.5-17.4c1.9-2.4,5.1-4.6,10.7-5.6c4-0.7,11.3-2.3,15.2-3.1l0.5-0.1
			c0.5-0.1,0.9-0.2,1.2-0.3c0,1.2,0.4,3.1,2,3.7c1.1,0.4,2.3,0.3,3.3-0.2c1-0.5,1.9-1.4,2.3-2.5c0.1-0.3,0.3-0.9,0.5-1.5l2,0.7
			l0.6,0.2c6,2.2,20.3,7.5,22,9C774,157,777.8,165.5,777.8,167z"/>
		<path class="st207" d="M771.9,178.5C771.9,178.4,771.8,178.4,771.9,178.5c-0.1-0.1-0.1-0.1-0.2-0.1c0,0,0-0.1,0-0.1
			c0,0,0-0.1,0-0.1c0.5-3.3,0.1-6.6-1-9.7c0,0,0-0.1,0-0.1c0,0,0-0.1,0-0.1s0-0.1,0-0.1c0,0,0,0,0.1,0c0.1,0,0.1,0,0.2,0
			s0.1,0.1,0.1,0.1c1.2,3.2,1.6,6.6,1,10c0,0.1-0.1,0.1-0.1,0.1C772,178.5,772,178.5,771.9,178.5z"/>
		<path class="st207" d="M763.5,191c0,0-0.1,0-0.1,0c0,0-0.1-0.1-0.1-0.1c0,0,0-0.1,0-0.1c0,0,0-0.1,0-0.1c0,0,0-0.1,0-0.1
			c0,0,0,0,0.1-0.1c2.1-1.2,3.9-2.8,5.2-4.8c0,0,0-0.1,0.1-0.1c0,0,0.1,0,0.1,0c0,0,0.1,0,0.1,0c0,0,0.1,0,0.1,0
			c0.1,0,0.1,0.1,0.1,0.1c0,0.1,0,0.1,0,0.2C767.6,188,765.8,189.8,763.5,191L763.5,191z"/>
		<path class="st207" d="M752.1,153.9c0,0,0,0.1,0,0.1c0,0,0,0.1,0,0.1c0,0-0.1,0-0.1,0c0,0-0.1,0-0.1,0l-7.9-3.8l-7.8,5.5H736h-0.1
			c0,0-0.1-0.1-0.1-0.1c0,0,0-0.1,0-0.1l1.8-9.8l0.5-0.1l-1.8,9.4l7.4-5.3c0,0,0.1,0,0.1,0c0,0,0.1,0,0.1,0l7.5,3.6l-2.1-7.7
			l0.6,0.2L752.1,153.9z"/>
		<path class="st207" d="M747.8,213.6h-0.5c0.1-7.7,0.4-30.4,0-37.2c-0.6-8.3-3-24.6-3.6-26c0-0.1,0-0.1,0-0.2
			c0-0.1,0.1-0.1,0.1-0.1c0.1,0,0.1,0,0.2,0c0.1,0,0.1,0.1,0.1,0.1c0.6,1.5,3.1,17.6,3.6,26.2C748.3,183.2,748,205.8,747.8,213.6z"
			/>
		<path class="st206" d="M735.8,101.2c-3.4,1.7-5.7,5.4-6.7,7.4c-0.2,0-0.3,0-0.5-0.1c0.8-1.6,3.1-5.9,7.1-7.8
			C735.8,100.9,735.8,101,735.8,101.2z"/>
		<path class="st207" d="M743.4,121.2c0,0-0.1,0-0.1,0c-1.5-1.1-4.8-0.8-6.2-0.2c0,0-0.1,0-0.1,0c0,0-0.1,0-0.1,0c0,0-0.1,0-0.1-0.1
			c0,0,0,0-0.1-0.1c0-0.1,0-0.1,0-0.2c0-0.1,0.1-0.1,0.1-0.1c1.3-0.6,4.8-1,6.6,0.3c0,0,0.1,0.1,0.1,0.2c0,0.1,0,0.1-0.1,0.2
			C743.5,121.2,743.5,121.2,743.4,121.2z"/>
		<path class="st208" d="M732.3,126.8c0,0-0.1,0-0.1,0c0,0-0.1-0.1-0.1-0.1c-0.6-1.1-1.3-2.1-2.2-3c0,0,0,0-0.1-0.1c0,0,0-0.1,0-0.1
			s0-0.1,0-0.1s0-0.1,0.1-0.1c0,0,0.1-0.1,0.2-0.1c0.1,0,0.1,0,0.2,0.1c0.9,0.9,1.7,2,2.3,3.1c0,0.1,0,0.1,0,0.2
			c0,0.1-0.1,0.1-0.1,0.1L732.3,126.8z"/>
		<path class="st207" d="M749,120.6c0,0-0.1,0-0.1,0c0,0-0.1,0-0.1-0.1c0,0,0-0.1,0-0.1s0-0.1,0-0.1c0,0,0-0.1,0-0.1
			c0.6-0.9,4-3.3,5.9-3.1c0,0,0.1,0,0.1,0c0,0,0.1,0,0.1,0c0,0,0.1,0.1,0.1,0.1c0,0,0,0.1,0,0.1c0,0,0,0.1,0,0.1s0,0.1-0.1,0.1
			c0,0-0.1,0-0.1,0c0,0-0.1,0-0.1,0c-1.7-0.1-4.9,2.1-5.4,2.9c0,0-0.1,0.1-0.1,0.1S749,120.7,749,120.6z"/>
		<path class="st208" d="M748.2,134.9c-0.7,0-1.4-0.2-2-0.6c-0.1,0-0.1-0.1-0.1-0.1c0-0.1,0-0.1,0-0.2c0-0.1,0.1-0.1,0.1-0.1
			c0.1,0,0.1,0,0.2,0c0.4,0.3,1,0.5,1.5,0.5c0.5,0,1.1-0.2,1.5-0.5c0,0,0.1-0.1,0.2-0.1c0.1,0,0.1,0,0.2,0.1c0,0,0,0,0.1,0.1
			c0,0,0,0.1,0,0.1s0,0.1,0,0.1c0,0,0,0.1-0.1,0.1c-0.2,0.2-0.5,0.4-0.8,0.5S748.5,134.9,748.2,134.9z"/>
		<path class="st209" d="M750.1,138.4c0,0.1-0.6,1.4-0.7,1.7c-1.2,0.4-2.5,0.5-3.8,0.4c-2.4-0.2-4.7-1.2-6.5-2.8c0,0,0,0-0.1-0.1
			c0,0,0-0.1,0-0.1c0,0,0-0.1,0-0.1c0,0,0-0.1,0.1-0.1c0,0,0,0,0.1-0.1c0,0,0.1,0,0.1,0c0,0,0.1,0,0.1,0c0,0,0.1,0,0.1,0.1
			C742.1,139.6,747.1,139.7,750.1,138.4z"/>
		<path class="st207" d="M737.7,324.8c-1,0-3.6-0.2-4.5-2.2c0-0.1,0-0.1,0-0.2c0,0,0.1-0.1,0.1-0.1c0.1,0,0.1,0,0.2,0
			c0.1,0,0.1,0,0.1,0.1c1,2.2,4.4,1.9,4.4,1.9c0.1,0,0.1,0,0.1,0.1c0,0,0.1,0.1,0.1,0.2s0,0.1-0.1,0.2c0,0-0.1,0.1-0.1,0.1
			C737.9,324.8,737.8,324.8,737.7,324.8z"/>
		<path class="st207" d="M777.8,316.5c-0.1,0-0.1,0-0.2-0.1c0,0-0.1-0.1-0.1-0.2c0,0,0-0.1,0-0.1c0,0,0-0.1,0.1-0.1c0,0,0,0,0.1,0
			c0,0,0.1,0,0.1,0c2.2-0.1,4.4-0.9,6.2-2.1c0,0,0.1,0,0.1,0c0,0,0.1,0,0.1,0c0,0,0.1,0,0.1,0s0,0,0.1,0.1c0,0,0,0,0,0.1
			c0,0,0,0.1,0,0.1c0,0,0,0.1,0,0.1c0,0,0,0.1,0,0.1C782.4,315.6,780.1,316.4,777.8,316.5z"/>
		<path class="st207" d="M722.8,190c0,0-0.1,0-0.1,0c0,0-0.1-0.1-0.1-0.1c-3-5-4.5-10.7-4.3-16.5c0-0.1,0-0.1,0.1-0.2
			c0,0,0.1-0.1,0.2-0.1c0.1,0,0.1,0,0.2,0.1c0,0,0.1,0.1,0.1,0.2c-0.1,5.7,1.4,11.4,4.3,16.3c0,0.1,0,0.1,0,0.2
			c0,0.1-0.1,0.1-0.1,0.1L722.8,190z"/>
		<rect x="718.6" y="301.4" class="st204" width="25.4" height="9.7"/>
		<rect x="762.2" y="296.6" class="st204" width="21.8" height="14.5"/>
		<path class="st207" d="M742.8,123.9c0,0.8-0.3,1.5-0.6,1.5s-0.6-0.7-0.6-1.5s0.3-1.5,0.6-1.5S742.8,123.1,742.8,123.9z"/>
		<path class="st207" d="M753.8,121.7c0,0.8-0.3,1.5-0.6,1.5c-0.3,0-0.6-0.7-0.6-1.5c0-0.8,0.3-1.5,0.6-1.5
			C753.5,120.2,753.8,120.9,753.8,121.7z"/>
		<path class="st207" d="M750.5,164.7c0,0.2-0.1,0.4-0.2,0.6s-0.3,0.3-0.4,0.4c-0.2,0.1-0.4,0.1-0.6,0.1c-0.2,0-0.4-0.1-0.5-0.3
			c-0.1-0.1-0.2-0.3-0.3-0.5c0-0.2,0-0.4,0.1-0.6s0.2-0.3,0.4-0.4c0.2-0.1,0.4-0.2,0.6-0.2c0.3,0,0.5,0.1,0.7,0.3
			C750.4,164.1,750.5,164.4,750.5,164.7z"/>
		<path class="st207" d="M751.1,177.6c-0.5,0-1-0.4-1-1c0-0.5,0.4-1,1-1c0.5,0,1,0.4,1,1C752.1,177.2,751.7,177.6,751.1,177.6z"/>
		<path class="st207" d="M751.4,189.9c-0.5,0-1-0.4-1-1c0-0.5,0.4-1,1-1c0.5,0,1,0.4,1,1C752.3,189.5,751.9,189.9,751.4,189.9z"/>
		<path class="st207" d="M750.6,202.4c-0.5,0-1-0.4-1-1c0-0.5,0.4-1,1-1c0.5,0,1,0.4,1,1C751.5,202,751.1,202.4,750.6,202.4z"/>
		<rect x="746.5" y="122.3" class="st204" width="4.8" height="9.7"/>
		<rect x="735.6" y="127.1" class="st204" width="7.3" height="7.3"/>
		<rect x="752.5" y="125.9" class="st204" width="3.6" height="7.3"/>
		<path class="st210" d="M828.3,191.8l2.6-8.8l26-27.6l8.8,12.9L828.3,191.8z"/>
		<path class="st208" d="M840.9,185.8c-0.2,0.3-0.3,0.6-0.5,0.9c-2.9,1.7-6,3.2-9.1,4.5h-0.1c0,0-0.1,0-0.1,0c0,0-0.1-0.1-0.1-0.1
			c0-0.1,0-0.1,0-0.2c0-0.1,0.1-0.1,0.1-0.1C834.5,189.3,837.7,187.6,840.9,185.8z"/>
		<path class="st208" d="M837.8,190.2c-0.2,0.3-0.5,0.6-0.7,0.9c-1.9,1-3.8,1.8-5.8,2.4h-0.1c0,0-0.1,0-0.1,0c0,0-0.1-0.1-0.1-0.1
			c0-0.1,0-0.1,0-0.2c0-0.1,0.1-0.1,0.1-0.1C833.4,192.3,835.7,191.4,837.8,190.2z"/>
		<path class="st207" d="M704.3,262.9c-0.4,1.6-1.2,2.7-1.9,2.5c-0.7-0.2-0.9-1.5-0.5-3.1c0.4-1.6,1.2-2.7,1.9-2.5
			C704.4,259.9,704.7,261.3,704.3,262.9z"/>
		<path class="st167" d="M901.5,337.7l-17.6,91.2"/>
		<path class="st167" d="M939.3,337.7l17.6,91.2"/>
		<path class="st167" d="M919.4,337.7l-4.8,91.2"/>
		<path class="st168" d="M914.7,199.2c-88.2,0-65.5,140.3-27.7,140.3c37.8,0,86.4,0,86.4,0c11.7,0,15.1-14.8,2.9-14.8
			c-12.2,0-21.6,0-21.6,0S979,199.2,914.7,199.2z"/>
		<path class="st169" d="M895.9,327.7c37.8,0,86.4,0,86.4,0c0.3,0,0.6,0,0.8,0c-1.1-1.7-3.3-3-6.8-3c-12.2,0-21.6,0-21.6,0
			s21.4-110.2-28.8-124.1c-0.7,0-1.5-0.1-2.3-0.1C835.4,200.5,858.1,327.7,895.9,327.7z"/>
		<path class="st154" d="M984.1,345.5l-5.9,64.2l-19.9-2.2l1.6-64.1"/>
		<path class="st154" d="M943.9,344.4l-14.6,62.8l-19.4-4.9l10.4-63.3"/>
		<path class="st154" d="M931.1,243c0,0,13,23.8,24.5,20.8s26.7-40.9,26.7-40.9l-13.4-5.8c0,0-13.1,19.8-15.3,19.9
			c-2.2,0.1-7.5-11.6-7.5-11.6"/>
		<path class="st154" d="M966.5,220.6c0,0,10.3-15.7,11.1-15.7c0.9,0-0.6,3,0.1,2.9c0.7-0.1,4.1-6.8,4.9-6.6
			c1.2,0.3-2.1,6.2-2.1,6.2s0.9-1.1,1.9-0.6c0.7,0.4,0.1,2.2,0.1,2.2s1-0.7,1.7-0.3c0.7,0.4,0.1,2,0.1,2s0.9-1.3,1.7-0.3
			c0.7,0.9-2.4,9.5-6.5,18.5"/>
		<path class="st162" d="M977.1,209.2c0,0-0.2,3.2-1,5.8"/>
		<path class="st211" d="M882.8,219.6c-6,10.7-3.8,66.5-3.8,66.5h58.9l0.4-32.8c2.2-5.2,4.5-10.9,4.1-15
			c-0.9-11-11.6-18.7-11.6-18.7l-12.7-14l-13.6,0.6L882.8,219.6z"/>
		<path class="st154" d="M885.5,241.1c0,0-15.5,16.8-27.3,16.8c-11.8,0-36.1-32.9-36.1-32.9l11.5-9c0,0,21.2,19.1,23.4,18.6
			c2.1-0.5,14.1-10.4,14.1-10.4"/>
		<path class="st211" d="M904.5,206.3c0,0-14.6-0.8-21.6,4.2c-5.9,4.2-17.6,17.6-17.6,17.6l17.6,18.2l13.7-13.3"/>
		<path class="st211" d="M918.1,205.7c0,0,11.2-0.6,18.4,4.7c6.6,4.9,14.9,23.9,14.9,23.9l-22.6,6.7l-7-17.7"/>
		<path class="st212" d="M882.9,246.3l13.7-13.3"/>
		<path class="st212" d="M933.4,221.9c0.8,0.1,9.9,10.4,8.9,17.5"/>
		<path class="st154" d="M836.7,218.8c0,0-13.9-12.6-14.7-12.4c-0.8,0.2,1.3,2.8,0.6,2.8c-0.7,0-5.7-5.6-6.4-5.1
			c-1.1,0.6,3.6,5.5,3.6,5.5s-5.3-5.2-6.1-4.4c-0.5,0.6,4.6,6.5,4.6,6.5s-4.6-3.8-5.1-3.2c-0.5,0.6,3.8,5.3,3.8,5.3s-4-3.1-4.5-2.5
			c-0.5,0.5,7.5,11.2,13.7,18.9"/>
		<path class="st162" d="M817.8,214.7c1.9,1.7,6.4,1.2,8.2,3.4"/>
		<path class="st162" d="M823.6,210.4c0,0,1,3,2.4,5.4"/>
		<path class="st173" d="M986.1,212.4c-0.5,0.7-1,1.5-1.5,2.2c-0.3,0.3-0.6,0.7-0.9,1c-0.2,0.2-0.3,0.3-0.5,0.4
			c-0.2,0.1-0.3,0.1-0.3,0.1c0,0-0.1-0.3,0-0.5c0-0.2,0.1-0.4,0.1-0.6c0.1-0.4,0.3-0.8,0.4-1.2c0.3-0.8,0.7-1.6,1-2.4
			c0.1-0.2,0-0.4-0.2-0.4c-0.2-0.1-0.3,0-0.4,0.1c-0.5,0.9-0.9,1.8-1.5,2.6c-0.3,0.4-0.5,0.8-0.9,1.2c-0.1,0.2-0.3,0.3-0.5,0.4
			c-0.1,0.1-0.1,0,0,0c0.1,0.1,0,0,0,0c0-0.4,0.1-0.9,0.2-1.3c0.1-0.5,0.2-1,0.4-1.4c0.3-0.9,0.6-1.9,1-2.8l0,0
			c0.1-0.2,0-0.4-0.2-0.4c-0.2-0.1-0.4,0-0.4,0.2c-0.4,0.9-0.9,1.8-1.3,2.7c-0.2,0.4-0.5,0.9-0.8,1.3c-0.1,0.2-0.3,0.4-0.5,0.5
			c-0.1,0.1-0.2,0.1-0.2,0.1c0,0,0,0,0-0.1c-0.1-0.4,0-0.9,0.1-1.4c0.1-0.5,0.2-1,0.3-1.5c0.2-1,0.5-2,0.8-3
			c-0.4,0.9-0.8,1.9-1.1,2.9c-0.2,0.5-0.3,1-0.4,1.5c-0.1,0.5-0.3,1-0.2,1.6c0,0.1,0.1,0.4,0.4,0.5c0.3,0,0.4-0.1,0.5-0.2
			c0.2-0.2,0.4-0.4,0.6-0.6c0.3-0.4,0.6-0.9,0.9-1.3c0.5-0.9,1-1.8,1.4-2.8l-0.6-0.3c-0.4,0.9-0.7,1.9-1,2.9c-0.2,0.5-0.3,1-0.4,1.5
			c-0.1,0.5-0.2,1-0.2,1.6c0,0.1,0.1,0.4,0.4,0.6c0.3,0.1,0.6,0,0.7-0.1c0.3-0.2,0.5-0.4,0.6-0.6c0.3-0.4,0.6-0.8,0.9-1.3
			c0.5-0.9,1-1.8,1.5-2.7l-0.6-0.3c-0.4,0.8-0.7,1.7-1,2.5c-0.1,0.4-0.3,0.9-0.4,1.3c0,0.2-0.1,0.4-0.1,0.7c0,0.2-0.1,0.5,0.2,0.8
			c0.1,0.2,0.4,0.1,0.5,0.1c0.1,0,0.3-0.1,0.3-0.2c0.2-0.1,0.3-0.3,0.5-0.5c0.3-0.3,0.6-0.7,0.8-1.1
			C985.2,214,985.6,213.2,986.1,212.4z"/>
		<path class="st174" d="M920.2,175.3c2.5,4.3,6.7,16.1,7.4,22.7c0,0.4-6.9,1.3-7.6,1.4c-1.2,0.1-4.3,0.4-5.5,0.2
			c-1.1-0.2,0.1-2.1-0.1-3.1c-0.7-3.9-3-17.3-3.2-21.3"/>
		<path class="st154" d="M917.8,174.2c0,0,7.3,14.7,4.2,21.1c-2.3,4.6-8.2,5.2-12,3.7c-2.8-1.2-9.6-11.3-9-13.7
			C903.4,175.8,917.8,174.2,917.8,174.2z"/>
		<path class="st154" d="M904.7,195.4l-1.3,10.5c0,0,7,6.5,14.8-0.2l-1.3-10.7L904.7,195.4z"/>
		<path class="st174" d="M909.1,201.6c-5.4-0.5-9.1-1.3-13.8-3.2c-0.4-3.5-0.6-14.2,1.7-19.7c1.1-2.8,3.1-5.5,5.9-6.6
			c3.1-1.2,6.1-1.2,9.4-0.3c3.6-2.4,10.2-1.3,11.1,6c-5.6-0.6-9.5,0.1-15.1,1c0,2.5-0.3,5.1-0.7,7.6
			C907.2,188.4,907.5,198.4,909.1,201.6z"/>
		<path class="st162" d="M917.4,199.6c-5.7,0.6-8.1-1.9-8.1-1.9"/>
		<path class="st162" d="M916.8,185.2c0,0,2.8,3.5,2.7,4.5c-0.1,1.1-2.6,1.5-2.6,1.5"/>
		<path class="st42" d="M919.9,192.1l-6.6,1.7c0,0,1.7,3.3,5.2,2.2C921.1,195.1,919.9,192.1,919.9,192.1z"/>
		<path class="st165" d="M919.8,183.7c0.2,0.3,0.3,0.6,0.4,0.9c0.2,0.5-0.6,0.7-0.8,0.2c-0.1-0.3-0.2-0.6-0.3-0.9
			C919.1,183.6,919.6,183.3,919.8,183.7z"/>
		<path class="st166" d="M918.1,182.3c0,0,0.9-1.5,2.5-0.6"/>
		<path class="st165" d="M912,186.3c0.1,0.3,0.3,0.6,0.4,0.9c0.2,0.5-0.6,0.7-0.8,0.2c-0.1-0.3-0.2-0.6-0.2-0.9
			C911.3,186.2,911.8,185.9,912,186.3z"/>
		<path class="st166" d="M912.1,183.7c0,0-1.7-0.4-3.2,1.8"/>
		<path class="st154" d="M908.2,189.2c-1.5-2.4-2.9-2.1-3.7-0.9c-1.1,1.6,0.7,5.2,1.6,5.8c1.8,1.3,3,0.9,3.2-0.7"/>
		<path class="st157" d="M879,286.2c0,0-12.7,41.3,18.1,41.3h20.2c1.3,0,2.2,1.1,2,2.4l-4.4,26.1h71.3c0,0,4.2-42.3,2.2-50.3
			c-2.2-9.2-11.5-19.5-28.4-19.5s-23.2-0.4-23.2-0.4"/>
		<path class="st167" d="M1151.4,337.7l17.6,91.2"/>
		<path class="st167" d="M1113.6,337.7l-17.6,91.2"/>
		<path class="st167" d="M1133.5,337.7l4.8,91.2"/>
		<path class="st168" d="M1138.2,199.2c88.2,0,65.5,140.3,27.7,140.3c-37.8,0-86.4,0-86.4,0c-11.7,0-15.1-14.8-2.9-14.8
			c12.2,0,21.6,0,21.6,0S1073.9,199.2,1138.2,199.2z"/>
		<path class="st169" d="M1157,327.7c-37.8,0-86.4,0-86.4,0c-0.3,0-0.6,0-0.8,0c1.1-1.7,3.3-3,6.8-3c12.2,0,21.6,0,21.6,0
			s-21.4-110.2,28.8-124.1c0.8,0,1.5-0.1,2.3-0.1C1217.5,200.5,1194.8,327.7,1157,327.7z"/>
		<path class="st178" d="M1125.2,290c6.4,8.8,8,37.5-10.8,37.5c-18.8,0-43.7,0-43.7,0l-10.7,79.6l-31.9-4.1c0,0,9.9-77.8,11.2-84.4
			c2.5-12.7,9.3-24.7,28.6-24.7c18.1,0,34.9,0,34.9,0"/>
		<path class="st179" d="M1109.2,316.2h-39.1c-2.6,0-4.9,2-5.2,4.6l-11.5,85.5"/>
		<path class="st176" d="M1161.5,290c6.4,8.8,9.5,37.5-10.8,37.5s-47.6,0-47.6,0l10.1,75.2l-32.9,4.4c0,0-12.4-81.9-13.5-88.5
			c-1.1-6.6-1.6-24.7,24.1-24.7c18.2,0,48.1,0,48.1,0"/>
		<path class="st177" d="M1154.3,290c9.2,11.6,7,31.8-7.3,31.8h-46.8c-2.3,0-3.9,2.2-3.2,4.4l12,77"/>
		<path class="st177" d="M1159.2,300.4c0,0-8.5,0-15.6-10.4"/>
		<path class="st154" d="M1061.3,225.2c0,0-10.9-15.3-11.8-15.2c-0.9,0,0.7,3,0,2.9c-0.7-0.1-4.4-6.6-5.2-6.4
			c-1.2,0.4,2.3,6.2,2.3,6.2s-1-1.1-1.9-0.5c-0.7,0.4,0,2.2,0,2.2s-1-0.6-1.7-0.2c-0.7,0.5-0.1,2-0.1,2s-1-1.3-1.7-0.3
			c-0.7,0.9,2.8,9.4,7.3,18.2"/>
		<path class="st162" d="M1050.3,214.2c0,0,0.4,3.2,1.2,5.8"/>
		<path class="st173" d="M1041.5,217.8c0.4,0.8,0.9,1.5,1.4,2.2c0.3,0.4,0.5,0.7,0.8,1.1c0.2,0.2,0.3,0.3,0.5,0.5
			c0.1,0.1,0.2,0.1,0.4,0.2c0.1,0,0.4,0,0.5-0.1c0.2-0.3,0.1-0.6,0.1-0.8c0-0.2-0.1-0.5-0.1-0.7c-0.1-0.4-0.3-0.9-0.4-1.3
			c-0.3-0.8-0.7-1.7-1.1-2.5l-0.6,0.3c0.5,0.9,1,1.8,1.6,2.6c0.3,0.4,0.6,0.8,0.9,1.2c0.2,0.2,0.4,0.4,0.7,0.6
			c0.1,0.1,0.4,0.2,0.7,0.1c0.3-0.2,0.3-0.5,0.3-0.6c0.1-0.6-0.1-1.1-0.2-1.6c-0.1-0.5-0.3-1-0.5-1.5c-0.3-1-0.7-1.9-1.1-2.8
			l-0.6,0.3c0.5,0.9,1,1.8,1.5,2.7c0.3,0.4,0.6,0.9,0.9,1.3c0.2,0.2,0.4,0.4,0.6,0.6c0.1,0.1,0.3,0.2,0.5,0.2c0.3,0,0.4-0.3,0.4-0.5
			c0.1-0.6-0.1-1.1-0.2-1.6c-0.1-0.5-0.3-1-0.5-1.5c-0.4-1-0.8-1.9-1.2-2.8c0.3,1,0.7,1.9,1,2.9c0.2,0.5,0.3,1,0.4,1.5
			c0.1,0.5,0.2,1,0.2,1.4c0,0.1,0,0.1,0,0.1c0,0-0.1,0-0.2-0.1c-0.2-0.1-0.3-0.3-0.5-0.5c-0.3-0.4-0.6-0.8-0.8-1.3
			c-0.5-0.9-1-1.8-1.4-2.7c-0.1-0.2-0.3-0.2-0.4-0.2c-0.2,0.1-0.2,0.3-0.2,0.4l0,0c0.4,0.9,0.7,1.8,1.1,2.8c0.2,0.5,0.3,0.9,0.4,1.4
			c0.1,0.5,0.2,1,0.2,1.3c0,0.1-0.1,0.1,0,0c0.1,0,0.1,0,0,0c-0.1-0.1-0.3-0.2-0.5-0.4c-0.3-0.3-0.6-0.7-0.9-1.1
			c-0.6-0.8-1.1-1.7-1.6-2.5c-0.1-0.2-0.3-0.2-0.4-0.1c-0.2,0.1-0.2,0.3-0.1,0.4c0.4,0.8,0.8,1.6,1.1,2.4c0.2,0.4,0.3,0.8,0.5,1.2
			c0.1,0.2,0.1,0.4,0.2,0.6c0,0.2,0,0.4,0,0.5c0,0-0.2,0-0.3-0.1c-0.2-0.1-0.3-0.2-0.5-0.4c-0.3-0.3-0.6-0.6-0.9-1
			C1042.5,219.3,1042,218.6,1041.5,217.8z"/>
		<path class="st171" d="M1156.6,207.9c2.7,7.4,5.1,85.9,5.1,85.9h-74.8c0,0,7.6-58.7,12.9-71.9l19.1-17.1l16.5-1.1
			C1135.4,203.7,1141.4,202.9,1156.6,207.9z"/>
		<path class="st180" d="M1114.6,180.9l4.3,3.3"/>
		<path class="st154" d="M1119.5,174.2c0,0-7.8,14.8-4.7,21.3c1.6,3.4,8.8,5,12.5,3.4c2.8-1.2,9.6-11.3,9-13.7
			C1133.8,175.8,1119.5,174.2,1119.5,174.2z"/>
		<path class="st154" d="M1133.3,195.4l2.1,8.3c-3.5,2.5-10.3,5-16.5,1.1l-0.7-9.9L1133.3,195.4z"/>
		<path class="st174" d="M1138.5,192.9c1.5-3.1,1.9-4.5,2.8-8.3c0.9-4-2.1-5.5-2.1-5.5s0.5,0.5-0.9-3.2c-0.7-1.9-3.5-3.7-5.3-4.3
			c-1.2-0.3-2.5-0.5-3.5-1.3c-0.8-0.6-1.3-1.4-2.1-2c-1.4-1-3.4-1.1-4.8-0.2c-1.3,0.8-2.1,2.4-3.6,2.8c-0.6,0.2-1.2,0.1-1.8,0.2
			c-1,0.2-1.8,1-2.2,1.9c-0.4,0.9-0.5,2-0.4,3c0.1,0.8,0.3,1.5,0.9,2.1c1.1,1.1,2.9,1,4.4,0.8c1.5-0.2,3.3-0.5,4.5,0.5
			c0.7,0.5,1.1,1.4,1.8,1.8c0.8,0.5,1.7,0.4,2.5,0.7c1.1,0.3,2,1.3,2.2,2.4c0.1,0.6,0.1,1.3,0.2,1.9c0.1,0.9,0.5,1.7,0.8,2.6
			c0.9,2.8-1.5,4.9-1.3,7.7c0.1,1,3.5,2.4,3.5,2.4S1136.8,196.3,1138.5,192.9z"/>
		<path class="st162" d="M1118.9,199c5,1.1,9.1,0.1,9.1,0.1"/>
		<path class="st162" d="M1120.5,185.2c0,0-2.8,3.5-2.7,4.5c0.1,1.1,2.6,1.5,2.6,1.5"/>
		<path class="st42" d="M1117.3,192.1l6.6,1.7c0,0-1.7,3.3-5.2,2.2C1116.1,195.1,1117.3,192.1,1117.3,192.1z"/>
		<path class="st165" d="M1118,183.9c-0.1,0.3-0.2,0.6-0.3,0.9c-0.2,0.5-1,0.3-0.8-0.2c0.1-0.3,0.3-0.6,0.4-0.9
			C1117.6,183.3,1118.1,183.6,1118,183.9z"/>
		<path class="st166" d="M1119.1,182.3c0,0-0.9-1.5-2.5-0.6"/>
		<path class="st165" d="M1125.8,186.6c-0.1,0.3-0.1,0.6-0.2,0.9c-0.2,0.5-0.9,0.3-0.8-0.2c0.1-0.3,0.2-0.6,0.4-0.9
			C1125.4,185.9,1125.9,186.2,1125.8,186.6z"/>
		<path class="st166" d="M1125.1,183.7c0,0,1.7-0.4,3.2,1.8"/>
		<path class="st180" d="M1122,186.5c0,2.2,1.8,4.1,4.1,4.1s4.1-1.8,4.1-4.1c0-2.2-1.8-4.1-4.1-4.1S1122,184.2,1122,186.5z"/>
		<path class="st180" d="M1113.9,182.4c-0.7,2.1,0,4.3,1.6,4.8c1.6,0.5,3.5-0.7,4.2-2.9c0.7-2.1,0-4.3-1.6-4.8
			S1114.6,180.2,1113.9,182.4z"/>
		<path class="st180" d="M1119.9,183.3l2.7,0.9"/>
		<path class="st180" d="M1130.1,186.9l3.6,4.2"/>
		<path class="st154" d="M1128.7,195.4c-0.2,1.6,1.3,2.1,3.4,1.2c1-0.4,3.6-3.4,2.9-5.3c-0.5-1.4-1.8-2-3.8-0.1"/>
		<path class="st171" d="M1118.9,204.8c0,0-17.1-1.3-25.4,8.9c-5.1,6.3-13.2,31.4-13.2,31.4l-20.3-24.5l-15.3,9.4
			c0,0,18.7,46,35.7,46c24.1,0,32.4-43.4,32.4-43.4"/>
		<path class="st213" d="M1089.8,273.2c1-8.2,5.5-42.7,8.9-48"/>
		<path class="st42" d="M1137.6,203.8l-2.9-2.9c0,0-5.9,5.3-10.4,5.8l3,6.2C1133.7,211.9,1137.6,203.8,1137.6,203.8z"/>
		<path class="st42" d="M1118.5,201.9c2,3.6,5.8,4.9,5.8,4.9l-3.9,5.6c-3.2-2.7-3.7-7.6-3.7-7.6L1118.5,201.9z"/>
		<path class="st213" d="M1062.4,223.5l-15.6,10.7"/>
		<path class="st154" d="M1115.9,258.1c0,0-17.3,3.2-17.7,4c-0.3,0.8,3,0.6,2.6,1.2c-0.4,0.6-8.1,0.8-8.2,1.6
			c-0.2,1.2,6.7,0.9,6.7,0.9s-7.5,0.7-7.4,1.8c0.1,0.8,5.9,0.5,8.1,0.6c-2.4,0.1-6.4,0.8-6.2,1.6c0.1,0.8,4.1,0.7,7.1,0.8
			c-1.9,0.1-5.3,0.6-5.2,1.3c0.1,0.7,13.1,1.2,22.2,1.2"/>
		<path class="st171" d="M1142,204.2c7.6,0.9,19.1,3.7,23,11.4c6.2,12.4,11.7,57.8-1.9,57.8c-13.6,0-48.4,0-48.4,0v-16l34.1-4.9
			c0.2-3.8-2-23.8-2-23.8"/>
		<path class="st213" d="M1114.6,257.3l34.1-4.9c0.2-3.8-2-23.8-2-23.8"/>
		<path class="st213" d="M1119.7,256.6l0.5,16.8"/>
		<path class="st181" d="M886.1,270.9h43.2v2.4h-45.7C883.6,272,884.7,270.9,886.1,270.9z"/>
		<path class="st181" d="M982,273.4h-60.8l11.6-37.3c0.6-1.9,2.4-3.2,4.4-3.2h54.9c1.2,0,2.1,1.2,1.7,2.3L982,273.4z"/>
		<path class="st182" d="M984.7,273.4H924l11.6-37.3c0.6-1.9,2.4-3.2,4.4-3.2h54.9c1.2,0,2.1,1.2,1.7,2.3L984.7,273.4z"/>
		<path class="st181" d="M966.8,253.7c-0.4,1.7-2.5,3.2-4.7,3.2s-3.8-1.4-3.4-3.2c0.4-1.7,2.5-3.2,4.7-3.2S967.2,252,966.8,253.7z"
			/>
		<path class="st182" d="M1025.9,268.4h-3.2v-1.5h3.2c1,0,1.9-0.8,1.9-1.9v-2.7c0-1-0.8-1.9-1.9-1.9h-3.2v-1.5h3.2
			c1.9,0,3.4,1.5,3.4,3.4v2.7C1029.4,266.9,1027.8,268.4,1025.9,268.4z"/>
		<path class="st182" d="M1019,272.5h-0.8c-3.4,0-6.1-2.7-6.1-6.1v-9.7h13.1v9.7C1025.1,269.8,1022.4,272.5,1019,272.5z"/>
		<path class="st183" d="M1009.9,270.3c0,0,0.1,3.1,4.9,3.1h7.5c4.8,0,4.9-3.1,4.9-3.1H1009.9z"/>
		<path class="st181" d="M1141.5,270.9h-43.2l-0.1,2.4h45.7C1143.9,272,1142.9,270.9,1141.5,270.9z"/>
		<path class="st181" d="M1045.5,273.4h60.8l-9.7-37.3c-0.5-1.9-2.2-3.2-4.2-3.2h-54.9c-1.2,0-2.1,1.2-1.8,2.3L1045.5,273.4z"/>
		<path class="st182" d="M1042.7,273.4h60.8l-9.7-37.3c-0.5-1.9-2.2-3.2-4.2-3.2h-54.9c-1.2,0-2.2,1.2-1.8,2.3L1042.7,273.4z"/>
		<path class="st181" d="M1061.7,253.7c0.3,1.7,2.3,3.2,4.6,3.2s3.9-1.4,3.6-3.2c-0.3-1.7-2.3-3.2-4.5-3.2
			C1063,250.5,1061.4,252,1061.7,253.7z"/>
		<path class="st182" d="M1137.9,268.4h-3.2v-1.5h3.2c1,0,1.9-0.8,1.9-1.9v-2.7c0-1-0.8-1.9-1.9-1.9h-3.2v-1.5h3.2
			c1.9,0,3.4,1.5,3.4,3.4v2.7C1141.4,266.9,1139.8,268.4,1137.9,268.4z"/>
		<path class="st182" d="M1131,273.4h-0.8c-3.4,0-6.1-2.7-6.1-6.1v-10.5h13.1v10.5C1137.1,270.6,1134.4,273.4,1131,273.4z"/>
		<path class="st42" d="M1121.9,270.3c0,0,0.1,3.1,4.9,3.1h7.5c4.8,0,4.9-3.1,4.9-3.1H1121.9z"/>
		<path class="st161" d="M1225.9,288.2c-0.7,0.5-1.3,1.2-1.6,2.1c-0.6,1.9,0.5,3.8,1.6,5.4c2.6,4.1,5.2,8.1,7.9,12.2
			c2,3.2,7.8,9.8,11.9,6.8c3.5-2.5,1.5-8.5-0.1-11.5c-2.2-4.3-5.2-8.2-8.5-11.6c-1.5-1.5-3.2-3-5.1-3.8
			C1230,286.9,1227.7,286.9,1225.9,288.2z"/>
		<path class="st184" d="M1228.4,290.7c4.5,4.6,8.5,9.9,11.6,15.6"/>
		<path class="st169" d="M1244.9,241.3c-0.7,0.5-1.3,1.2-1.6,2.1c-0.6,1.9,0.5,3.8,1.6,5.4c2.6,4.1,5.2,8.1,7.9,12.2
			c2,3.2,7.8,9.8,11.9,6.8c3.5-2.5,1.5-8.5-0.1-11.5c-2.2-4.3-5.2-8.2-8.5-11.6c-1.5-1.5-3.2-3-5.1-3.8
			C1249,240,1246.7,240,1244.9,241.3z"/>
		<path class="st184" d="M1247.3,243.8c4.6,4.6,8.5,9.9,11.6,15.6"/>
		<path class="st161" d="M1210.6,284.7c-3.2-2.5-8.4-1.1-11.7,0.2c-6.7,2.7-13.1,7.1-16.5,13.7c-1.7,3.3-2.6,7.3-1.4,10.9
			c0.8,2.3,2.8,4.4,5.1,4c0.8-0.1,1.5-0.6,2.2-1c5.9-3.7,11.3-8.2,15.9-13.4C1207.1,295.9,1216.1,289.3,1210.6,284.7z"/>
		<path class="st184" d="M1192.2,302.2c5-5.9,10.8-11.1,17.2-15.2"/>
		<path class="st161" d="M1222.5,219.6c-0.7-5.1-4.9-8.9-9.2-11.4c-7.7-4.4-17.3-6-25.3-2.1c-0.9,0.4-1.8,1-2.1,2
			c-0.2,0.8,0.2,1.7,0.6,2.5c1.5,2.7,3.7,4.8,6.1,6.6c6.1,4.5,13.1,6.1,19.7,9.2c3.8,1.8,8.7,3,11.9,0.3"/>
		<path class="st185" d="M1200.9,237.3c14.2,29.5,9.6,61.7,16.1,94"/>
		<path class="st185" d="M1247.4,232.1c-2.6,0.1-3.8,3.3-4.3,6c-5.4,25.7-10.1,61.7-10.1,88"/>
		<path class="st185" d="M1194.2,269.7c11.3,21.4,6.9,45.1,14.4,68.3"/>
		<path class="st161" d="M1194.7,264.5c-3.5-3.4-9.9-2.6-14-1.5c-8.3,2.2-16.6,6.5-21.4,13.9c-2.4,3.7-4,8.4-3,12.8
			c0.6,2.8,2.8,5.6,5.6,5.5c1,0,1.9-0.5,2.8-0.9c7.5-3.5,14.4-8.1,20.7-13.7C1189.1,277.3,1200.7,270.7,1194.7,264.5z"/>
		<path class="st184" d="M1170.6,282.7c6.6-6.4,14.2-11.7,22.5-15.6"/>
		<path class="st169" d="M1203.2,239c-1.3-4-10.2-4.5-13.5-4.7c-3.8-0.2-7.8,0.4-11.1,2.4c-3.3,2.1-5.8,5.7-6,9.7
			c0,0.6,0,1.2,0.3,1.8c0.4,0.7,1.2,1.2,1.9,1.5c3.5,1.4,7.3,1.6,11,1c3.7-0.6,7.2-1.8,10.7-3.1c1.5-0.5,3-1.1,4.3-2.1
			C1202.6,244,1203.9,241.3,1203.2,239z"/>
		<path class="st184" d="M1181.7,242.1c6.4-1.7,13-2.4,19.6-2"/>
		<path class="st169" d="M1182.4,273.7c-0.7,4.3-2.4,15.1,2.6,17.4c6.5,3,14.2-12.3,16.4-16.8c2.4-4.8,4.9-9.6,6.7-14.6
			c1.2-3.4,1.9-7.7-0.7-10.1c-1.4-1.3-3.5-1.6-5.4-1.3c-3.9,0.5-7.3,3-10,5.8C1186.8,259.3,1183.5,266.3,1182.4,273.7z"/>
		<path class="st184" d="M1190.5,275.1c3.6-8.6,8.5-16.7,14.5-23.7"/>
		<path class="st184" d="M1201.8,213.2c6.4,1.6,12.4,4.5,17.6,8.6"/>
		<path class="st185" d="M1228.1,219.6c0,0-0.8,27.3,0.3,50.4c0.9,19.7,0.4,36.5-1.6,56.1"/>
		<path class="st169" d="M1226.7,213.6c-2.5-0.1-4.8,1.5-6.2,3.7s-2,4.7-2.7,7.2c-1.1,4.6-3.4,8.7-4.6,13.4
			c-1.2,5-1.7,10.1-1.4,15.2c0.2,2.6,0.7,5.6,2.8,7c1.5,1,3.4,1,5,0.3c1.6-0.7,3-1.9,4.1-3.2c3.7-4.3,5.8-9.9,6.9-15.6
			c1.1-6.1,1-12.3,2.1-18.2C1233.6,218.7,1231.5,214,1226.7,213.6z"/>
		<path class="st184" d="M1217.5,251.9c1.4-11.9,4.7-23.5,9.5-34.4"/>
		<path class="st168" d="M1241.4,368h-38.4l-7.4-48.4h53.2L1241.4,368z"/>
		<path class="st186" d="M1246.7,333.2l0.4-2.8h-49.9l0.4,2.8H1246.7z"/>
		<path class="st167" d="M1205.4,331.8l-11.7,57"/>
		<path class="st167" d="M1238.7,331.8l11.7,57"/>
		<path class="st167" d="M1222,331.8v57"/>
		<path class="st161" d="M1239.9,257.6c2.7-2.6,8.8-1.1,12.2-0.1c4.9,1.6,9.8,4.6,13.9,7.9c2.7,2.1,5.2,4.6,6.9,7.6
			c1.6,3.1,2.2,6.8,1,10c-0.5,1.2-1.2,2.3-2.2,2.9c-0.8,0.5-1.7,0.7-2.6,0.8c-3.3,0.5-6.8-0.3-9.8-2.1c-2.4-1.5-4.4-3.5-6.3-5.6
			c-3.8-4-7.6-8-11.4-11.8C1238.9,264.5,1236.7,260.9,1239.9,257.6z"/>
		<path class="st184" d="M1265.8,276.1c-7.1-6.5-15.3-11.9-24-15.9"/>
		<path class="st169" d="M1207.7,270c-1.8,2.9,5.7,9.9,7.4,11.7c3.9,4,8.2,7.5,12.9,10.5c4.2,2.6,9,4.8,13.7,3.6
			c1.7-0.4,3.4-1.4,4.1-3.1c0.5-1.2,0.4-2.7,0.2-4c-0.7-3.8-2.2-7.5-4.5-10.6c-4-5.4-9.9-8.7-16.2-10.4
			C1220.1,266.3,1211.1,264,1207.7,270z"/>
		<path class="st184" d="M1211.2,270.8c9,4.7,17.8,10,26.3,15.7"/>
		<path class="st169" d="M1241.1,236.7c2-7,10.6-5.5,15.4-6.6c4-0.9,8.2-1.6,12.3-1.3s8.2,1.6,11.4,4.4c1.4,1.2,2.6,2.7,2.9,4.5
			c0.7,3.1-1.2,6.3-3.5,8.4c-6.9,6.4-14.4,5.3-22.3,2.9C1251.8,247.3,1237.5,246.6,1241.1,236.7z"/>
		<path class="st184" d="M1277,244.1c-10.6-3.6-21.7-5.4-32.8-5.5"/>
		<path class="st167" d="M827.7,277.4v151.4"/>
		<path class="st167" d="M1166.3,277.4v151.4"/>
		<path class="st187" d="M1177.7,273.1H816.3v8.6h361.5V273.1z"/>
		<path class="st210" d="M1119.4,95.6h-83.3c-1.3,0-2.4,1.1-2.4,2.4v2.8c0,1.3,1.1,2.4,2.4,2.4h83.3c1.3,0,2.4-1.1,2.4-2.4V98
			C1121.8,96.7,1120.7,95.6,1119.4,95.6z"/>
		<path class="st214" d="M1043.9,95.6V54.9c0-0.1,0-0.1,0.1-0.2c0,0,0.1-0.1,0.2-0.1h14.6c0.1,0,0.1,0,0.2,0.1c0,0,0.1,0.1,0.1,0.2
			v40.7c0,0,0,0.1,0,0.1c0,0,0,0,0,0.1c0,0,0,0-0.1,0c0,0,0,0-0.1,0h-14.6c0,0-0.1,0-0.1,0c0,0,0,0-0.1,0
			C1044,95.8,1043.9,95.7,1043.9,95.6C1043.9,95.7,1043.9,95.7,1043.9,95.6z M1058.5,55.1h-14.2v40.3h14.2V55.1z"/>
		<path class="st214" d="M1061.2,95.6V54.9c0,0,0-0.1,0-0.1c0,0,0-0.1,0.1-0.1c0,0,0,0,0.1,0c0,0,0.1,0,0.1,0h14.6
			c0.1,0,0.1,0,0.2,0.1c0,0,0.1,0.1,0.1,0.2v40.7c0,0.1,0,0.1-0.1,0.1c0,0-0.1,0.1-0.2,0.1h-14.6c-0.1,0-0.1,0-0.1-0.1
			C1061.2,95.7,1061.2,95.7,1061.2,95.6z M1075.8,55.1h-14.2v40.3h14.2V55.1z"/>
		<path class="st210" d="M1084.7,57.6h-5.6v38.1h5.6V57.6z"/>
		<path class="st210" d="M1089.6,59.3l-4.9,2.6l17.9,33.7l4.9-2.6L1089.6,59.3z"/>
		<path class="st210" d="M1056.4,57.6h-9.9v14.9h9.9V57.6z"/>
		<path class="st210" d="M1073.7,57.6h-9.9v14.9h9.9V57.6z"/>
		<path class="st214" d="M1047.3,85.2c0-0.8,0.2-1.6,0.7-2.3c0.4-0.7,1.1-1.2,1.8-1.5c0.8-0.3,1.6-0.4,2.4-0.2
			c0.8,0.2,1.5,0.6,2.1,1.1s1,1.3,1.1,2.1s0.1,1.6-0.2,2.4c-0.3,0.8-0.9,1.4-1.5,1.9c-0.7,0.5-1.5,0.7-2.3,0.7
			c-1.1,0-2.2-0.4-2.9-1.2C1047.7,87.4,1047.3,86.3,1047.3,85.2z M1047.7,85.2c0,0.7,0.2,1.4,0.6,2.1c0.4,0.6,1,1.1,1.7,1.4
			c0.7,0.3,1.4,0.4,2.1,0.2c0.7-0.1,1.4-0.5,1.9-1c0.5-0.5,0.9-1.2,1-1.9c0.1-0.7,0.1-1.5-0.2-2.1c-0.3-0.7-0.8-1.3-1.4-1.7
			c-0.6-0.4-1.3-0.6-2.1-0.6c-1,0-1.9,0.4-2.6,1.1C1048.1,83.3,1047.7,84.2,1047.7,85.2z"/>
		<path class="st214" d="M1064.1,85.2c0-0.9,0.3-1.8,0.8-2.6c0.5-0.8,1.2-1.3,2.1-1.7c0.8-0.3,1.8-0.4,2.7-0.3
			c0.9,0.2,1.7,0.6,2.3,1.3c0.7,0.6,1.1,1.5,1.3,2.4c0.2,0.9,0.1,1.8-0.3,2.7c-0.3,0.8-0.9,1.6-1.7,2.1c-0.8,0.5-1.7,0.8-2.6,0.8
			c-1.2,0-2.4-0.5-3.2-1.4C1064.6,87.6,1064.1,86.4,1064.1,85.2z M1064.5,85.2c0,0.8,0.2,1.6,0.7,2.3c0.5,0.7,1.1,1.2,1.9,1.5
			s1.6,0.4,2.4,0.2c0.8-0.2,1.6-0.6,2.1-1.2c0.6-0.6,1-1.3,1.1-2.1c0.2-0.8,0.1-1.7-0.2-2.4c-0.3-0.8-0.9-1.4-1.5-1.9
			c-0.7-0.5-1.5-0.7-2.3-0.7c-1.1,0-2.2,0.5-2.9,1.2C1065,83.1,1064.5,84.1,1064.5,85.2z"/>
	</g>
</g>
</svg>
