<svg width="548" height="394" viewBox="0 0 548 394" fill="none" xmlns="http://www.w3.org/2000/svg">
<path d="M535.985 291.812C535.765 291.812 535.537 291.789 535.305 291.743C534.039 291.531 533.054 290.717 532.548 289.45C531.928 287.905 532.15 285.957 533.085 284.711C533.808 283.25 535.676 281.717 537.683 280.826C537.274 280.303 536.776 279.896 536.186 279.66C534.832 279.118 532.378 279.012 530.5 279.882C529.523 280.335 528.891 280.973 528.624 281.777C528.539 282.029 528.268 282.166 528.013 282.081C527.76 281.996 527.624 281.723 527.708 281.471C528.059 280.42 528.884 279.568 530.096 279.006C531.957 278.142 534.732 278.037 536.544 278.764C537.389 279.102 538.079 279.7 538.614 280.463C538.96 280.348 539.307 280.253 539.647 280.186C541.696 279.5 543.466 279.541 544.848 280.323C546.335 281.164 547.371 282.865 547.929 285.376C547.987 285.637 547.823 285.893 547.562 285.952C547.301 286.009 547.044 285.846 546.987 285.586C546.49 283.352 545.61 281.863 544.373 281.162C543.234 280.518 541.729 280.503 539.893 281.116C539.636 281.167 539.378 281.234 539.117 281.315C540.121 283.345 540.283 286.094 539.618 288.331C538.956 290.557 537.626 291.811 535.985 291.812ZM538.207 281.653C536.336 282.456 534.573 283.873 533.901 285.214C533.124 286.264 532.95 287.862 533.441 289.09C533.708 289.757 534.278 290.594 535.477 290.793C537.535 291.198 538.407 289.016 538.692 288.057C539.305 285.999 539.131 283.446 538.207 281.653Z" fill="#091A27"/>
<path d="M135.534 319.674C133.168 319.674 130.964 318.736 129.284 317.002C128.538 316.161 127.974 315.044 127.633 313.835C126.385 313.727 125.186 313.296 124.128 312.564C122.283 311.287 121.037 309.197 120.712 306.832C120.345 303.899 121.356 302.096 122.939 299.676C123.085 299.455 123.385 299.392 123.607 299.538C123.83 299.683 123.892 299.982 123.747 300.205C122.241 302.503 121.335 304.046 121.668 306.704C121.956 308.798 123.053 310.647 124.677 311.77C125.506 312.345 126.436 312.705 127.406 312.838C127.203 311.669 127.207 310.463 127.453 309.372C127.917 307.31 129.141 305.804 130.99 305.015C132.111 304.537 133.29 304.664 134.149 305.354C135.135 306.145 135.551 307.535 135.264 309.071C134.77 311.09 132.489 313.056 129.952 313.672C129.512 313.772 129.07 313.832 128.633 313.854C128.936 314.808 129.398 315.681 129.99 316.348C131.566 317.974 133.692 318.806 135.942 318.7C138.316 318.579 140.521 317.441 141.992 315.579C142.157 315.369 142.461 315.335 142.67 315.499C142.878 315.664 142.914 315.966 142.75 316.176C141.106 318.257 138.644 319.528 135.992 319.663C135.839 319.671 135.686 319.674 135.534 319.674ZM132.344 305.693C132.03 305.693 131.7 305.762 131.369 305.904C129.407 306.74 128.668 308.367 128.393 309.585C128.158 310.629 128.169 311.79 128.389 312.897C128.834 312.889 129.285 312.835 129.733 312.733C131.902 312.207 133.92 310.509 134.323 308.868C134.539 307.714 134.25 306.673 133.546 306.107C133.203 305.832 132.789 305.693 132.344 305.693Z" fill="#091A27"/>
<path d="M139.451 43.257C139.186 43.257 138.97 43.0419 138.969 42.7767C138.951 38.6608 140.54 34.5391 143.117 32.0205C144.938 30.2409 147.206 29.2927 149.697 29.2676C151.649 26.2041 155.726 24.3183 159.304 24.9115C161.403 25.2598 163.241 26.4076 165.018 27.5179C168.303 29.5705 171.142 31.3434 174.792 27.4928C174.974 27.2989 175.28 27.2902 175.474 27.4744C175.668 27.6568 175.675 27.9625 175.492 28.1564C171.301 32.581 167.848 30.4242 164.506 28.3358C162.811 27.2757 161.056 26.18 159.147 25.8636C156.165 25.3707 152.687 26.8754 150.838 29.3187C154.691 29.7007 156.658 32.1334 157.216 34.3848C157.737 36.4818 157.117 38.5653 155.744 39.3398C154.951 39.7874 153.253 40.1703 150.795 37.7039C148.6 35.5008 148.018 32.8057 149.165 30.2534C147.124 30.3923 145.321 31.217 143.793 32.7112C141.397 35.0542 139.919 38.9096 139.935 42.7738C139.936 43.04 139.721 43.257 139.455 43.258C139.453 43.257 139.451 43.257 139.451 43.257ZM150.243 30.2419C150.226 30.2746 150.208 30.3074 150.191 30.3412C149.01 32.6321 149.467 35.004 151.477 37.0219C152.942 38.4929 154.325 39.0312 155.268 38.4987C156.255 37.9421 156.69 36.2734 156.278 34.6172C156.035 33.6343 154.885 30.4521 150.243 30.2419Z" fill="#091A27"/>
<path d="M535.942 178.461C532.564 178.461 529.936 176.376 529.249 173.151C528.628 170.234 529.581 168.282 530.489 167.159C531.795 165.546 533.899 164.582 536.116 164.582C539.211 164.582 541.808 166.356 543.066 169.327C543.628 170.698 543.54 172.343 542.823 173.964C542.003 175.816 540.461 177.342 538.797 177.946C537.859 178.288 536.899 178.461 535.942 178.461ZM536.116 165.546C534.187 165.546 532.364 166.375 531.238 167.765C530.125 169.142 529.764 170.935 530.193 172.95C530.78 175.711 533.037 177.495 535.942 177.495C536.786 177.495 537.636 177.342 538.467 177.04C539.892 176.521 541.223 175.192 541.941 173.572C542.551 172.194 542.634 170.818 542.175 169.696C541.076 167.1 538.81 165.546 536.116 165.546Z" fill="#7DBCF5"/>
<path d="M53.1649 310.289C49.7869 310.289 47.1594 308.204 46.4726 304.979C45.8505 302.061 46.8035 300.109 47.7131 298.987C49.0191 297.372 51.1229 296.408 53.3395 296.408C56.4339 296.408 59.0315 298.182 60.2894 301.153C60.8507 302.527 60.7639 304.171 60.0463 305.793C59.2264 307.645 57.684 309.17 56.0211 309.774C55.0825 310.115 54.1228 310.289 53.1649 310.289ZM53.3395 297.373C51.4103 297.373 49.5873 298.202 48.4626 299.593C47.3485 300.97 46.9867 302.762 47.417 304.777C48.0044 307.539 50.2615 309.324 53.1659 309.324C54.0099 309.324 54.8597 309.171 55.6912 308.868C57.1159 308.35 58.447 307.022 59.1647 305.402C59.7752 304.023 59.8582 302.646 59.399 301.523C58.2994 298.928 56.0336 297.373 53.3395 297.373Z" fill="#37CDC7"/>
<path d="M525.36 243.653C523.555 243.653 521.878 242.768 520.872 241.288L511.204 227.054C510.396 225.863 510.099 224.423 510.372 222.999C510.643 221.576 511.449 220.347 512.64 219.537L526.876 209.867C527.771 209.261 528.817 208.939 529.902 208.939C531.707 208.939 533.386 209.824 534.393 211.307L544.062 225.539C545.735 228.008 545.091 231.381 542.624 233.057L528.393 242.723C527.494 243.332 526.446 243.653 525.36 243.653ZM529.9 209.904C529.009 209.904 528.15 210.167 527.417 210.666L513.181 220.336C512.203 221 511.542 222.01 511.318 223.181C511.095 224.351 511.338 225.533 512.002 226.511L521.67 240.745C522.495 241.962 523.875 242.688 525.359 242.688C526.251 242.688 527.111 242.425 527.847 241.924L542.078 232.258C544.107 230.88 544.636 228.109 543.26 226.08L533.592 211.849C532.766 210.631 531.385 209.904 529.9 209.904Z" fill="#37CDC7"/>
<path d="M101.203 368.945C99.2267 368.945 97.7759 367.373 97.4171 364.844L94.6198 345.083C94.3845 343.422 94.6922 342.047 95.5092 341.107C96.5991 339.851 98.4868 339.588 100.566 340.425L119.078 347.881C120.903 348.616 122.02 349.813 122.223 351.25C122.427 352.687 121.687 354.148 120.138 355.36L104.424 367.665C103.355 368.501 102.241 368.945 101.203 368.945ZM98.2592 340.898C97.4133 340.898 96.7139 341.188 96.2365 341.738C95.6172 342.451 95.3818 343.59 95.5747 344.946L98.3721 364.707C98.6624 366.756 99.7205 367.98 101.202 367.98C102.022 367.98 102.931 367.608 103.829 366.904L119.543 354.599C120.807 353.609 121.421 352.465 121.267 351.384C121.114 350.302 120.208 349.375 118.716 348.774L100.205 341.319C99.5112 341.04 98.8572 340.898 98.2592 340.898Z" fill="#7DBCF5"/>
<path d="M251.178 38.7906C250.307 38.7906 249.38 38.5234 248.421 37.9958L230.932 28.3789C229.208 27.4317 228.243 26.1102 228.212 24.6585C228.182 23.2068 229.091 21.8467 230.774 20.8281L247.848 10.4916C248.849 9.88583 249.822 9.57812 250.742 9.57812C252.947 9.57812 254.409 11.3645 254.466 14.13L254.882 34.0825C254.915 35.6596 254.497 36.9396 253.671 37.7817C253.024 38.4415 252.162 38.7906 251.178 38.7906ZM250.741 10.5427C250.01 10.5427 249.183 10.8099 248.345 11.3163L231.271 21.6528C229.897 22.4853 229.152 23.5453 229.175 24.6382C229.198 25.7311 229.986 26.7593 231.396 27.5339L248.885 37.1508C250.53 38.0547 252.068 38.0383 252.98 37.1065C253.621 36.4525 253.944 35.4136 253.917 34.1018L253.5 14.1493C253.454 11.925 252.397 10.5427 250.741 10.5427Z" fill="#37CDC7"/>
<path d="M319.832 394.001C319.824 394.001 319.823 394.001 319.816 394.001C279.917 394 245.293 391.003 222.323 385.563C196.181 379.371 178.769 368.637 170.571 353.658C163.642 341 163.323 325.453 169.624 307.448C169.861 306.771 170.104 306.066 170.358 305.331C175.277 291.075 184.434 264.538 227.997 211.665C259.671 173.223 300.321 152.051 342.461 152.051C358.009 152.051 373.465 154.915 388.399 160.562C425.629 174.642 456.762 197.276 478.432 226.017C496.669 250.205 508.037 278.487 510.44 305.653C513.037 335.005 504.688 359.184 488.649 368.756C459.426 386.194 382.805 394.001 319.832 394.001ZM342.461 153.014C300.615 153.014 260.228 174.062 228.74 212.279C185.289 265.017 176.168 291.446 171.268 305.646C171.014 306.383 170.771 307.089 170.533 307.766C164.326 325.503 164.623 340.787 171.416 353.196C179.478 367.925 196.679 378.498 222.545 384.625C245.444 390.048 279.989 393.036 319.816 393.037C319.82 393.037 319.828 393.037 319.832 393.037C382.675 393.037 459.088 385.273 488.155 367.926C503.872 358.547 512.043 334.717 509.479 305.737C505.325 258.795 471.034 192.844 388.057 161.464C373.233 155.856 357.892 153.014 342.461 153.014Z" fill="#091A27"/>
<mask id="mask0_1236_12219" style="mask-type:luminance" maskUnits="userSpaceOnUse" x="0" y="60" width="249" height="222">
<path d="M5.20315 150.683C0.345486 171.903 -5.95134 230.908 15.6892 253.596C37.3297 276.284 53.7344 279.426 90.7321 280.123C127.73 280.821 146.23 282.912 173.454 281.168C200.68 279.425 243.26 278.463 247.799 216.947C255.996 105.83 172.536 54.5604 105.52 60.4945C38.5055 66.4277 14.3667 110.653 5.20315 150.683Z" fill="white"/>
</mask>
<g mask="url(#mask0_1236_12219)">
<path d="M130.346 113.284C132.265 116.426 133.833 122.011 134.709 128.119C135.322 132.394 136.455 132.832 140.642 134.75C144.831 136.67 145.792 140.334 143.523 142.428C140.29 145.412 140.294 143.782 139.858 147.141C139.566 149.381 140.173 151.17 137.159 150.206C135.976 149.827 133.528 148.37 133.18 148.638C132.137 149.445 132.457 152.497 136.436 154.788C137.886 155.623 139.088 155.511 137.806 162.15C136.689 167.933 129.691 168.825 122.754 167.516C115.817 166.208 117.257 171.443 114.508 178.904C111.759 186.365 111.366 190.554 115.162 193.695C118.958 196.837 121.969 211.888 121.575 215.554C121.183 219.218 108.093 226.809 96.9677 214.506C90.9477 206.129 84.1406 190.03 84.1406 190.03C84.1406 190.03 91.2082 180.213 91.077 170.658C90.9468 161.104 86.8887 125.108 100.108 114.899C113.331 104.689 129.037 110.755 130.346 113.284Z" fill="white"/>
<path d="M110.625 221.729C107.079 221.729 101.769 220.531 96.6121 214.828C90.595 206.461 83.7667 190.378 83.6982 190.216C83.6326 190.061 83.6528 189.884 83.7512 189.747C83.8207 189.649 90.7242 179.945 90.5969 170.663C90.5795 169.344 90.4831 167.471 90.3731 165.304C89.6786 151.722 88.2346 123.461 99.8164 114.517C106.044 109.707 112.549 108.697 116.91 108.697C123.995 108.697 129.854 111.283 130.776 113.063C132.649 116.128 134.264 121.602 135.188 128.051C135.75 131.98 136.681 132.407 140.599 134.2L140.845 134.313C143.271 135.425 144.84 137.178 145.15 139.121C145.371 140.506 144.91 141.808 143.852 142.784C142.704 143.844 141.946 144.341 141.443 144.671C140.611 145.217 140.595 145.227 140.338 147.204C140.285 147.613 140.263 148.005 140.242 148.368C140.154 149.89 140.013 151.626 137.014 150.665C136.513 150.504 135.825 150.175 135.16 149.856C134.579 149.578 133.728 149.171 133.394 149.098C133.219 149.3 133.132 149.651 133.16 150.067C133.238 151.212 134.203 152.944 136.678 154.369C136.805 154.442 136.932 154.508 137.054 154.572C138.625 155.395 139.457 156.157 138.281 162.241C137.499 166.293 133.853 168.525 128.015 168.525C126.35 168.525 124.55 168.344 122.667 167.988C121.989 167.861 121.381 167.797 120.857 167.797C118.012 167.797 117.476 169.56 116.536 173.546C116.151 175.179 115.714 177.029 114.962 179.069C112.043 186.994 112.171 190.59 115.471 193.321C119.428 196.596 122.472 211.733 122.057 215.603C121.792 218.07 116.875 221.729 110.625 221.729ZM84.6907 190.086C85.5733 192.142 91.8432 206.547 97.3606 214.223C102.247 219.623 107.274 220.764 110.625 220.764C116.447 220.764 120.898 217.349 121.097 215.5C121.476 211.959 118.438 197.029 114.855 194.065C110.703 190.627 111.371 186.025 114.057 178.736C114.788 176.751 115.217 174.932 115.596 173.326C116.485 169.556 117.128 166.832 120.856 166.832C121.448 166.832 122.098 166.9 122.844 167.041C124.669 167.386 126.409 167.56 128.014 167.56C131.781 167.56 136.455 166.605 137.333 162.058C138.429 156.383 137.703 156.003 136.605 155.428C136.472 155.358 136.335 155.286 136.195 155.206C133.813 153.835 132.318 151.939 132.197 150.134C132.142 149.322 132.392 148.638 132.885 148.257C133.304 147.933 134.032 148.249 135.575 148.987C136.211 149.292 136.869 149.606 137.306 149.747C137.812 149.909 138.22 149.991 138.518 149.991C139.089 149.991 139.195 149.756 139.278 148.313C139.299 147.929 139.324 147.512 139.38 147.079C139.67 144.844 139.784 144.604 140.912 143.863C141.387 143.551 142.106 143.079 143.195 142.074C144.008 141.323 144.363 140.328 144.195 139.272C143.941 137.676 142.538 136.149 140.441 135.189L140.196 135.077C136.211 133.252 134.869 132.638 134.231 128.187C133.325 121.863 131.759 116.522 129.935 113.536C129.323 112.356 124.179 109.661 116.909 109.661C112.698 109.661 106.418 110.636 100.406 115.279C89.2233 123.915 90.65 151.836 91.3358 165.254C91.4467 167.431 91.5432 169.312 91.5615 170.649C91.683 179.57 85.7691 188.529 84.6907 190.086Z" fill="#091A27"/>
<path d="M90.7344 280.124C93.1777 281.173 116.214 282.393 116.214 282.393C116.214 282.393 126.336 250.109 122.148 213.111C113.771 220.441 104.347 218.694 94.9226 211.016C100.856 229.165 98.0652 266.51 90.7344 280.124Z" fill="#091A27"/>
<path d="M126.174 136.889C126.683 138.521 127.851 139.61 128.782 139.32C129.713 139.029 130.053 137.469 129.544 135.836C129.035 134.204 127.866 133.115 126.938 133.407C126.007 133.698 125.664 135.256 126.174 136.889Z" fill="#091A27"/>
<path d="M127.744 134.188C127.7 134.188 127.653 134.182 127.608 134.168C127.352 134.093 127.206 133.825 127.282 133.569L128.155 130.602C128.23 130.348 128.497 130.199 128.754 130.276C129.009 130.352 129.155 130.62 129.08 130.875L128.207 133.842C128.145 134.052 127.953 134.188 127.744 134.188Z" fill="#091A27"/>
<path d="M104.518 232.655C101.824 212.784 92.9405 199.638 85.082 187.459C83.8762 185.59 82.7622 185.857 82.248 185.959C78.49 186.704 74.2979 188.468 75.3725 190.77C75.6001 191.257 75.9502 191.757 76.3862 192.315C74.7561 192.644 72.8047 193.053 70.4868 193.563C61.7592 195.482 56.3595 198.933 50.9491 204.343C45.5387 209.753 17.8734 243.298 10.1953 251.849C20.3187 271.396 37.687 274.275 37.687 274.275C37.687 274.275 53.5593 258.308 63.5061 246.092C63.1569 248.534 61.9367 271.223 58.4459 280.123C64.6115 283.7 81.7465 283.528 91.2766 283.12C92.8411 284.555 98.9344 283.264 98.9344 283.264C98.9344 283.264 107.31 253.248 104.518 232.655Z" fill="#5F76E8"/>
<path d="M75.1111 118.694C70.5302 120.395 65.4256 124.582 62.6766 142.515C61.3474 151.186 58.1295 160.497 58.7353 169.34C59.3024 177.617 66.4713 179.874 73.779 181.336C80.2166 182.623 105.238 188.589 106.816 177.816C108.657 165.247 88.8458 158.936 91.6875 147.27C92.2653 144.899 94.6468 141.953 97.0988 141.404C100.228 140.703 101.159 143.378 103.591 145.018C106.556 147.017 108.33 145.849 110.111 142.849C111.794 140.014 111.163 135.472 110.897 132.288C110.548 128.118 110.053 126.611 113.671 125.417C118.564 123.804 122.754 120.49 118.044 114.897C124.326 122.356 127.468 121.179 132.572 117.906C137.677 114.634 137.938 111.623 135.976 105.996C134.012 100.367 127.992 91.7285 117.389 93.0374C106.787 94.3464 107.834 97.2257 95.1378 99.8435C82.4409 102.463 74.3259 106.259 75.1111 118.694Z" fill="#091A27"/>
<path d="M122.494 128.469C122.44 128.469 122.386 128.46 122.332 128.441C122.081 128.351 121.95 128.076 122.04 127.825C122.382 126.865 124.318 122.03 128.809 121.101C129.07 121.049 129.325 121.215 129.379 121.477C129.434 121.737 129.266 121.993 129.004 122.047C125.019 122.87 123.26 127.275 122.948 128.15C122.878 128.345 122.692 128.469 122.494 128.469Z" fill="#091A27"/>
<path d="M90.9079 282.699C90.8983 282.699 90.8877 282.699 90.878 282.699C90.6118 282.681 90.4102 282.453 90.4266 282.187C90.4526 281.768 90.5414 280.626 90.6706 278.963C91.4259 269.26 93.4332 243.486 92.6972 237.6C91.9265 231.437 93.5962 229.894 96.1244 227.557C96.4408 227.265 96.7726 226.958 97.1179 226.625C95.8736 225.832 92.6056 223.755 90.1324 222.245C87.5492 220.667 86.9801 218.525 85.4619 212.796C85.0085 211.088 84.4944 209.15 83.8124 206.785C81.7395 199.586 78.7869 196 76.8327 193.628C76.3533 193.045 75.9395 192.542 75.5941 192.06C75.4388 191.843 75.489 191.542 75.706 191.387C75.924 191.232 76.225 191.283 76.3793 191.499C76.7053 191.955 77.1095 192.446 77.5773 193.014C79.5818 195.449 82.6115 199.127 84.7394 206.517C85.4243 208.893 85.9615 210.92 86.3937 212.55C87.8405 218.005 88.3826 220.047 90.635 221.422C93.7448 223.323 98.1047 226.111 98.1481 226.14C98.2706 226.218 98.3516 226.349 98.368 226.494C98.3835 226.639 98.3324 226.783 98.2301 226.887C97.7199 227.397 97.2337 227.846 96.7803 228.266C94.3081 230.551 92.9461 231.81 93.6551 237.481C94.4036 243.464 92.3915 269.309 91.6333 279.038C91.5041 280.694 91.4153 281.831 91.3902 282.248C91.3729 282.503 91.1616 282.699 90.9079 282.699Z" fill="white"/>
<path d="M158.27 219.565L154.605 230.384C154.605 230.384 145.879 214.505 140.294 207.524C135.075 200.999 127.571 196.915 121.625 194.699C117.615 188.06 111.948 187.102 111.948 187.102C111.948 187.102 111.498 188.674 112.329 190.662C113.158 192.65 122.143 208.221 120.05 233.003C117.957 257.785 110.801 282.392 110.801 282.392H116.211C116.211 282.392 116.253 282.255 116.33 282.002C120.4 282.526 128.688 283.361 128.95 281.52C129.299 279.077 134.013 259.53 136.804 253.422C145.182 268.954 152.953 272.122 164.198 267.399C172.237 264.023 178.863 237.018 179.735 226.372C179.91 226.196 158.27 219.565 158.27 219.565Z" fill="#5F76E8"/>
<path d="M116.213 282.873C116.167 282.873 116.119 282.866 116.072 282.853C115.817 282.774 115.674 282.505 115.752 282.25C115.86 281.897 126.584 246.763 128.133 240.05C129.726 233.145 129.676 232.317 128.637 230.287C127.331 227.738 126.211 225.498 126.211 225.498C126.099 225.274 126.176 225.003 126.389 224.872C127.567 224.145 130.513 221.826 130.012 219.858C128.898 215.488 124.654 201.004 121.552 195.5L121.451 195.324C121.319 195.092 121.399 194.798 121.631 194.666C121.861 194.532 122.157 194.614 122.289 194.846L122.392 195.028C125.542 200.616 129.825 215.219 130.947 219.622C131.606 222.207 128.391 224.678 127.266 225.451C127.64 226.196 128.515 227.935 129.496 229.85C130.71 232.219 130.661 233.388 129.075 240.269C127.518 247.015 116.783 282.179 116.675 282.534C116.611 282.739 116.42 282.873 116.213 282.873Z" fill="white"/>
<path d="M136.803 253.903C136.736 253.903 136.668 253.889 136.602 253.86C136.36 253.749 136.254 253.463 136.364 253.22C144.209 236.048 141.285 229.867 139.537 226.173C139.233 225.531 138.971 224.975 138.789 224.429C138.705 224.176 138.842 223.903 139.093 223.818C139.349 223.733 139.62 223.872 139.704 224.123C139.868 224.615 140.119 225.146 140.409 225.76C142.228 229.604 145.273 236.039 137.241 253.621C137.16 253.798 136.986 253.903 136.803 253.903Z" fill="#091A27"/>
<path d="M157.445 237.41C157.265 237.41 157.092 237.31 157.009 237.137C156.99 237.096 155.063 233.063 153.334 228.912C153.232 228.667 153.348 228.384 153.594 228.282C153.839 228.183 154.121 228.295 154.224 228.542C155.944 232.671 157.86 236.682 157.88 236.722C157.995 236.962 157.894 237.25 157.653 237.365C157.585 237.396 157.515 237.41 157.445 237.41Z" fill="#091A27"/>
<path d="M159.668 215.419C161.631 209.268 164.511 192.645 165.165 186.493C165.819 180.342 162.155 171.703 166.473 166.206C170.793 160.709 173.542 157.96 174.719 155.212C175.898 152.463 178.646 152.07 180.086 154.819C181.526 157.568 179.3 162.411 176.029 165.813C184.013 160.709 184.667 162.541 187.154 158.615C189.642 154.688 194.485 144.609 197.626 144.871C200.244 141.337 203.254 143.3 203.778 148.144C205.349 148.013 206.788 151.678 205.741 157.175C209.537 159.401 209.144 167.515 203.778 173.667C198.412 179.819 188.202 183.484 185.977 188.458C183.752 193.431 180.087 222.62 180.087 222.62L159.668 215.419Z" fill="white"/>
<path d="M180.085 223.101C180.031 223.101 179.977 223.091 179.924 223.074L159.506 215.874C159.26 215.787 159.127 215.521 159.206 215.272C161.185 209.075 164.054 192.358 164.684 186.442C164.904 184.369 164.623 182.009 164.324 179.51C163.744 174.668 163.144 169.661 166.094 165.908C167.423 164.217 168.597 162.792 169.633 161.536C171.953 158.722 173.486 156.863 174.275 155.021C174.962 153.417 176.175 152.46 177.52 152.46C178.711 152.46 179.801 153.238 180.512 154.594C181.8 157.052 180.487 160.771 178.239 163.905C180.299 162.724 181.734 162.092 182.778 161.632C184.688 160.791 185.403 160.476 186.745 158.355C187.276 157.518 187.933 156.364 188.63 155.143C191.937 149.345 194.881 144.531 197.388 144.386C198.556 142.903 199.664 142.584 200.4 142.584C202.302 142.584 203.773 144.577 204.207 147.698C204.52 147.774 204.894 147.97 205.263 148.415C206.227 149.581 207.053 152.502 206.273 156.94C207.494 157.783 208.295 159.207 208.601 161.081C209.25 165.066 207.499 170.13 204.14 173.981C201.608 176.885 198.111 179.18 194.729 181.401C191.038 183.825 187.552 186.114 186.417 188.653C184.246 193.505 180.601 222.387 180.564 222.677C180.546 222.821 180.464 222.95 180.34 223.028C180.261 223.077 180.174 223.101 180.085 223.101ZM160.265 215.119L179.682 221.966C180.229 217.677 183.457 192.906 185.535 188.261C186.786 185.465 190.387 183.1 194.199 180.597C197.526 178.413 200.966 176.154 203.412 173.35C206.59 169.706 208.254 164.953 207.648 161.239C207.366 159.513 206.623 158.252 205.495 157.591C205.319 157.488 205.227 157.285 205.266 157.085C206.029 153.069 205.442 150.147 204.519 149.033C204.365 148.846 204.124 148.623 203.857 148.623C203.611 148.623 203.323 148.441 203.297 148.196C202.997 145.418 201.832 143.551 200.4 143.551C199.618 143.551 198.792 144.107 198.013 145.159C197.913 145.294 197.754 145.371 197.585 145.353H197.584C195.325 145.353 191.801 151.533 189.468 155.623C188.766 156.855 188.103 158.018 187.561 158.874C186.06 161.243 185.153 161.642 183.167 162.517C181.694 163.165 179.676 164.055 176.288 166.22C176.082 166.35 175.81 166.307 175.656 166.12C175.5 165.931 175.512 165.656 175.681 165.48C178.645 162.398 181.047 157.692 179.659 155.044C179.113 154.001 178.354 153.427 177.521 153.427C176.575 153.427 175.693 154.166 175.163 155.402C174.319 157.371 172.751 159.273 170.377 162.152C169.344 163.404 168.174 164.823 166.852 166.506C164.15 169.945 164.725 174.75 165.28 179.397C165.586 181.952 165.875 184.365 165.643 186.546C165.025 192.356 162.252 208.55 160.265 215.119Z" fill="#091A27"/>
<path d="M180.741 174.802C180.523 174.802 180.325 174.654 180.272 174.432C179.611 171.654 177.123 167.121 175.762 166.214C175.54 166.066 175.48 165.766 175.628 165.545C175.775 165.323 176.074 165.263 176.296 165.411C177.99 166.541 180.541 171.404 181.21 174.209C181.272 174.468 181.111 174.728 180.852 174.79C180.816 174.798 180.779 174.802 180.741 174.802Z" fill="#091A27"/>
<path d="M196.706 172.185C196.529 172.185 196.359 172.088 196.274 171.919C195.787 170.944 189.992 163.997 187.783 163.26C187.53 163.176 187.394 162.903 187.478 162.65C187.562 162.398 187.834 162.261 188.088 162.345C190.621 163.19 196.607 170.43 197.136 171.488C197.256 171.726 197.159 172.015 196.92 172.135C196.852 172.169 196.778 172.185 196.706 172.185Z" fill="#091A27"/>
<path d="M195.53 172.841C195.348 172.841 195.173 172.738 195.091 172.562C194.98 172.319 195.086 172.033 195.328 171.921C196.843 171.222 200.177 166.948 201.077 162.062C201.538 159.558 202.308 158.002 203.43 157.307C204.47 156.662 205.62 156.883 206.394 157.104C206.651 157.177 206.799 157.445 206.726 157.7C206.652 157.956 206.386 158.1 206.13 158.032C205.166 157.755 204.489 157.786 203.94 158.127C203.072 158.664 202.429 160.047 202.026 162.238C201.099 167.267 197.623 171.924 195.733 172.797C195.666 172.827 195.598 172.841 195.53 172.841Z" fill="#091A27"/>
<path d="M193.83 168.52C193.694 168.52 193.561 168.464 193.466 168.354C193.291 168.152 193.313 167.849 193.513 167.673C196.366 165.192 197.535 161.575 198.592 156.165C199.563 151.186 201.457 148.416 204.217 147.93C204.478 147.882 204.729 148.058 204.776 148.32C204.822 148.583 204.647 148.833 204.385 148.879C202.057 149.289 200.426 151.803 199.539 156.35C198.443 161.966 197.209 165.738 194.147 168.401C194.054 168.481 193.942 168.52 193.83 168.52Z" fill="#091A27"/>
<path d="M190.818 165.118C190.721 165.118 190.625 165.09 190.541 165.03C190.323 164.877 190.271 164.576 190.424 164.359C191.844 162.34 193.626 156.57 195.059 151.936C196.13 148.469 197.056 145.475 197.724 144.248C197.852 144.014 198.145 143.928 198.378 144.055C198.612 144.182 198.698 144.476 198.571 144.709C197.948 145.851 196.993 148.944 195.98 152.219C194.451 157.165 192.72 162.77 191.212 164.913C191.119 165.046 190.97 165.118 190.818 165.118Z" fill="#091A27"/>
<path d="M62.4579 247.621C62.348 247.621 62.2361 247.583 62.1464 247.506C61.9438 247.333 61.9187 247.029 62.0914 246.826C65.0324 243.367 70.9492 237.098 71.009 237.035C71.1913 236.843 71.4961 236.833 71.69 237.016C71.8839 237.199 71.8926 237.504 71.7093 237.698C71.6504 237.76 65.751 244.01 62.8254 247.451C62.7309 247.564 62.5949 247.621 62.4579 247.621Z" fill="#091A27"/>
<path d="M158.813 213.864C156.884 217.481 155.768 223.347 156.16 223.871C156.553 224.395 170.87 225.559 180.637 232.552C182.862 233.599 183.573 223.289 183.226 222.095C182.309 218.954 159.992 212.555 158.813 213.864Z" fill="#091A27"/>
<path d="M104.343 232.263C104.23 232.263 104.118 232.225 104.027 232.145C103.982 232.107 99.5849 228.289 97.539 226.926C97.3181 226.779 97.2573 226.479 97.4049 226.258C97.5525 226.037 97.8506 225.976 98.0734 226.124C100.169 227.52 104.476 231.258 104.659 231.417C104.859 231.592 104.88 231.896 104.706 232.097C104.611 232.207 104.477 232.263 104.343 232.263Z" fill="white"/>
<path d="M120.24 230.302C120.117 230.302 119.993 230.255 119.899 230.161C119.711 229.973 119.711 229.667 119.899 229.479C121.742 227.637 124.097 226.223 125.656 225.287C126.042 225.056 126.374 224.857 126.627 224.693C126.851 224.548 127.15 224.611 127.294 224.834C127.439 225.057 127.375 225.356 127.153 225.5C126.892 225.67 126.551 225.875 126.152 226.114C124.634 227.025 122.34 228.402 120.582 230.16C120.487 230.255 120.364 230.302 120.24 230.302Z" fill="white"/>
<path d="M106.222 161.751C105.712 156.993 101.961 152.116 97.5077 154.961C93.6349 157.434 92.4561 164.092 96 167.249C97.5086 168.593 99.951 169.221 101.992 168.821C105.421 168.148 106.567 164.977 106.222 161.751Z" fill="#7DBCF5"/>
</g>
<path d="M151.951 282.329H151.949C142.538 282.329 133.321 281.982 122.651 281.579C113.485 281.233 103.096 280.84 90.7269 280.607C54.5925 279.926 37.6563 277.324 15.3444 253.931C-5.53501 232.04 -0.818177 174.846 4.73688 150.577C17.3952 95.283 51.2898 64.8136 105.481 60.0157C108.952 59.709 112.51 59.5527 116.055 59.5527C151.896 59.5527 187.894 75.2697 212.349 101.595C231.133 121.817 252.616 158.25 248.283 216.984C243.835 277.267 202.841 279.82 175.714 281.511L173.488 281.652C166.26 282.113 159.416 282.329 151.951 282.329ZM116.055 60.5164C112.538 60.5164 109.009 60.6707 105.565 60.9755C51.8377 65.7329 18.2295 95.9514 5.67542 150.791C0.157985 174.895 -4.56945 231.657 16.0409 253.264C38.101 276.392 54.8944 278.966 90.7433 279.642C103.122 279.875 113.515 280.267 122.687 280.614C133.348 281.016 142.555 281.363 151.948 281.363H151.95C159.395 281.363 166.218 281.148 173.426 280.687L175.653 280.547C202.445 278.879 242.934 276.356 247.32 216.912C250.729 170.696 238.392 131.047 211.641 102.25C187.365 76.1176 151.632 60.5164 116.055 60.5164Z" fill="#091A27"/>
<path d="M165.354 83.7019C171.89 81.9966 192.783 78.0167 203.727 75.7431C214.671 73.4686 226.609 71.9051 228.172 72.6169C229.735 73.3269 212.396 95.2143 204.295 103.883C201.595 105.73 197.9 102.32 197.9 102.32C190.225 110.279 181.556 113.264 180.135 113.548C178.713 113.832 178.002 105.021 177.86 99.7614C177.718 94.5034 178.651 93.479 174.308 91.3772C160.805 84.8373 165.354 83.7019 165.354 83.7019Z" fill="#FF1300"/>
<path d="M180.133 114.029C179.921 114.029 179.727 113.888 179.668 113.674C179.598 113.417 179.749 113.151 180.006 113.082C180.719 112.822 183.312 108.622 185.206 105.554C187.241 102.258 189.164 99.1435 190.309 97.9986C192.466 95.8408 212.347 82.27 220.785 76.5587L179.458 92.9605C179.211 93.058 178.93 92.9374 178.831 92.6905C178.733 92.4426 178.854 92.1628 179.101 92.0644L224.579 74.0151C224.818 73.9186 225.092 74.0305 225.198 74.2668C225.303 74.5022 225.204 74.78 224.973 74.8948C223.569 75.6394 193.246 96.4244 190.989 98.6805C189.923 99.7464 187.941 102.957 186.024 106.061C182.732 111.393 181.191 113.757 180.258 114.012C180.218 114.023 180.176 114.029 180.133 114.029Z" fill="#091A27"/>
<path d="M198.751 103.371C198.652 103.371 198.552 103.341 198.466 103.279L198.259 103.126C195.345 100.996 191.717 98.3372 190.866 98.7712C190.628 98.8899 190.34 98.7934 190.219 98.5552C190.1 98.3169 190.197 98.0275 190.435 97.9079C191.748 97.253 194.348 99.0712 198.828 102.347L199.035 102.498C199.251 102.656 199.298 102.958 199.141 103.173C199.046 103.303 198.899 103.371 198.751 103.371Z" fill="#091A27"/>
<path d="M235.846 181.148C230.38 181.649 227.277 185.044 227.825 194.706C228.371 204.37 226.183 214.343 230.013 218.081C233.842 221.822 243.502 221.824 252.438 221.978C261.372 222.133 272.943 221.871 276.368 221.822C284.435 221.705 287.306 220.304 288.401 213.991C289.045 210.275 287.499 189.314 287.444 187.11C287.306 181.616 283.752 180.915 275.958 180.564C268.484 180.227 240.952 180.681 235.846 181.148Z" fill="#7DBCF5"/>
<path d="M257.793 206.729C257.757 206.729 257.721 206.728 257.685 206.728C253.839 206.671 250.713 203.435 248.418 200.623C244.179 195.423 234.64 184.76 232.321 182.779C232.119 182.606 232.095 182.301 232.268 182.099C232.441 181.895 232.746 181.873 232.948 182.046C235.297 184.053 244.905 194.788 249.167 200.012C251.329 202.663 254.252 205.712 257.7 205.764C260.166 205.78 262.744 204.284 265.367 201.256C272.589 192.924 283.307 182.429 283.414 182.323C283.606 182.137 283.911 182.141 284.096 182.331C284.282 182.521 284.279 182.827 284.088 183.013C283.981 183.118 273.292 193.586 266.096 201.887C263.275 205.144 260.557 206.729 257.793 206.729Z" fill="#091A27"/>
<path d="M230.014 218.564C229.837 218.564 229.666 218.466 229.582 218.297C229.463 218.059 229.56 217.769 229.799 217.651C231.053 217.027 237.448 210.99 242.117 206.583C245.985 202.932 248.198 200.851 248.723 200.53C248.951 200.39 249.247 200.463 249.387 200.69C249.526 200.917 249.454 201.214 249.227 201.354C248.764 201.638 245.856 204.381 242.779 207.285C236.452 213.257 231.51 217.876 230.229 218.514C230.16 218.549 230.086 218.564 230.014 218.564Z" fill="#091A27"/>
<path d="M284.529 220.123C284.364 220.123 284.202 220.038 284.112 219.884C283.805 219.362 280.212 215.469 276.738 211.706C272.151 206.738 267.409 201.601 266.691 200.461C266.55 200.237 266.617 199.938 266.842 199.797C267.07 199.654 267.366 199.724 267.506 199.947C268.177 201.012 273.101 206.346 277.446 211.053C281.871 215.847 284.601 218.814 284.943 219.397C285.078 219.627 285.001 219.922 284.771 220.058C284.696 220.101 284.612 220.123 284.529 220.123Z" fill="#091A27"/>
<mask id="mask1_1236_12219" style="mask-type:luminance" maskUnits="userSpaceOnUse" x="282" y="0" width="247" height="216">
<path d="M366.532 6.89677C332.835 14 280.088 28.6656 282.514 92.9514C284.941 157.237 309.658 190.371 350.926 203.228C392.194 216.085 493.455 229.29 514.955 186.549C536.455 143.808 529.367 82.7885 518.271 57.4209C507.174 32.0532 480.277 -17.079 366.532 6.89677Z" fill="white"/>
</mask>
<g mask="url(#mask1_1236_12219)">
<path d="M457.689 59.3319C455.036 48.0791 430.599 33.6103 420.15 37.6297C409.7 41.6482 423.043 46.31 423.043 46.31C406.968 43.4162 399.251 45.3445 397.643 49.3649C396.035 53.3843 402.787 54.9913 402.787 54.9913C391.855 55.3135 379.638 63.8337 381.406 69.7823C383.174 75.7299 390.409 73.5596 390.409 73.5596C380.119 81.8396 381.798 90.2585 392.534 89.264C381.245 97.7553 379.639 113.349 383.979 118.976C388.318 124.604 392.532 116.086 392.532 116.086C387.997 128.622 394.748 136.821 401.179 126.372C399.733 140.679 412.433 142.609 416.452 135.535C420.311 149.201 429.474 147.109 431.082 140.358C436.066 146.628 445.872 144.538 447.802 137.786C453.268 144.217 458.091 138.348 457.608 133.365C463.235 139.956 472.077 140.759 473.845 128.783C481.883 134.732 485.903 134.571 483.732 120.343C497.157 125.246 504.23 110.295 488.796 97.4341C499.086 100.167 497.96 89.5563 483.25 83.2064C493.619 82.9653 494.905 75.891 489.761 70.6668C484.617 65.4416 475.936 55.3125 457.689 59.3319Z" fill="#091A27"/>
<path d="M406.594 86.793C405.024 96.217 407.816 99.0105 410.608 105.642C413.401 112.274 409.497 119.262 416.936 127.543C423.872 135.265 434.343 134.786 434.343 134.786L437.31 146.828L462.965 140.195L457.381 116.025C457.381 116.025 462.616 113.147 461.045 102.849C459.475 92.5516 459.3 67.073 434.343 70.912C409.387 74.7501 408.864 79.2876 406.594 86.793Z" fill="white"/>
<path d="M437.308 147.31C437.221 147.31 437.136 147.287 437.061 147.242C436.95 147.176 436.871 147.068 436.84 146.943L433.965 135.273C432.142 135.272 422.896 134.901 416.576 127.864C411.796 122.542 411.581 117.621 411.392 113.279C411.278 110.678 411.171 108.221 410.163 105.827C409.623 104.542 409.088 103.415 408.57 102.324C406.48 97.9214 404.83 94.445 406.119 86.7119L406.357 85.9036C408.538 78.5988 409.854 74.1887 434.27 70.4336C435.979 70.1712 437.628 70.0371 439.17 70.0371C457.545 70.0371 459.744 88.2938 461.058 99.2014C461.216 100.519 461.361 101.726 461.521 102.774C462.918 111.93 459.086 115.415 457.925 116.243L463.434 140.084C463.491 140.339 463.337 140.595 463.084 140.66L437.429 147.293C437.389 147.305 437.348 147.31 437.308 147.31ZM434.342 134.304C434.563 134.304 434.757 134.454 434.809 134.67L437.659 146.239L462.387 139.845L456.908 116.133C456.86 115.923 456.957 115.705 457.145 115.601C457.194 115.574 462.061 112.716 460.566 102.92C460.405 101.863 460.258 100.646 460.098 99.3181C458.823 88.7279 456.687 71.0027 439.168 71.0027C437.674 71.0027 436.075 71.1319 434.415 71.3875C410.601 75.0501 409.352 79.2393 407.279 86.1795L407.054 86.9309C405.83 94.3052 407.344 97.496 409.44 101.911C409.963 103.012 410.503 104.149 411.052 105.454C412.126 108.006 412.237 110.547 412.356 113.237C412.547 117.621 412.745 122.156 417.294 127.22C423.354 133.967 432.255 134.309 433.978 134.309C434.441 134.309 434.327 134.304 434.342 134.304Z" fill="#091A27"/>
<path d="M466.966 94.0531C466.095 88.7941 465.027 83.8198 462.308 79.1338C460.632 76.2439 459.119 73.271 456.285 71.3448C448.324 65.9344 437.603 66.2585 428.544 68.1385C421.349 69.6316 413.34 72.1801 407.765 77.14C405.912 78.7875 398.408 86.2679 403.268 88.4295C406.113 89.6951 409.249 87.0097 411.396 85.1962C411.493 85.4692 411.645 85.7624 411.868 86.0981C413.315 88.2684 416.932 88.5096 419.344 88.0273C425.614 87.0627 431.642 82.9632 436.224 78.3814C435.259 79.8283 434.054 81.7575 434.536 83.6866C435.501 85.857 437.671 86.0981 439.6 86.0981C443.7 85.857 447.558 82.4809 450.452 79.8283C448.04 84.4101 445.388 88.9919 445.146 94.2971C444.905 96.7086 445.146 99.3612 446.111 101.532C447.317 104.425 449.969 104.425 452.381 102.737C451.175 106.596 450.452 110.213 452.14 114.07C453.146 116.371 456.319 120.26 460.741 119.456C464.272 118.815 464.926 110.531 466.206 107.64C468.596 102.245 467.939 99.9274 466.966 94.0531Z" fill="#091A27"/>
<path d="M401.757 90.1624C399.598 90.1624 397.51 89.3946 396.927 87.2059C396.587 85.9336 396.789 84.3912 397.091 83.3717C397.675 81.3866 399.48 78.5767 401.111 77.1086C401.307 76.9302 401.612 76.9456 401.792 77.1443C401.971 77.342 401.954 77.6469 401.756 77.8253C400.263 79.169 398.55 81.8341 398.016 83.6446C397.752 84.5379 397.571 85.8767 397.86 86.957C398.584 89.6781 402.427 89.2036 403.191 89.0801C405.478 88.7126 407.174 88.1879 408.527 87.4316C408.759 87.3033 409.054 87.3853 409.184 87.6168C409.314 87.8493 409.231 88.1435 408.999 88.2737C407.543 89.0869 405.747 89.6463 403.344 90.0331C402.824 90.1161 402.288 90.1624 401.757 90.1624Z" fill="white"/>
<path d="M427.21 118.491C427.201 118.491 427.192 118.491 427.184 118.49C424.01 118.314 422.027 117.581 421.12 116.247C419.994 114.59 420.713 112.427 421.411 110.336C421.547 109.928 421.682 109.521 421.801 109.123C422.87 105.558 420.422 101.255 417.695 98.7651C415.543 96.8002 412.799 96.4317 411.036 96.9352C410.034 97.2217 409.347 97.786 409.15 98.4853C409.078 98.7419 408.815 98.8905 408.555 98.8191C408.298 98.7467 408.15 98.4805 408.221 98.2239C408.511 97.1957 409.44 96.3883 410.771 96.0083C412.794 95.4295 415.92 95.8385 418.345 98.0532C421.387 100.829 423.92 105.415 422.725 109.401C422.603 109.808 422.464 110.224 422.325 110.642C421.703 112.511 421.06 114.443 421.918 115.706C422.634 116.76 424.424 117.373 427.237 117.529C427.503 117.544 427.707 117.771 427.692 118.038C427.678 118.292 427.465 118.491 427.21 118.491Z" fill="#091A27"/>
<path d="M425.733 97.1698C425.628 97.1698 425.522 97.136 425.433 97.0656C425.224 96.8997 425.189 96.5968 425.355 96.3875C427.039 94.2606 431.917 89.8602 440.803 94.9185C441.034 95.0506 441.115 95.3448 440.984 95.5763C440.852 95.8078 440.558 95.8879 440.326 95.7567C432.387 91.2386 428.013 94.5876 426.111 96.9865C426.016 97.1081 425.876 97.1698 425.733 97.1698Z" fill="#091A27"/>
<path d="M437.068 104.627C437.875 106.134 437.837 107.731 436.977 108.191C436.119 108.653 434.765 107.804 433.956 106.295C433.146 104.79 433.189 103.193 434.046 102.735C434.906 102.274 436.258 103.12 437.068 104.627Z" fill="#091A27"/>
<path d="M434.635 103.453C434.558 103.453 434.48 103.435 434.408 103.396L431.677 101.942C431.443 101.816 431.353 101.524 431.479 101.289C431.605 101.054 431.898 100.968 432.132 101.091L434.862 102.545C435.097 102.671 435.186 102.963 435.061 103.197C434.974 103.36 434.807 103.453 434.635 103.453Z" fill="#091A27"/>
<path d="M418.873 106.198C419.679 107.706 419.641 109.301 418.781 109.762C417.924 110.223 416.57 109.374 415.761 107.866C414.951 106.36 414.993 104.764 415.851 104.306C416.71 103.844 418.063 104.689 418.873 106.198Z" fill="#091A27"/>
<path d="M416.439 105.023C416.362 105.023 416.285 105.004 416.213 104.966L413.482 103.511C413.248 103.386 413.158 103.094 413.283 102.859C413.409 102.623 413.703 102.536 413.936 102.66L416.667 104.114C416.901 104.24 416.991 104.532 416.866 104.766C416.779 104.93 416.612 105.023 416.439 105.023Z" fill="#091A27"/>
<path d="M430.45 126.695C428.148 126.695 425.888 124.559 424.084 120.678C424.011 120.521 424.027 120.337 424.129 120.196C424.228 120.055 424.394 119.979 424.569 119.995C425.063 120.044 425.574 120.096 426.075 120.096C427.937 120.096 430.142 119.363 435.907 115.621C436.063 115.52 436.26 115.518 436.419 115.612C436.578 115.708 436.667 115.885 436.65 116.069C436.047 122.624 433.671 126.695 430.45 126.695ZM425.331 121.031C426.873 124.03 428.714 125.731 430.45 125.731C432.937 125.731 434.908 122.329 435.581 116.976C429.535 120.824 427.511 121.185 425.331 121.031Z" fill="#091A27"/>
<path d="M429.104 126.323C429.062 126.323 429.019 126.318 428.977 126.305C428.719 126.235 428.569 125.97 428.638 125.713C429.488 122.596 432.951 120.268 435.228 120.402C435.493 120.418 435.696 120.647 435.679 120.913C435.663 121.178 435.458 121.381 435.168 121.365C433.229 121.241 430.285 123.345 429.569 125.967C429.511 126.182 429.316 126.323 429.104 126.323Z" fill="#091A27"/>
<path d="M371.121 208.3C375.702 203.851 397.56 174.924 406.068 164.584C414.575 154.244 424.392 153.982 437.743 153.851C434.456 140.679 435.329 140.387 435.984 140.517C436.638 140.649 449.11 143.369 461.545 134.73C464.84 133.846 464.706 147.045 467.848 148.746C470.989 150.449 491.931 146.128 502.272 156.47C512.612 166.809 519.811 191.286 519.811 191.286C514.183 200.317 475.963 228.719 427.928 215.631C427.011 211.573 420.466 205.289 418.503 197.307C410.388 207.908 404.628 215.761 404.628 215.761C404.628 215.761 378.844 214.059 371.121 208.3Z" fill="#FF5252"/>
<path d="M447.76 157.817C442.501 157.817 438.836 155.69 437.395 154.184C437.212 153.991 437.218 153.686 437.411 153.502C437.603 153.317 437.908 153.325 438.093 153.517C440.797 156.345 451.893 161.425 466.874 148.124C467.074 147.947 467.378 147.965 467.555 148.164C467.732 148.364 467.713 148.668 467.514 148.846C459.769 155.722 452.978 157.817 447.76 157.817Z" fill="#091A27"/>
<path d="M444.984 157.695C444.776 157.695 444.585 157.56 444.522 157.353C444.347 156.779 440.235 143.265 439.801 141.351C439.742 141.091 439.905 140.833 440.165 140.774C440.426 140.715 440.682 140.878 440.742 141.137C441.168 143.017 445.401 156.932 445.445 157.072C445.522 157.327 445.379 157.597 445.124 157.674C445.077 157.688 445.03 157.695 444.984 157.695Z" fill="#091A27"/>
<path d="M450.657 157.606C450.451 157.606 450.261 157.474 450.195 157.267L445.135 141.125C445.056 140.871 445.197 140.6 445.452 140.521C445.705 140.444 445.976 140.583 446.056 140.838L451.117 156.98C451.196 157.234 451.055 157.505 450.8 157.584C450.753 157.598 450.705 157.606 450.657 157.606Z" fill="#091A27"/>
<path d="M456.591 155.861C456.389 155.861 456.2 155.731 456.132 155.529L451.071 140.084C450.988 139.83 451.127 139.558 451.38 139.475C451.627 139.392 451.904 139.53 451.988 139.783L457.049 155.228C457.132 155.482 456.993 155.754 456.741 155.837C456.692 155.853 456.641 155.861 456.591 155.861Z" fill="#091A27"/>
<path d="M462.001 153.069C461.793 153.069 461.601 152.933 461.539 152.724L457.262 138.239C457.187 137.983 457.332 137.715 457.588 137.64C457.843 137.562 458.112 137.71 458.187 137.966L462.464 152.451C462.539 152.706 462.394 152.975 462.138 153.05C462.092 153.062 462.046 153.069 462.001 153.069Z" fill="#091A27"/>
<path d="M434.482 135.357C434.43 135.357 434.379 135.356 434.329 135.355C434.064 135.349 433.853 135.128 433.86 134.862C433.866 134.595 434.06 134.39 434.354 134.391C437.772 134.511 446.957 131.51 452.817 124.272C452.984 124.065 453.287 124.034 453.495 124.201C453.702 124.369 453.734 124.673 453.566 124.879C447.582 132.27 438.159 135.357 434.482 135.357Z" fill="#091A27"/>
<path d="M420.337 202.631C420.152 202.631 419.976 202.524 419.896 202.342C416.701 195.08 416.453 187.834 416.453 185.787C416.453 185.521 416.669 185.305 416.935 185.305C417.202 185.305 417.418 185.521 417.418 185.787C417.418 187.211 417.58 194.68 420.779 201.954C420.886 202.198 420.775 202.483 420.531 202.59C420.469 202.617 420.403 202.631 420.337 202.631Z" fill="#091A27"/>
<path d="M490.622 211.793C490.413 211.793 490.221 211.656 490.16 211.447C490.117 211.299 485.821 196.599 484.012 191.043C483.93 190.789 484.069 190.518 484.321 190.435C484.579 190.354 484.846 190.492 484.929 190.745C486.744 196.314 491.043 211.028 491.085 211.176C491.16 211.432 491.014 211.7 490.758 211.774C490.713 211.786 490.667 211.793 490.622 211.793Z" fill="#091A27"/>
<path d="M458.995 120.304C457.499 120.304 455.773 119.809 453.923 118.839C453.687 118.716 453.596 118.424 453.719 118.188C453.843 117.951 454.138 117.862 454.371 117.985C456.572 119.138 458.548 119.569 460.07 119.228C463.658 118.413 465.148 112.127 465.148 108.942C465.148 108.735 465.281 108.552 465.475 108.484C465.67 108.419 465.887 108.483 466.014 108.647C467.654 110.781 469.585 111.776 472.089 111.776C474.532 111.612 476.892 108.908 477.196 106.78C477.235 106.517 477.484 106.33 477.742 106.371C478.005 106.409 478.19 106.654 478.152 106.917C477.791 109.448 475.078 112.543 472.121 112.74H472.118C469.704 112.74 467.719 111.9 466.061 110.18C465.729 114.127 463.87 119.354 460.284 120.169C459.877 120.259 459.447 120.304 458.995 120.304Z" fill="white"/>
</g>
<path d="M437.198 216.24C437.193 216.24 437.192 216.24 437.187 216.24C403.144 216.239 369.365 209.477 350.783 203.688C306.816 189.99 284.327 153.773 282.033 92.9698C280.967 64.7103 290.608 42.8826 310.692 28.0926C327.315 15.8501 348.199 10.269 366.432 6.42512C386.658 2.16261 405.267 0 421.745 0C451.458 0 475.244 7.01351 492.446 20.8438C506.599 32.223 513.918 46.2645 518.712 57.227C524.819 71.1875 528.883 93.5003 529.319 115.46C529.699 134.599 527.59 162.506 515.386 186.765C503.132 211.124 466.105 216.24 437.198 216.24ZM421.743 0.964587C405.333 0.964587 386.791 3.11947 366.631 7.36848C324.015 16.3526 280.754 33.5435 282.996 92.9331C285.274 153.279 307.54 189.206 351.068 202.767C371.05 208.992 405.427 215.275 437.187 215.276C437.19 215.276 437.194 215.276 437.197 215.276C465.834 215.276 502.489 210.254 514.523 186.332C526.639 162.249 528.732 134.509 528.354 115.479C527.92 93.6382 523.887 71.4653 517.828 57.6138C511.051 42.1206 493.048 0.964587 421.743 0.964587Z" fill="#091A27"/>
<path d="M325.172 49.959H287.36C280.787 49.959 275.765 55.6124 276.167 62.4475L277.187 79.8197C277.557 86.1513 282.861 91.116 289.012 91.0224L316.37 90.6105C317.798 94.8557 318.843 98.9861 321.58 98.7854C323.538 98.5925 324.377 94.4515 324.935 90.4552C330.673 90.0993 335.399 85.2089 335.614 79.1802L336.229 62.1745C336.47 55.4861 331.533 49.959 325.172 49.959Z" fill="white"/>
<path d="M321.387 99.2743C318.707 99.2743 317.604 95.9137 316.327 92.0226C316.226 91.7168 316.125 91.4081 316.022 91.0985L288.837 91.5065C282.415 91.5065 277.084 86.3855 276.702 79.8476L275.683 62.4753C275.476 58.9623 276.685 55.54 279 53.0861C281.195 50.7585 284.164 49.4766 287.358 49.4766H325.17C328.231 49.4766 331.103 50.7074 333.26 52.9433C335.577 55.3451 336.834 58.7163 336.708 62.1908L336.093 79.1965C335.875 85.2705 331.193 90.3365 325.354 90.9046C324.741 95.1652 323.844 99.0457 321.624 99.2647C321.537 99.2714 321.461 99.2743 321.387 99.2743ZM316.367 90.1281C316.575 90.1281 316.758 90.2603 316.824 90.457C316.967 90.8805 317.106 91.304 317.244 91.7216C318.434 95.3475 319.481 98.4641 321.542 98.304C323.375 98.1236 324.159 92.5039 324.455 90.3886C324.487 90.1619 324.674 89.9883 324.903 89.9738C330.433 89.6314 334.926 84.8827 335.13 79.1627L335.746 62.157C335.862 58.943 334.704 55.8284 332.567 53.6137C330.595 51.5688 327.969 50.4421 325.172 50.4421H287.36C284.434 50.4421 281.714 51.616 279.703 53.7487C277.571 56.0107 276.457 59.1707 276.647 62.4204L277.667 79.7926C278.013 85.7209 283.025 90.5429 288.839 90.5429L289.003 90.541L316.361 90.1291C316.361 90.1291 316.364 90.1281 316.367 90.1281Z" fill="#091A27"/>
<path d="M294.641 71.0212C294.641 73.1173 292.981 74.8169 290.934 74.8169C288.887 74.8169 287.227 73.1173 287.227 71.0212C287.227 68.9242 288.887 67.2246 290.934 67.2246C292.981 67.2256 294.641 68.9242 294.641 71.0212Z" fill="#37CDC7"/>
<path d="M309.299 71.0212C309.299 73.1173 307.638 74.8169 305.591 74.8169C303.544 74.8169 301.883 73.1173 301.883 71.0212C301.883 68.9242 303.544 67.2246 305.591 67.2246C307.638 67.2256 309.299 68.9242 309.299 71.0212Z" fill="#37CDC7"/>
<path d="M323.951 71.0212C323.951 73.1173 322.291 74.8169 320.244 74.8169C318.195 74.8169 316.535 73.1173 316.535 71.0212C316.535 68.9242 318.195 67.2246 320.244 67.2246C322.292 67.2256 323.951 68.9242 323.951 71.0212Z" fill="#37CDC7"/>
<path d="M446.779 376.635H409.236C408.97 376.635 408.754 376.418 408.754 376.152C408.754 375.886 408.97 375.67 409.236 375.67H446.78C447.046 375.67 447.262 375.886 447.262 376.152C447.261 376.419 447.046 376.635 446.779 376.635Z" fill="#091A27"/>
<path d="M335.826 239.979C324.701 234.613 322.607 222.571 338.837 217.99C327.449 203.985 338.967 195.869 346.69 194.298C354.413 192.728 369.727 196.655 384.517 209.351C399.308 222.046 405.721 222.701 410.172 232.648C414.622 242.596 412.527 250.318 408.077 260.397C403.627 270.475 403.103 273.617 411.742 281.732C420.381 289.847 427.449 297.962 421.429 313.276C415.408 328.59 343.419 322.962 340.016 312.49C336.612 302.019 344.728 263.668 344.728 263.668L335.826 239.979Z" fill="#091A27"/>
<path d="M327.579 302.675C325.876 295.214 327.853 278.084 342.762 269.559C353.635 263.342 359.384 272.047 359.384 272.047L361.086 300.712C361.086 300.712 331.243 302.806 327.579 302.675Z" fill="#091A27"/>
<path d="M243.807 259.613C242.499 257.781 240.538 255.273 238.706 256.582C236.874 257.89 239.791 268.519 247.996 267.204C245.901 264.064 243.807 259.613 243.807 259.613Z" fill="white"/>
<path d="M246.621 267.798C242.023 267.798 239.186 264.04 238.156 260.825C237.622 259.157 237.372 256.943 238.426 256.19C238.847 255.89 239.303 255.736 239.779 255.736C241.408 255.736 242.866 257.465 244.199 259.331C244.264 259.451 246.347 263.862 248.397 266.936C248.488 267.073 248.503 267.246 248.438 267.396C248.372 267.547 248.234 267.654 248.072 267.68C247.582 267.759 247.094 267.798 246.621 267.798ZM239.779 256.701C239.504 256.701 239.245 256.791 238.987 256.975C238.628 257.23 238.46 258.608 239.075 260.53C240.051 263.577 242.546 266.834 246.621 266.834C246.621 266.834 246.621 266.834 246.622 266.834C246.802 266.834 246.985 266.827 247.168 266.815C245.226 263.748 243.39 259.859 243.371 259.817C242.732 258.938 241.135 256.701 239.779 256.701Z" fill="#091A27"/>
<path d="M266.974 260.791C262.524 259.351 259.644 255.818 261.085 252.937C262.524 250.058 267.236 253.853 270.509 256.471C273.782 259.089 276.923 259.613 276.923 259.613C276.923 259.613 272.079 262.099 266.974 260.791Z" fill="white"/>
<path d="M270.091 261.653C268.969 261.653 267.881 261.52 266.856 261.258C263.873 260.293 261.49 258.39 260.606 256.285C260.089 255.053 260.106 253.82 260.655 252.721C261.08 251.872 261.799 251.424 262.735 251.424C264.973 251.424 268.175 253.986 270.749 256.044C273.937 258.595 276.974 259.132 277.004 259.137C277.208 259.171 277.369 259.333 277.4 259.539C277.431 259.744 277.329 259.947 277.144 260.041C277.016 260.107 273.96 261.653 270.091 261.653ZM262.736 252.387C262.166 252.387 261.779 252.631 261.518 253.151C261.093 254.003 261.084 254.932 261.495 255.911C262.273 257.765 264.43 259.459 267.125 260.331C268.042 260.564 269.049 260.688 270.091 260.688C272.28 260.688 274.226 260.145 275.431 259.711C274.169 259.292 272.219 258.453 270.209 256.846C267.82 254.936 264.635 252.387 262.736 252.387Z" fill="#091A27"/>
<path d="M271.645 300.978C271.296 293.298 270.423 277.94 269.202 273.055C267.98 268.168 260.3 269.562 259.777 269.388C259.254 269.214 249.699 272.835 244.987 263.281C240.274 253.725 244.071 250.191 246.689 251.108C247.605 247.966 250.223 248.882 251.662 250.453C252.971 247.704 256.767 250.585 257.683 254.118C258.599 257.652 259.515 260.794 266.845 259.878C274.176 258.961 283.206 256.867 286.74 267.469C290.275 278.071 293.154 294.563 293.154 294.563C293.154 294.563 291.758 305.036 271.645 300.978Z" fill="white"/>
<path d="M280.033 302.393C277.509 302.393 274.654 302.075 271.549 301.448C271.332 301.404 271.172 301.219 271.162 300.997C270.927 295.805 270.055 278.455 268.734 273.169C268.175 270.94 265.97 269.81 262.178 269.81C261.562 269.81 261.016 269.838 260.602 269.86C260.125 269.884 259.859 269.895 259.697 269.864C259.593 269.872 259.409 269.913 259.157 269.963C258.339 270.127 256.97 270.4 255.314 270.4C250.503 270.4 246.783 268.011 244.553 263.492C241.274 256.842 242.227 253.53 243.087 252.146C243.845 250.927 245.121 250.31 246.374 250.527C247.038 248.799 248.222 248.527 248.901 248.527C249.774 248.527 250.739 248.952 251.571 249.686C251.99 249.158 252.559 248.874 253.218 248.874C255.138 248.874 257.443 251.268 258.15 253.995C258.924 256.978 259.592 259.555 264.484 259.555C265.176 259.555 265.951 259.501 266.785 259.397C267.322 259.331 267.869 259.256 268.422 259.182C270.575 258.892 272.801 258.593 274.986 258.593C278.98 258.593 284.592 259.498 287.199 267.315C290.704 277.829 293.602 294.312 293.63 294.478C293.638 294.527 293.639 294.577 293.633 294.625C293.621 294.703 292.451 302.393 280.033 302.393ZM272.109 300.577C275.008 301.143 277.673 301.429 280.033 301.429C291.008 301.429 292.527 295.269 292.664 294.563C292.439 293.293 289.637 277.686 286.282 267.62C283.9 260.475 278.993 259.558 274.985 259.558C272.866 259.558 270.672 259.854 268.55 260.139C267.995 260.214 267.445 260.288 266.905 260.356C266.031 260.465 265.217 260.521 264.484 260.521C258.846 260.521 257.98 257.184 257.216 254.24C256.574 251.763 254.54 249.84 253.218 249.84C252.727 249.84 252.361 250.108 252.097 250.66C252.029 250.805 251.892 250.906 251.734 250.929C251.572 250.954 251.415 250.897 251.306 250.779C250.58 249.987 249.659 249.494 248.901 249.494C248.078 249.494 247.49 250.082 247.151 251.243C247.113 251.37 247.027 251.476 246.909 251.537C246.791 251.599 246.652 251.605 246.53 251.563C245.585 251.234 244.523 251.666 243.908 252.658C243.301 253.635 242.233 256.604 245.421 263.069C247.505 267.295 250.835 269.438 255.316 269.438C256.876 269.438 258.187 269.176 258.97 269.019C259.341 268.945 259.566 268.899 259.724 268.899C259.777 268.899 259.882 268.915 259.931 268.93C260.109 268.922 260.308 268.911 260.554 268.898C260.98 268.877 261.544 268.847 262.18 268.847C266.472 268.847 268.993 270.224 269.671 272.937C270.982 278.185 271.849 294.947 272.109 300.577Z" fill="#091A27"/>
<path d="M248.715 268.399C248.613 268.399 248.509 268.366 248.421 268.298C245.458 266.008 243.491 262.586 242.576 258.127C242.522 257.866 242.691 257.611 242.952 257.557C243.216 257.504 243.468 257.671 243.521 257.933C244.388 262.16 246.234 265.391 249.01 267.535C249.221 267.698 249.26 268 249.097 268.211C249.003 268.335 248.86 268.399 248.715 268.399Z" fill="#091A27"/>
<path d="M261.086 266.639C261.079 266.639 261.071 266.639 261.065 266.639C258.369 266.522 256.136 265.369 254.428 263.211C251.162 259.085 250.791 252.436 251.187 250.359C251.237 250.098 251.486 249.924 251.752 249.976C252.013 250.026 252.185 250.278 252.135 250.54C251.775 252.425 252.155 258.786 255.185 262.613C256.71 264.541 258.702 265.571 261.106 265.676C261.372 265.688 261.579 265.913 261.567 266.178C261.556 266.437 261.343 266.639 261.086 266.639Z" fill="#091A27"/>
<path d="M255.982 270.172C255.968 270.172 255.955 270.171 255.941 270.17C253.422 269.96 251.319 268.785 249.692 266.68C245.841 261.695 245.863 253.029 246.212 251.021C246.258 250.759 246.507 250.579 246.771 250.63C247.033 250.675 247.209 250.925 247.163 251.187C246.83 253.102 246.803 261.361 250.456 266.09C251.91 267.973 253.783 269.023 256.022 269.21C256.288 269.231 256.484 269.465 256.462 269.731C256.441 269.982 256.23 270.172 255.982 270.172Z" fill="#091A27"/>
<path d="M346.688 309.613C351.007 311.576 363.572 316.027 386.346 310.268C385.56 325.975 383.991 359.09 383.991 359.09C383.991 359.09 365.012 369.823 352.315 365.373C348.782 359.351 346.688 309.613 346.688 309.613Z" fill="#091A27"/>
<path d="M350.574 297.185C354.369 296.661 358.466 295.216 358.072 288.933C357.679 282.649 356.633 274.403 356.633 274.403C346.817 274.273 337.13 269.167 332.681 259.089C328.23 249.011 334.12 243.775 337.393 233.305C340.664 222.834 346.818 214.195 360.559 215.112C374.302 216.027 381.632 222.572 381.632 222.572C379.277 234.875 376.92 252.284 382.025 253.332C387.13 254.378 388.44 245.348 388.44 245.348C396.162 241.551 404.251 246.171 401.135 252.938C397.34 261.184 388.308 256.996 388.308 256.996C386.477 261.708 378.754 266.944 378.754 266.944C379.932 276.63 381.105 292.652 388.434 293.568C385.423 308.883 383.859 314.457 383.859 314.457C383.859 314.457 357.551 320.87 347.994 311.447C348.387 308.174 350.574 297.185 350.574 297.185Z" fill="white"/>
<path d="M365.882 317.07C357.342 317.07 351.211 315.293 347.657 311.789C347.552 311.684 347.5 311.536 347.517 311.388C347.907 308.135 350.013 297.54 350.103 297.09C350.142 296.889 350.306 296.735 350.51 296.707C354.22 296.195 357.963 294.875 357.594 288.963C357.256 283.563 356.423 276.626 356.208 274.878C345.53 274.586 336.373 268.642 332.241 259.285C328.967 251.871 331.113 247.07 333.83 240.991C334.903 238.59 336.013 236.106 336.933 233.161C341.082 219.886 348.8 213.843 360.592 214.63C374.344 215.547 381.65 221.941 381.955 222.212C382.082 222.325 382.139 222.497 382.108 222.663C378.572 241.126 378.578 252.132 382.124 252.859C382.365 252.909 382.603 252.934 382.832 252.934C386.807 252.934 387.953 245.355 387.963 245.279C387.987 245.121 388.085 244.985 388.228 244.916C390.114 243.989 392.14 243.499 394.089 243.499C397.289 243.499 400.021 244.78 401.396 246.927C402.537 248.707 402.599 250.914 401.575 253.14C399.52 257.605 395.975 258.542 393.364 258.542C391.234 258.542 389.393 257.942 388.566 257.625C386.62 261.865 380.582 266.255 379.268 267.174C379.357 267.913 379.445 268.686 379.538 269.485C380.645 279.113 382.163 292.298 388.493 293.09C388.626 293.107 388.747 293.178 388.825 293.286C388.903 293.394 388.933 293.53 388.907 293.662C385.927 308.82 384.34 314.533 384.323 314.588C384.276 314.756 384.142 314.886 383.973 314.926C383.887 314.947 375.07 317.07 365.882 317.07ZM348.505 311.268C351.899 314.479 357.742 316.106 365.882 316.106C374.044 316.106 381.916 314.408 383.47 314.053C383.81 312.774 385.314 306.905 387.867 293.959C381.217 292.499 379.698 279.298 378.581 269.595C378.478 268.694 378.377 267.825 378.278 267.002C378.257 266.821 378.337 266.646 378.486 266.544C378.562 266.492 386.105 261.338 387.862 256.821C387.91 256.697 388.008 256.599 388.131 256.549C388.255 256.498 388.394 256.503 388.513 256.558C388.535 256.569 390.75 257.578 393.365 257.578C396.754 257.578 399.221 255.949 400.7 252.736C401.596 250.791 401.557 248.962 400.585 247.447C399.389 245.579 396.96 244.463 394.091 244.463C392.365 244.463 390.568 244.881 388.879 245.674C388.628 247.117 387.218 253.899 382.834 253.899C382.54 253.899 382.237 253.867 381.932 253.804C377.632 252.922 377.355 242.477 381.109 222.76C379.834 221.731 372.687 216.402 360.531 215.592C349.112 214.833 341.908 220.479 337.856 233.449C336.918 236.447 335.746 239.07 334.713 241.384C332.093 247.245 330.025 251.874 333.125 258.894C337.157 268.024 346.167 273.783 356.643 273.921C356.884 273.924 357.085 274.103 357.115 274.343C357.126 274.425 358.168 282.676 358.557 288.903C358.97 295.503 354.536 297.07 350.983 297.613C350.624 299.43 348.915 308.139 348.505 311.268Z" fill="#091A27"/>
<path d="M347.473 253.289C347.392 253.289 347.31 253.269 347.235 253.227C344.473 251.653 343.025 250.111 342.808 248.513C342.54 246.528 344.149 244.915 345.705 243.354C346.009 243.049 346.313 242.745 346.598 242.442C349.146 239.728 348.876 234.785 347.546 231.339C346.976 229.863 346.015 228.987 344.688 228.74C342.937 228.419 341.047 229.285 340.152 230.27C339.972 230.467 339.669 230.482 339.471 230.302C339.273 230.123 339.259 229.818 339.438 229.621C340.536 228.414 342.75 227.403 344.866 227.792C346.018 228.008 347.577 228.737 348.447 230.993C349.929 234.834 350.15 240.069 347.3 243.102C347.009 243.412 346.699 243.724 346.388 244.036C344.998 245.43 343.56 246.872 343.764 248.385C343.936 249.647 345.263 250.994 347.711 252.389C347.943 252.521 348.024 252.815 347.893 253.046C347.803 253.202 347.641 253.289 347.473 253.289Z" fill="#091A27"/>
<path d="M371.123 236.972C370.967 236.972 370.816 236.896 370.722 236.757C365.634 229.167 360.225 230.213 357.453 231.515C357.214 231.628 356.926 231.525 356.811 231.282C356.698 231.041 356.802 230.754 357.044 230.641C359.501 229.491 365.83 227.727 371.523 236.22C371.672 236.441 371.613 236.741 371.391 236.889C371.309 236.946 371.215 236.972 371.123 236.972Z" fill="#091A27"/>
<path d="M363.349 243.835C362.839 245.466 361.671 246.556 360.74 246.267C359.81 245.976 359.469 244.416 359.979 242.783C360.487 241.151 361.656 240.062 362.585 240.354C363.516 240.644 363.858 242.201 363.349 243.835Z" fill="#091A27"/>
<path d="M362.831 241.421C362.623 241.421 362.43 241.285 362.369 241.076L361.496 238.109C361.421 237.852 361.567 237.585 361.822 237.51C362.082 237.435 362.347 237.579 362.421 237.836L363.294 240.803C363.37 241.059 363.224 241.327 362.968 241.402C362.922 241.415 362.877 241.421 362.831 241.421Z" fill="#091A27"/>
<path d="M344.286 240.257C343.777 241.888 342.609 242.977 341.678 242.689C340.747 242.398 340.407 240.838 340.916 239.205C341.425 237.572 342.594 236.484 343.523 236.776C344.452 237.066 344.796 238.623 344.286 240.257Z" fill="#091A27"/>
<path d="M343.765 237.845C343.557 237.845 343.364 237.709 343.303 237.499L342.43 234.531C342.355 234.275 342.5 234.008 342.757 233.932C343.011 233.856 343.281 234.002 343.355 234.258L344.228 237.227C344.303 237.483 344.158 237.75 343.902 237.825C343.856 237.839 343.81 237.845 343.765 237.845Z" fill="#091A27"/>
<path d="M347.279 262.971C346.262 262.971 345.41 262.621 344.748 261.928C343.576 260.703 343.053 258.434 343.195 255.186C343.203 254.998 343.319 254.833 343.493 254.761C343.665 254.69 343.864 254.725 344.002 254.851C344.694 255.483 346.721 256.221 350.163 256.221C352.31 256.221 354.674 255.919 357 255.35C357.208 255.299 357.419 255.388 357.527 255.569C357.636 255.749 357.616 255.978 357.477 256.137C353.658 260.479 349.942 262.971 347.279 262.971ZM344.137 256.097C344.126 258.575 344.574 260.351 345.444 261.261C347.28 263.175 351.366 261.218 355.732 256.614C351.062 257.53 346.365 257.262 344.137 256.097Z" fill="#091A27"/>
<path d="M345.248 262.103C345.166 262.103 345.083 262.082 345.008 262.039C344.777 261.906 344.697 261.612 344.829 261.38C345.964 259.407 350.571 258.176 353.322 259.109C353.574 259.194 353.709 259.468 353.623 259.72C353.539 259.973 353.263 260.106 353.012 260.022C350.522 259.177 346.507 260.398 345.666 261.861C345.577 262.016 345.415 262.103 345.248 262.103Z" fill="#091A27"/>
<path d="M356.429 274.93C356.146 274.928 355.89 274.732 355.891 274.446C355.892 274.181 356.108 273.966 356.373 273.966C356.394 273.964 356.412 273.966 356.431 273.966C361.317 273.966 369.194 271.147 374.471 268.352C374.706 268.226 374.999 268.316 375.123 268.552C375.248 268.787 375.158 269.079 374.923 269.204C369.541 272.055 361.475 274.93 356.429 274.93Z" fill="#091A27"/>
<path d="M271.297 298.75C273.522 299.535 284.385 299.535 293.155 294.561C294.595 302.544 299.962 326.367 299.962 326.367C307.422 318.252 317.762 308.698 322.475 304.64C327.187 300.582 334.386 296.656 341.453 296.917C348.522 297.178 352.186 296.786 352.186 296.786C352.186 296.786 346.559 306.734 349.438 334.351C352.316 361.969 353.234 365.633 353.234 365.633L343.548 364.718C343.548 364.718 345.511 358.566 339.621 351.498C333.732 344.43 332.03 339.98 331.244 334.744C324.962 341.158 308.208 358.958 294.203 359.089C280.198 359.221 275.224 346.655 273.261 330.948C271.297 315.241 271.297 298.75 271.297 298.75Z" fill="#37CDC7"/>
<path d="M379.15 358.918C375.223 360.096 358.336 365.111 350.613 364.587C342.891 364.063 334.907 360.266 328.623 361.838C322.341 363.408 311.564 371.327 312.328 374.468C312.916 376.89 315.796 375.581 315.796 375.581C316.844 377.807 318.938 376.628 318.938 376.628C319.985 378.854 324.829 377.544 327.708 375.057C330.587 372.571 334.121 371.262 338.572 372.832C343.022 374.402 349.959 376.628 358.074 377.02C366.189 377.413 385.301 376.521 385.301 376.521C385.301 376.521 388.181 365.2 379.15 358.918Z" fill="white"/>
<path d="M321.254 378.249C319.881 378.249 319.142 377.76 318.745 377.235C318.48 377.328 318.111 377.421 317.704 377.421C317.063 377.421 316.202 377.194 315.573 376.178C315.232 376.288 314.724 376.416 314.191 376.416C312.976 376.416 312.148 375.764 311.86 374.581C310.948 370.829 322.476 362.877 328.507 361.369C329.565 361.106 330.692 360.977 331.956 360.977C334.991 360.977 338.216 361.721 341.63 362.51C344.592 363.195 347.654 363.902 350.647 364.105C357.441 364.573 371.522 360.702 379.012 358.456C379.153 358.414 379.306 358.438 379.426 358.522C388.625 364.921 385.797 376.524 385.767 376.639C385.715 376.846 385.535 376.993 385.323 377.002C385.193 377.009 372.371 377.602 363.365 377.602H363.364C361.215 377.602 359.427 377.568 358.05 377.502C350.146 377.119 343.403 375.049 338.412 373.288C334.624 371.952 331.243 372.64 328.023 375.423C326.096 377.087 323.312 378.249 321.254 378.249ZM318.939 376.146C318.989 376.146 319.039 376.153 319.086 376.169C319.214 376.209 319.318 376.301 319.375 376.422C319.71 377.134 320.581 377.285 321.253 377.285C323.101 377.285 325.625 376.219 327.392 374.691C330.877 371.682 334.613 370.923 338.732 372.377C343.662 374.117 350.319 376.162 358.097 376.538C359.459 376.604 361.231 376.638 363.364 376.638C371.487 376.638 382.732 376.153 384.906 376.056C385.277 374.153 386.628 364.874 379.063 359.447C371.45 361.722 357.461 365.537 350.58 365.067C347.512 364.859 344.411 364.142 341.413 363.45C338.053 362.673 334.88 361.941 331.955 361.941C330.77 361.941 329.72 362.061 328.74 362.306C322.421 363.885 312.139 371.654 312.796 374.353C312.979 375.102 313.421 375.452 314.19 375.452C314.899 375.452 315.591 375.145 315.597 375.141C315.839 375.036 316.121 375.139 316.232 375.376C316.575 376.103 317.057 376.457 317.702 376.457C318.24 376.457 318.698 376.208 318.702 376.206C318.777 376.166 318.857 376.146 318.939 376.146Z" fill="#091A27"/>
<path d="M438.438 349.665C432.678 334.22 427.705 317.467 422.993 309.874C418.281 302.283 412.652 295.216 402.182 294.168C394.59 293.644 387.783 293.383 387.783 293.383C385.297 299.928 377.313 331.603 381.501 358.173C379.668 358.173 378.359 359.221 378.359 359.221C382.548 362.624 384.903 368.775 383.857 377.021C402.05 378.46 421.291 375.582 427.573 374.011C433.857 372.44 444.196 365.11 438.438 349.665ZM401.527 354.508L402.443 343.514L405.454 353.724L401.527 354.508Z" fill="#37CDC7"/>
<path d="M264.267 260.439C264.015 260.439 263.802 260.243 263.786 259.987C263.77 259.722 263.971 259.492 264.238 259.476C265.136 259.419 266.219 259.318 267.397 259.207C271.353 258.832 276.276 258.37 279.219 259.129C279.477 259.195 279.631 259.458 279.565 259.716C279.498 259.974 279.236 260.129 278.977 260.062C276.194 259.344 271.367 259.8 267.488 260.166C266.298 260.277 265.205 260.382 264.297 260.438C264.288 260.439 264.277 260.439 264.267 260.439Z" fill="#091A27"/>
<path d="M331.632 337.451C331.408 337.451 331.207 337.293 331.161 337.063C330.286 332.684 331.264 327.07 332.623 323.449C332.717 323.199 332.996 323.07 333.244 323.167C333.494 323.261 333.62 323.539 333.526 323.788C332.549 326.395 331.149 332.084 332.107 336.875C332.159 337.136 331.99 337.39 331.728 337.442C331.696 337.448 331.664 337.451 331.632 337.451Z" fill="#091A27"/>
<path d="M378.654 359.351C378.44 359.351 378.245 359.208 378.188 358.992C378.12 358.734 378.274 358.47 378.53 358.403C382.764 357.282 409.284 352.079 418.635 351.277C418.896 351.254 419.134 351.451 419.157 351.716C419.179 351.981 418.982 352.216 418.718 352.238C409.407 353.037 382.994 358.218 378.777 359.334C378.736 359.346 378.694 359.351 378.654 359.351Z" fill="#091A27"/>
<path d="M403.101 345.695C402.897 345.695 402.708 345.564 402.641 345.36C401.694 342.399 399.365 333.06 398.246 328.572L397.92 327.268C397.857 327.009 398.013 326.748 398.272 326.682C398.526 326.618 398.791 326.775 398.856 327.034L399.182 328.339C400.298 332.817 402.622 342.136 403.559 345.067C403.64 345.32 403.501 345.592 403.247 345.673C403.2 345.688 403.15 345.695 403.101 345.695Z" fill="#091A27"/>
<path d="M318.941 377.11C318.925 377.11 318.911 377.109 318.896 377.108C318.631 377.084 318.434 376.849 318.459 376.584C318.618 374.832 325.667 368.951 332.026 367.133C332.286 367.056 332.55 367.209 332.622 367.464C332.696 367.721 332.548 367.988 332.291 368.06C325.891 369.889 319.522 375.537 319.419 376.671C319.398 376.922 319.186 377.11 318.941 377.11Z" fill="#091A27"/>
<path d="M315.795 376.064C315.529 376.064 315.312 375.848 315.312 375.582C315.312 373.066 320.595 367.76 328.871 365.173C329.129 365.093 329.395 365.235 329.476 365.489C329.555 365.744 329.414 366.014 329.159 366.094C320.661 368.749 316.278 373.947 316.278 375.582C316.277 375.849 316.062 376.064 315.795 376.064Z" fill="#091A27"/>
<path d="M349.954 375.205H308.621L291.987 326.624C290.536 322.388 285.685 318.922 281.207 318.922H210.621C206.144 318.922 203.668 322.389 205.118 326.624L222.253 376.669C224.127 381.527 224.347 385.527 229.218 385.527H349.955C352.804 385.527 355.116 383.216 355.116 380.364C355.115 377.514 352.804 375.205 349.954 375.205Z" fill="#7DBCF5"/>
<path d="M304.975 376.584H222.881C222.615 376.584 222.398 376.368 222.398 376.101C222.398 375.835 222.615 375.619 222.881 375.619H304.975C305.241 375.619 305.457 375.835 305.457 376.101C305.457 376.368 305.241 376.584 304.975 376.584Z" fill="#091A27"/>
<path d="M255.709 359.253C252.142 359.253 248.219 355.714 246.963 351.363C246.242 348.872 246.503 346.548 247.678 344.986C248.54 343.839 249.845 343.207 251.353 343.207C254.922 343.207 258.844 346.747 260.097 351.097C260.817 353.586 260.557 355.911 259.381 357.474C258.519 358.621 257.215 359.253 255.709 359.253ZM251.353 344.172C250.138 344.172 249.134 344.653 248.449 345.564C247.459 346.882 247.255 348.898 247.89 351.094C249.035 355.061 252.543 358.287 255.71 358.287C256.922 358.287 257.925 357.806 258.61 356.895C259.602 355.575 259.806 353.56 259.171 351.365C258.028 347.398 254.52 344.172 251.353 344.172Z" fill="#091A27"/>
</svg>
