<svg width="169" height="61" viewBox="0 0 169 61" fill="none" xmlns="http://www.w3.org/2000/svg">
<line x1="159" y1="59.5" x2="169" y2="59.5" stroke="#2C82C4" stroke-width="3"/>
<circle cx="23" cy="23" r="23" fill="#EBF3FA"/>
<circle cx="23.0017" cy="22.9998" r="16.6111" fill="#B5D6EF"/>
<path d="M86.5 59.5L85.7525 60.8005L86.0996 61H86.5V59.5ZM15 23C15 27.4183 18.5817 31 23 31C27.4183 31 31 27.4183 31 23C31 18.5817 27.4183 15 23 15C18.5817 15 15 18.5817 15 23ZM87.2475 58.1995L23.7475 21.6995L22.2525 24.3005L85.7525 60.8005L87.2475 58.1995ZM86.5 61H153V58H86.5V61Z" fill="#2C82C4"/>
</svg>
