<svg width="208" height="49" viewBox="0 0 208 49" fill="none" xmlns="http://www.w3.org/2000/svg">
<g clip-path="url(#clip0_643_1896)">
<path d="M5.42176 19.245C5.47125 21.2553 6.96807 22.5172 9.58148 22.5172C12.2475 22.5172 13.695 21.4439 13.695 19.7615C13.695 18.5924 13.0763 17.7511 11.032 17.2872L6.87226 16.3038C2.71245 15.376 0.702071 13.4058 0.702071 9.71606C0.702071 5.18201 4.53409 2.46973 9.86298 2.46973C15.0496 2.46973 18.5568 5.46346 18.6032 9.94802H13.1815C13.1352 7.98718 11.8268 6.72535 9.62785 6.72535C7.42887 6.72535 6.07732 7.7522 6.07732 9.48108C6.07732 10.7893 7.1041 11.646 9.06803 12.0976L13.2279 13.081C17.1063 13.9686 19.0702 15.7439 19.0702 19.2975C19.0702 23.9708 15.099 26.8687 9.39589 26.8687C3.69276 26.8687 0 23.776 0 19.2482L5.42176 19.245Z" fill="#1B8EE4"/>
<path d="M43.2621 15.67V26.8598H39.8972V21.9701C39.8912 21.6106 39.8145 21.2559 39.6713 20.9261C39.5281 20.5963 39.3213 20.298 39.0629 20.0481C38.8044 19.7982 38.4992 19.6018 38.1648 19.4699C37.8303 19.3379 37.4732 19.2731 37.1137 19.2793C36.7542 19.2731 36.3971 19.3379 36.0626 19.4699C35.7282 19.6018 35.423 19.7982 35.1645 20.0481C34.9061 20.298 34.6994 20.5963 34.5562 20.9261C34.4131 21.2559 34.3362 21.6106 34.3302 21.9701V26.8474H30.9281V21.9701C30.9221 21.6106 30.8453 21.2559 30.7022 20.9261C30.559 20.5963 30.3522 20.298 30.0937 20.0481C29.8353 19.7982 29.5301 19.6018 29.1956 19.4699C28.8612 19.3379 28.504 19.2731 28.1446 19.2793C27.7851 19.2731 27.428 19.3379 27.0935 19.4699C26.7591 19.6018 26.4539 19.7982 26.1954 20.0481C25.9369 20.298 25.7303 20.5963 25.5871 20.9261C25.444 21.2559 25.3671 21.6106 25.3611 21.9701V26.8474H21.959V15.6608C23.5054 15.8278 24.526 15.2309 25.0518 13.8051C25.5095 15.0422 26.3508 15.7535 27.724 15.6824C28.9611 15.6174 29.6941 14.9092 30.0776 13.7927C30.6157 15.0855 31.4384 15.6979 32.5982 15.6948C33.758 15.6917 34.5839 15.0762 35.0942 13.7957C35.5364 15.0081 36.3684 15.7288 37.723 15.6824C38.9602 15.6422 39.7148 14.9278 40.12 13.7989C40.689 15.2216 41.7096 15.8401 43.2621 15.67Z" fill="#1B8EE4"/>
<path d="M45.7695 21.5035C45.7695 18.3333 48.0705 16.3477 52.1437 16.0353L57.2994 15.6518V15.2683C57.2994 12.9333 55.9046 11.9931 53.7459 11.9931C51.2376 11.9931 49.8457 13.0384 49.8457 14.8508H46.2241C46.2241 11.1394 49.2891 8.68677 53.9561 8.68677C58.6231 8.68677 61.4437 11.192 61.4437 15.9642V26.8601H57.4231V23.8694C56.6932 25.6478 54.3581 26.8663 51.6767 26.8663C47.9993 26.8663 45.7695 24.754 45.7695 21.5035ZM57.3334 19.4466V18.5405L53.7459 18.8189C51.0984 19.0632 50.0901 19.9353 50.0901 21.3271C50.0901 22.8951 51.1325 23.6622 53.05 23.6622C55.6603 23.6622 57.3334 22.0941 57.3334 19.4466Z" fill="#1B8EE4"/>
<path d="M64.29 26.8601V6.17236H68.1003V26.8601H64.29Z" fill="#81888C"/>
<path d="M74.1101 26.8661L68.7656 8.52576L72.8574 7.3042L78.1431 25.7435L74.1101 26.8661Z" fill="#81888C"/>
<path d="M81.8486 26.8599V0.5H85.6899V11.7144C86.6981 9.79997 88.7826 8.64955 91.1424 8.64955C95.5868 8.64955 98.296 12.4815 98.296 17.9279C98.296 23.2197 95.3642 26.8785 90.8889 26.8785C88.5569 26.8785 86.5589 25.7279 85.6589 23.7424L85.6373 26.8723L81.8486 26.8599ZM90.1095 22.963C92.8188 22.963 94.4394 20.798 94.4394 17.7392C94.4394 14.6804 92.8311 12.4814 90.1095 12.4814C87.459 12.4814 85.727 14.6464 85.727 17.7392C85.727 20.832 87.459 22.963 90.1095 22.963Z" fill="#1B8EE4"/>
<path d="M116.647 8.58765L116.459 26.8599H112.438L112.41 24.0177C111.365 25.7125 109.135 26.8661 106.843 26.8661C102.872 26.8661 100.54 24.0826 100.54 19.7279V8.59384H104.786V18.1815C104.786 21.5836 106.076 22.9414 108.445 22.9414C111.127 22.9414 112.416 21.3207 112.416 17.931V8.59384L116.647 8.58765Z" fill="#1B8EE4"/>
<path d="M122.218 21.1879C122.252 22.6848 123.369 23.625 125.311 23.625C127.253 23.625 128.376 22.8239 128.376 21.5713C128.376 20.7023 127.925 20.0744 126.391 19.7157L123.298 18.9858C120.205 18.2899 118.702 16.8209 118.702 14.0745C118.702 10.6971 121.557 8.67749 125.528 8.67749C129.394 8.67749 132.004 10.9043 132.041 14.2445H127.999C127.965 12.7816 126.991 11.8414 125.354 11.8414C123.718 11.8414 122.707 12.6084 122.707 13.8981C122.707 14.8723 123.471 15.5003 124.934 15.8467L128.027 16.5795C130.915 17.2414 132.378 18.5651 132.378 21.2187C132.378 24.7012 129.418 26.8631 125.169 26.8631C120.919 26.8631 118.17 24.5621 118.17 21.1847L122.218 21.1879Z" fill="#1B8EE4"/>
<path d="M133.851 3.38848C133.851 2.8804 134.001 2.38368 134.282 1.96078C134.564 1.53788 134.964 1.20775 135.433 1.0118C135.902 0.815847 136.418 0.762896 136.917 0.859577C137.416 0.956258 137.875 1.19825 138.237 1.55515C138.598 1.91206 138.846 2.36787 138.949 2.86537C139.053 3.36286 139.006 3.87975 138.817 4.35106C138.627 4.82237 138.302 5.22704 137.883 5.51418C137.464 5.80131 136.969 5.9581 136.461 5.96481C136.12 5.96931 135.781 5.90606 135.464 5.77861C135.148 5.65115 134.86 5.4621 134.617 5.22242C134.374 4.98273 134.181 4.69713 134.05 4.38232C133.918 4.06751 133.851 3.72969 133.851 3.38848ZM134.336 8.5875H138.576V26.8598H134.327L134.336 8.5875Z" fill="#1B8EE4"/>
<path d="M140.858 26.8259V8.57837H145.123L145.142 11.4082C146.221 9.61752 148.312 8.57837 150.644 8.57837C154.974 8.57837 157.191 11.3371 157.191 15.9238V26.8165H152.945V16.9629C152.945 13.9876 151.516 12.5557 149.32 12.5557C146.71 12.5557 145.108 14.4114 145.108 17.2846L145.012 26.8505L140.858 26.8259Z" fill="#1B8EE4"/>
<path d="M159.174 17.7578C159.174 12.333 162.693 8.58765 167.741 8.58765C172.896 8.58765 176.169 12.0547 176.169 17.4455V18.7382L163.213 18.7753C163.522 21.8186 165.131 23.3589 167.951 23.3589C170.283 23.3589 171.817 22.4496 172.303 20.8042H176.24C175.507 24.5867 172.374 26.8599 167.889 26.8599C162.761 26.8599 159.174 23.1145 159.174 17.7578ZM163.318 16.0443H171.956C171.956 13.6629 170.32 12.0886 167.778 12.0886C165.236 12.0886 163.736 13.4526 163.318 16.0443Z" fill="#1B8EE4"/>
<path d="M182.039 20.798C182.073 22.3042 183.19 23.6031 185.132 23.6031C187.074 23.6031 188.197 22.7991 188.197 21.5373C188.197 20.662 187.746 20.0342 186.212 19.6816L183.119 18.9485C180.026 18.2465 178.523 16.7836 178.523 14.0001C178.523 10.598 181.378 8.57227 185.349 8.57227C189.215 8.57227 191.825 10.8144 191.862 14.1763H187.82C187.786 12.7041 186.812 11.761 185.176 11.761C183.539 11.761 182.528 12.531 182.528 13.8269C182.528 14.8073 183.295 15.4351 184.758 15.7876L187.851 16.5207C190.739 17.1887 192.202 18.5186 192.202 21.1784C192.202 24.6795 189.243 26.8506 184.993 26.8506C180.744 26.8506 177.994 24.2403 177.994 20.8444L182.039 20.798Z" fill="#1B8EE4"/>
<path d="M197.831 20.798C197.865 22.3042 198.981 23.6031 200.923 23.6031C202.866 23.6031 203.988 22.7991 203.988 21.5373C203.988 20.662 203.537 20.0342 202.003 19.6816L198.91 18.9485C195.817 18.2465 194.314 16.7836 194.314 14.0001C194.314 10.598 197.169 8.57227 201.14 8.57227C205.006 8.57227 207.616 10.8144 207.653 14.1763H203.611C203.577 12.7041 202.603 11.761 200.964 11.761C199.325 11.761 198.319 12.531 198.319 13.8269C198.319 14.8073 199.083 15.4351 200.546 15.7876L203.639 16.5207C206.528 17.1887 207.991 18.5186 207.991 21.1784C207.991 24.6795 205.031 26.8506 200.781 26.8506C196.532 26.8506 193.782 24.2403 193.782 20.8444L197.831 20.798Z" fill="#1B8EE4"/>
<path d="M142.076 46.3352C142.336 46.4174 142.608 46.4561 142.88 46.4497C143.688 46.4497 143.957 45.9889 143.957 45.0302L143.994 34.0384H146.307V45.2993C146.307 47.3127 145.157 48.6178 143.106 48.6178C142.631 48.6196 142.159 48.5486 141.705 48.4075L142.076 46.3352ZM143.706 31.1805C143.706 30.804 143.856 30.443 144.122 30.1767C144.388 29.9105 144.749 29.761 145.126 29.761C145.502 29.761 145.863 29.9105 146.13 30.1767C146.396 30.443 146.545 30.804 146.545 31.1805C146.545 31.557 146.396 31.9181 146.13 32.1843C145.863 32.4506 145.502 32.6002 145.126 32.6002C144.749 32.6002 144.388 32.4506 144.122 32.1843C143.856 31.9181 143.706 31.557 143.706 31.1805Z" fill="white"/>
<path d="M152.45 34.0322C155.385 34.0322 157.512 36.1014 157.512 39.1076C157.512 42.1138 155.385 44.1827 152.45 44.1827C149.514 44.1827 147.387 42.1138 147.387 39.1076C147.387 36.1014 149.518 34.0322 152.45 34.0322ZM152.45 42.0549C154.061 42.0549 155.171 40.8643 155.171 39.1076C155.171 37.3508 154.061 36.16 152.45 36.16C150.838 36.16 149.728 37.3508 149.728 39.1076C149.728 40.8643 150.838 42.0735 152.45 42.0735V42.0549Z" fill="white"/>
<path d="M167.138 34.0322V44.1704H164.79V42.6859C164.215 43.5859 162.987 44.2013 161.722 44.2013C159.535 44.2013 158.252 42.723 158.252 40.4034V34.0322H160.59V39.5993C160.59 41.3993 161.298 42.1292 162.603 42.1292C164.079 42.1292 164.79 41.2663 164.79 39.4632V34.0322H167.138Z" fill="white"/>
<path d="M174.731 36.6147H173.868C172.183 36.6147 171.128 37.5147 171.128 39.3549V44.1765H168.787V34.0322H171.101L171.128 35.8879C171.53 34.9601 172.43 34.3167 173.695 34.3167C174.045 34.3171 174.393 34.3619 174.731 34.4498V36.6147Z" fill="white"/>
<path d="M175.557 44.1765V34.0322H177.882L177.913 35.7055C178.51 34.7467 179.658 34.1931 180.944 34.1931C183.323 34.1931 184.548 35.6684 184.548 38.121V44.1704H182.209V38.6714C182.209 37.0817 181.424 36.3147 180.214 36.3147C178.776 36.3147 177.895 37.3106 177.895 38.8446V44.1642L175.557 44.1765Z" fill="white"/>
<path d="M185.661 41.2075C185.661 39.4353 186.926 38.325 189.171 38.1487L192.007 37.9353V37.7219C192.007 36.4167 191.24 35.8908 190.053 35.8908C188.67 35.8908 187.903 36.4723 187.903 37.4868H185.912C185.912 35.4022 187.597 34.0383 190.167 34.0383C192.737 34.0383 194.29 35.4424 194.29 38.1115V44.1765H192.082V42.5311C191.68 43.5239 190.393 44.2074 188.918 44.2074C186.889 44.2074 185.661 43.0199 185.661 41.2075ZM192.026 40.0569V39.5528L190.053 39.7075C188.596 39.8435 188.039 40.3259 188.039 41.1084C188.039 41.9868 188.615 42.4137 189.669 42.4137C191.108 42.4137 192.026 41.5384 192.026 40.0569Z" fill="white"/>
<path d="M195.86 44.1638V29.8967H198.18V44.1638H195.86Z" fill="white"/>
<path d="M201.359 41.0311C201.378 41.8693 201.978 42.3951 203.063 42.3951C204.149 42.3951 204.752 41.9466 204.752 41.2445C204.752 40.7589 204.501 40.4096 203.66 40.2147L201.953 39.8033C200.246 39.4137 199.42 38.597 199.42 37.0568C199.42 35.1702 200.994 34.0383 203.181 34.0383C205.309 34.0383 206.747 35.2755 206.765 37.1559H204.542C204.52 36.3363 203.985 35.8105 203.082 35.8105C202.179 35.8105 201.625 36.2405 201.625 36.9611C201.625 37.5054 202.049 37.8579 202.862 38.0528L204.569 38.461C206.159 38.8321 206.966 39.5714 206.966 41.0529C206.966 42.9982 205.336 44.2074 202.998 44.2074C200.66 44.2074 199.142 42.9208 199.142 41.0311H201.359Z" fill="white"/>
<path d="M24.3466 9.71649C24.1962 9.90949 24.1184 10.1492 24.127 10.3938C24.127 11.3216 24.127 12.231 24.127 13.1527C24.1285 13.3558 24.0899 13.5571 24.0135 13.7453C23.9371 13.9334 23.8243 14.1046 23.6817 14.2492C23.5391 14.3938 23.3695 14.5089 23.1824 14.588C22.9954 14.667 22.7944 14.7084 22.5914 14.7098C22.3883 14.7112 22.1869 14.6727 21.9988 14.5963C21.8106 14.5199 21.6394 14.4072 21.4948 14.2646C21.3502 14.122 21.2351 13.9523 21.1561 13.7652C21.0771 13.5781 21.0357 13.3774 21.0342 13.1743C21.0342 12.2248 21.0342 11.2753 21.0342 10.3258C21.0328 10.1827 21.0611 10.0409 21.1176 9.90934C21.174 9.77781 21.2572 9.65941 21.3619 9.56185L22.1135 8.79484C22.1767 8.72904 22.2526 8.67673 22.3366 8.64111C22.4206 8.60549 22.511 8.58733 22.6022 8.58765H25.2001C24.9074 8.96497 24.6229 9.34123 24.3466 9.71649Z" fill="#81888C"/>
<path d="M44.2205 13.3104C44.216 13.7206 44.0487 14.1121 43.7555 14.3989C43.4623 14.6858 43.0673 14.8443 42.6572 14.8398C42.247 14.8352 41.8555 14.668 41.5687 14.3748C41.2818 14.0816 41.1232 13.6866 41.1277 13.2764C41.1122 12.2867 41.1277 11.2939 41.1277 10.3042C41.1208 10.1242 41.0618 9.9502 40.9576 9.80324C40.6669 9.39086 40.3731 8.98868 40.0762 8.59692H42.6989C42.7814 8.59726 42.8632 8.61421 42.9391 8.64661C43.0151 8.67901 43.0838 8.72632 43.1412 8.78569C43.4505 9.09497 43.738 9.40425 44.0349 9.71353C44.1572 9.86164 44.2249 10.0472 44.2267 10.2392C44.2452 11.2598 44.2452 12.2805 44.2205 13.3104Z" fill="#81888C"/>
<path d="M29.3591 9.41959C29.2066 9.83201 29.1342 10.2697 29.1457 10.7093C29.1643 11.535 29.1457 12.3608 29.1457 13.1835C29.1491 13.3875 29.1113 13.5901 29.0347 13.7793C28.9582 13.9684 28.8445 14.1401 28.7002 14.2844C28.556 14.4287 28.3841 14.5425 28.1949 14.6191C28.0058 14.6956 27.8033 14.7332 27.5993 14.7299C27.3962 14.7319 27.1947 14.694 27.0063 14.6182C26.8179 14.5423 26.6463 14.4302 26.5013 14.288C26.3563 14.1459 26.2406 13.9765 26.1611 13.7897C26.0815 13.6028 26.0394 13.4021 26.0374 13.1991C26.0374 12.2094 26.0374 11.2196 26.0374 10.2299C26.0281 10.1084 26.0482 9.9864 26.0961 9.8743C26.3374 9.4444 26.5818 9.01755 26.8261 8.58765H29.6312C29.5539 8.86909 29.4612 9.14742 29.3591 9.41959Z" fill="#81888C"/>
<path d="M39.2048 13.2145C39.2084 13.591 39.0745 13.9559 38.8283 14.2408C38.5821 14.5256 38.2403 14.7108 37.8672 14.7616C37.4942 14.8125 37.1155 14.7255 36.802 14.517C36.4885 14.3084 36.2618 13.9926 36.1645 13.6288C36.1231 13.4609 36.1034 13.2885 36.1058 13.1155C36.1058 12.2186 36.1273 11.3186 36.0902 10.4217C36.0509 10.0286 35.9658 9.64148 35.8367 9.26812C35.7748 9.03926 35.6974 8.81651 35.6201 8.58765H38.4192C38.6542 9.00002 38.8841 9.40523 39.1089 9.80317C39.175 9.93 39.208 10.0715 39.2048 10.2145C39.2141 11.2135 39.2202 12.2124 39.2048 13.2145Z" fill="#81888C"/>
<path d="M34.1838 13.1094C34.2003 13.4907 34.0751 13.8646 33.8324 14.1592C33.5898 14.4538 33.2468 14.6482 32.8694 14.7051C32.6608 14.7461 32.4459 14.742 32.2391 14.6931C32.0322 14.6441 31.8382 14.5516 31.67 14.4215C31.5019 14.2915 31.3634 14.127 31.2641 13.939C31.1648 13.7511 31.1068 13.5441 31.0941 13.332C31.0446 11.7484 30.9363 10.1526 31.3414 8.58765H33.9395C34.0323 9.24641 34.1405 9.87424 34.1745 10.5083C34.2209 11.3712 34.1931 12.2403 34.1838 13.1094Z" fill="#81888C"/>
<path d="M68.1004 9.24048H64.29V9.71677H68.1004V9.24048Z" fill="white"/>
<path d="M68.1004 10.1587H64.29V10.3412H68.1004V10.1587Z" fill="white"/>
<path d="M73.5376 10.0994L69.4697 11.3066L69.6052 11.7633L73.6731 10.556L73.5376 10.0994Z" fill="white"/>
<path d="M73.7993 10.9807L69.7314 12.188L69.7833 12.3629L73.8512 11.1556L73.7993 10.9807Z" fill="white"/>
<path d="M76.9767 22.0943L72.9502 23.2893L73.0857 23.7459L77.1122 22.5509L76.9767 22.0943Z" fill="white"/>
<path d="M77.2384 22.9727L73.2119 24.1677L73.2638 24.3426L77.2903 23.1476L77.2384 22.9727Z" fill="white"/>
<path d="M68.1004 23.2227H64.29V23.6989H68.1004V23.2227Z" fill="white"/>
<path d="M68.1004 24.1414H64.29V24.3238H68.1004V24.1414Z" fill="white"/>
</g>
<defs>
<clipPath id="clip0_643_1896">
<rect width="208" height="48.1147" fill="white" transform="translate(0 0.499756)"/>
</clipPath>
</defs>
</svg>
