<svg width="517" height="528" viewBox="0 0 517 528" fill="none" xmlns="http://www.w3.org/2000/svg">
<path d="M134.322 168.459C154.65 119.434 160.102 61.7895 199.966 27.6147C226.511 4.84475 263.762 -2.16445 298.583 1.21475C333.405 4.59395 366.563 17.1735 399.167 29.8191C442.727 46.7151 463.715 100.782 451.413 144.474C441.143 180.959 409.952 208.442 398.19 244.478C390.191 269.043 391.854 295.522 391.26 321.341C390.521 354.09 385.743 387.579 370.074 416.381C350.736 451.889 323.386 464.482 286.241 471.742C242.51 480.296 206.21 486.83 162.834 469.524C82.3143 437.435 41.9619 337.208 78.9219 257.427C89.7723 233.984 108.78 215.345 122.073 193.196C126.756 185.261 130.85 176.993 134.322 168.459Z" fill="#EDF0FF"/>
<path d="M2.81055 521.678H249.136" stroke="#222221" stroke-width="0.702" stroke-miterlimit="10"/>
<path d="M351.674 526.139H398.745" stroke="#222221" stroke-width="0.702" stroke-miterlimit="10"/>
<path d="M336.811 508.794C392.026 508.266 448.786 508.266 504.609 508.794" stroke="#222221" stroke-width="0.702" stroke-miterlimit="10"/>
<path d="M275.113 518.246C351.101 518.827 427.573 518.827 504.529 518.246" stroke="#222221" stroke-width="0.702" stroke-miterlimit="10"/>
<path d="M400.328 513.48C426.13 513.48 451.931 513.436 477.733 513.348" stroke="#222221" stroke-width="0.702" stroke-miterlimit="10"/>
<path d="M178.859 513.387C202.435 513.387 381.572 513.453 381.572 513.453" stroke="#222221" stroke-width="0.702" stroke-miterlimit="10"/>
<path d="M358.762 292.526C386.482 308.564 422.901 308.485 450.608 292.341C460.587 286.533 469.721 278.442 474.209 267.802C475.78 264.054 476.849 260.028 478.169 256.2C479.121 253.324 480.496 250.605 482.248 248.134C486.921 241.904 494.828 238.723 499.408 232.413C504.952 224.731 504.253 214.039 500.887 205.182C497.521 196.324 491.845 188.536 487.753 179.983C477.562 158.744 487.489 136.858 476.757 114.894C465.035 91.0808 443.48 72.6008 421.04 59.2028C358.076 21.8204 278.599 13.5044 209.272 37.0664C182.687 46.1084 152.512 64.7864 123.644 63.4664C100.953 62.5028 76.929 59.4272 66.7518 87.2264C58.0398 110.881 78.0774 124.503 90.1818 141.043C103.778 159.615 98.4582 183.982 94.5774 204.825C90.2346 228.11 93.9571 253.124 113.902 268.528C125.993 277.861 141.385 281.662 156.393 284.527C177.196 288.487 197.313 284.302 215.159 272.871C220.264 269.818 224.765 265.854 228.439 261.176C234.431 253.098 236.438 242.696 237.098 232.69C238.721 208.046 232.821 166.954 242.853 147.999C247.829 138.601 238.167 136.977 245.321 129.084C251.209 122.589 259.841 118.972 268.514 117.85C281.4 116.243 294.412 119.63 304.88 127.315C326.765 143.524 326.567 168.776 320.944 193.051C316.879 210.541 310.701 229.258 317.578 245.851C325.34 264.582 341.285 282.481 358.762 292.526Z" stroke="#222221" stroke-width="0.702" stroke-miterlimit="10" stroke-dasharray="5.62 5.62"/>
<path d="M362.523 52.0352H241.559V140.33H362.523V52.0352Z" fill="#CC99FF" stroke="#091A27" stroke-width="0.702" stroke-miterlimit="10"/>
<path d="M356.201 60.8516H235.236V149.146H356.201V60.8516Z" fill="#091A27"/>
<path d="M348.968 66.0938H229.178V154.389H348.968V66.0938Z" fill="white" stroke="#222221" stroke-width="0.702" stroke-miterlimit="10"/>
<path d="M310.938 66.2246V154.691" stroke="#222221" stroke-width="0.702" stroke-miterlimit="10" stroke-dasharray="5.62 5.62"/>
<path d="M267.59 66.2246V154.691" stroke="#222221" stroke-width="0.702" stroke-miterlimit="10" stroke-dasharray="5.62 5.62"/>
<path d="M228.742 110.18H348.506" stroke="#222221" stroke-width="0.702" stroke-miterlimit="10" stroke-dasharray="5.62 5.62"/>
<path d="M296.538 125.52L289.041 135.882L283.84 130.074C283.233 130.536 282.652 131.037 282.098 131.552L289.226 139.472L298.36 126.932L296.538 125.52Z" fill="#37CDC7" stroke="#091A27" stroke-width="0.5" stroke-miterlimit="10"/>
<path d="M335.162 125.52L327.611 135.882L322.41 130.074C321.803 130.536 321.222 131.037 320.668 131.552L327.796 139.472L336.93 126.932L335.162 125.52Z" fill="#37CDC7" stroke="#091A27" stroke-width="0.5" stroke-miterlimit="10"/>
<path d="M256.039 125.123L248.199 136.092L242.668 130.033C242.034 130.535 241.44 131.063 240.859 131.604L248.436 139.894L257.914 126.694C257.359 126.113 256.713 125.611 256.039 125.123Z" fill="#37CDC7" stroke="#091A27" stroke-width="0.5" stroke-miterlimit="10"/>
<path d="M295.744 81.959L288.207 92.321L282.993 86.513C282.399 86.975 281.818 87.4634 281.264 87.9782L288.392 95.8982L297.526 83.3582C296.958 82.9094 296.351 82.4342 295.744 81.959Z" fill="#37CDC7" stroke="#091A27" stroke-width="0.5" stroke-miterlimit="10"/>
<path d="M334.144 81.959L326.607 92.321L321.393 86.513C320.786 86.975 320.218 87.4634 319.65 87.9782L326.778 95.8982L335.926 83.3582L334.144 81.959Z" fill="#37CDC7" stroke="#091A27" stroke-width="0.5" stroke-miterlimit="10"/>
<path d="M255.537 81.5625L247.71 92.5317L242.179 86.4729C241.545 86.9642 240.937 87.4885 240.357 88.0437L247.934 96.3333L257.359 83.0541C256.791 82.5525 256.171 82.0509 255.537 81.5625Z" fill="#37CDC7" stroke="#091A27" stroke-width="0.5" stroke-miterlimit="10"/>
<path d="M48.668 521.52L68.534 419.26L123.987 418.824L148.473 521.943" stroke="#091A27" stroke-width="5.616" stroke-miterlimit="10"/>
<path d="M67.6094 513.415L83.7794 416.553L139.233 416.131L163.257 513.85" stroke="#091A27" stroke-width="5.616" stroke-miterlimit="10"/>
<path d="M366.102 517.783L385.968 406.89L441.421 406.428L465.907 518.245" stroke="#091A27" stroke-width="5.616" stroke-miterlimit="10"/>
<path d="M385.043 509.006L401.213 403.974L456.666 403.512L480.69 509.468" stroke="#091A27" stroke-width="5.616" stroke-miterlimit="10"/>
<path d="M204.322 433.831C208.768 435.664 213.322 437.224 217.958 438.504C203.543 458.409 182.054 493.944 177.803 499.659C171.731 496.227 165.831 495.119 160.115 491.079C166.385 466.356 176.391 454.317 184.72 426.043C191.179 428.815 197.713 431.411 204.322 433.831Z" fill="white" stroke="#222221" stroke-width="0.702" stroke-miterlimit="10"/>
<path d="M183.994 499.224C226.92 551.443 175.07 516.278 157.25 500.042C154.03 496.016 159.23 489.02 161.21 482.75C174.727 499.105 187.676 480.559 183.994 499.224Z" fill="#091A27"/>
<path d="M239.686 306.491L235.383 320.522C243.831 320.417 252.292 320.245 260.714 320.377C262.997 320.342 265.262 319.964 267.432 319.255C269.737 318.623 271.771 317.255 273.227 315.361C273.905 314.483 274.251 313.394 274.204 312.285C274.001 311.123 273.465 310.045 272.66 309.183C271.34 307.308 269.384 305.976 267.155 305.435C265.3 305.354 263.445 305.582 261.664 306.108C259.713 306.453 257.731 306.595 255.75 306.53C252.464 306.372 250.14 303.89 247.83 301.871C247.348 301.451 246.786 301.133 246.179 300.933C245.571 300.734 244.93 300.657 244.293 300.709" fill="white"/>
<path d="M239.686 306.491L235.383 320.522C243.831 320.417 252.292 320.245 260.714 320.377C262.997 320.342 265.262 319.964 267.432 319.255C269.737 318.623 271.771 317.255 273.227 315.361C273.905 314.483 274.251 313.394 274.204 312.285C274.001 311.123 273.465 310.045 272.66 309.183C271.34 307.308 269.384 305.976 267.155 305.435C265.3 305.354 263.445 305.582 261.664 306.108C259.713 306.453 257.731 306.595 255.75 306.53C252.464 306.372 250.14 303.89 247.83 301.871C247.348 301.451 246.786 301.133 246.179 300.933C245.571 300.734 244.93 300.657 244.293 300.709" stroke="#222221" stroke-width="0.702" stroke-miterlimit="10"/>
<path d="M240.121 317.131L242.352 320.721C242.504 320.967 242.6 321.243 242.635 321.53C242.669 321.817 242.641 322.109 242.552 322.384C242.463 322.659 242.315 322.911 242.118 323.123C241.922 323.335 241.682 323.502 241.414 323.612C240.987 323.784 240.516 323.816 240.07 323.702C239.623 323.588 239.225 323.334 238.933 322.978L235.303 318.477" fill="white"/>
<path d="M240.121 317.131L242.352 320.721C242.504 320.967 242.6 321.243 242.635 321.53C242.669 321.817 242.641 322.109 242.552 322.384C242.463 322.659 242.315 322.911 242.118 323.123C241.922 323.335 241.682 323.502 241.414 323.612C240.987 323.784 240.516 323.816 240.07 323.702C239.623 323.588 239.225 323.334 238.933 322.978L235.303 318.477" stroke="#222221" stroke-width="0.702" stroke-miterlimit="10"/>
<path d="M244.754 316.061L247.143 319.928C247.295 320.198 247.386 320.497 247.411 320.805C247.437 321.113 247.395 321.422 247.29 321.713C247.185 322.004 247.018 322.268 246.802 322.489C246.585 322.709 246.323 322.88 246.035 322.991C245.53 323.191 244.971 323.208 244.455 323.039C243.939 322.871 243.499 322.526 243.21 322.067L240.121 317.13" fill="white"/>
<path d="M244.754 316.061L247.143 319.928C247.295 320.198 247.386 320.497 247.411 320.805C247.437 321.113 247.395 321.422 247.29 321.713C247.185 322.004 247.018 322.268 246.802 322.489C246.585 322.709 246.323 322.88 246.035 322.991C245.53 323.191 244.971 323.208 244.455 323.039C243.939 322.871 243.499 322.526 243.21 322.067L240.121 317.13" stroke="#222221" stroke-width="0.702" stroke-miterlimit="10"/>
<path d="M244.753 316.062L247.895 320.999C248.216 321.44 248.67 321.767 249.19 321.931C249.71 322.095 250.27 322.087 250.786 321.909C251.101 321.812 251.39 321.642 251.629 321.414C251.869 321.186 252.052 320.905 252.164 320.595C252.277 320.284 252.316 319.951 252.278 319.623C252.241 319.294 252.127 318.979 251.947 318.702L249.967 315.666C248.824 313.92 247.472 312.32 245.941 310.901L238.021 303.535C231.962 297.938 223.871 301.331 216.479 299.575C214.833 298.971 213.043 298.879 211.344 299.311C210.35 299.755 209.477 300.429 208.796 301.278C207.824 302.295 207.102 303.524 206.684 304.868C206.481 305.543 206.447 306.257 206.585 306.947C206.723 307.638 207.029 308.284 207.476 308.828C208.693 309.831 210.194 310.426 211.766 310.531C218.102 311.745 223.409 315.521 228.926 318.649C229.36 318.902 229.763 319.203 230.128 319.547L234.563 323.757C234.842 323.987 235.176 324.14 235.532 324.203C235.888 324.265 236.255 324.235 236.596 324.114C236.881 324.012 237.138 323.844 237.347 323.624C237.555 323.404 237.709 323.137 237.795 322.847C237.881 322.556 237.898 322.249 237.843 321.951C237.788 321.653 237.664 321.372 237.48 321.131L235.513 318.57" fill="white"/>
<path d="M244.753 316.062L247.895 320.999C248.216 321.44 248.67 321.767 249.19 321.931C249.71 322.095 250.27 322.087 250.786 321.909C251.101 321.812 251.39 321.642 251.629 321.414C251.869 321.186 252.052 320.905 252.164 320.595C252.277 320.284 252.316 319.951 252.278 319.623C252.241 319.294 252.127 318.979 251.947 318.702L249.967 315.666C248.824 313.92 247.472 312.32 245.941 310.901L238.021 303.535C231.962 297.938 223.871 301.331 216.479 299.575C214.833 298.971 213.043 298.879 211.344 299.311C210.35 299.755 209.477 300.429 208.796 301.278C207.824 302.295 207.102 303.524 206.684 304.868C206.481 305.543 206.447 306.257 206.585 306.947C206.723 307.638 207.029 308.284 207.476 308.828C208.693 309.831 210.194 310.426 211.766 310.531C218.102 311.745 223.409 315.521 228.926 318.649C229.36 318.902 229.763 319.203 230.128 319.547L234.563 323.757C234.842 323.987 235.176 324.14 235.532 324.203C235.888 324.265 236.255 324.235 236.596 324.114C236.881 324.012 237.138 323.844 237.347 323.624C237.555 323.404 237.709 323.137 237.795 322.847C237.881 322.556 237.898 322.249 237.843 321.951C237.788 321.653 237.664 321.372 237.48 321.131L235.513 318.57" stroke="#222221" stroke-width="0.702" stroke-miterlimit="10"/>
<path d="M244.292 300.709C240.068 301.026 236.055 302.029 231.765 301.897C231.22 301.846 230.67 301.895 230.142 302.042C229.884 302.116 229.655 302.267 229.485 302.475C229.316 302.682 229.213 302.937 229.191 303.204C229.257 306.2 238.537 305.844 240.57 305.949C241.098 305.949 241.283 306.24 241.797 306.293" fill="white"/>
<path d="M244.292 300.709C240.068 301.026 236.055 302.029 231.765 301.897C231.22 301.846 230.67 301.895 230.142 302.042C229.884 302.116 229.655 302.267 229.485 302.475C229.316 302.682 229.213 302.937 229.191 303.204C229.257 306.2 238.537 305.844 240.57 305.949C241.098 305.949 241.283 306.24 241.797 306.293" stroke="#222221" stroke-width="0.702" stroke-miterlimit="10"/>
<path d="M233.084 318.794C233.678 317.962 234.589 316.537 233.863 315.52C233.446 315.039 232.874 314.717 232.245 314.611C231.616 314.505 230.97 314.621 230.418 314.939C230.668 314.412 230.742 313.818 230.629 313.246C230.515 312.673 230.221 312.153 229.789 311.76C229.357 311.368 228.81 311.125 228.229 311.068C227.648 311.011 227.064 311.141 226.564 311.441C227.329 311.045 226.63 309.593 226.194 309.224C225.164 308.326 224.399 308.801 223.554 309.329C223.542 309.01 223.442 308.701 223.265 308.435C223.088 308.17 222.841 307.958 222.551 307.825C221.231 307.231 219.911 308.379 219.106 309.145C218.3 309.91 216.373 311.072 216.162 312.471C215.845 314.491 218.01 314.807 219.554 314.847C219.497 315.185 219.514 315.531 219.604 315.862C219.694 316.192 219.855 316.499 220.077 316.761C220.298 317.022 220.574 317.232 220.885 317.376C221.196 317.52 221.535 317.594 221.878 317.593C222.036 317.538 222.208 317.538 222.366 317.593C222.471 317.679 222.549 317.793 222.59 317.923C222.94 318.659 223.507 319.269 224.216 319.67C224.925 320.072 225.74 320.245 226.55 320.167C228.134 323.401 231.857 320.51 233.084 318.794Z" fill="white" stroke="#222221" stroke-width="0.702" stroke-miterlimit="10"/>
<path d="M230.643 314.623C230.309 314.861 230.015 315.15 229.772 315.481L226.129 320.022" stroke="#222221" stroke-width="0.702" stroke-miterlimit="10"/>
<path d="M222.273 317.381C224.09 315.478 225.684 313.375 227.025 311.111" stroke="#222221" stroke-width="0.702" stroke-miterlimit="10"/>
<path d="M223.487 309.328C222.273 310.925 220.702 313.288 219.527 314.899" stroke="#222221" stroke-width="0.702" stroke-miterlimit="10"/>
<path d="M264.066 298.782C264.066 298.267 264.066 297.765 264.066 297.264C279.629 297.343 294.611 295.35 310.689 294.967C311.785 294.995 312.879 294.862 313.936 294.571C316.906 293.568 321.381 285.806 323.097 283.232C325.407 279.774 327.413 276.064 329.446 272.434C334.132 264.132 337.973 253.73 344.362 246.576C349.325 241.032 357.773 238.656 364.835 237.27C368.888 246.51 367.251 257.703 371.303 266.917C371.961 268.028 372.302 269.299 372.288 270.591C372.274 271.883 371.906 273.146 371.224 274.243C367.704 282.559 364.162 290.866 360.598 299.164C357.536 306.332 355.82 314.595 348.507 318.582C345.169 320.254 341.615 321.453 337.947 322.146C326.004 324.761 313.851 326.302 301.634 326.752C295.526 327.008 289.41 327.038 283.286 326.845C281.86 326.845 266.746 326.515 266.68 326.04C265.325 316.993 264.454 307.907 264.066 298.782Z" fill="#5F76E8" stroke="#091A27" stroke-width="0.702" stroke-miterlimit="10"/>
<path d="M206.368 446.582C210.365 443.911 214.192 440.992 217.825 437.844C226.392 460.878 244.041 498.564 246.403 505.164C240.173 508.319 235.975 512.609 229.428 515.117C212.361 496.175 207.899 481.166 189.01 458.541C194.897 454.687 200.683 450.701 206.368 446.582Z" fill="white" stroke="#222221" stroke-width="0.702" stroke-miterlimit="10"/>
<path d="M172.497 371.159C170.338 370.064 168.068 369.206 165.725 368.598C152.947 365.39 139.233 365.958 127.023 360.968C109.863 353.999 98.6162 337.393 90.9074 320.563C83.1986 303.733 77.8526 285.636 67.4114 270.403C61.6826 262.008 53.9078 254.286 43.9946 251.989C28.709 248.425 12.8822 259.421 6.22945 273.65C-0.423351 287.88 0.144249 304.367 2.17705 319.93C6.01825 349.3 12.9747 383.29 35.0055 404.858C41.0691 410.792 48.0601 415.696 55.7031 419.378L55.8746 419.458C64.9569 423.725 74.8799 425.904 84.9146 425.833H172.549L172.497 371.159Z" fill="#CC99FF" stroke="#091A27" stroke-width="0.702" stroke-miterlimit="10"/>
<path d="M5.24023 291.998C5.63623 303.284 5.71544 315.758 7.51064 326.938L5.24023 291.998Z" fill="#CC99FF"/>
<path d="M5.24023 291.998C5.63623 303.284 5.71544 315.758 7.51064 326.938" stroke="#091A27" stroke-width="0.702" stroke-miterlimit="10"/>
<path d="M33.3164 395.551C38.154 401.817 43.805 407.41 50.12 412.183L33.3164 395.551Z" fill="#CC99FF"/>
<path d="M33.3164 395.551C38.154 401.817 43.805 407.41 50.12 412.183" stroke="#091A27" stroke-width="0.702" stroke-miterlimit="10"/>
<path d="M53.3535 413.662C55.5126 414.638 57.5877 415.79 59.5575 417.107L53.3535 413.662Z" fill="#CC99FF"/>
<path d="M53.3535 413.662C55.5126 414.638 57.5877 415.79 59.5575 417.107" stroke="#091A27" stroke-width="0.702" stroke-miterlimit="10"/>
<path d="M42.82 255.459C39.0403 254.51 35.065 254.694 31.3888 255.987C27.7315 257.294 24.3577 259.288 21.4492 261.861" fill="#CC99FF"/>
<path d="M42.82 255.459C39.0403 254.51 35.065 254.694 31.3888 255.987C27.7315 257.294 24.3577 259.288 21.4492 261.861" stroke="#091A27" stroke-width="0.702" stroke-miterlimit="10"/>
<path d="M220.095 363.924C208.466 347.067 151.297 347.054 131.035 344.124C118.811 342.381 137.74 328.904 126.151 333.973C113.571 339.491 108.608 352.189 97.3086 359.304C109.571 361.838 119.947 368.253 130.031 375.381C138.07 381.084 148.683 384.265 158.372 385.427C168.061 386.588 183.254 376.041 186.013 387.684C187.557 394.284 183.029 411.84 180.891 418.215C175.453 434.517 169.42 450.608 163.309 466.673C165.509 467.764 167.735 468.824 169.988 469.854C179.584 474.21 189.445 478.064 198.962 482.579C204.664 471.002 213.231 452.113 214.181 449.658C219.767 435.369 223.592 420.453 225.573 405.24C227.342 390.997 228.649 376.319 220.095 363.924Z" fill="#5F76E8" stroke="#091A27" stroke-width="0.702" stroke-miterlimit="10"/>
<path d="M117.836 359.04C129.901 363.33 143.14 361.773 155.918 362.591C167.045 363.304 178.199 365.917 187.849 371.501C197.498 377.085 205.563 385.797 209.14 396.357C210.817 401.346 233.296 452.8 237.995 466.449C240.635 473.933 240.015 474.738 233.494 478.883C227.185 482.843 217.126 490.129 210.83 494.142C189.877 468.572 172.529 440.249 159.271 409.966C159.125 409.649 150.532 410.19 149.608 410.177C146.361 410.111 143.14 409.873 139.893 409.926C128.62 410.111 117.361 410.19 106.088 410.428C97.3758 410.613 86.6442 411.246 78.8562 406.587C78.0885 406.141 77.3676 405.619 76.7046 405.029C74.274 402.635 72.4619 399.686 71.4246 396.436C65.0007 379.052 65.698 359.835 73.365 342.963C74.1609 341.027 75.2814 339.241 76.6782 337.683C78.8593 335.727 81.4471 334.28 84.255 333.445" fill="#5F76E8"/>
<path d="M117.836 359.04C129.901 363.33 143.14 361.773 155.918 362.591C167.045 363.304 178.199 365.917 187.849 371.501C197.498 377.085 205.563 385.797 209.14 396.357C210.817 401.346 233.296 452.8 237.995 466.449C240.635 473.933 240.015 474.738 233.494 478.883C227.185 482.843 217.126 490.129 210.83 494.142C189.877 468.572 172.529 440.249 159.271 409.966C159.125 409.649 150.532 410.19 149.608 410.177C146.361 410.111 143.14 409.873 139.893 409.926C128.62 410.111 117.361 410.19 106.088 410.428C97.3758 410.613 86.6442 411.246 78.8562 406.587C78.0885 406.141 77.3676 405.619 76.7046 405.029C74.274 402.635 72.4619 399.686 71.4246 396.436C65.0007 379.052 65.698 359.835 73.365 342.963C74.1609 341.027 75.2814 339.241 76.6782 337.683C78.8593 335.727 81.4471 334.28 84.255 333.445" stroke="#091A27" stroke-width="0.702" stroke-miterlimit="10"/>
<path d="M65.9594 362.26C66.0165 362.511 66.1674 362.73 66.381 362.872C66.5947 363.015 66.8548 363.07 67.1078 363.026C73.0214 361.97 105.203 356.98 108.899 356.848C117.504 356.438 126.004 354.789 134.137 351.951C139.246 350.222 150.281 347.991 150.69 341.655C151.06 335.97 151.425 330.281 151.786 324.588C157.742 325.774 163.927 324.697 169.131 321.565C181.869 313.447 177.843 298.082 173.988 286.176C170.82 276.434 167.89 266.376 162.715 257.479C158.465 250.14 152.538 243.54 144.935 239.778C138.797 236.755 132.395 235.712 126.455 232.029C123.968 230.503 121.31 229.276 118.535 228.373C117.426 227.868 116.254 227.517 115.05 227.33C112.199 227.33 108.265 228.492 105.348 228.954C100.862 229.599 96.4805 230.838 92.3198 232.636C84.8133 236.267 78.5555 242.047 74.3414 249.242C69.7478 256.7 66.9758 265.148 64.9166 273.636C61.3245 288.542 59.9281 303.893 60.7718 319.202C61.363 333.669 63.0976 348.067 65.9594 362.26Z" fill="#37CDC7" stroke="#091A27" stroke-width="0.702" stroke-miterlimit="10"/>
<path d="M249.439 499.805C316.759 493.099 258.679 516.687 235.275 522.495C230.127 522.944 227.197 514.721 223.078 509.612C244.225 507.447 235.988 486.367 249.439 499.805Z" fill="#091A27"/>
<path d="M8.14258 352.77C112.726 325.05 138.202 396.423 111.947 432.472" stroke="#091A27" stroke-width="4.212" stroke-miterlimit="10"/>
<path d="M85.5742 275.365C92.3854 279.074 120.29 306.16 211.08 315.176C215.937 308.708 220.135 302.557 220.095 293.911C211.119 292.512 180.495 285.305 152.868 273.121C130.745 263.366 111.459 249.678 100.424 238.695" fill="#37CDC7"/>
<path d="M85.5742 275.365C92.3854 279.074 120.29 306.16 211.08 315.176C215.937 308.708 220.135 302.557 220.095 293.911C211.119 292.512 180.495 285.305 152.868 273.121C130.745 263.366 111.459 249.678 100.424 238.695" stroke="#091A27" stroke-width="0.702" stroke-miterlimit="10"/>
<path d="M184.138 334.752H93.2564C92.1483 334.752 91.25 335.65 91.25 336.758V337.062C91.25 338.17 92.1483 339.068 93.2564 339.068H184.138C185.246 339.068 186.145 338.17 186.145 337.062V336.758C186.145 335.65 185.246 334.752 184.138 334.752Z" fill="#091A27"/>
<path d="M186.435 339.069H105.348L112.396 292.473C112.509 291.696 112.896 290.985 113.486 290.467C114.077 289.949 114.832 289.659 115.617 289.648H190.276C190.733 289.651 191.184 289.754 191.597 289.948C192.01 290.143 192.376 290.426 192.669 290.776C192.962 291.127 193.174 291.537 193.292 291.978C193.41 292.42 193.431 292.881 193.352 293.331L186.435 339.069Z" fill="#091A27"/>
<path d="M156.473 312.92L159.997 315.85" stroke="white" stroke-width="1.404" stroke-miterlimit="10"/>
<path d="M151.852 312.92L155.363 315.85" stroke="white" stroke-width="0.702" stroke-miterlimit="10"/>
<path d="M147.23 312.92L150.742 315.85" stroke="white" stroke-width="1.404" stroke-miterlimit="10"/>
<path d="M498.18 355.966C492.583 372.756 484.056 388.068 470.302 399.526C465.043 404.077 458.776 407.312 452.02 408.964C443.176 411.34 433.989 411.907 424.867 412.211C411.571 412.651 398.269 412.616 384.964 412.105C376.727 411.788 367.329 410.68 362.59 403.934C354.327 392.213 362.709 377.719 374.338 373.495C385.531 369.43 397.438 367.516 408.024 361.8C430.187 349.854 436.008 322.86 441.816 300.499C446.053 284.224 448.746 266.338 460.468 253.336C475.212 236.968 498.51 240.136 508.305 259.936C521.029 285.491 506.628 330.661 498.18 355.966Z" fill="#CC99FF" stroke="#091A27" stroke-width="0.702" stroke-miterlimit="10"/>
<path d="M494.578 350.949C490.763 368.105 481.916 383.731 469.168 395.829" stroke="#091A27" stroke-width="0.702" stroke-miterlimit="10"/>
<path d="M463.412 399.273C460.884 400.547 458.23 401.551 455.492 402.27" stroke="#091A27" stroke-width="0.702" stroke-miterlimit="10"/>
<path d="M507.314 282.824C507.78 289.953 507.337 297.112 505.994 304.129" stroke="#091A27" stroke-width="0.702" stroke-miterlimit="10"/>
<path d="M479.276 246.946C476.638 246.669 473.98 247.252 471.7 248.609C469.447 249.972 467.345 251.569 465.43 253.375" stroke="#091A27" stroke-width="0.702" stroke-miterlimit="10"/>
<path d="M297.975 397.398C291.877 406.797 286.28 416.684 279.72 426.227C277.779 429.039 273.819 433.764 275.76 437.355C277.489 440.483 283.983 443.11 288.286 442.635C289.111 442.568 289.91 442.315 290.623 441.896C292.544 440.444 294.186 438.655 295.467 436.616C300.813 429.593 308.218 424.458 315.584 419.588C318.382 417.753 321.194 415.905 323.926 413.978L325.933 402.216L297.975 397.398Z" fill="white" stroke="#222221" stroke-width="0.702" stroke-miterlimit="10"/>
<path d="M284.05 435.601C282.387 434.531 280.658 433.079 280.671 431.113C280.762 430.328 280.912 429.551 281.12 428.789C281.22 428.404 281.219 427.999 281.114 427.615C281.01 427.23 280.807 426.88 280.526 426.598C280.175 426.35 279.754 426.221 279.325 426.229C277.173 426.163 275.51 428.024 273.411 428.077C271.312 428.129 268.527 426.889 266.428 426.281C262.759 425.199 245.902 417.134 244.635 424.486C243.751 429.634 255.565 437.185 258.799 439.481C263.01 442.493 267.486 445.117 272.17 447.322C275.035 448.642 281.41 453.605 284.539 451.876C285.172 451.47 285.708 450.929 286.109 450.292C287.535 448.339 288.921 446.332 290.413 444.431C291.556 443.302 292.554 442.033 293.383 440.656C290.465 438.848 287.165 437.554 284.222 435.706C284.17 435.663 284.112 435.628 284.05 435.601Z" fill="#091A27"/>
<path d="M455.504 330.951C445.195 339.478 424.524 335.096 412.419 333.076C384.382 328.404 351.118 302.809 331.45 333.882C321.3 349.906 292.009 394.522 286.082 404.343C288.004 407.406 290.496 410.072 293.421 412.197C297.091 415.141 300.84 418.032 304.602 420.843C307.925 423.39 311.563 425.497 315.426 427.113C316.178 427.417 316.957 427.707 317.736 427.971H317.973C318.436 428.071 318.919 428.024 319.354 427.837C319.789 427.65 320.155 427.333 320.402 426.928C321.722 424.83 322.923 422.678 324.111 420.487C333.457 403.155 348.624 387.262 357.388 369.64C368.173 347.926 391.154 379.712 397.424 388.424C409.304 400.951 487.804 408.765 455.504 330.951Z" fill="#FF5252" stroke="#091A27" stroke-width="0.702" stroke-miterlimit="10"/>
<path d="M360.148 505.785C357.508 508.597 351.436 510.841 347.423 510.141C341.034 509.032 342.407 501.838 342.341 496.941C342.157 483.158 343.186 469.386 345.417 455.784C347.133 445.356 351.079 433.093 364.583 435.02C366.869 435.351 369.018 436.31 370.791 437.79C372.565 439.27 373.893 441.213 374.628 443.402C375.291 446.07 375.421 448.842 375.011 451.56C373.968 461.908 372.199 460.8 368.992 470.634C367.368 475.518 361.89 503.898 360.148 505.785Z" fill="white" stroke="#222221" stroke-width="0.702" stroke-miterlimit="10"/>
<path d="M413.225 387.948C410.07 384.542 397.767 371.553 394.467 368.28C387.986 361.851 380.528 354.842 371.724 351.793C356.385 346.513 347.409 359.819 344.703 372.913C340.809 391.591 332.216 461.459 329.391 477.391C329.312 477.88 329.22 478.368 329.141 478.843C344.07 483.397 357.349 483.674 372.978 483.991C375.763 483.991 377.321 458.911 378.258 451.77C379.578 441.949 380.396 432.062 381.743 422.255C381.993 420.526 384.62 405.319 385.465 398.389C385.582 397.471 386.036 396.63 386.739 396.027C387.441 395.425 388.342 395.105 389.267 395.129C393.583 395.274 397.886 395.287 402.189 395.525C407.707 395.815 413.238 396.013 418.769 396.079" fill="#FF5252"/>
<path d="M413.225 387.948C410.07 384.542 397.767 371.553 394.467 368.28C387.986 361.851 380.528 354.842 371.724 351.793C356.385 346.513 347.409 359.819 344.703 372.913C340.809 391.591 332.216 461.459 329.391 477.391C329.312 477.88 329.22 478.368 329.141 478.843C344.07 483.397 357.349 483.674 372.978 483.991C375.763 483.991 377.321 458.911 378.258 451.77C379.578 441.949 380.396 432.062 381.743 422.255C381.993 420.526 384.62 405.319 385.465 398.389C385.582 397.471 386.036 396.63 386.739 396.027C387.441 395.425 388.342 395.105 389.267 395.129C393.583 395.274 397.886 395.287 402.189 395.525C407.707 395.815 413.238 396.013 418.769 396.079" stroke="#091A27" stroke-width="0.702" stroke-miterlimit="10"/>
<path d="M314.476 519.723C317.829 515.05 326.713 509.981 329.208 508.648C335.227 505.44 336.692 504.068 339.649 497.666C340.098 496.689 340.652 495.62 341.668 495.303C342.251 495.187 342.856 495.262 343.393 495.517C343.93 495.771 344.371 496.191 344.652 496.715C345.193 497.774 345.6 498.896 345.866 500.055C346.003 500.628 346.328 501.14 346.79 501.507C347.403 501.809 348.1 501.897 348.77 501.758L362.96 500.279C363.607 504.332 364.174 508.833 361.878 512.252C360.75 513.793 359.294 515.065 357.614 515.974C355.154 517.4 352.58 518.618 349.918 519.617C342.326 522.64 334.51 525.067 326.541 526.877C323.975 527.652 321.262 527.815 318.621 527.352C312.47 525.795 312.246 522.851 314.476 519.723Z" fill="#091A27"/>
<path d="M331.598 341.273H437.528C439.666 341.273 442.174 341.708 444.246 341.273C446.728 340.718 448.734 338.751 451.361 338.633C452.251 338.668 453.135 338.787 454.001 338.989C458.214 339.729 462.553 339.148 466.422 337.326C467.441 336.848 468.405 336.264 469.3 335.583C470.558 334.654 471.591 333.454 472.323 332.072C473.3 329.747 473.694 327.219 473.471 324.707C472.772 300.947 461.591 276.183 446.028 258.416C439.033 250.42 430.726 243.675 421.463 238.471C415.721 235.263 409.055 234.775 402.587 234.828C395.776 234.907 388.965 234.973 382.18 235.501C375.91 235.976 370.3 234.273 364.756 237.27" fill="#5F76E8"/>
<path d="M331.598 341.273H437.528C439.666 341.273 442.174 341.708 444.246 341.273C446.728 340.718 448.734 338.751 451.361 338.633C452.251 338.668 453.135 338.787 454.001 338.989C458.214 339.729 462.553 339.148 466.422 337.326C467.441 336.848 468.405 336.264 469.3 335.583C470.558 334.654 471.591 333.454 472.323 332.072C473.3 329.747 473.694 327.219 473.471 324.707C472.772 300.947 461.591 276.183 446.028 258.416C439.033 250.42 430.726 243.675 421.463 238.471C415.721 235.263 409.055 234.775 402.587 234.828C395.776 234.907 388.965 234.973 382.18 235.501C375.91 235.976 370.3 234.273 364.756 237.27" stroke="#091A27" stroke-width="0.702" stroke-miterlimit="10"/>
<path d="M355.673 271.035C353.865 282.374 353.271 284.816 353.033 296.3L355.673 271.035Z" fill="#5F76E8"/>
<path d="M355.673 271.035C353.865 282.374 353.271 284.816 353.033 296.3" stroke="#091A27" stroke-width="0.702" stroke-miterlimit="10"/>
<path d="M364.373 229.284C365.799 230.789 365.878 233.865 365.284 235.7C365.101 236.314 364.76 236.87 364.294 237.31C366.16 238.778 368.275 239.9 370.537 240.623C373.419 241.458 376.464 241.557 379.395 240.914C383.579 240.029 388.291 238.511 391.169 235.304C389.097 235.224 386.47 233.178 385.335 231.41C384.182 229.399 383.564 227.127 383.539 224.81C382.959 214.685 385.519 201.432 375.144 195.308C372.871 193.9 370.415 192.811 367.845 192.074C365.532 191.276 362.997 191.428 360.796 192.496C358.459 193.539 356.506 193.446 354.539 195.321C351.199 198.502 350.579 202.739 350.988 207.135C351.569 212.666 352.519 219.081 355.674 223.793C356.649 225.339 358.072 226.55 359.753 227.265C361.258 227.859 363.225 228.057 364.373 229.284Z" fill="white" stroke="#222221" stroke-width="0.702" stroke-miterlimit="10"/>
<path d="M355.039 202.357C355.846 201.638 356.731 201.013 357.679 200.495C358.577 200.073 360.412 199.69 361.283 200.416C362.154 201.142 361.679 201.604 361.745 202.396C361.943 204.772 363.501 205.723 365.705 204.337C366.814 203.65 368.081 202.753 369.282 203.254C371.038 204.007 370.206 205.894 370.602 207.214C371.367 209.208 372.461 211.059 373.836 212.692C375.459 215 377.495 216.987 379.842 218.553C387.247 222.698 385.822 211.003 387.313 207.584C387.823 206.642 388.183 205.626 388.383 204.574C388.62 202.159 386.64 200.297 384.7 198.687L383.776 197.921C383.485 197.711 383.253 197.429 383.103 197.103C382.773 196.192 384.317 194.212 384.423 193.024C384.392 191.936 384.131 190.866 383.658 189.886C383.185 188.905 382.51 188.036 381.677 187.335C380.617 186.437 379.345 185.825 377.981 185.56C376.617 185.294 375.208 185.382 373.889 185.817C372.754 186.213 371.513 186.86 370.404 186.385C368.794 185.672 369.084 183.745 367.764 182.689C367.154 182.219 366.415 181.947 365.646 181.909C364.876 181.871 364.114 182.069 363.461 182.477C362.93 182.946 362.375 183.387 361.798 183.797C360.399 184.603 358.643 184.061 357.033 184.141C356.153 184.192 355.295 184.437 354.521 184.86C353.747 185.282 353.077 185.87 352.558 186.583C351.946 187.786 351.193 188.911 350.314 189.935C349.218 190.873 347.674 191.018 346.354 191.599C345.518 192.008 344.771 192.58 344.158 193.281C343.545 193.982 343.078 194.798 342.783 195.681C342.488 196.564 342.372 197.497 342.441 198.426C342.51 199.354 342.763 200.26 343.186 201.089C344.17 202.696 345.723 203.872 347.536 204.383C349.349 204.895 351.289 204.704 352.967 203.848C353.703 203.417 354.397 202.917 355.039 202.357Z" fill="#091A27"/>
<path d="M369.084 210.026C369.37 209.154 369.818 208.343 370.404 207.637C372.542 205.129 376.806 206 378.601 208.442C379.48 209.655 379.889 211.147 379.75 212.639C379.681 213.469 379.403 214.268 378.941 214.961C378.48 215.653 377.849 216.217 377.11 216.599" fill="white"/>
<path d="M369.084 210.026C369.37 209.154 369.818 208.343 370.404 207.637C372.542 205.129 376.806 206 378.601 208.442C379.48 209.655 379.889 211.147 379.75 212.639C379.681 213.469 379.403 214.268 378.941 214.961C378.48 215.653 377.849 216.217 377.11 216.599" stroke="#222221" stroke-width="0.702" stroke-miterlimit="10"/>
<path d="M404.144 341.643C391.221 342.527 376.965 343.477 364.781 339.201C367.117 335.685 370.001 332.566 373.322 329.961C376.714 327.558 380.238 327.413 384.278 327.796C386.046 327.954 387.815 328.046 389.558 328.086C398.915 328.226 408.209 326.521 416.908 323.07C425.838 319.594 435.241 317.48 444.8 316.8C450.513 316.301 456.27 316.652 461.88 317.843C466.712 318.925 471.741 321.42 473.932 326.119C474.982 328.522 475.285 331.185 474.803 333.762C474.552 335.293 473.483 339.913 471.345 339.913C470.203 340.535 468.961 340.951 467.675 341.141C457.551 343.213 446.555 341.59 436.286 341.247C425.572 340.831 414.844 340.963 404.144 341.643Z" fill="white" stroke="#222221" stroke-width="0.702" stroke-miterlimit="10"/>
<path d="M358.18 220.837C359.9 220.696 361.522 219.98 362.786 218.805" stroke="#091A27" stroke-width="1.404" stroke-miterlimit="10"/>
<mask id="mask0_1245_6078" style="mask-type:luminance" maskUnits="userSpaceOnUse" x="350" y="191" width="40" height="48">
<path d="M375.142 195.36C391.246 204.878 376.105 228.994 389.53 235.977C381.682 238.672 373.246 239.169 365.136 237.416C365.479 237.416 365.4 232.268 365.374 231.911C365.11 228.294 362.496 228.36 359.751 227.318C358.069 226.602 356.646 225.391 355.672 223.846C352.517 219.134 351.566 212.718 350.986 207.188C350.524 202.792 351.197 198.555 354.536 195.374C356.503 193.499 358.496 193.592 360.793 192.549C362.994 191.48 365.529 191.328 367.842 192.126C370.412 192.864 372.869 193.952 375.142 195.36Z" fill="white"/>
</mask>
<g mask="url(#mask0_1245_6078)">
<path d="M362.746 228.784C362.746 228.705 362.746 228.612 362.746 228.52C365.371 228.372 367.931 227.646 370.244 226.395C369.24 228.295 366.284 231.16 363.934 233.272C363.881 231.705 363.475 230.171 362.746 228.784Z" fill="#091A27"/>
</g>
<path d="M377.651 210.962C377.17 210.068 376.394 209.369 375.455 208.984C374.516 208.599 373.473 208.552 372.503 208.85C372.099 208.963 371.73 209.175 371.43 209.468C371.13 209.761 370.909 210.125 370.787 210.526" stroke="#091A27" stroke-width="0.702" stroke-miterlimit="10"/>
<path d="M373.6 208.785C374.226 209.106 374.709 209.651 374.953 210.31C375.197 210.97 375.185 211.698 374.92 212.349" stroke="#091A27" stroke-width="0.702" stroke-miterlimit="10"/>
<path d="M505.876 331.399C448.957 307.005 376.291 360.135 406.269 414.638" stroke="#091A27" stroke-width="4.212" stroke-miterlimit="10"/>
<path d="M486.894 338.844H29.8047V342.896H486.894V338.844Z" fill="white" stroke="#222221" stroke-width="0.702" stroke-miterlimit="10"/>
<path d="M303.558 338.818H398.123C398.72 338.814 399.292 338.575 399.715 338.153C400.138 337.73 400.377 337.158 400.38 336.56C400.376 335.964 400.137 335.393 399.714 334.973C399.291 334.552 398.719 334.316 398.123 334.316H303.558C302.962 334.316 302.389 334.552 301.967 334.973C301.544 335.393 301.304 335.964 301.301 336.56C301.304 337.158 301.543 337.73 301.966 338.153C302.388 338.575 302.96 338.814 303.558 338.818Z" fill="#091A27"/>
<path d="M301.025 338.818H385.69L378.324 290.162C378.205 289.352 377.8 288.61 377.183 288.07C376.566 287.531 375.777 287.229 374.958 287.219H296.959C296.482 287.223 296.011 287.332 295.579 287.536C295.147 287.74 294.765 288.036 294.459 288.403C294.153 288.769 293.93 289.198 293.805 289.659C293.681 290.12 293.658 290.602 293.738 291.073L301.025 338.818Z" fill="#091A27"/>
<path d="M331.584 309.541C331.584 310.342 331.822 311.126 332.267 311.792C332.712 312.459 333.345 312.978 334.086 313.285C334.826 313.591 335.641 313.672 336.427 313.515C337.213 313.359 337.935 312.973 338.502 312.406C339.069 311.839 339.455 311.117 339.611 310.331C339.767 309.545 339.687 308.73 339.38 307.99C339.074 307.249 338.554 306.617 337.888 306.171C337.221 305.726 336.438 305.488 335.636 305.488C335.104 305.487 334.576 305.59 334.084 305.793C333.591 305.996 333.144 306.295 332.767 306.671C332.39 307.048 332.092 307.495 331.889 307.988C331.686 308.48 331.582 309.008 331.584 309.541Z" fill="#222221" stroke="white" stroke-width="0.702" stroke-miterlimit="10"/>
<path d="M133.279 228.241C132.372 229.473 131.907 230.975 131.959 232.504C131.905 233.306 132.05 234.109 132.381 234.841C132.567 235.223 132.853 235.547 133.208 235.78C133.564 236.012 133.976 236.144 134.401 236.161C132.944 237.684 131.138 238.829 129.14 239.498C127.141 240.168 125.01 240.34 122.93 240.002C118.761 239.283 114.888 237.376 111.776 234.511C110.933 233.811 110.168 233.024 109.492 232.161C108.705 230.999 108.046 229.755 107.525 228.452C107.684 228.822 109.664 228.729 110.047 228.624C110.851 228.342 111.523 227.773 111.934 227.026C112.835 225.505 113.436 223.825 113.703 222.076C115.683 212.414 112.238 200.402 122.534 194.356C124.812 192.948 127.272 191.86 129.847 191.122C132.159 190.324 134.694 190.476 136.895 191.545C139.219 192.588 141.172 192.495 143.139 194.37C146.479 197.551 147.165 201.788 146.69 206.25C146.109 211.78 145.172 218.13 142.004 222.908C141.032 224.456 139.608 225.668 137.925 226.38C136.433 226.815 134.467 227.04 133.279 228.241Z" fill="white" stroke="#222221" stroke-width="0.702" stroke-miterlimit="10"/>
<path d="M123.828 211.609C122.443 213.516 120.814 215.234 118.983 216.717C117.756 217.615 115.182 219.265 113.703 218.13C112.502 217.232 112.99 212.85 112.938 211.437C112.825 208.648 112.931 205.854 113.254 203.082C113.481 200.698 114.092 198.367 115.063 196.178C116.039 193.974 117.677 192.129 119.749 190.898C121.693 190.009 123.801 189.532 125.94 189.499C128.693 189.158 131.469 189.034 134.242 189.129C137.503 189.301 140.842 189.961 144.037 189.512C145.66 189.274 147.244 188.773 148.881 188.694C149.7 188.605 150.529 188.717 151.295 189.021C152.06 189.324 152.741 189.81 153.277 190.436C153.705 191.212 153.961 192.07 154.03 192.954C154.098 193.837 153.976 194.725 153.673 195.558C153.31 197.183 152.657 198.731 151.746 200.125C150.738 201.625 149.297 202.781 147.614 203.438C146.083 203.808 143.733 202.488 142.255 202.026C141.357 201.735 140.671 201.022 139.72 200.851C138.965 200.742 138.196 200.911 137.556 201.326C135.536 202.554 134.678 204.956 132.025 203.293C130.929 202.606 129.649 201.709 128.448 202.21C126.705 202.963 127.524 204.784 127.128 206.17C126.338 208.154 125.223 209.992 123.828 211.609Z" fill="#091A27"/>
<path d="M128.621 208.983C128.329 208.113 127.882 207.304 127.301 206.594C125.149 204.086 120.886 204.957 119.104 207.399C118.212 208.606 117.802 210.103 117.955 211.597C118.004 212.289 118.208 212.961 118.553 213.563C118.898 214.165 119.374 214.681 119.947 215.074C120.519 215.466 121.173 215.723 121.859 215.828C122.545 215.932 123.245 215.88 123.908 215.675C124.135 215.614 124.345 215.503 124.524 215.35C124.702 215.197 124.843 215.006 124.938 214.791" fill="white"/>
<path d="M128.621 208.983C128.329 208.113 127.882 207.304 127.301 206.594C125.149 204.086 120.886 204.957 119.104 207.399C118.212 208.606 117.802 210.103 117.955 211.597C118.004 212.289 118.208 212.961 118.553 213.563C118.898 214.165 119.374 214.681 119.947 215.074C120.519 215.466 121.173 215.723 121.859 215.828C122.545 215.932 123.245 215.88 123.908 215.675C124.135 215.614 124.345 215.503 124.524 215.35C124.702 215.197 124.843 215.006 124.938 214.791" stroke="#222221" stroke-width="0.702" stroke-miterlimit="10"/>
<path d="M139.509 219.795C137.79 219.65 136.168 218.934 134.902 217.762" stroke="#091A27" stroke-width="1.404" stroke-miterlimit="10"/>
<mask id="mask1_1245_6078" style="mask-type:luminance" maskUnits="userSpaceOnUse" x="108" y="190" width="39" height="48">
<path d="M122.549 194.292C106.445 203.809 121.598 227.925 108.174 234.908C116.017 237.603 124.448 238.101 132.554 236.347C132.211 236.347 132.29 231.199 132.317 230.842C132.581 227.226 135.207 227.292 137.94 226.249C139.621 225.534 141.044 224.323 142.019 222.777C145.187 218.065 146.124 211.65 146.705 206.119C147.18 201.723 146.493 197.486 143.154 194.239C141.187 192.364 139.194 192.457 136.91 191.414C134.709 190.346 132.174 190.194 129.861 190.992C127.284 191.75 124.823 192.861 122.549 194.292Z" fill="white"/>
</mask>
<g mask="url(#mask1_1245_6078)">
<path d="M134.944 227.741C134.944 227.662 134.944 227.569 135.023 227.477C132.397 227.331 129.837 226.605 127.525 225.352C128.515 227.252 131.485 230.117 133.835 232.229C133.862 230.668 134.241 229.134 134.944 227.741Z" fill="#091A27"/>
</g>
<path d="M122.205 207.769C122.699 207.678 123.208 207.711 123.685 207.867C124.162 208.023 124.593 208.295 124.938 208.66C125.283 209.025 125.532 209.47 125.661 209.955C125.79 210.441 125.795 210.951 125.677 211.438" stroke="#091A27" stroke-width="0.702" stroke-miterlimit="10"/>
<path d="M416.117 273.043C428.631 286.533 434.32 299.76 440.722 317.025L416.117 273.043Z" fill="#5F76E8"/>
<path d="M416.117 273.043C428.631 286.533 434.32 299.76 440.722 317.025" stroke="#091A27" stroke-width="0.702" stroke-miterlimit="10"/>
<path d="M148.34 258.391C150.196 263.037 151.37 267.928 151.825 272.911L148.34 258.391Z" fill="#37CDC7"/>
<path d="M148.34 258.391C150.196 263.037 151.37 267.928 151.825 272.911" stroke="#091A27" stroke-width="0.702" stroke-miterlimit="10"/>
<path d="M197.127 383.605C200.038 386.44 202.429 389.764 204.189 393.426L197.127 383.605Z" fill="#5F76E8"/>
<path d="M197.127 383.605C200.038 386.44 202.429 389.764 204.189 393.426" stroke="#091A27" stroke-width="0.702" stroke-miterlimit="10"/>
<path d="M205.551 397.676C206.585 399.541 207.515 401.463 208.336 403.431L205.551 397.676Z" fill="#5F76E8"/>
<path d="M205.551 397.676C206.585 399.541 207.515 401.463 208.336 403.431" stroke="#091A27" stroke-width="0.702" stroke-miterlimit="10"/>
<path d="M224.359 381.322C224.438 385.718 224.359 390.113 224.188 394.522L224.359 381.322Z" fill="#5F76E8"/>
<path d="M224.359 381.322C224.438 385.718 224.359 390.113 224.188 394.522" stroke="#091A27" stroke-width="0.702" stroke-miterlimit="10"/>
<path d="M159.205 409.636C160.352 408.953 161.564 408.382 162.822 407.934L159.205 409.636Z" fill="#5F76E8"/>
<path d="M159.205 409.636C160.352 408.953 161.564 408.382 162.822 407.934" stroke="#091A27" stroke-width="0.702" stroke-miterlimit="10"/>
<path d="M79.0801 397.057C79.7721 398.908 80.8941 400.568 82.3537 401.901C83.8247 403.238 85.7519 403.961 87.7393 403.921" fill="#5F76E8"/>
<path d="M79.0801 397.057C79.7721 398.908 80.8941 400.568 82.3537 401.901C83.8247 403.238 85.7519 403.961 87.7393 403.921" stroke="#091A27" stroke-width="0.702" stroke-miterlimit="10"/>
<path d="M90.8945 404.727C92.2368 405.029 93.6214 405.096 94.9865 404.925L90.8945 404.727Z" fill="#5F76E8"/>
<path d="M90.8945 404.727C92.2368 405.029 93.6214 405.096 94.9865 404.925" stroke="#091A27" stroke-width="0.702" stroke-miterlimit="10"/>
<path d="M68.0316 281.16C67.1453 286.325 66.5285 291.533 66.1836 296.763L68.0316 281.16Z" fill="white"/>
<path d="M68.0316 281.16C67.1453 286.325 66.5285 291.533 66.1836 296.763" stroke="#222221" stroke-width="0.702" stroke-miterlimit="10"/>
<path d="M65.959 302.16C65.959 303.48 66.091 304.8 66.1438 306.054L65.959 302.16Z" fill="white"/>
<path d="M65.959 302.16C65.959 303.48 66.091 304.8 66.1438 306.054" stroke="#222221" stroke-width="0.702" stroke-miterlimit="10"/>
<path d="M97.8242 283.575C94.0276 281.276 90.3612 278.769 86.8418 276.065L86.0762 275.576C87.0794 277.49 87.3962 279.721 88.1354 281.741C88.8746 283.76 90.5378 285.701 92.7026 285.846C94.4657 285.703 96.2144 286.258 97.5734 287.39C98.2195 288.074 98.9025 288.722 99.6194 289.331C100.183 289.744 100.825 290.035 101.507 290.187C102.188 290.34 102.894 290.349 103.579 290.215C104.899 289.938 105.705 288.301 107.157 288.657C103.899 287.249 100.775 285.548 97.8242 283.575Z" fill="#091A27"/>
<path d="M425.673 290.189C426.405 290.835 427.077 291.547 427.68 292.315C428.269 293.37 428.479 294.595 428.274 295.786C428.115 297.238 427.772 298.941 428.828 299.944C429.884 300.947 431.679 300.697 432.484 301.832C432.999 302.584 432.854 303.653 433.408 304.379C433.78 304.722 434.226 304.974 434.712 305.113C435.198 305.253 435.71 305.278 436.207 305.185C435.818 304.138 435.378 303.112 434.887 302.109C433.646 299.469 432.432 296.895 431.178 294.308C430.755 293.463 430.478 292.473 430.016 291.668C429.554 290.863 428.696 290.005 428.221 289.028C427.5 287.278 426.457 285.679 425.145 284.315C425.066 284.249 424.974 284.17 424.868 284.197C424.762 284.223 424.736 284.302 424.683 284.381C424.218 285.331 424.064 286.403 424.242 287.445C424.419 288.487 424.92 289.447 425.673 290.189Z" fill="#091A27"/>
<path d="M300.656 420.975C301.347 422.081 301.822 423.309 302.055 424.592C302.464 425.82 303.441 427.1 304.695 427.008C305.402 426.872 306.053 426.533 306.569 426.031L309.632 423.549C307.853 422.936 306.196 422.015 304.735 420.83C303.415 419.88 302.095 418.811 300.775 417.834C299.204 416.685 297.805 415.062 296.273 414.059C296.471 416.105 295.97 417.055 297.593 418.599C298.531 419.484 299.851 420.012 300.656 420.975Z" fill="#091A27"/>
<path d="M324.891 508.016C325.354 507.844 325.863 507.843 326.327 508.013C326.791 508.182 327.18 508.51 327.425 508.94C327.979 509.745 328.217 510.748 328.745 511.58C329.395 512.695 330.449 513.517 331.689 513.876C331.989 513.975 332.313 513.975 332.613 513.876C333.418 513.546 333.233 512.372 332.903 511.566C332.467 510.51 332.032 509.441 331.583 508.385C331.134 507.329 330.804 505.745 331.86 505.112C332.276 504.951 332.736 504.943 333.157 505.091C333.578 505.238 333.933 505.531 334.157 505.917C334.585 506.703 334.956 507.519 335.266 508.359C335.426 508.777 335.705 509.138 336.069 509.399C336.433 509.659 336.865 509.807 337.312 509.824C338.632 509.718 339.107 508.042 338.883 506.775C338.715 505.892 338.356 505.057 337.832 504.327C337.308 503.597 336.63 502.991 335.847 502.551" stroke="#37CDC7" stroke-width="1.404" stroke-miterlimit="10"/>
<path d="M189.881 501.758C187.743 503.486 185.985 505.639 184.72 508.081C184.475 508.481 184.326 508.933 184.284 509.401C184.273 509.643 184.339 509.883 184.471 510.087C184.604 510.291 184.797 510.448 185.024 510.536C185.254 510.573 185.491 510.563 185.717 510.506C185.944 510.449 186.157 510.347 186.344 510.206L193.379 506.246L191.28 511.13C190.752 512.357 190.264 513.889 191.135 514.905C191.558 515.339 192.117 515.614 192.719 515.684C193.78 515.811 194.851 515.553 195.737 514.957C196.624 514.361 197.267 513.467 197.55 512.437" stroke="#37CDC7" stroke-width="1.404" stroke-miterlimit="10"/>
<path d="M260.647 422.123C259.914 424.087 259.53 426.165 259.512 428.261C259.512 428.789 259.697 429.502 260.238 429.502C260.5 429.476 260.742 429.348 260.911 429.145C262.599 427.592 264.141 425.886 265.518 424.05C266.096 424.871 266.342 425.88 266.204 426.875C266.054 427.864 266.126 428.874 266.415 429.832C266.578 430.301 266.917 430.689 267.36 430.913C267.804 431.137 268.317 431.18 268.791 431.033C269.334 430.689 269.733 430.159 269.913 429.541C270.613 427.891 271.233 426.228 271.88 424.552" stroke="#37CDC7" stroke-width="1.404" stroke-miterlimit="10"/>
<path d="M254.812 496.4C254.086 498.236 253.889 500.239 254.244 502.181C254.376 502.881 254.68 503.66 255.353 503.858C255.711 503.897 256.072 503.834 256.395 503.675C256.718 503.516 256.988 503.268 257.175 502.96C259.049 500.624 259.379 497.033 261.927 495.449C261.739 497.397 261.983 499.362 262.64 501.204C262.93 501.996 263.471 502.881 264.303 502.868C265.134 502.854 265.623 501.996 266.032 501.231L268.395 496.149" stroke="#37CDC7" stroke-width="1.404" stroke-miterlimit="10"/>
<path d="M199.492 209.273L199.148 254.906L211.794 254.998L212.137 209.273H199.492Z" fill="#37CDC7" stroke="#091A27" stroke-width="0.702" stroke-miterlimit="10"/>
<path d="M227.885 185.128L227.359 255.139L240.005 255.234L240.53 185.223L227.885 185.128Z" fill="#CC99FF" stroke="#091A27" stroke-width="0.702" stroke-miterlimit="10"/>
<path d="M256.037 193.119L255.57 255.342L268.216 255.437L268.683 193.214L256.037 193.119Z" fill="#37CDC7" stroke="#091A27" stroke-width="0.702" stroke-miterlimit="10"/>
<path d="M281.993 223.449L281.752 255.537L294.397 255.632L294.638 223.544L281.993 223.449Z" fill="#CC99FF" stroke="#091A27" stroke-width="0.702" stroke-miterlimit="10"/>
<path d="M188.602 254.932L299.759 255.895" stroke="#1B2258" stroke-width="1.053" stroke-miterlimit="10"/>
<path d="M238.127 189.539V208.785" stroke="#091A27" stroke-width="0.702" stroke-miterlimit="10"/>
<path d="M237.559 211.662C237.743 214.246 237.743 216.84 237.559 219.424" stroke="#091A27" stroke-width="0.702" stroke-miterlimit="10"/>
<path d="M209.113 221.141C209.206 224.599 209.311 228.044 209.404 231.489" stroke="#091A27" stroke-width="0.702" stroke-miterlimit="10"/>
<path d="M292.75 232.057V240.109" stroke="#091A27" stroke-width="0.702" stroke-miterlimit="10"/>
<path d="M292.471 244.701V248.49" stroke="#091A27" stroke-width="0.702" stroke-miterlimit="10"/>
<path d="M266.322 225.746V237.811" stroke="#091A27" stroke-width="0.702" stroke-miterlimit="10"/>
<path d="M264.025 222.012V225.457" stroke="#091A27" stroke-width="0.702" stroke-miterlimit="10"/>
<path d="M266.031 216.836V220.281" stroke="#091A27" stroke-width="0.702" stroke-miterlimit="10"/>
<path d="M438.142 72.931C440.059 64.7695 434.998 56.599 426.836 54.6817C418.674 52.7644 410.504 57.8264 408.587 65.9879C406.669 74.1494 411.731 82.3199 419.893 84.2371C428.054 86.1544 436.225 81.0925 438.142 72.931Z" fill="white" stroke="#091A27" stroke-width="0.702" stroke-miterlimit="10"/>
<path d="M422.453 77.8803H422.255H422.123C421.635 77.8803 421.186 77.8803 420.803 77.8803C420.42 77.8803 420.037 77.8011 419.707 77.7483C419.378 77.6862 419.052 77.6069 418.731 77.5107L417.754 77.2071C417.794 76.8508 417.86 76.4978 417.952 76.1511C418.057 75.7947 418.176 75.4647 418.295 75.1347C418.836 75.3063 419.378 75.4515 419.945 75.5835C420.622 75.7264 421.313 75.7928 422.004 75.7815C423.016 75.8589 424.025 75.5939 424.869 75.0291C425.18 74.784 425.429 74.4682 425.594 74.1078C425.76 73.7474 425.837 73.3528 425.819 72.9567C425.83 72.5774 425.762 72.2 425.621 71.8479C425.477 71.5514 425.27 71.2901 425.014 71.0823C424.705 70.834 424.363 70.6297 423.997 70.4751L422.559 69.8547L421.437 69.3795C420.978 69.2095 420.536 68.9974 420.117 68.7459C419.732 68.5194 419.384 68.2344 419.087 67.9011C418.79 67.5708 418.561 67.185 418.414 66.7659C418.244 66.2556 418.163 65.7196 418.176 65.1819C418.138 64.0866 418.532 63.0202 419.272 62.2119C420.126 61.3589 421.251 60.8312 422.453 60.7203V58.3971C422.713 58.3364 422.978 58.3054 423.245 58.3047C423.529 58.3057 423.812 58.3367 424.09 58.3971V60.5883C424.744 60.6246 425.396 60.6951 426.044 60.7995C426.6 60.8982 427.148 61.0439 427.68 61.2351C427.599 61.9083 427.421 62.5663 427.152 63.1887C426.679 63.0138 426.194 62.8726 425.7 62.7663C425.069 62.649 424.428 62.5915 423.786 62.5947C422.985 62.5481 422.189 62.7461 421.503 63.1623C421.234 63.3631 421.02 63.6275 420.88 63.9317C420.739 64.2359 420.677 64.5703 420.697 64.9047C420.693 65.2421 420.765 65.5762 420.909 65.8815C421.063 66.1675 421.28 66.4155 421.542 66.6075C421.849 66.8383 422.181 67.0332 422.532 67.1883C422.915 67.3599 423.351 67.5579 423.852 67.7559L424.75 68.1387C425.273 68.3518 425.785 68.5942 426.281 68.8647C426.713 69.1012 427.105 69.4041 427.443 69.7623C427.769 70.1204 428.024 70.5369 428.195 70.9899C428.477 71.8261 428.545 72.7197 428.393 73.5891C428.241 74.4584 427.873 75.2757 427.324 75.9663C426.465 76.8626 425.331 77.4477 424.103 77.6295V80.2695H423.707C423.575 80.2817 423.443 80.2817 423.311 80.2695C423.171 80.283 423.029 80.283 422.889 80.2695H422.466L422.453 77.8803Z" fill="#091A27"/>
<path d="M63.3133 218.81C71.6785 215.345 75.6509 205.755 72.1859 197.39C68.721 189.025 59.1307 185.052 50.7656 188.517C42.4004 191.982 38.428 201.572 41.893 209.937C45.358 218.303 54.9482 222.275 63.3133 218.81Z" fill="white" stroke="#091A27" stroke-width="0.702" stroke-miterlimit="10"/>
<path d="M56.0712 212.705H55.8732H55.7148C55.1868 212.705 54.7116 212.705 54.2892 212.705C53.8668 212.705 53.4708 212.613 53.1144 212.547C52.7576 212.485 52.4049 212.401 52.0584 212.296L51.0156 211.966C51.0487 211.581 51.1195 211.201 51.2268 210.831C51.3456 210.448 51.4644 210.078 51.5964 209.722C52.1772 209.907 52.7712 210.078 53.3784 210.223C54.1071 210.379 54.8512 210.449 55.596 210.435C56.6907 210.518 57.7819 210.234 58.698 209.629C59.0305 209.36 59.2956 209.017 59.472 208.628C59.6485 208.238 59.7315 207.813 59.7144 207.385C59.7241 206.974 59.6476 206.565 59.49 206.184C59.3462 205.858 59.124 205.572 58.8432 205.353C58.5122 205.084 58.1429 204.866 57.7476 204.706L56.2032 204.033L54.9756 203.518C54.493 203.324 54.0253 203.094 53.5764 202.831C53.1669 202.591 52.7973 202.288 52.4808 201.934C52.161 201.571 51.9145 201.149 51.7548 200.693C51.5693 200.145 51.4799 199.569 51.4908 198.99C51.4681 198.404 51.5614 197.818 51.7652 197.268C51.9691 196.718 52.2795 196.213 52.6788 195.783C53.5975 194.892 54.7961 194.346 56.0712 194.238V191.77C56.356 191.698 56.6487 191.663 56.9424 191.664C57.2491 191.663 57.5549 191.698 57.8532 191.77V194.133C58.5566 194.167 59.2573 194.242 59.952 194.357C60.5548 194.455 61.147 194.61 61.7208 194.819C61.631 195.544 61.4446 196.255 61.1664 196.931C60.6492 196.746 60.1199 196.596 59.5824 196.482C58.9037 196.353 58.214 196.291 57.5232 196.297C56.6577 196.242 55.7961 196.454 55.0548 196.905C54.7635 197.121 54.5318 197.407 54.3817 197.737C54.2316 198.068 54.168 198.431 54.1968 198.792C54.184 199.157 54.2611 199.52 54.4212 199.848C54.589 200.152 54.8183 200.417 55.0944 200.627C55.4274 200.875 55.7858 201.088 56.1636 201.261L57.576 201.868L58.5396 202.277C59.1027 202.508 59.6534 202.768 60.1896 203.056C60.6807 203.306 61.1267 203.636 61.5096 204.033C61.8653 204.413 62.1393 204.862 62.3148 205.353C62.6222 206.255 62.6975 207.22 62.5337 208.159C62.3699 209.098 61.9723 209.98 61.3776 210.725C60.4367 211.701 59.1958 212.333 57.8532 212.52V215.451L57.4176 215.53H56.9952H56.5332L56.0712 215.451V212.705Z" fill="#091A27"/>
<path d="M513.571 213.613C515.386 205.787 510.514 197.971 502.688 196.156C494.862 194.34 487.046 199.213 485.23 207.039C483.415 214.865 488.288 222.681 496.114 224.496C503.939 226.311 511.755 221.439 513.571 213.613Z" fill="white" stroke="#091A27" stroke-width="0.702" stroke-miterlimit="10"/>
<path d="M498.498 218.328H498.194C497.719 218.328 497.279 218.328 496.874 218.328C496.491 218.328 496.148 218.249 495.818 218.196L494.881 217.972L493.957 217.668C493.986 217.327 494.052 216.991 494.155 216.665C494.247 216.335 494.353 216.005 494.472 215.688C494.982 215.846 495.51 215.992 496.056 216.124C496.701 216.266 497.362 216.333 498.023 216.322C498.997 216.389 499.966 216.134 500.781 215.596C501.076 215.356 501.31 215.051 501.466 214.705C501.622 214.359 501.695 213.982 501.679 213.602C501.687 213.242 501.625 212.883 501.494 212.546C501.359 212.259 501.16 212.007 500.913 211.807C500.617 211.568 500.288 211.372 499.937 211.226L498.617 210.632L497.534 210.17C497.103 210.005 496.688 209.802 496.293 209.563C495.922 209.35 495.588 209.078 495.303 208.758C495.019 208.44 494.804 208.067 494.67 207.662C494.505 207.178 494.429 206.669 494.445 206.158C494.423 205.637 494.504 205.117 494.683 204.628C494.862 204.139 495.135 203.69 495.488 203.306C496.311 202.536 497.373 202.07 498.498 201.986V199.716C498.752 199.65 499.014 199.619 499.277 199.624C499.548 199.619 499.819 199.65 500.082 199.716V201.815C500.705 201.847 501.327 201.913 501.943 202.013C502.478 202.101 503.004 202.238 503.514 202.422C503.442 203.067 503.277 203.698 503.025 204.296C502.567 204.138 502.1 204.006 501.626 203.9C501.022 203.783 500.407 203.726 499.791 203.729C499.021 203.681 498.255 203.875 497.6 204.283C497.341 204.472 497.135 204.724 497.001 205.015C496.867 205.306 496.809 205.627 496.835 205.946C496.826 206.27 496.893 206.591 497.033 206.884C497.183 207.158 497.39 207.396 497.64 207.583C497.927 207.807 498.242 207.993 498.577 208.138L499.831 208.679L500.689 209.048C501.196 209.25 501.69 209.484 502.167 209.748C502.582 209.971 502.956 210.261 503.276 210.606C503.598 210.942 503.845 211.343 504.002 211.781C504.189 212.306 504.279 212.86 504.266 213.418C504.312 214.562 503.92 215.681 503.171 216.546C502.345 217.404 501.259 217.966 500.082 218.143V220.783L499.699 220.849H499.316H498.907L498.498 220.783V218.328Z" fill="#091A27"/>
<path d="M190.381 36.7891H125.543V77.5903H190.381V36.7891Z" fill="#091A27"/>
<path d="M182.952 30.8613H118.113V71.6625H182.952V30.8613Z" fill="#37CDC7" stroke="#091A27" stroke-width="0.702" stroke-miterlimit="10"/>
<path d="M182.938 30.8613C182.938 30.8613 152.882 49.3413 150.519 51.2685L118.113 30.8613" stroke="#091A27" stroke-width="0.702" stroke-miterlimit="10"/>
<path d="M180.021 56.1406C180.299 59.567 180.299 63.0102 180.021 66.4366" stroke="#091A27" stroke-width="0.702" stroke-miterlimit="10"/>
<path d="M179.916 54.1204C179.916 52.8004 180.022 51.5992 180.061 50.332" stroke="#091A27" stroke-width="0.702" stroke-miterlimit="10"/>
<path d="M178.16 53.3027V56.0087" stroke="#091A27" stroke-width="0.702" stroke-miterlimit="10"/>
<path d="M151.602 48.0088C151.602 48.0088 156.169 45.1312 157.7 44.0488" stroke="#091A27" stroke-width="0.702" stroke-miterlimit="10"/>
<path d="M159.574 42.7028C160.217 42.1986 160.907 41.7566 161.633 41.3828" stroke="#091A27" stroke-width="0.702" stroke-miterlimit="10"/>
<path d="M453.433 115.381C467.189 115.365 480.827 117.926 493.64 122.931C501.983 126.245 512.675 132.607 512.675 142.89C512.675 151.879 503.936 158.043 496.755 161.634C491.206 164.311 485.357 166.314 479.331 167.6C471.152 169.445 462.806 170.453 454.423 170.61C453.698 179.508 450.162 187.945 444.325 194.7C442.121 197.221 439.401 199.571 436.088 200.046C441.534 191.108 444.143 180.73 443.573 170.28C432.926 169.561 422.477 167.044 412.671 162.835C404.685 159.311 394.191 152.856 394.191 142.89C394.191 131.01 407.141 124.595 416.843 121.321C428.637 117.371 440.995 115.365 453.433 115.381Z" fill="#FF5252" stroke="#091A27" stroke-width="0.702" stroke-miterlimit="10"/>
<path d="M494.473 140.739C494.317 143.202 493.221 145.51 491.411 147.188C489.602 148.865 487.217 149.784 484.75 149.753C482.283 149.723 479.922 148.746 478.154 147.024C476.387 145.302 475.348 142.967 475.253 140.502C475.082 138.654 475.623 136.476 477.247 135.75C478.106 135.485 479.035 135.563 479.838 135.97C480.641 136.376 481.254 137.078 481.55 137.928C482.128 139.708 481.996 141.642 481.18 143.327C480.119 145.856 478.285 147.985 475.939 149.408C473.594 150.83 470.859 151.474 468.125 151.247C465.393 150.834 462.857 149.582 460.868 147.664C458.879 145.746 457.535 143.257 457.024 140.541C456.668 138.654 456.879 136.37 458.344 135.261C460.232 133.941 463.057 135.499 463.717 137.783C463.95 138.951 463.921 140.156 463.631 141.311C463.341 142.466 462.798 143.543 462.04 144.462C460.594 146.368 458.704 147.891 456.534 148.899C454.365 149.906 451.982 150.368 449.593 150.243C447.265 150.216 444.987 149.569 442.993 148.369C440.432 146.508 437.858 140.449 439.877 137.519C440.009 137.25 440.204 137.017 440.446 136.84C440.687 136.664 440.968 136.548 441.264 136.504C441.56 136.46 441.863 136.488 442.145 136.587C442.428 136.685 442.683 136.851 442.887 137.07C443.322 137.524 443.662 138.061 443.889 138.647C444.115 139.234 444.223 139.86 444.207 140.489C444.078 143.251 443.002 145.885 441.158 147.947C439.604 149.672 437.548 150.867 435.28 151.364C433.012 151.861 430.645 151.635 428.512 150.719C426.377 149.682 424.551 148.104 423.215 146.143C421.878 144.182 421.079 141.905 420.896 139.538C420.737 137.756 421.477 135.367 423.193 135.459C424.513 135.459 425.212 136.964 425.489 138.258C425.88 140.123 425.819 142.055 425.311 143.892C424.804 145.728 423.865 147.417 422.572 148.818C421.294 150.157 419.692 151.144 417.92 151.683C416.149 152.222 414.269 152.294 412.461 151.893" stroke="#091A27" stroke-width="0.702" stroke-miterlimit="10"/>
<path d="M505.255 149.016C502.721 154.837 496.477 158.11 490.379 159.866" stroke="#091A27" stroke-width="0.702" stroke-miterlimit="10"/>
<path d="M487.33 161.291C485.387 162.205 483.303 162.781 481.166 162.994" stroke="#091A27" stroke-width="0.702" stroke-miterlimit="10"/>
<path d="M416.869 126.338C412.091 127.924 407.605 130.283 403.59 133.321" stroke="#091A27" stroke-width="0.702" stroke-miterlimit="10"/>
<path d="M130.469 110.59L130.364 110.498C127.992 108.69 125.344 107.277 122.523 106.313C114.344 103.491 105.787 101.916 97.1392 101.641C85.7318 100.945 74.2872 101.148 62.9116 102.248C48.1804 103.766 26.836 106.709 24.0112 124.688C23.7094 126.559 23.7586 128.471 24.1564 130.324C25.4764 136.436 30.664 141.135 36.4324 143.524C42.2008 145.913 48.55 146.481 54.7936 146.969C73.366 148.421 92.2948 149.715 110.537 146.296C110.529 148.749 110.781 151.196 111.29 153.596C112.343 157.587 114.634 161.142 117.833 163.75C121.032 166.359 124.975 167.887 129.096 168.116C123.275 165.476 119.79 159.126 118.774 152.804C118.361 150.074 118.25 147.307 118.444 144.554C124.067 142.97 129.624 140.594 133.241 136.053C136.102 132.251 137.407 127.503 136.892 122.773C136.378 118.043 134.081 113.687 130.469 110.59Z" fill="#FF5252" stroke="#091A27" stroke-width="0.702" stroke-miterlimit="10"/>
<path d="M44.127 132.977C45.0622 130.242 46.5438 127.726 48.4817 125.582C50.4196 123.438 52.7733 121.71 55.3998 120.503C57.1134 119.589 59.0759 119.251 60.9966 119.54C64.653 120.318 66.6462 124.41 66.8706 128.133C67.0371 129.493 66.7935 130.872 66.171 132.093C65.9105 132.773 65.4014 133.33 64.7467 133.65C64.092 133.969 63.3403 134.029 62.6433 133.816C61.9464 133.603 61.3561 133.134 60.9916 132.503C60.6272 131.872 60.5157 131.126 60.6798 130.416C60.8331 129.017 61.4297 127.704 62.3826 126.668C64.3648 124.328 66.9146 122.538 69.7878 121.467C73.5366 120.015 78.051 119.738 81.3246 122.061C84.5982 124.384 85.5486 129.875 82.4334 132.396C82.1312 132.672 81.7733 132.88 81.3838 133.005C80.9943 133.13 80.5824 133.17 80.1761 133.122C78.2885 132.74 78.1169 130.034 78.8561 128.278C80.6645 124.094 85.0338 121.401 89.535 120.688C91.6439 120.218 93.8528 120.583 95.6994 121.704C98.9729 124.067 98.5374 129.215 96.4782 132.674C96.1491 133.357 95.6007 133.91 94.9206 134.244C94.5807 134.317 94.2294 134.317 93.8895 134.244C93.5497 134.172 93.2287 134.029 92.9475 133.825C92.6663 133.621 92.4311 133.361 92.2571 133.06C92.083 132.759 91.9741 132.425 91.9374 132.08C91.8647 130.661 92.3369 129.268 93.2574 128.186C95.5778 125.147 98.9303 123.062 102.682 122.325C105.613 121.757 109.163 122.325 110.681 124.965C112.199 127.605 110.972 130.878 109.216 133.294C108.926 133.69 108.543 134.112 108.055 134.099C107.835 134.06 107.627 133.974 107.445 133.846C107.263 133.718 107.11 133.553 106.999 133.36C103.817 129.4 106.312 126.76 109.771 123.896C110.923 122.965 112.287 122.332 113.741 122.051C115.196 121.77 116.697 121.851 118.113 122.285" stroke="#222221" stroke-width="0.702" stroke-miterlimit="10"/>
<path d="M132.367 125.07C132.409 126.764 132.076 128.446 131.391 129.995C130.707 131.545 129.688 132.924 128.407 134.033C125.807 136.231 122.668 137.694 119.312 138.27" stroke="#091A27" stroke-width="0.702" stroke-miterlimit="10"/>
<path d="M131.63 120.86C131.498 118.602 129.834 116.768 128.264 115.131" stroke="#091A27" stroke-width="0.702" stroke-miterlimit="10"/>
<path d="M39.006 111.541C35.3625 112.672 32.2495 115.08 30.2392 118.322C28.2288 121.564 27.4562 125.423 28.0632 129.189" stroke="#091A27" stroke-width="0.702" stroke-miterlimit="10"/>
<path d="M29 132.344C29.6127 134.098 30.6837 135.657 32.102 136.858" stroke="#091A27" stroke-width="0.702" stroke-miterlimit="10"/>
<path d="M32.6162 119.303C31.5546 120.734 30.8856 122.417 30.6758 124.187" stroke="#091A27" stroke-width="0.702" stroke-miterlimit="10"/>
<path d="M105.375 513.256H121.215" stroke="#222221" stroke-width="0.702" stroke-miterlimit="10"/>
<path d="M24.1152 513.256C44.76 513.52 65.88 513.52 86.7888 513.256" stroke="#222221" stroke-width="0.702" stroke-miterlimit="10"/>
<path d="M136.605 513.256H183.188" stroke="#222221" stroke-width="0.702" stroke-miterlimit="10"/>
<path d="M415.482 526.178H426.755" stroke="#222221" stroke-width="0.702" stroke-miterlimit="10"/>
</svg>
