<svg width="71" height="65" viewBox="0 0 71 65" fill="none" xmlns="http://www.w3.org/2000/svg">
<path d="M71 34.208C71.0022 37.7266 70.1158 41.1881 68.4241 44.2672C66.7324 47.3463 64.2909 49.9418 61.329 51.8099C57.2888 54.3648 53.5349 57.3441 50.0131 60.5865C47.4207 62.9698 44.1505 64.4734 40.6637 64.8851C37.177 65.2968 33.6499 64.5959 30.58 62.8812C26.6952 60.7242 22.4429 59.32 18.0437 58.7413C10.4362 57.7063 0 53.5073 0 38.6332C0 33.3726 1.71831 28.5437 4.78924 24.7971C7.38873 21.6256 9.54176 18.1156 11.3761 14.4473C13.3415 10.5091 16.2614 7.1332 19.8658 4.63177C23.4702 2.13033 27.6429 0.584065 31.9981 0.135902C36.3532 -0.312261 40.7503 0.352144 44.7829 2.0677C48.8155 3.78326 52.3534 6.49459 55.0696 9.95108C57.3108 12.7987 59.8471 15.4054 62.7345 17.5848C65.3018 19.5172 67.3858 22.0261 68.8207 24.9119C70.2556 27.7977 71.0018 30.9808 71 34.208Z" fill="#1B8EE4"/>
</svg>
