<svg width="1105" height="337" viewBox="0 0 1105 337" fill="none" xmlns="http://www.w3.org/2000/svg">
<g clip-path="url(#clip0_1689_5472)">
<path d="M-28.9413 305.607C-20.1717 305.153 517.645 306.515 526.414 306.364C535.184 306.061 543.953 305.455 552.874 305.304C561.946 305.304 570.867 305.455 579.939 305.153C588.708 304.85 597.478 303.942 606.248 303.791C616.227 303.639 626.357 304.245 636.336 303.942C637.395 300.461 636.185 297.737 634.522 295.012C634.371 294.861 634.22 294.71 634.068 294.558C633.917 294.407 633.917 294.255 633.766 294.104C633.766 294.104 633.766 294.104 633.615 294.104C630.44 294.558 627.416 293.196 624.845 291.38C622.275 289.564 621.065 286.839 622.426 283.964C622.426 283.812 622.577 283.661 622.577 283.509C622.426 283.207 622.426 282.753 622.728 282.299C620.914 278.818 619.1 275.034 618.041 271.099C616.832 267.012 616.378 262.774 615.32 258.688C614.11 253.996 612.598 249.304 611.237 244.612C607.457 232.353 603.98 219.942 602.014 207.228C600.048 194.818 599.444 181.65 603.375 169.542C605.189 163.942 608.062 158.645 611.993 154.255C617.134 148.504 624.089 144.569 630.893 140.937C635.883 138.212 641.326 135.791 646.92 134.428C650.398 133.52 654.027 133.369 657.504 132.461C659.47 132.007 661.284 131.401 663.099 130.645C664.611 129.888 666.123 129.282 667.03 127.769C667.937 126.104 667.937 124.137 668.391 122.32C669.298 118.991 671.566 116.872 674.892 116.418C675.648 116.266 676.404 116.266 677.16 116.266C678.067 115.812 679.126 115.661 680.184 116.115C680.335 116.266 680.638 116.266 680.789 116.418C681.999 116.418 683.359 116.418 684.418 116.115C685.476 114.45 686.837 112.937 688.5 111.574C689.407 107.942 688.047 103.855 686.232 100.526C685.325 98.7095 684.267 97.0446 683.813 94.9257C683.208 92.05 682.603 89.3257 681.847 86.45C679.277 76.7635 675.799 67.3798 676.404 57.2392C677.311 40.4392 689.71 25.7581 705.132 19.7041C706.946 18.9473 709.214 18.796 710.878 17.8879C711.331 17.7365 711.634 17.2825 712.087 16.9798C713.146 16.3743 714.809 16.0716 716.018 15.7689C720.857 14.4068 725.846 13.3473 730.836 12.7419C740.362 11.5311 749.736 12.5906 758.657 16.223C766.67 19.5527 773.928 24.6987 780.278 30.6014C785.117 35.1419 790.56 41.4987 787.536 48.6122C786.024 52.2446 781.79 54.5149 781.639 58.7527C781.639 59.0554 781.488 59.3581 781.337 59.5095C781.337 61.3257 781.488 63.1419 781.488 64.9581C781.488 65.1095 781.488 65.2608 781.488 65.2608C781.488 65.4122 781.488 65.4122 781.488 65.5635C781.639 67.2284 781.79 68.8933 781.941 70.7095C782.244 73.7365 782.697 76.4608 782.244 79.4879C781.79 82.9689 780.429 86.45 778.766 89.6284C776.952 93.1095 775.742 97.196 775.44 101.131C775.289 102.493 775.742 103.855 775.591 105.218C776.498 104.612 777.557 104.309 778.917 104.158C781.639 104.158 784.209 104.915 786.629 106.126C790.257 107.791 793.886 109.304 797.666 110.818C800.388 111.877 803.26 112.937 805.831 114.147C809.006 115.509 811.274 116.72 813.693 119.142C817.776 123.228 821.404 127.92 824.428 132.764C830.628 142.601 835.164 153.347 839.246 164.093C843.933 176.655 848.772 189.218 853.308 201.78C857.692 214.039 862.984 227.661 861.775 240.828C861.321 245.218 860.263 249.455 857.239 252.482C859.355 252.18 861.623 252.028 863.74 251.726C870.242 250.969 876.592 250.666 883.094 251.574C885.967 251.877 887.327 252.937 889.142 255.055C891.41 257.78 893.678 260.353 895.795 263.077C897.76 265.65 899.726 268.223 901.389 270.947C902.599 272.915 903.808 274.731 904.111 276.85C905.169 274.58 906.076 272.158 906.832 269.737C908.495 264.137 910.158 258.537 912.124 252.937C914.09 247.185 916.055 241.434 918.021 235.682C920.289 229.326 922.557 222.969 924.371 216.461C926.186 209.953 927.849 203.445 930.117 197.088C930.117 196.937 930.268 196.785 930.419 196.634C931.175 194.818 932.99 194.061 934.955 194.061C939.491 193.758 944.027 193.909 948.563 194.061C958.996 194.212 969.277 194.515 979.71 194.969C1000.27 195.877 1020.69 197.088 1041.25 197.088C1044.73 197.088 1055.61 195.423 1054.4 201.931C1054.4 202.082 1054.25 202.234 1054.25 202.385C1054.25 202.537 1054.25 202.537 1054.25 202.688C1049.26 215.099 1044.42 227.509 1039.43 239.92C1033.54 254.753 1028.85 270.039 1022.8 284.72C1019.48 292.893 1017.06 301.672 1011.92 308.785C1011.92 308.785 1011.92 308.785 1011.92 308.937C1010.4 310.753 1008.44 311.207 1006.17 311.509C1002.69 311.964 999.215 312.266 995.586 312.569C988.026 313.326 980.466 314.082 972.906 314.839C958.391 316.201 943.876 317.412 929.21 318.169C921.952 318.623 914.694 318.926 907.437 319.077C900.331 319.228 893.224 319.531 886.118 318.926C872.207 317.715 858.902 313.477 845.596 309.845C838.944 308.028 832.14 306.212 825.336 305.153C819.59 304.245 813.844 304.699 808.25 303.942C807.343 303.791 806.436 303.639 805.528 303.337C803.412 303.639 801.144 304.093 799.027 304.396C770.45 309.088 741.722 308.18 712.843 307.877C704.678 307.877 696.514 307.877 688.5 308.18C680.487 308.482 672.775 307.423 664.762 306.969C658.109 306.515 651.154 306.818 644.803 304.396C642.384 303.488 640.721 302.277 639.058 300.31C639.209 301.672 638.907 303.185 638.302 304.85C638.151 305.304 637.848 305.607 637.243 305.607C628.172 305.91 619.1 305.455 609.876 305.455C601.107 305.455 592.337 306.061 583.568 306.515C565.726 307.574 547.885 306.364 530.043 307.726C520.215 308.482 -18.9621 306.666 -28.7901 307.272C-30.3021 307.726 -30.302 305.607 -28.9413 305.607ZM636.185 291.228C636.034 290.926 636.034 290.623 636.185 290.32C636.336 290.018 636.487 289.715 636.639 289.564C636.639 289.109 636.79 288.807 637.092 288.655C638 286.991 638.755 285.326 639.511 283.661C640.872 280.937 642.687 278.515 644.35 275.942C647.525 271.25 650.549 266.71 653.875 262.018C659.319 254.299 664.459 246.58 671.868 240.828C653.422 244.461 639.209 263.38 629.079 277.91C628.928 278.212 628.625 278.364 628.323 278.364C628.02 278.818 627.869 279.423 627.567 280.028C627.113 280.937 626.508 281.845 625.752 282.753C629.532 284.418 632.103 287.747 634.371 291.228C634.522 291.38 634.673 291.682 634.824 291.834C635.429 291.834 635.883 291.531 636.185 291.228ZM799.027 258.082C798.573 252.482 797.061 246.731 795.701 241.282C790.409 219.337 782.395 198.299 777.254 176.353C777.859 181.347 778.766 186.493 779.673 191.488C780.581 197.391 781.79 203.293 782.244 209.196C782.697 215.401 783.302 221.455 784.512 227.661C785.721 233.412 787.233 239.164 788.897 244.612C790.56 249.91 792.374 256.569 797.061 259.899C797.817 260.353 798.422 260.807 799.178 260.958C799.178 259.899 799.027 258.991 799.027 258.082ZM806.436 181.196C805.075 175.596 802.958 170.147 800.388 165.001C799.329 162.882 798.271 160.612 797.061 158.493C795.701 155.92 793.886 151.38 791.316 149.866C790.106 149.109 788.594 148.958 787.385 148.353C786.175 147.899 785.268 146.991 784.209 146.385C782.093 145.174 779.976 143.964 778.01 142.601C776.347 141.391 774.835 140.028 773.928 138.212C773.777 137.909 773.625 137.607 773.474 137.304C773.021 136.396 773.021 136.093 771.962 135.791C770.904 135.488 769.845 135.639 768.787 135.337C767.88 135.034 767.124 134.731 766.519 134.126C762.89 138.364 758.808 142.904 754.121 145.931C754.121 145.931 754.121 145.931 754.121 146.082C754.272 146.082 754.272 146.082 754.423 146.082C755.179 146.082 755.481 146.688 755.481 147.142C755.784 147.293 756.237 147.445 756.54 147.596C757.749 148.201 758.959 148.655 760.169 149.261C762.588 150.32 764.856 151.38 767.275 152.591C771.962 154.861 776.498 157.282 780.581 160.309C782.546 161.672 784.361 163.337 786.024 165.001C786.629 165.607 786.78 165.909 787.233 166.666C788.141 168.18 789.048 169.239 790.257 170.45C793.735 174.234 796.305 178.623 798.876 183.012C802.202 188.915 805.528 194.818 808.401 200.872C808.552 194.212 807.948 187.704 806.436 181.196ZM766.368 129.888C766.519 130.191 766.519 130.493 766.67 130.796C766.67 130.645 766.821 130.493 766.821 130.342C767.275 128.677 767.729 127.164 768.182 125.499C769.089 122.169 769.997 118.839 770.904 115.509C769.089 117.628 767.577 119.899 766.821 122.623C766.065 124.893 765.763 127.466 766.368 129.888ZM800.841 263.38C800.237 267.164 798.422 270.039 794.34 270.947C793.281 271.099 792.223 271.25 791.165 271.25C792.828 271.553 794.491 271.855 796.154 272.158C799.329 272.612 802.353 272.915 805.377 272.158C808.25 271.401 810.972 269.888 813.391 268.072C815.508 266.558 817.171 264.288 819.288 262.926C819.741 262.623 820.195 262.472 820.648 262.472C820.044 262.32 819.59 262.169 818.985 262.018C816.717 261.11 814.6 259.747 812.635 258.234C811.123 257.174 810.367 255.964 808.855 257.78C807.948 258.839 807.192 260.05 806.133 261.109C804.772 262.623 802.807 263.38 800.841 263.38ZM790.257 269.131C792.677 268.98 795.549 269.131 797.213 267.012C798.12 265.953 798.573 264.591 798.876 263.077C797.666 262.774 796.457 262.169 795.247 261.261C791.165 257.931 789.199 252.634 787.536 247.942C785.117 240.828 783.151 233.564 781.79 226.299C780.429 219.185 780.278 211.92 779.371 204.655C778.313 196.785 776.801 189.066 775.742 181.347C775.137 177.564 774.684 173.931 774.381 170.147C773.928 165.909 773.625 161.823 771.811 157.888C771.66 157.585 771.66 157.282 771.66 157.131C768.182 155.164 764.402 153.499 760.773 151.834C758.354 150.774 755.935 149.715 753.667 148.504C753.365 148.353 753.062 148.201 752.76 147.899C751.853 147.899 751.097 147.747 750.189 147.899C749.585 148.201 748.98 148.353 748.526 148.504C748.073 148.655 747.77 148.655 747.317 148.807C747.014 148.958 746.712 149.109 746.409 149.109C743.386 150.169 740.362 153.045 738.698 155.769C737.489 157.888 736.884 160.461 736.582 162.882C738.094 166.515 739.454 170.299 740.059 174.082C740.362 176.353 741.269 178.623 742.025 180.893C742.932 183.618 743.537 186.342 744.142 189.218C745.049 195.12 745.805 200.872 747.921 206.472C750.038 212.223 752.004 218.126 753.818 224.028C757.296 235.077 761.529 245.974 763.193 257.477C763.344 258.385 763.495 259.293 763.646 260.353C764.856 262.623 766.217 264.591 767.88 266.558C768.485 266.71 769.241 266.861 769.845 267.012C770.753 267.315 771.357 267.769 772.265 268.072C774.23 268.828 776.649 268.677 778.766 268.828C779.976 268.98 781.185 269.131 782.395 269.282C784.965 269.585 787.536 269.282 790.257 269.131ZM723.427 151.531C723.427 151.682 723.427 151.834 723.427 151.985C725.544 151.985 727.661 152.439 729.475 153.65C731.894 155.315 733.709 157.585 735.07 160.007C735.674 157.434 736.582 155.012 738.396 152.893C739.454 151.531 740.815 150.169 742.327 148.958C740.966 148.655 739.757 148.353 738.396 147.747C736.733 147.142 735.977 147.142 734.011 146.385C729.626 144.569 725.695 141.996 722.066 138.969C722.822 143.207 723.276 147.293 723.427 151.531ZM735.826 176.201C736.279 179.077 737.338 181.801 738.245 184.374C739.454 187.704 740.513 191.185 741.722 194.515C742.327 196.331 743.083 197.996 743.688 199.812C743.537 199.358 743.537 198.904 743.386 198.45C742.176 192.396 741.42 186.342 739.454 180.439C738.094 176.05 737.186 171.661 735.674 167.423C735.523 170.45 735.372 173.477 735.826 176.201ZM748.677 215.401C750.038 221.153 751.399 226.904 753.062 232.504C755.028 238.71 757.598 244.764 759.715 250.818C759.866 251.272 760.017 251.574 760.169 252.028C758.959 246.428 756.842 241.131 755.179 235.682C753.213 229.477 751.399 223.423 749.282 217.218C748.98 216.612 748.829 216.007 748.677 215.401ZM761.681 262.623C761.681 262.32 761.529 262.169 761.529 261.866C760.622 260.201 759.866 258.537 759.261 256.872C756.842 250.212 754.423 243.553 752.155 236.893C749.887 230.082 748.224 223.12 746.561 216.31C744.595 208.439 741.722 201.023 739.001 193.455C736.582 186.645 733.406 179.38 733.406 172.115C733.406 169.239 733.86 166.515 734.314 163.791C732.802 160.158 730.685 156.677 727.056 155.012C721.31 152.439 713.902 156.677 709.97 160.764C707.4 163.337 703.62 168.482 699.538 168.331C695.153 168.18 696.665 163.488 698.328 161.369C701.957 156.98 706.644 153.65 710.273 149.261C710.878 148.655 711.029 148.05 710.878 147.445C707.4 147.445 703.771 147.596 700.747 149.412C698.782 150.472 697.874 151.834 697.118 153.953C696.665 155.164 696.362 156.374 695.606 157.434C694.548 159.099 693.641 160.461 692.734 162.126C692.431 162.731 692.129 163.488 691.524 163.791C690.163 164.699 688.803 163.639 687.895 162.731C683.813 158.645 681.243 152.893 678.521 147.899C676.707 144.569 674.741 141.542 672.775 138.364C671.566 136.396 669.903 134.882 668.542 133.066C666.879 136.547 665.518 140.028 664.308 143.661C663.401 146.688 662.494 149.715 662.343 152.893C662.04 156.374 662.645 159.704 663.25 163.185C664.308 169.391 665.215 175.596 666.274 181.801C667.332 187.855 668.542 194.061 669.903 199.964C671.263 205.866 672.473 212.526 676.102 217.52C677.463 219.488 679.126 220.699 679.731 223.12C680.184 225.088 679.882 227.207 679.126 229.023C678.823 229.78 678.219 230.537 677.765 231.142C677.916 231.142 678.067 231.142 678.067 231.293C681.243 232.201 683.359 235.38 680.487 237.801C680.184 237.953 680.033 238.255 679.731 238.407C684.569 238.558 689.105 239.618 693.641 241.585C698.479 243.553 702.259 247.034 706.946 249.304C709.819 250.666 712.692 250.666 715.716 251.12C719.042 251.574 722.218 253.088 725.393 254.299C731.29 256.418 737.035 258.688 742.932 260.807C748.677 262.774 754.423 264.591 760.32 265.953C761.076 266.104 761.832 266.255 762.588 266.407C762.134 265.045 761.983 263.682 761.681 262.623ZM681.696 120.201C681.243 119.747 680.789 118.991 680.335 118.839C680.184 118.688 680.033 118.688 679.882 118.537C679.277 118.537 678.521 118.385 677.916 118.385C677.463 118.688 677.009 119.142 676.555 119.596C674.439 121.715 672.775 125.045 671.112 127.618C670.507 128.677 669.903 129.737 669.449 130.796C670.81 132.764 672.624 134.277 673.985 136.245C675.799 139.12 677.614 141.996 679.277 144.872C682.15 150.169 684.871 155.618 688.651 160.309C689.559 161.52 690.163 162.126 690.919 160.461C691.524 159.099 692.28 157.888 693.187 156.677C694.699 154.407 695.002 151.531 696.665 149.564C699.689 145.931 704.83 145.174 709.366 145.023C709.063 144.872 708.912 144.569 708.761 144.418C707.702 143.509 706.795 142.45 705.737 141.542C703.469 139.423 701.05 137.455 698.479 135.488C693.792 132.007 689.559 127.618 685.325 123.531C684.115 122.472 682.906 121.412 681.696 120.201ZM624.24 286.991C624.543 289.715 629.079 291.985 632.556 292.288C630.44 289.11 628.172 286.082 624.694 284.72C624.392 285.326 624.089 286.082 624.24 286.991ZM663.25 132.915C656.295 135.791 648.583 135.639 641.628 138.364C634.371 141.088 627.416 145.174 620.914 149.564C615.773 153.045 611.388 157.737 608.516 163.185C602.619 174.234 602.014 187.401 603.224 199.661C604.433 212.374 607.608 224.785 611.237 236.893C612.749 242.039 614.261 247.034 615.773 252.028C617.436 257.931 618.495 263.834 620.007 269.888C620.914 273.672 622.577 277.455 624.392 280.937C624.845 280.18 625.45 279.423 625.752 278.666C626.055 277.91 626.206 277.153 626.66 276.547C627.113 275.942 628.172 275.337 628.323 274.58C628.474 273.974 628.776 273.823 629.23 273.823C634.824 265.953 640.57 258.385 647.676 251.877C655.387 244.915 664.762 239.012 675.346 238.407C677.311 237.347 680.335 235.531 678.067 233.715C677.16 233.11 676.102 233.11 675.043 233.261C672.927 234.926 670.356 235.985 668.088 237.045C663.099 239.315 658.109 240.374 652.817 241.737C648.583 242.796 643.594 243.704 639.209 243.099C636.185 242.645 631.8 240.223 633.161 236.591C634.522 232.958 638.604 231.747 642.082 231.445C648.13 230.839 654.329 231.445 660.377 231.445C663.401 231.445 666.425 231.596 669.449 231.445C671.112 231.445 672.927 231.142 674.741 230.991C674.892 230.839 675.043 230.839 675.195 230.688C677.009 229.023 677.916 226.45 677.614 223.877C677.16 221.153 674.439 219.034 673.078 216.764C670.356 212.223 669.298 206.623 668.088 201.477C665.367 190.126 663.703 178.623 661.738 167.12C660.831 161.672 659.621 156.374 660.377 150.774C661.133 145.628 662.796 140.634 664.762 135.942C665.518 134.277 666.274 132.612 667.03 130.947C665.82 131.855 664.611 132.461 663.25 132.915ZM670.81 233.564C670.356 233.564 669.903 233.564 669.449 233.564C663.401 233.715 657.353 233.412 651.456 233.412C647.071 233.412 640.116 232.353 636.487 235.531C633.917 237.801 636.034 239.92 638.604 240.828C640.872 241.434 643.291 241.282 645.559 240.828C650.549 240.072 655.69 239.315 660.528 237.801C663.099 237.045 665.669 235.985 668.088 234.774C668.995 234.472 669.903 234.018 670.81 233.564ZM669.903 125.65C670.507 124.742 671.112 123.834 671.717 122.774C672.473 121.715 673.38 120.05 674.59 118.688H674.439C670.961 119.747 670.659 122.774 669.903 125.65ZM779.522 58.2987C779.825 55.1203 781.79 53.0014 783.756 50.5798C786.629 47.0987 786.931 43.0122 784.663 39.0771C782.697 35.596 779.522 32.8716 776.649 30.2987C773.323 27.2716 769.392 24.5473 765.612 22.2771C757.296 17.2825 747.77 14.5581 738.094 14.5581C732.953 14.5581 727.963 15.3149 722.974 16.5257C720.554 17.1311 718.135 17.7365 715.716 18.4933C714.809 18.796 713.75 18.9473 712.843 19.5527C712.39 19.8554 712.087 20.1581 711.634 20.3095C709.819 21.0662 707.702 21.3689 705.888 22.1257C703.771 22.8825 701.806 23.9419 699.84 25.1527C696.211 27.2716 693.036 29.8446 690.163 32.8716C683.662 39.8338 679.277 48.4608 678.823 58.1473C678.37 68.1365 681.999 77.6716 684.569 87.3581C685.174 89.6284 685.627 92.05 686.232 94.3203C686.837 97.0446 688.349 99.0122 689.407 101.434C690.617 104.158 691.524 107.185 691.373 110.212C692.734 109.304 694.246 108.547 695.606 107.791C697.27 107.034 700.747 106.277 701.806 104.461C702.259 103.553 702.108 102.947 701.201 102.191C700.294 101.434 699.991 101.888 698.933 101.737C697.723 101.737 696.967 101.282 696.211 100.374C694.397 98.1041 693.943 94.7743 693.49 91.8987C692.885 87.9635 692.431 84.1798 691.826 80.2446C691.07 75.0987 696.06 71.3149 700.596 74.0392C703.015 75.4014 704.678 77.6716 706.19 80.0933C708.761 84.0284 712.087 82.0608 714.96 79.4879C717.379 77.3689 719.496 74.9473 721.764 72.6771C725.09 69.4987 727.358 65.8662 728.114 61.3257C729.022 55.5744 733.709 53.0014 739.303 53.4554C745.805 53.9095 751.248 57.3906 756.54 60.8716C760.169 63.1419 764.251 66.0176 768.787 64.8068C771.055 64.3527 770.45 62.6879 771.357 61.023C771.962 60.1149 772.869 59.2068 773.777 58.6014C775.44 57.3906 777.557 56.4825 778.917 58.45C779.069 58.7527 779.22 59.0554 779.522 59.3581C779.22 58.7527 779.371 58.45 779.522 58.2987ZM778.917 84.0284C780.278 80.0933 780.581 76.3095 779.976 72.223C779.673 69.65 779.371 67.2284 779.22 64.8068C778.766 62.9906 777.405 59.2068 776.196 58.9041C775.44 58.7527 773.777 60.5689 773.323 61.1743C772.416 62.2338 772.567 63.596 771.962 64.8068C770.904 66.7743 768.485 66.623 766.67 66.623C763.344 66.623 760.773 65.8662 757.901 64.2014C752.306 60.7203 746.863 56.4825 740.21 55.423C737.489 54.9689 734.162 55.1203 731.894 57.0879C729.324 59.3581 729.626 63.8987 728.266 66.9257C726.905 69.9527 724.788 72.3743 722.369 74.6446C720.252 76.7635 718.286 79.0338 716.018 81.0014C712.994 83.7257 708.458 86.1473 705.132 82.5149C703.166 80.2446 702.108 77.5203 699.538 76.0068C697.723 74.796 695.606 74.796 694.246 76.7635C692.885 78.7311 693.792 81.0014 694.094 83.1203C694.548 86.45 694.85 89.9311 695.455 93.2608C695.758 94.7743 696.06 96.4392 696.816 97.8014C698.026 100.072 699.084 99.0122 700.898 99.4662C702.864 99.9203 704.225 102.191 703.771 104.007C703.318 105.974 701.352 107.185 699.538 107.942C696.514 109.304 693.187 110.818 690.314 112.937C689.71 114.753 688.5 116.569 686.837 117.628C686.535 117.78 686.081 117.931 685.779 118.082C685.476 118.839 685.174 119.596 684.871 120.353C685.023 120.504 685.174 120.655 685.174 120.655C687.291 122.623 689.407 124.742 691.524 126.709C695.758 130.645 700.294 134.126 704.678 137.909C706.644 139.574 708.61 141.391 710.575 143.358C711.785 144.569 713.599 145.78 713.448 147.596C713.297 149.261 711.785 150.774 710.726 151.985C708.912 153.953 706.946 155.92 704.981 157.737C704.074 158.645 703.166 159.401 702.259 160.309C701.503 161.066 699.689 162.58 699.386 163.639C698.328 167.272 701.503 165.455 702.562 164.85C703.922 163.942 704.981 162.882 706.039 161.823C709.366 158.493 712.238 155.466 716.623 153.65C718.286 153.045 719.95 152.439 721.613 152.288C721.462 152.137 721.462 151.985 721.462 151.682C721.159 146.537 720.554 141.239 719.345 136.093C714.658 130.645 706.946 120.353 711.482 119.293C713.297 118.839 715.565 120.807 716.472 122.169C718.286 124.591 719.194 128.072 720.101 130.947C720.554 132.461 721.008 133.974 721.31 135.337C723.276 137.455 725.544 139.272 727.963 140.937C730.685 142.753 733.86 144.569 736.884 145.326C737.64 145.477 738.396 145.78 739.152 146.082C741.571 146.991 743.839 147.445 746.409 146.991C747.317 146.688 748.224 146.234 749.131 146.082C749.282 146.082 749.585 145.931 749.736 145.931C755.935 143.358 760.925 137.607 765.158 132.612C763.797 130.493 763.646 127.618 763.949 125.196C764.251 122.926 764.856 119.899 766.065 118.082C766.368 117.78 766.67 117.477 766.973 117.174C767.729 116.266 768.031 115.358 768.787 114.45C769.694 113.088 771.055 112.18 771.962 110.818C771.962 110.666 772.113 110.666 772.113 110.666C772.416 109.607 772.718 108.396 773.021 107.337C773.172 106.882 773.323 106.277 773.474 105.823C773.474 105.672 773.474 105.672 773.625 105.52C773.625 105.52 773.625 105.218 773.474 104.764C772.869 101.434 773.625 97.8014 774.684 94.623C775.742 90.6879 777.708 87.6608 778.917 84.0284ZM717.984 131.401C716.472 126.709 713.902 120.201 712.238 121.715C711.936 122.018 714.809 126.709 715.111 127.315C716.018 128.677 716.926 130.039 717.984 131.401ZM856.029 251.12C860.414 246.58 860.263 238.861 859.658 233.109C859.053 226.904 857.239 220.699 855.424 214.796C851.796 203.142 847.411 191.791 843.026 180.439C839.095 169.996 835.466 159.401 830.779 149.261C825.94 138.666 819.741 127.618 810.972 119.747C808.099 117.174 803.865 115.964 800.388 114.45C797.061 113.088 793.735 111.877 790.56 110.515C787.536 109.304 784.663 107.337 781.337 106.882C779.069 106.428 776.952 106.58 775.591 108.547C774.533 110.061 774.079 111.877 774.079 113.693C774.079 114.147 773.777 114.45 773.474 114.601C772.718 117.326 771.962 120.05 771.206 122.774C770.601 124.893 769.997 127.012 769.543 129.131C769.392 129.888 769.089 130.645 768.938 131.401C768.787 131.855 768.787 132.764 768.636 132.007C768.787 132.309 768.636 132.612 768.485 132.915C768.787 133.218 769.241 133.369 769.694 133.52C771.055 133.823 772.416 133.52 773.625 133.823C774.835 134.126 775.289 134.882 775.591 135.942C776.347 138.212 777.557 139.574 779.522 140.937C783.151 143.509 787.233 145.78 791.316 147.445C795.398 148.958 797.213 153.801 799.178 157.434C801.597 161.672 803.563 166.212 805.377 170.753C809.46 181.045 810.972 191.639 810.669 202.688C810.669 203.596 810.669 204.504 810.518 205.412C811.576 207.985 812.635 210.709 813.542 213.434C815.356 218.882 816.868 224.482 817.473 230.082C818.078 235.228 818.834 241.282 817.624 246.277C817.02 249.001 815.054 254.147 811.576 254.299C808.401 254.45 805.831 250.515 804.924 247.942C803.714 244.461 803.714 240.526 804.319 236.893C805.226 230.537 806.284 224.331 807.04 218.126C807.494 214.039 807.948 209.801 808.25 205.715C805.075 198.299 801.144 191.337 797.061 184.223C794.189 179.077 791.013 174.385 786.931 170.147C786.175 169.391 786.024 168.785 785.419 167.877C784.663 166.515 783.453 165.455 782.395 164.547C780.278 162.58 777.859 160.915 775.44 159.401C775.137 159.25 774.835 159.099 774.533 158.947C775.289 160.461 775.893 161.974 776.347 163.791C777.103 167.12 777.859 170.299 778.615 173.628C779.976 179.682 781.488 185.737 783.151 191.791C786.629 203.747 790.711 215.553 794.037 227.509C795.701 233.564 797.364 239.618 798.725 245.823C799.783 250.818 801.446 256.266 800.993 261.564C802.202 261.564 803.26 261.109 804.319 260.353C806.133 258.839 807.04 256.266 809.157 255.358C810.972 254.45 811.728 255.358 813.391 256.266C815.659 257.78 817.776 259.445 820.346 260.353C823.068 261.261 826.545 260.807 829.418 260.353C830.174 260.201 830.779 260.201 831.535 260.05C836.071 258.385 840.456 256.115 845.294 254.904C847.864 254.299 850.435 253.845 853.005 253.542C854.064 252.785 855.122 252.028 856.029 251.12ZM810.216 210.104C809.46 218.428 808.099 226.601 806.889 234.926C806.284 239.012 805.68 243.704 807.343 247.791C807.948 249.304 809.762 252.18 811.576 252.18C813.996 252.18 815.205 248.093 815.659 246.277C816.868 240.828 816.112 234.169 815.205 228.72C814.449 223.423 812.937 218.277 811.123 213.131C810.82 212.072 810.518 211.164 810.216 210.104ZM899.121 271.553C895.946 266.71 892.317 262.32 888.688 257.931C887.781 256.872 886.723 255.207 885.513 254.45C884.303 253.693 882.489 253.693 881.128 253.693C877.953 253.391 874.778 253.391 871.451 253.542C865.252 253.845 859.204 254.753 853.156 255.661C851.342 256.418 849.528 256.872 847.713 257.477C844.538 258.537 841.363 259.596 838.188 260.655C836.071 261.261 833.954 261.715 831.837 262.018C830.779 262.472 829.872 262.774 828.813 263.077C827.452 263.531 825.94 263.834 824.58 264.137C823.37 264.439 821.707 264.288 820.497 265.045C818.683 266.104 817.171 268.072 815.508 269.282C813.542 270.796 811.576 272.007 809.308 273.066C800.841 276.85 791.467 273.672 782.546 272.158C781.185 272.309 779.825 272.31 778.464 272.31C776.045 272.31 773.474 272.158 771.055 271.704C773.625 275.185 775.893 278.666 778.313 282.299C779.976 284.872 781.488 287.293 783.605 289.412C786.326 291.985 789.048 293.953 792.525 295.315C796.759 296.98 800.69 300.461 805.075 301.974C811.274 300.915 817.322 300.007 823.521 299.099C826.999 298.645 830.628 298.342 834.105 297.585C838.188 296.677 839.851 293.347 842.119 290.169C845.143 286.082 848.62 282.753 853.761 281.845C858.146 281.088 862.984 282.147 865.403 286.234C866.311 287.899 867.067 289.715 868.73 290.926C869.335 291.228 869.788 291.531 870.393 291.531C870.847 291.38 871.3 291.38 871.603 291.228C872.359 290.774 872.963 289.715 872.812 288.353C872.661 285.326 871.3 282.147 869.486 279.726C867.823 277.304 865.403 275.337 862.379 274.731C861.17 274.428 859.658 274.58 859.507 273.066C859.355 271.25 861.775 270.191 863.135 269.737C865.555 268.98 868.427 268.98 870.695 270.191C875.08 272.461 877.046 277.758 877.651 282.45C877.953 284.872 877.953 287.293 877.953 289.715C879.011 289.412 879.919 289.11 880.977 288.958C883.396 288.201 885.815 287.445 888.386 286.839C888.386 285.326 888.083 283.661 887.479 282.299C886.571 279.423 884.152 277.153 883.547 274.126C883.396 273.52 883.547 272.915 883.699 272.158C883.547 271.704 883.85 271.099 884.303 270.796C884.455 270.796 884.606 270.645 884.757 270.796C885.059 270.645 885.211 270.645 885.664 270.645C886.571 270.645 887.176 271.401 887.327 272.158C887.479 272.309 887.63 272.612 887.63 272.764C887.63 272.915 887.63 272.915 887.63 273.066C888.537 273.974 889.293 274.882 890.2 275.942C891.712 277.758 893.073 281.088 895.039 282.299C897.458 283.812 901.087 282.904 901.691 279.877C902.599 276.699 900.784 274.126 899.121 271.553ZM886.571 274.428C886.42 274.428 886.42 274.428 886.269 274.428C886.874 276.396 888.839 278.969 889.142 279.877C890.049 281.845 890.654 284.115 890.805 286.385C890.956 286.385 890.956 286.385 891.107 286.385C891.41 286.385 895.19 285.477 897.76 285.174C897.458 285.174 897.004 285.023 896.702 285.023C894.131 284.418 893.073 282.904 891.561 280.785C890.049 278.515 888.386 276.245 886.571 274.428ZM878.255 292.288C878.255 295.012 877.348 301.672 881.431 301.52C884.908 301.369 886.874 295.618 887.781 292.893C888.235 291.682 888.537 290.32 888.688 288.958C886.723 289.412 884.757 290.018 882.791 290.623C881.279 291.077 879.767 291.38 878.255 291.834C878.255 291.985 878.255 292.137 878.255 292.288ZM897.155 286.991C895.492 287.293 893.829 287.747 892.015 288.201C891.561 288.353 891.107 288.353 890.654 288.504C890.351 293.045 888.235 298.342 885.362 301.672C882.791 304.396 877.499 304.396 876.592 300.31C875.987 297.737 875.987 295.164 875.987 292.439C875.08 292.591 874.173 292.893 873.266 293.045C872.51 293.499 871.603 293.65 870.695 293.65C867.823 294.255 864.95 294.861 862.228 295.618C858.902 296.374 855.727 297.434 852.552 298.191C851.04 298.493 849.528 298.645 848.016 299.099C846.806 299.401 845.748 300.007 844.538 300.158C843.026 300.461 841.06 300.764 839.7 301.672C850.435 304.85 861.472 306.515 872.51 308.331C875.231 308.785 877.953 309.239 880.675 309.542C883.396 309.996 886.118 310.753 888.839 310.601C893.98 310.601 894.736 305.455 895.946 301.52C897.458 296.677 899.272 291.834 900.784 286.839C899.575 287.142 898.365 286.839 897.155 286.991ZM899.877 284.872H899.726C899.877 284.872 899.877 284.872 899.877 285.023C899.877 285.023 899.877 285.023 899.877 284.872ZM876.139 284.72C875.685 278.666 872.51 269.737 864.799 271.704C864.194 271.855 863.438 272.461 862.833 272.764C863.891 272.915 864.95 273.218 865.857 273.672C867.974 274.731 869.788 276.245 871.3 278.212C873.568 281.088 876.29 286.688 875.08 290.623C875.383 290.472 875.836 290.472 876.139 290.32C876.139 288.353 876.139 286.537 876.139 284.72ZM901.238 284.418C901.238 284.418 901.389 284.418 901.389 284.569C901.389 284.418 901.389 284.418 901.54 284.266C901.389 284.266 901.238 284.418 901.238 284.418ZM821.707 303.185C828.057 304.093 834.256 305.455 840.456 306.969C853.156 310.299 865.857 314.385 878.86 316.504C892.166 318.623 905.774 317.715 919.23 317.261C934.502 316.655 949.622 315.445 964.893 314.082C972.755 313.326 980.617 312.569 988.48 311.812C992.26 311.358 996.04 311.055 999.82 310.601C1002.99 310.299 1007.98 310.601 1010.25 308.028C1014.94 301.52 1017.21 293.65 1020.08 286.234C1023.1 278.515 1026.13 270.796 1029 262.926C1033.54 250.212 1038.38 237.65 1043.21 225.088C1046.09 217.52 1049.11 209.953 1052.13 202.537C1052.13 202.385 1052.29 202.234 1052.44 202.234C1052.44 202.082 1052.44 201.931 1052.44 201.931C1052.89 199.509 1048.66 199.812 1047.15 199.812C1043.37 199.812 1039.43 199.812 1035.65 199.812C1026.88 199.661 1018.27 199.358 1009.5 199.055C992.26 198.299 975.174 197.391 957.938 196.937C953.099 196.785 948.261 196.785 943.422 196.785C941.003 196.785 938.433 196.785 936.014 196.785C934.35 196.785 932.536 196.785 932.234 198.753C932.234 199.055 932.082 199.207 931.78 199.358C929.814 204.958 928.454 210.558 926.942 216.31C925.127 222.666 923.01 228.872 920.894 234.926C918.777 240.98 916.66 247.034 914.543 253.088C913.636 255.812 912.578 258.537 911.671 261.412C910.612 264.591 910.007 267.769 908.949 270.947C908.193 273.672 907.135 276.245 906.076 278.818C905.623 279.877 905.018 280.937 904.564 281.996C903.657 283.812 903.355 285.628 902.75 287.596C901.087 293.347 898.97 298.947 897.307 304.85C896.399 308.028 894.887 311.51 891.561 312.72C887.63 314.082 882.489 312.266 878.558 311.661C864.647 309.391 850.586 307.726 837.129 303.488C836.222 303.185 836.222 302.277 836.676 301.672C836.676 301.52 836.827 301.52 836.827 301.369C838.339 299.553 841.363 298.645 843.631 298.342C845.748 298.039 847.864 297.131 849.981 296.677C853.459 296.072 856.785 294.861 860.111 294.104C862.531 293.499 864.799 293.045 867.218 292.439C866.462 291.985 865.857 291.228 865.403 290.623C863.438 288.05 862.984 285.477 859.658 284.418C856.785 283.51 853.308 283.964 850.737 285.326C848.469 286.537 846.504 288.504 844.992 290.472C843.026 292.893 841.665 295.92 839.095 297.737C837.28 299.099 835.315 299.704 833.047 300.007C828.964 300.461 824.882 301.218 820.8 301.823C818.078 302.277 815.356 302.58 812.786 303.034C815.81 302.882 818.834 302.731 821.707 303.185ZM639.36 298.039C641.477 300.915 643.291 302.428 646.769 303.488C653.119 305.455 659.772 305.001 666.274 305.607C673.834 306.212 681.091 307.12 688.651 306.818C695.909 306.515 703.318 306.515 710.575 306.515C740.815 306.666 771.206 307.877 801.295 302.58H801.446C798.876 301.369 796.305 299.704 793.886 298.342C791.013 296.828 788.594 295.92 786.024 293.953C783.756 292.137 781.488 290.169 779.673 287.899C777.859 285.477 776.196 282.904 774.684 280.18C772.869 277.001 770.45 274.58 768.333 271.553C768.182 271.401 768.031 271.099 767.88 270.947C766.368 270.645 765.007 270.039 763.949 268.98C763.797 268.828 763.797 268.828 763.646 268.677C763.495 268.677 763.344 268.677 763.344 268.677C757.749 267.618 752.155 266.104 746.712 264.288C741.42 262.623 736.128 260.655 730.836 258.537C725.544 256.569 719.95 253.693 714.204 252.937C711.634 252.634 709.063 252.482 706.644 251.423C704.527 250.515 702.713 249.304 700.898 248.093C696.211 244.915 691.373 242.493 685.779 241.131C682.603 240.374 679.428 240.072 676.404 240.223C675.951 240.526 675.497 240.828 674.892 241.131C672.624 242.796 670.356 244.461 668.239 246.428C663.855 250.818 660.226 256.266 656.597 261.412C653.119 266.255 649.793 271.099 646.618 276.093C644.955 278.666 642.989 281.088 641.628 283.812C640.57 285.78 639.663 287.899 638.604 289.866C638.604 291.682 637.395 292.742 635.883 293.499V293.65C637.395 295.012 638.302 296.526 639.36 298.039Z" fill="#FFCF2D"/>
</g>
<rect x="474" y="144.18" width="27.3454" height="163" fill="#FFCF2D"/>
<rect x="508.327" y="187.238" width="27.3454" height="119.944" fill="#FFCF2D"/>
<rect x="542.654" y="232.343" width="27.3454" height="74.8366" fill="#FFCF2D"/>
<g clip-path="url(#clip1_1689_5472)">
<mask id="mask0_1689_5472" style="mask-type:luminance" maskUnits="userSpaceOnUse" x="1060" y="154" width="28" height="40">
<path d="M1087.31 156.424L1063.64 154.152L1060.13 190.792L1083.79 193.064L1087.31 156.424Z" fill="white"/>
</mask>
<g mask="url(#mask0_1689_5472)">
<mask id="mask1_1689_5472" style="mask-type:luminance" maskUnits="userSpaceOnUse" x="1025" y="130" width="80" height="84">
<path d="M1060.84 130.706L1025.47 159.881L1069.5 213.266L1104.87 184.091L1060.84 130.706Z" fill="white"/>
</mask>
<g mask="url(#mask1_1689_5472)">
<mask id="mask2_1689_5472" style="mask-type:luminance" maskUnits="userSpaceOnUse" x="1025" y="130" width="80" height="84">
<path d="M1060.84 130.706L1025.47 159.881L1069.5 213.266L1104.87 184.091L1060.84 130.706Z" fill="white"/>
</mask>
<g mask="url(#mask2_1689_5472)">
<path d="M1081.16 156.474C1079.86 158.055 1075.78 164.146 1074.54 166.331C1074.29 166.775 1073.08 168.706 1071.88 170.553C1068.02 176.495 1061.97 186.278 1061.48 187.298C1061.22 187.827 1060.95 188.398 1060.77 188.509C1060.4 188.815 1060.38 189.921 1060.72 190.338C1061.14 190.848 1061.55 190.631 1063.07 189.028C1065.25 186.679 1068.94 182.896 1071.39 180.487C1074.08 177.844 1076.17 175.656 1077.24 174.266C1077.72 173.715 1079.9 171.408 1082.2 169.198C1084.79 166.674 1086.36 164.991 1086.35 164.691C1086.39 163.757 1083.66 158.462 1082.32 156.841C1081.64 155.923 1081.6 155.919 1081.16 156.474ZM1083.02 160.661C1084.85 163.865 1085.04 164.481 1084.44 164.977C1084.16 165.207 1082.18 167.192 1080.01 169.329C1077.85 171.467 1075.02 174.224 1073.75 175.467C1067.79 181.122 1068.4 180.583 1068.88 179.605C1069.09 179.114 1069.81 177.903 1070.46 176.9C1071.11 175.896 1071.67 174.926 1071.69 174.757C1071.75 174.592 1072.26 173.661 1072.82 172.733C1073.42 171.81 1074.5 169.951 1075.26 168.66C1076.02 167.368 1077.14 165.471 1077.76 164.421C1079.43 161.639 1080.71 159.374 1081.1 158.472C1081.43 157.736 1081.43 157.736 1081.64 158.141C1081.79 158.41 1082.4 159.536 1083.02 160.661Z" fill="#010080"/>
</g>
</g>
</g>
<mask id="mask3_1689_5472" style="mask-type:luminance" maskUnits="userSpaceOnUse" x="1064" y="178" width="33" height="24">
<path d="M1096.27 181.722L1066.39 178.854L1064.49 198.59L1094.37 201.458L1096.27 181.722Z" fill="white"/>
</mask>
<g mask="url(#mask3_1689_5472)">
<mask id="mask4_1689_5472" style="mask-type:luminance" maskUnits="userSpaceOnUse" x="1025" y="130" width="80" height="84">
<path d="M1060.84 130.705L1025.47 159.88L1069.5 213.265L1104.87 184.09L1060.84 130.705Z" fill="white"/>
</mask>
<g mask="url(#mask4_1689_5472)">
<mask id="mask5_1689_5472" style="mask-type:luminance" maskUnits="userSpaceOnUse" x="1025" y="130" width="80" height="84">
<path d="M1060.84 130.705L1025.47 159.88L1069.5 213.265L1104.87 184.09L1060.84 130.705Z" fill="white"/>
</mask>
<g mask="url(#mask5_1689_5472)">
<path d="M1094.86 181.715C1094.61 181.691 1094.25 181.827 1094.02 182.018C1093.79 182.209 1092.98 182.643 1092.27 182.959C1089.64 184.072 1085.35 186.134 1082.44 187.603C1080.82 188.428 1079.3 189.178 1079.04 189.238C1078.78 189.341 1077.29 190.137 1075.67 191.005C1071.17 193.515 1066.85 195.83 1065.92 196.21C1065.17 196.479 1065.07 196.64 1065.01 197.274C1064.88 198.542 1065.68 198.661 1069.69 197.767C1077.66 196.058 1080.97 195.352 1087.49 194.101C1091.22 193.393 1094.49 192.641 1094.73 192.408C1095.01 192.179 1095.2 191.472 1095.22 190.45C1095.22 189.554 1095.3 187.813 1095.38 186.542C1095.51 183.825 1095.55 182.122 1095.35 181.933C1095.32 181.802 1095.11 181.739 1094.86 181.715ZM1093.06 188.921L1092.78 190.472L1087.68 191.646C1078.92 193.62 1073.09 194.809 1073.24 194.567C1073.34 194.449 1074.69 193.683 1076.39 192.907C1079.83 191.276 1083.69 189.216 1088.2 186.663C1089.92 185.676 1091.94 184.591 1092.66 184.233L1093.91 183.586L1093.69 185.484C1093.51 186.49 1093.27 188.045 1093.06 188.921Z" fill="#010080"/>
</g>
</g>
</g>
<mask id="mask6_1689_5472" style="mask-type:luminance" maskUnits="userSpaceOnUse" x="1040" y="142" width="20" height="44">
<path d="M1059.49 144.071L1044.83 142.664L1040.88 183.784L1055.55 185.191L1059.49 144.071Z" fill="white"/>
</mask>
<g mask="url(#mask6_1689_5472)">
<mask id="mask7_1689_5472" style="mask-type:luminance" maskUnits="userSpaceOnUse" x="1025" y="130" width="80" height="84">
<path d="M1060.84 130.705L1025.47 159.88L1069.5 213.265L1104.87 184.09L1060.84 130.705Z" fill="white"/>
</mask>
<g mask="url(#mask7_1689_5472)">
<mask id="mask8_1689_5472" style="mask-type:luminance" maskUnits="userSpaceOnUse" x="1025" y="130" width="80" height="84">
<path d="M1060.84 130.705L1025.47 159.88L1069.5 213.265L1104.87 184.09L1060.84 130.705Z" fill="white"/>
</mask>
<g mask="url(#mask8_1689_5472)">
<path d="M1049.42 143.743C1044.92 143.951 1044.51 144.168 1044.93 146C1045.12 146.7 1046.39 152.196 1047.81 158.261C1050.77 170.956 1052.59 179.064 1053.07 182.138C1053.35 184.042 1053.5 184.312 1053.98 184.614C1054.83 185.037 1055.31 184.528 1055.26 183.244C1055.23 182.645 1055.23 180.896 1055.25 179.362C1055.31 174.292 1054.79 161.49 1054.13 152.385C1053.97 150.066 1053.73 147.228 1053.71 146.117C1053.65 145.002 1053.53 143.968 1053.42 143.829C1053.26 143.728 1051.47 143.684 1049.42 143.743ZM1052.32 152.979C1052.37 156.992 1052.51 162.167 1052.59 164.477C1052.66 166.788 1052.76 169.74 1052.81 171.066C1052.81 172.389 1052.95 173.554 1053.02 173.689C1053.14 173.828 1053.09 173.908 1053 173.9C1052.88 173.888 1052.41 172.095 1051.98 169.921C1051.5 167.785 1050.86 164.695 1050.5 163.083C1050.15 161.47 1049.46 157.95 1048.91 155.253C1048.36 152.555 1047.76 149.427 1047.53 148.296C1047.25 147.161 1047.14 146.168 1047.23 146.092C1047.51 145.863 1051.87 145.301 1052.06 145.532C1052.14 145.583 1052.24 148.962 1052.32 152.979Z" fill="#010080"/>
</g>
</g>
</g>
<mask id="mask9_1689_5472" style="mask-type:luminance" maskUnits="userSpaceOnUse" x="1030" y="160" width="20" height="25">
<path d="M1049.26 161.855L1032.35 160.232L1030.13 183.349L1047.04 184.972L1049.26 161.855Z" fill="white"/>
</mask>
<g mask="url(#mask9_1689_5472)">
<mask id="mask10_1689_5472" style="mask-type:luminance" maskUnits="userSpaceOnUse" x="1025" y="130" width="80" height="84">
<path d="M1060.84 130.705L1025.47 159.881L1069.5 213.266L1104.87 184.09L1060.84 130.705Z" fill="white"/>
</mask>
<g mask="url(#mask10_1689_5472)">
<mask id="mask11_1689_5472" style="mask-type:luminance" maskUnits="userSpaceOnUse" x="1025" y="130" width="80" height="84">
<path d="M1060.84 130.705L1025.47 159.881L1069.5 213.266L1104.87 184.09L1060.84 130.705Z" fill="white"/>
</mask>
<g mask="url(#mask11_1689_5472)">
<path d="M1040.2 161.54C1039.61 161.525 1034.99 163.855 1033.21 165.091C1032.43 165.614 1031.96 166.122 1031.94 166.334C1031.92 166.545 1032.51 167.497 1033.23 168.42C1033.99 169.346 1037.02 173.305 1040.09 177.311C1045.1 183.847 1045.67 184.542 1046.18 184.548C1046.69 184.597 1046.78 184.521 1047.01 183.861C1047.29 183.205 1047.07 181.947 1045.51 175.996C1044.57 172.409 1041.28 162.283 1040.94 161.824C1040.78 161.681 1040.45 161.564 1040.2 161.54ZM1040.18 166.656C1040.34 167.226 1040.72 168.584 1041.12 169.69C1041.49 170.791 1042.12 172.643 1042.48 173.786C1042.88 174.934 1043.51 176.786 1043.92 177.849C1044.33 178.912 1044.58 179.874 1044.49 179.95C1044.4 180.027 1043.74 179.282 1042.88 178.047C1042.1 176.905 1039.94 174.012 1038.08 171.615C1036.26 169.223 1034.8 167.163 1034.81 167.079C1034.83 166.867 1038.13 164.924 1038.92 164.659C1039.54 164.42 1039.72 164.736 1040.18 166.656Z" fill="#010080"/>
</g>
</g>
</g>
</g>
<rect x="474" y="144.18" width="27.3454" height="163" fill="#FFCF2D"/>
<rect x="508.327" y="187.238" width="27.3454" height="119.944" fill="#FFCF2D"/>
<rect x="542.654" y="232.343" width="27.3454" height="74.8366" fill="#FFCF2D"/>
<g clip-path="url(#clip2_1689_5472)">
<mask id="mask12_1689_5472" style="mask-type:luminance" maskUnits="userSpaceOnUse" x="1060" y="154" width="28" height="40">
<path d="M1087.31 156.424L1063.64 154.152L1060.13 190.792L1083.79 193.064L1087.31 156.424Z" fill="white"/>
</mask>
<g mask="url(#mask12_1689_5472)">
<mask id="mask13_1689_5472" style="mask-type:luminance" maskUnits="userSpaceOnUse" x="1025" y="130" width="80" height="84">
<path d="M1060.84 130.706L1025.47 159.881L1069.5 213.266L1104.87 184.091L1060.84 130.706Z" fill="white"/>
</mask>
<g mask="url(#mask13_1689_5472)">
<mask id="mask14_1689_5472" style="mask-type:luminance" maskUnits="userSpaceOnUse" x="1025" y="130" width="80" height="84">
<path d="M1060.84 130.706L1025.47 159.881L1069.5 213.266L1104.87 184.091L1060.84 130.706Z" fill="white"/>
</mask>
<g mask="url(#mask14_1689_5472)">
<path d="M1081.16 156.474C1079.86 158.055 1075.78 164.146 1074.54 166.331C1074.29 166.775 1073.08 168.706 1071.88 170.553C1068.02 176.495 1061.97 186.278 1061.48 187.298C1061.22 187.827 1060.95 188.398 1060.77 188.509C1060.4 188.815 1060.38 189.921 1060.72 190.338C1061.14 190.848 1061.55 190.631 1063.07 189.028C1065.25 186.679 1068.94 182.896 1071.39 180.487C1074.08 177.844 1076.17 175.656 1077.24 174.266C1077.72 173.715 1079.9 171.408 1082.2 169.198C1084.79 166.674 1086.36 164.991 1086.35 164.691C1086.39 163.757 1083.66 158.462 1082.32 156.841C1081.64 155.923 1081.6 155.919 1081.16 156.474ZM1083.02 160.661C1084.85 163.865 1085.04 164.481 1084.44 164.977C1084.16 165.207 1082.18 167.192 1080.01 169.329C1077.85 171.467 1075.02 174.224 1073.75 175.467C1067.79 181.122 1068.4 180.583 1068.88 179.605C1069.09 179.114 1069.81 177.903 1070.46 176.9C1071.11 175.896 1071.67 174.926 1071.69 174.757C1071.75 174.592 1072.26 173.661 1072.82 172.733C1073.42 171.81 1074.5 169.951 1075.26 168.66C1076.02 167.368 1077.14 165.471 1077.76 164.421C1079.43 161.639 1080.71 159.374 1081.1 158.472C1081.43 157.736 1081.43 157.736 1081.64 158.141C1081.79 158.41 1082.4 159.536 1083.02 160.661Z" fill="#010080"/>
</g>
</g>
</g>
<mask id="mask15_1689_5472" style="mask-type:luminance" maskUnits="userSpaceOnUse" x="1064" y="178" width="33" height="24">
<path d="M1096.27 181.722L1066.39 178.854L1064.49 198.59L1094.37 201.458L1096.27 181.722Z" fill="white"/>
</mask>
<g mask="url(#mask15_1689_5472)">
<mask id="mask16_1689_5472" style="mask-type:luminance" maskUnits="userSpaceOnUse" x="1025" y="130" width="80" height="84">
<path d="M1060.84 130.705L1025.47 159.88L1069.5 213.265L1104.87 184.09L1060.84 130.705Z" fill="white"/>
</mask>
<g mask="url(#mask16_1689_5472)">
<mask id="mask17_1689_5472" style="mask-type:luminance" maskUnits="userSpaceOnUse" x="1025" y="130" width="80" height="84">
<path d="M1060.84 130.705L1025.47 159.88L1069.5 213.265L1104.87 184.09L1060.84 130.705Z" fill="white"/>
</mask>
<g mask="url(#mask17_1689_5472)">
<path d="M1094.86 181.715C1094.61 181.691 1094.25 181.827 1094.02 182.018C1093.79 182.209 1092.98 182.643 1092.27 182.959C1089.64 184.072 1085.35 186.134 1082.44 187.603C1080.82 188.428 1079.3 189.178 1079.04 189.238C1078.78 189.341 1077.29 190.137 1075.67 191.005C1071.17 193.515 1066.85 195.83 1065.92 196.21C1065.17 196.479 1065.07 196.64 1065.01 197.274C1064.88 198.542 1065.68 198.661 1069.69 197.767C1077.66 196.058 1080.97 195.352 1087.49 194.101C1091.22 193.393 1094.49 192.641 1094.73 192.408C1095.01 192.179 1095.2 191.472 1095.22 190.45C1095.22 189.554 1095.3 187.813 1095.38 186.542C1095.51 183.825 1095.55 182.122 1095.35 181.933C1095.32 181.802 1095.11 181.739 1094.86 181.715ZM1093.06 188.921L1092.78 190.472L1087.68 191.646C1078.92 193.62 1073.09 194.809 1073.24 194.567C1073.34 194.449 1074.69 193.683 1076.39 192.907C1079.83 191.276 1083.69 189.216 1088.2 186.663C1089.92 185.676 1091.94 184.591 1092.66 184.233L1093.91 183.586L1093.69 185.484C1093.51 186.49 1093.27 188.045 1093.06 188.921Z" fill="#010080"/>
</g>
</g>
</g>
<mask id="mask18_1689_5472" style="mask-type:luminance" maskUnits="userSpaceOnUse" x="1040" y="142" width="20" height="44">
<path d="M1059.49 144.071L1044.83 142.664L1040.88 183.784L1055.55 185.191L1059.49 144.071Z" fill="white"/>
</mask>
<g mask="url(#mask18_1689_5472)">
<mask id="mask19_1689_5472" style="mask-type:luminance" maskUnits="userSpaceOnUse" x="1025" y="130" width="80" height="84">
<path d="M1060.84 130.705L1025.47 159.88L1069.5 213.265L1104.87 184.09L1060.84 130.705Z" fill="white"/>
</mask>
<g mask="url(#mask19_1689_5472)">
<mask id="mask20_1689_5472" style="mask-type:luminance" maskUnits="userSpaceOnUse" x="1025" y="130" width="80" height="84">
<path d="M1060.84 130.705L1025.47 159.88L1069.5 213.265L1104.87 184.09L1060.84 130.705Z" fill="white"/>
</mask>
<g mask="url(#mask20_1689_5472)">
<path d="M1049.42 143.743C1044.92 143.951 1044.51 144.168 1044.93 146C1045.12 146.7 1046.39 152.196 1047.81 158.261C1050.77 170.956 1052.59 179.064 1053.07 182.138C1053.35 184.042 1053.5 184.312 1053.98 184.614C1054.83 185.037 1055.31 184.528 1055.26 183.244C1055.23 182.645 1055.23 180.896 1055.25 179.362C1055.31 174.292 1054.79 161.49 1054.13 152.385C1053.97 150.066 1053.73 147.228 1053.71 146.117C1053.65 145.002 1053.53 143.968 1053.42 143.829C1053.26 143.728 1051.47 143.684 1049.42 143.743ZM1052.32 152.979C1052.37 156.992 1052.51 162.167 1052.59 164.477C1052.66 166.788 1052.76 169.74 1052.81 171.066C1052.81 172.389 1052.95 173.554 1053.02 173.689C1053.14 173.828 1053.09 173.908 1053 173.9C1052.88 173.888 1052.41 172.095 1051.98 169.921C1051.5 167.785 1050.86 164.695 1050.5 163.083C1050.15 161.47 1049.46 157.95 1048.91 155.253C1048.36 152.555 1047.76 149.427 1047.53 148.296C1047.25 147.161 1047.14 146.168 1047.23 146.092C1047.51 145.863 1051.87 145.301 1052.06 145.532C1052.14 145.583 1052.24 148.962 1052.32 152.979Z" fill="#010080"/>
</g>
</g>
</g>
<mask id="mask21_1689_5472" style="mask-type:luminance" maskUnits="userSpaceOnUse" x="1030" y="160" width="20" height="25">
<path d="M1049.26 161.855L1032.35 160.232L1030.13 183.349L1047.04 184.972L1049.26 161.855Z" fill="white"/>
</mask>
<g mask="url(#mask21_1689_5472)">
<mask id="mask22_1689_5472" style="mask-type:luminance" maskUnits="userSpaceOnUse" x="1025" y="130" width="80" height="84">
<path d="M1060.84 130.705L1025.47 159.881L1069.5 213.266L1104.87 184.09L1060.84 130.705Z" fill="white"/>
</mask>
<g mask="url(#mask22_1689_5472)">
<mask id="mask23_1689_5472" style="mask-type:luminance" maskUnits="userSpaceOnUse" x="1025" y="130" width="80" height="84">
<path d="M1060.84 130.705L1025.47 159.881L1069.5 213.266L1104.87 184.09L1060.84 130.705Z" fill="white"/>
</mask>
<g mask="url(#mask23_1689_5472)">
<path d="M1040.2 161.54C1039.61 161.525 1034.99 163.855 1033.21 165.091C1032.43 165.614 1031.96 166.122 1031.94 166.334C1031.92 166.545 1032.51 167.497 1033.23 168.42C1033.99 169.346 1037.02 173.305 1040.09 177.311C1045.1 183.847 1045.67 184.542 1046.18 184.548C1046.69 184.597 1046.78 184.521 1047.01 183.861C1047.29 183.205 1047.07 181.947 1045.51 175.996C1044.57 172.409 1041.28 162.283 1040.94 161.824C1040.78 161.681 1040.45 161.564 1040.2 161.54ZM1040.18 166.656C1040.34 167.226 1040.72 168.584 1041.12 169.69C1041.49 170.791 1042.12 172.643 1042.48 173.786C1042.88 174.934 1043.51 176.786 1043.92 177.849C1044.33 178.912 1044.58 179.874 1044.49 179.95C1044.4 180.027 1043.74 179.282 1042.88 178.047C1042.1 176.905 1039.94 174.012 1038.08 171.615C1036.26 169.223 1034.8 167.163 1034.81 167.079C1034.83 166.867 1038.13 164.924 1038.92 164.659C1039.54 164.42 1039.72 164.736 1040.18 166.656Z" fill="#010080"/>
</g>
</g>
</g>
</g>
<g clip-path="url(#clip3_1689_5472)">
<path d="M-28.9413 305.607C-20.1717 305.153 517.645 306.515 526.414 306.364C535.184 306.061 543.953 305.455 552.874 305.304C561.946 305.304 570.867 305.455 579.939 305.153C588.708 304.85 597.478 303.942 606.248 303.791C616.227 303.639 626.357 304.245 636.336 303.942C637.395 300.461 636.185 297.737 634.522 295.012C634.371 294.861 634.22 294.71 634.068 294.558C633.917 294.407 633.917 294.255 633.766 294.104C633.766 294.104 633.766 294.104 633.615 294.104C630.44 294.558 627.416 293.196 624.845 291.38C622.275 289.564 621.065 286.839 622.426 283.964C622.426 283.812 622.577 283.661 622.577 283.509C622.426 283.207 622.426 282.753 622.728 282.299C620.914 278.818 619.1 275.034 618.041 271.099C616.832 267.012 616.378 262.774 615.32 258.688C614.11 253.996 612.598 249.304 611.237 244.612C607.457 232.353 603.98 219.942 602.014 207.228C600.048 194.818 599.444 181.65 603.375 169.542C605.189 163.942 608.062 158.645 611.993 154.255C617.134 148.504 624.089 144.569 630.893 140.937C635.883 138.212 641.326 135.791 646.92 134.428C650.398 133.52 654.027 133.369 657.504 132.461C659.47 132.007 661.284 131.401 663.099 130.645C664.611 129.888 666.123 129.282 667.03 127.769C667.937 126.104 667.937 124.137 668.391 122.32C669.298 118.991 671.566 116.872 674.892 116.418C675.648 116.266 676.404 116.266 677.16 116.266C678.067 115.812 679.126 115.661 680.184 116.115C680.335 116.266 680.638 116.266 680.789 116.418C681.999 116.418 683.359 116.418 684.418 116.115C685.476 114.45 686.837 112.937 688.5 111.574C689.407 107.942 688.047 103.855 686.232 100.526C685.325 98.7095 684.267 97.0446 683.813 94.9257C683.208 92.05 682.603 89.3257 681.847 86.45C679.277 76.7635 675.799 67.3798 676.404 57.2392C677.311 40.4392 689.71 25.7581 705.132 19.7041C706.946 18.9473 709.214 18.796 710.878 17.8879C711.331 17.7365 711.634 17.2825 712.087 16.9798C713.146 16.3743 714.809 16.0716 716.018 15.7689C720.857 14.4068 725.846 13.3473 730.836 12.7419C740.362 11.5311 749.736 12.5906 758.657 16.223C766.67 19.5527 773.928 24.6987 780.278 30.6014C785.117 35.1419 790.56 41.4987 787.536 48.6122C786.024 52.2446 781.79 54.5149 781.639 58.7527C781.639 59.0554 781.488 59.3581 781.337 59.5095C781.337 61.3257 781.488 63.1419 781.488 64.9581C781.488 65.1095 781.488 65.2608 781.488 65.2608C781.488 65.4122 781.488 65.4122 781.488 65.5635C781.639 67.2284 781.79 68.8933 781.941 70.7095C782.244 73.7365 782.697 76.4608 782.244 79.4879C781.79 82.9689 780.429 86.45 778.766 89.6284C776.952 93.1095 775.742 97.196 775.44 101.131C775.289 102.493 775.742 103.855 775.591 105.218C776.498 104.612 777.557 104.309 778.917 104.158C781.639 104.158 784.209 104.915 786.629 106.126C790.257 107.791 793.886 109.304 797.666 110.818C800.388 111.877 803.26 112.937 805.831 114.147C809.006 115.509 811.274 116.72 813.693 119.142C817.776 123.228 821.404 127.92 824.428 132.764C830.628 142.601 835.164 153.347 839.246 164.093C843.933 176.655 848.772 189.218 853.308 201.78C857.692 214.039 862.984 227.661 861.775 240.828C861.321 245.218 860.263 249.455 857.239 252.482C859.355 252.18 861.623 252.028 863.74 251.726C870.242 250.969 876.592 250.666 883.094 251.574C885.967 251.877 887.327 252.937 889.142 255.055C891.41 257.78 893.678 260.353 895.795 263.077C897.76 265.65 899.726 268.223 901.389 270.947C902.599 272.915 903.808 274.731 904.111 276.85C905.169 274.58 906.076 272.158 906.832 269.737C908.495 264.137 910.158 258.537 912.124 252.937C914.09 247.185 916.055 241.434 918.021 235.682C920.289 229.326 922.557 222.969 924.371 216.461C926.186 209.953 927.849 203.445 930.117 197.088C930.117 196.937 930.268 196.785 930.419 196.634C931.175 194.818 932.99 194.061 934.955 194.061C939.491 193.758 944.027 193.909 948.563 194.061C958.996 194.212 969.277 194.515 979.71 194.969C1000.27 195.877 1020.69 197.088 1041.25 197.088C1044.73 197.088 1055.61 195.423 1054.4 201.931C1054.4 202.082 1054.25 202.234 1054.25 202.385C1054.25 202.537 1054.25 202.537 1054.25 202.688C1049.26 215.099 1044.42 227.509 1039.43 239.92C1033.54 254.753 1028.85 270.039 1022.8 284.72C1019.48 292.893 1017.06 301.672 1011.92 308.785C1011.92 308.785 1011.92 308.785 1011.92 308.937C1010.4 310.753 1008.44 311.207 1006.17 311.509C1002.69 311.964 999.215 312.266 995.586 312.569C988.026 313.326 980.466 314.082 972.906 314.839C958.391 316.201 943.876 317.412 929.21 318.169C921.952 318.623 914.694 318.926 907.437 319.077C900.331 319.228 893.224 319.531 886.118 318.926C872.207 317.715 858.902 313.477 845.596 309.845C838.944 308.028 832.14 306.212 825.336 305.153C819.59 304.245 813.844 304.699 808.25 303.942C807.343 303.791 806.436 303.639 805.528 303.337C803.412 303.639 801.144 304.093 799.027 304.396C770.45 309.088 741.722 308.18 712.843 307.877C704.678 307.877 696.514 307.877 688.5 308.18C680.487 308.482 672.775 307.423 664.762 306.969C658.109 306.515 651.154 306.818 644.803 304.396C642.384 303.488 640.721 302.277 639.058 300.31C639.209 301.672 638.907 303.185 638.302 304.85C638.151 305.304 637.848 305.607 637.243 305.607C628.172 305.91 619.1 305.455 609.876 305.455C601.107 305.455 592.337 306.061 583.568 306.515C565.726 307.574 547.885 306.364 530.043 307.726C520.215 308.482 -18.9621 306.666 -28.7901 307.272C-30.3021 307.726 -30.302 305.607 -28.9413 305.607ZM636.185 291.228C636.034 290.926 636.034 290.623 636.185 290.32C636.336 290.018 636.487 289.715 636.639 289.564C636.639 289.109 636.79 288.807 637.092 288.655C638 286.991 638.755 285.326 639.511 283.661C640.872 280.937 642.687 278.515 644.35 275.942C647.525 271.25 650.549 266.71 653.875 262.018C659.319 254.299 664.459 246.58 671.868 240.828C653.422 244.461 639.209 263.38 629.079 277.91C628.928 278.212 628.625 278.364 628.323 278.364C628.02 278.818 627.869 279.423 627.567 280.028C627.113 280.937 626.508 281.845 625.752 282.753C629.532 284.418 632.103 287.747 634.371 291.228C634.522 291.38 634.673 291.682 634.824 291.834C635.429 291.834 635.883 291.531 636.185 291.228ZM799.027 258.082C798.573 252.482 797.061 246.731 795.701 241.282C790.409 219.337 782.395 198.299 777.254 176.353C777.859 181.347 778.766 186.493 779.673 191.488C780.581 197.391 781.79 203.293 782.244 209.196C782.697 215.401 783.302 221.455 784.512 227.661C785.721 233.412 787.233 239.164 788.897 244.612C790.56 249.91 792.374 256.569 797.061 259.899C797.817 260.353 798.422 260.807 799.178 260.958C799.178 259.899 799.027 258.991 799.027 258.082ZM806.436 181.196C805.075 175.596 802.958 170.147 800.388 165.001C799.329 162.882 798.271 160.612 797.061 158.493C795.701 155.92 793.886 151.38 791.316 149.866C790.106 149.109 788.594 148.958 787.385 148.353C786.175 147.899 785.268 146.991 784.209 146.385C782.093 145.174 779.976 143.964 778.01 142.601C776.347 141.391 774.835 140.028 773.928 138.212C773.777 137.909 773.625 137.607 773.474 137.304C773.021 136.396 773.021 136.093 771.962 135.791C770.904 135.488 769.845 135.639 768.787 135.337C767.88 135.034 767.124 134.731 766.519 134.126C762.89 138.364 758.808 142.904 754.121 145.931C754.121 145.931 754.121 145.931 754.121 146.082C754.272 146.082 754.272 146.082 754.423 146.082C755.179 146.082 755.481 146.688 755.481 147.142C755.784 147.293 756.237 147.445 756.54 147.596C757.749 148.201 758.959 148.655 760.169 149.261C762.588 150.32 764.856 151.38 767.275 152.591C771.962 154.861 776.498 157.282 780.581 160.309C782.546 161.672 784.361 163.337 786.024 165.001C786.629 165.607 786.78 165.909 787.233 166.666C788.141 168.18 789.048 169.239 790.257 170.45C793.735 174.234 796.305 178.623 798.876 183.012C802.202 188.915 805.528 194.818 808.401 200.872C808.552 194.212 807.948 187.704 806.436 181.196ZM766.368 129.888C766.519 130.191 766.519 130.493 766.67 130.796C766.67 130.645 766.821 130.493 766.821 130.342C767.275 128.677 767.729 127.164 768.182 125.499C769.089 122.169 769.997 118.839 770.904 115.509C769.089 117.628 767.577 119.899 766.821 122.623C766.065 124.893 765.763 127.466 766.368 129.888ZM800.841 263.38C800.237 267.164 798.422 270.039 794.34 270.947C793.281 271.099 792.223 271.25 791.165 271.25C792.828 271.553 794.491 271.855 796.154 272.158C799.329 272.612 802.353 272.915 805.377 272.158C808.25 271.401 810.972 269.888 813.391 268.072C815.508 266.558 817.171 264.288 819.288 262.926C819.741 262.623 820.195 262.472 820.648 262.472C820.044 262.32 819.59 262.169 818.985 262.018C816.717 261.11 814.6 259.747 812.635 258.234C811.123 257.174 810.367 255.964 808.855 257.78C807.948 258.839 807.192 260.05 806.133 261.109C804.772 262.623 802.807 263.38 800.841 263.38ZM790.257 269.131C792.677 268.98 795.549 269.131 797.213 267.012C798.12 265.953 798.573 264.591 798.876 263.077C797.666 262.774 796.457 262.169 795.247 261.261C791.165 257.931 789.199 252.634 787.536 247.942C785.117 240.828 783.151 233.564 781.79 226.299C780.429 219.185 780.278 211.92 779.371 204.655C778.313 196.785 776.801 189.066 775.742 181.347C775.137 177.564 774.684 173.931 774.381 170.147C773.928 165.909 773.625 161.823 771.811 157.888C771.66 157.585 771.66 157.282 771.66 157.131C768.182 155.164 764.402 153.499 760.773 151.834C758.354 150.774 755.935 149.715 753.667 148.504C753.365 148.353 753.062 148.201 752.76 147.899C751.853 147.899 751.097 147.747 750.189 147.899C749.585 148.201 748.98 148.353 748.526 148.504C748.073 148.655 747.77 148.655 747.317 148.807C747.014 148.958 746.712 149.109 746.409 149.109C743.386 150.169 740.362 153.045 738.698 155.769C737.489 157.888 736.884 160.461 736.582 162.882C738.094 166.515 739.454 170.299 740.059 174.082C740.362 176.353 741.269 178.623 742.025 180.893C742.932 183.618 743.537 186.342 744.142 189.218C745.049 195.12 745.805 200.872 747.921 206.472C750.038 212.223 752.004 218.126 753.818 224.028C757.296 235.077 761.529 245.974 763.193 257.477C763.344 258.385 763.495 259.293 763.646 260.353C764.856 262.623 766.217 264.591 767.88 266.558C768.485 266.71 769.241 266.861 769.845 267.012C770.753 267.315 771.357 267.769 772.265 268.072C774.23 268.828 776.649 268.677 778.766 268.828C779.976 268.98 781.185 269.131 782.395 269.282C784.965 269.585 787.536 269.282 790.257 269.131ZM723.427 151.531C723.427 151.682 723.427 151.834 723.427 151.985C725.544 151.985 727.661 152.439 729.475 153.65C731.894 155.315 733.709 157.585 735.07 160.007C735.674 157.434 736.582 155.012 738.396 152.893C739.454 151.531 740.815 150.169 742.327 148.958C740.966 148.655 739.757 148.353 738.396 147.747C736.733 147.142 735.977 147.142 734.011 146.385C729.626 144.569 725.695 141.996 722.066 138.969C722.822 143.207 723.276 147.293 723.427 151.531ZM735.826 176.201C736.279 179.077 737.338 181.801 738.245 184.374C739.454 187.704 740.513 191.185 741.722 194.515C742.327 196.331 743.083 197.996 743.688 199.812C743.537 199.358 743.537 198.904 743.386 198.45C742.176 192.396 741.42 186.342 739.454 180.439C738.094 176.05 737.186 171.661 735.674 167.423C735.523 170.45 735.372 173.477 735.826 176.201ZM748.677 215.401C750.038 221.153 751.399 226.904 753.062 232.504C755.028 238.71 757.598 244.764 759.715 250.818C759.866 251.272 760.017 251.574 760.169 252.028C758.959 246.428 756.842 241.131 755.179 235.682C753.213 229.477 751.399 223.423 749.282 217.218C748.98 216.612 748.829 216.007 748.677 215.401ZM761.681 262.623C761.681 262.32 761.529 262.169 761.529 261.866C760.622 260.201 759.866 258.537 759.261 256.872C756.842 250.212 754.423 243.553 752.155 236.893C749.887 230.082 748.224 223.12 746.561 216.31C744.595 208.439 741.722 201.023 739.001 193.455C736.582 186.645 733.406 179.38 733.406 172.115C733.406 169.239 733.86 166.515 734.314 163.791C732.802 160.158 730.685 156.677 727.056 155.012C721.31 152.439 713.902 156.677 709.97 160.764C707.4 163.337 703.62 168.482 699.538 168.331C695.153 168.18 696.665 163.488 698.328 161.369C701.957 156.98 706.644 153.65 710.273 149.261C710.878 148.655 711.029 148.05 710.878 147.445C707.4 147.445 703.771 147.596 700.747 149.412C698.782 150.472 697.874 151.834 697.118 153.953C696.665 155.164 696.362 156.374 695.606 157.434C694.548 159.099 693.641 160.461 692.734 162.126C692.431 162.731 692.129 163.488 691.524 163.791C690.163 164.699 688.803 163.639 687.895 162.731C683.813 158.645 681.243 152.893 678.521 147.899C676.707 144.569 674.741 141.542 672.775 138.364C671.566 136.396 669.903 134.882 668.542 133.066C666.879 136.547 665.518 140.028 664.308 143.661C663.401 146.688 662.494 149.715 662.343 152.893C662.04 156.374 662.645 159.704 663.25 163.185C664.308 169.391 665.215 175.596 666.274 181.801C667.332 187.855 668.542 194.061 669.903 199.964C671.263 205.866 672.473 212.526 676.102 217.52C677.463 219.488 679.126 220.699 679.731 223.12C680.184 225.088 679.882 227.207 679.126 229.023C678.823 229.78 678.219 230.537 677.765 231.142C677.916 231.142 678.067 231.142 678.067 231.293C681.243 232.201 683.359 235.38 680.487 237.801C680.184 237.953 680.033 238.255 679.731 238.407C684.569 238.558 689.105 239.618 693.641 241.585C698.479 243.553 702.259 247.034 706.946 249.304C709.819 250.666 712.692 250.666 715.716 251.12C719.042 251.574 722.218 253.088 725.393 254.299C731.29 256.418 737.035 258.688 742.932 260.807C748.677 262.774 754.423 264.591 760.32 265.953C761.076 266.104 761.832 266.255 762.588 266.407C762.134 265.045 761.983 263.682 761.681 262.623ZM681.696 120.201C681.243 119.747 680.789 118.991 680.335 118.839C680.184 118.688 680.033 118.688 679.882 118.537C679.277 118.537 678.521 118.385 677.916 118.385C677.463 118.688 677.009 119.142 676.555 119.596C674.439 121.715 672.775 125.045 671.112 127.618C670.507 128.677 669.903 129.737 669.449 130.796C670.81 132.764 672.624 134.277 673.985 136.245C675.799 139.12 677.614 141.996 679.277 144.872C682.15 150.169 684.871 155.618 688.651 160.309C689.559 161.52 690.163 162.126 690.919 160.461C691.524 159.099 692.28 157.888 693.187 156.677C694.699 154.407 695.002 151.531 696.665 149.564C699.689 145.931 704.83 145.174 709.366 145.023C709.063 144.872 708.912 144.569 708.761 144.418C707.702 143.509 706.795 142.45 705.737 141.542C703.469 139.423 701.05 137.455 698.479 135.488C693.792 132.007 689.559 127.618 685.325 123.531C684.115 122.472 682.906 121.412 681.696 120.201ZM624.24 286.991C624.543 289.715 629.079 291.985 632.556 292.288C630.44 289.11 628.172 286.082 624.694 284.72C624.392 285.326 624.089 286.082 624.24 286.991ZM663.25 132.915C656.295 135.791 648.583 135.639 641.628 138.364C634.371 141.088 627.416 145.174 620.914 149.564C615.773 153.045 611.388 157.737 608.516 163.185C602.619 174.234 602.014 187.401 603.224 199.661C604.433 212.374 607.608 224.785 611.237 236.893C612.749 242.039 614.261 247.034 615.773 252.028C617.436 257.931 618.495 263.834 620.007 269.888C620.914 273.672 622.577 277.455 624.392 280.937C624.845 280.18 625.45 279.423 625.752 278.666C626.055 277.91 626.206 277.153 626.66 276.547C627.113 275.942 628.172 275.337 628.323 274.58C628.474 273.974 628.776 273.823 629.23 273.823C634.824 265.953 640.57 258.385 647.676 251.877C655.387 244.915 664.762 239.012 675.346 238.407C677.311 237.347 680.335 235.531 678.067 233.715C677.16 233.11 676.102 233.11 675.043 233.261C672.927 234.926 670.356 235.985 668.088 237.045C663.099 239.315 658.109 240.374 652.817 241.737C648.583 242.796 643.594 243.704 639.209 243.099C636.185 242.645 631.8 240.223 633.161 236.591C634.522 232.958 638.604 231.747 642.082 231.445C648.13 230.839 654.329 231.445 660.377 231.445C663.401 231.445 666.425 231.596 669.449 231.445C671.112 231.445 672.927 231.142 674.741 230.991C674.892 230.839 675.043 230.839 675.195 230.688C677.009 229.023 677.916 226.45 677.614 223.877C677.16 221.153 674.439 219.034 673.078 216.764C670.356 212.223 669.298 206.623 668.088 201.477C665.367 190.126 663.703 178.623 661.738 167.12C660.831 161.672 659.621 156.374 660.377 150.774C661.133 145.628 662.796 140.634 664.762 135.942C665.518 134.277 666.274 132.612 667.03 130.947C665.82 131.855 664.611 132.461 663.25 132.915ZM670.81 233.564C670.356 233.564 669.903 233.564 669.449 233.564C663.401 233.715 657.353 233.412 651.456 233.412C647.071 233.412 640.116 232.353 636.487 235.531C633.917 237.801 636.034 239.92 638.604 240.828C640.872 241.434 643.291 241.282 645.559 240.828C650.549 240.072 655.69 239.315 660.528 237.801C663.099 237.045 665.669 235.985 668.088 234.774C668.995 234.472 669.903 234.018 670.81 233.564ZM669.903 125.65C670.507 124.742 671.112 123.834 671.717 122.774C672.473 121.715 673.38 120.05 674.59 118.688H674.439C670.961 119.747 670.659 122.774 669.903 125.65ZM779.522 58.2987C779.825 55.1203 781.79 53.0014 783.756 50.5798C786.629 47.0987 786.931 43.0122 784.663 39.0771C782.697 35.596 779.522 32.8716 776.649 30.2987C773.323 27.2716 769.392 24.5473 765.612 22.2771C757.296 17.2825 747.77 14.5581 738.094 14.5581C732.953 14.5581 727.963 15.3149 722.974 16.5257C720.554 17.1311 718.135 17.7365 715.716 18.4933C714.809 18.796 713.75 18.9473 712.843 19.5527C712.39 19.8554 712.087 20.1581 711.634 20.3095C709.819 21.0662 707.702 21.3689 705.888 22.1257C703.771 22.8825 701.806 23.9419 699.84 25.1527C696.211 27.2716 693.036 29.8446 690.163 32.8716C683.662 39.8338 679.277 48.4608 678.823 58.1473C678.37 68.1365 681.999 77.6716 684.569 87.3581C685.174 89.6284 685.627 92.05 686.232 94.3203C686.837 97.0446 688.349 99.0122 689.407 101.434C690.617 104.158 691.524 107.185 691.373 110.212C692.734 109.304 694.246 108.547 695.606 107.791C697.27 107.034 700.747 106.277 701.806 104.461C702.259 103.553 702.108 102.947 701.201 102.191C700.294 101.434 699.991 101.888 698.933 101.737C697.723 101.737 696.967 101.282 696.211 100.374C694.397 98.1041 693.943 94.7743 693.49 91.8987C692.885 87.9635 692.431 84.1798 691.826 80.2446C691.07 75.0987 696.06 71.3149 700.596 74.0392C703.015 75.4014 704.678 77.6716 706.19 80.0933C708.761 84.0284 712.087 82.0608 714.96 79.4879C717.379 77.3689 719.496 74.9473 721.764 72.6771C725.09 69.4987 727.358 65.8662 728.114 61.3257C729.022 55.5744 733.709 53.0014 739.303 53.4554C745.805 53.9095 751.248 57.3906 756.54 60.8716C760.169 63.1419 764.251 66.0176 768.787 64.8068C771.055 64.3527 770.45 62.6879 771.357 61.023C771.962 60.1149 772.869 59.2068 773.777 58.6014C775.44 57.3906 777.557 56.4825 778.917 58.45C779.069 58.7527 779.22 59.0554 779.522 59.3581C779.22 58.7527 779.371 58.45 779.522 58.2987ZM778.917 84.0284C780.278 80.0933 780.581 76.3095 779.976 72.223C779.673 69.65 779.371 67.2284 779.22 64.8068C778.766 62.9906 777.405 59.2068 776.196 58.9041C775.44 58.7527 773.777 60.5689 773.323 61.1743C772.416 62.2338 772.567 63.596 771.962 64.8068C770.904 66.7743 768.485 66.623 766.67 66.623C763.344 66.623 760.773 65.8662 757.901 64.2014C752.306 60.7203 746.863 56.4825 740.21 55.423C737.489 54.9689 734.162 55.1203 731.894 57.0879C729.324 59.3581 729.626 63.8987 728.266 66.9257C726.905 69.9527 724.788 72.3743 722.369 74.6446C720.252 76.7635 718.286 79.0338 716.018 81.0014C712.994 83.7257 708.458 86.1473 705.132 82.5149C703.166 80.2446 702.108 77.5203 699.538 76.0068C697.723 74.796 695.606 74.796 694.246 76.7635C692.885 78.7311 693.792 81.0014 694.094 83.1203C694.548 86.45 694.85 89.9311 695.455 93.2608C695.758 94.7743 696.06 96.4392 696.816 97.8014C698.026 100.072 699.084 99.0122 700.898 99.4662C702.864 99.9203 704.225 102.191 703.771 104.007C703.318 105.974 701.352 107.185 699.538 107.942C696.514 109.304 693.187 110.818 690.314 112.937C689.71 114.753 688.5 116.569 686.837 117.628C686.535 117.78 686.081 117.931 685.779 118.082C685.476 118.839 685.174 119.596 684.871 120.353C685.023 120.504 685.174 120.655 685.174 120.655C687.291 122.623 689.407 124.742 691.524 126.709C695.758 130.645 700.294 134.126 704.678 137.909C706.644 139.574 708.61 141.391 710.575 143.358C711.785 144.569 713.599 145.78 713.448 147.596C713.297 149.261 711.785 150.774 710.726 151.985C708.912 153.953 706.946 155.92 704.981 157.737C704.074 158.645 703.166 159.401 702.259 160.309C701.503 161.066 699.689 162.58 699.386 163.639C698.328 167.272 701.503 165.455 702.562 164.85C703.922 163.942 704.981 162.882 706.039 161.823C709.366 158.493 712.238 155.466 716.623 153.65C718.286 153.045 719.95 152.439 721.613 152.288C721.462 152.137 721.462 151.985 721.462 151.682C721.159 146.537 720.554 141.239 719.345 136.093C714.658 130.645 706.946 120.353 711.482 119.293C713.297 118.839 715.565 120.807 716.472 122.169C718.286 124.591 719.194 128.072 720.101 130.947C720.554 132.461 721.008 133.974 721.31 135.337C723.276 137.455 725.544 139.272 727.963 140.937C730.685 142.753 733.86 144.569 736.884 145.326C737.64 145.477 738.396 145.78 739.152 146.082C741.571 146.991 743.839 147.445 746.409 146.991C747.317 146.688 748.224 146.234 749.131 146.082C749.282 146.082 749.585 145.931 749.736 145.931C755.935 143.358 760.925 137.607 765.158 132.612C763.797 130.493 763.646 127.618 763.949 125.196C764.251 122.926 764.856 119.899 766.065 118.082C766.368 117.78 766.67 117.477 766.973 117.174C767.729 116.266 768.031 115.358 768.787 114.45C769.694 113.088 771.055 112.18 771.962 110.818C771.962 110.666 772.113 110.666 772.113 110.666C772.416 109.607 772.718 108.396 773.021 107.337C773.172 106.882 773.323 106.277 773.474 105.823C773.474 105.672 773.474 105.672 773.625 105.52C773.625 105.52 773.625 105.218 773.474 104.764C772.869 101.434 773.625 97.8014 774.684 94.623C775.742 90.6879 777.708 87.6608 778.917 84.0284ZM717.984 131.401C716.472 126.709 713.902 120.201 712.238 121.715C711.936 122.018 714.809 126.709 715.111 127.315C716.018 128.677 716.926 130.039 717.984 131.401ZM856.029 251.12C860.414 246.58 860.263 238.861 859.658 233.109C859.053 226.904 857.239 220.699 855.424 214.796C851.796 203.142 847.411 191.791 843.026 180.439C839.095 169.996 835.466 159.401 830.779 149.261C825.94 138.666 819.741 127.618 810.972 119.747C808.099 117.174 803.865 115.964 800.388 114.45C797.061 113.088 793.735 111.877 790.56 110.515C787.536 109.304 784.663 107.337 781.337 106.882C779.069 106.428 776.952 106.58 775.591 108.547C774.533 110.061 774.079 111.877 774.079 113.693C774.079 114.147 773.777 114.45 773.474 114.601C772.718 117.326 771.962 120.05 771.206 122.774C770.601 124.893 769.997 127.012 769.543 129.131C769.392 129.888 769.089 130.645 768.938 131.401C768.787 131.855 768.787 132.764 768.636 132.007C768.787 132.309 768.636 132.612 768.485 132.915C768.787 133.218 769.241 133.369 769.694 133.52C771.055 133.823 772.416 133.52 773.625 133.823C774.835 134.126 775.289 134.882 775.591 135.942C776.347 138.212 777.557 139.574 779.522 140.937C783.151 143.509 787.233 145.78 791.316 147.445C795.398 148.958 797.213 153.801 799.178 157.434C801.597 161.672 803.563 166.212 805.377 170.753C809.46 181.045 810.972 191.639 810.669 202.688C810.669 203.596 810.669 204.504 810.518 205.412C811.576 207.985 812.635 210.709 813.542 213.434C815.356 218.882 816.868 224.482 817.473 230.082C818.078 235.228 818.834 241.282 817.624 246.277C817.02 249.001 815.054 254.147 811.576 254.299C808.401 254.45 805.831 250.515 804.924 247.942C803.714 244.461 803.714 240.526 804.319 236.893C805.226 230.537 806.284 224.331 807.04 218.126C807.494 214.039 807.948 209.801 808.25 205.715C805.075 198.299 801.144 191.337 797.061 184.223C794.189 179.077 791.013 174.385 786.931 170.147C786.175 169.391 786.024 168.785 785.419 167.877C784.663 166.515 783.453 165.455 782.395 164.547C780.278 162.58 777.859 160.915 775.44 159.401C775.137 159.25 774.835 159.099 774.533 158.947C775.289 160.461 775.893 161.974 776.347 163.791C777.103 167.12 777.859 170.299 778.615 173.628C779.976 179.682 781.488 185.737 783.151 191.791C786.629 203.747 790.711 215.553 794.037 227.509C795.701 233.564 797.364 239.618 798.725 245.823C799.783 250.818 801.446 256.266 800.993 261.564C802.202 261.564 803.26 261.109 804.319 260.353C806.133 258.839 807.04 256.266 809.157 255.358C810.972 254.45 811.728 255.358 813.391 256.266C815.659 257.78 817.776 259.445 820.346 260.353C823.068 261.261 826.545 260.807 829.418 260.353C830.174 260.201 830.779 260.201 831.535 260.05C836.071 258.385 840.456 256.115 845.294 254.904C847.864 254.299 850.435 253.845 853.005 253.542C854.064 252.785 855.122 252.028 856.029 251.12ZM810.216 210.104C809.46 218.428 808.099 226.601 806.889 234.926C806.284 239.012 805.68 243.704 807.343 247.791C807.948 249.304 809.762 252.18 811.576 252.18C813.996 252.18 815.205 248.093 815.659 246.277C816.868 240.828 816.112 234.169 815.205 228.72C814.449 223.423 812.937 218.277 811.123 213.131C810.82 212.072 810.518 211.164 810.216 210.104ZM899.121 271.553C895.946 266.71 892.317 262.32 888.688 257.931C887.781 256.872 886.723 255.207 885.513 254.45C884.303 253.693 882.489 253.693 881.128 253.693C877.953 253.391 874.778 253.391 871.451 253.542C865.252 253.845 859.204 254.753 853.156 255.661C851.342 256.418 849.528 256.872 847.713 257.477C844.538 258.537 841.363 259.596 838.188 260.655C836.071 261.261 833.954 261.715 831.837 262.018C830.779 262.472 829.872 262.774 828.813 263.077C827.452 263.531 825.94 263.834 824.58 264.137C823.37 264.439 821.707 264.288 820.497 265.045C818.683 266.104 817.171 268.072 815.508 269.282C813.542 270.796 811.576 272.007 809.308 273.066C800.841 276.85 791.467 273.672 782.546 272.158C781.185 272.309 779.825 272.31 778.464 272.31C776.045 272.31 773.474 272.158 771.055 271.704C773.625 275.185 775.893 278.666 778.313 282.299C779.976 284.872 781.488 287.293 783.605 289.412C786.326 291.985 789.048 293.953 792.525 295.315C796.759 296.98 800.69 300.461 805.075 301.974C811.274 300.915 817.322 300.007 823.521 299.099C826.999 298.645 830.628 298.342 834.105 297.585C838.188 296.677 839.851 293.347 842.119 290.169C845.143 286.082 848.62 282.753 853.761 281.845C858.146 281.088 862.984 282.147 865.403 286.234C866.311 287.899 867.067 289.715 868.73 290.926C869.335 291.228 869.788 291.531 870.393 291.531C870.847 291.38 871.3 291.38 871.603 291.228C872.359 290.774 872.963 289.715 872.812 288.353C872.661 285.326 871.3 282.147 869.486 279.726C867.823 277.304 865.403 275.337 862.379 274.731C861.17 274.428 859.658 274.58 859.507 273.066C859.355 271.25 861.775 270.191 863.135 269.737C865.555 268.98 868.427 268.98 870.695 270.191C875.08 272.461 877.046 277.758 877.651 282.45C877.953 284.872 877.953 287.293 877.953 289.715C879.011 289.412 879.919 289.11 880.977 288.958C883.396 288.201 885.815 287.445 888.386 286.839C888.386 285.326 888.083 283.661 887.479 282.299C886.571 279.423 884.152 277.153 883.547 274.126C883.396 273.52 883.547 272.915 883.699 272.158C883.547 271.704 883.85 271.099 884.303 270.796C884.455 270.796 884.606 270.645 884.757 270.796C885.059 270.645 885.211 270.645 885.664 270.645C886.571 270.645 887.176 271.401 887.327 272.158C887.479 272.309 887.63 272.612 887.63 272.764C887.63 272.915 887.63 272.915 887.63 273.066C888.537 273.974 889.293 274.882 890.2 275.942C891.712 277.758 893.073 281.088 895.039 282.299C897.458 283.812 901.087 282.904 901.691 279.877C902.599 276.699 900.784 274.126 899.121 271.553ZM886.571 274.428C886.42 274.428 886.42 274.428 886.269 274.428C886.874 276.396 888.839 278.969 889.142 279.877C890.049 281.845 890.654 284.115 890.805 286.385C890.956 286.385 890.956 286.385 891.107 286.385C891.41 286.385 895.19 285.477 897.76 285.174C897.458 285.174 897.004 285.023 896.702 285.023C894.131 284.418 893.073 282.904 891.561 280.785C890.049 278.515 888.386 276.245 886.571 274.428ZM878.255 292.288C878.255 295.012 877.348 301.672 881.431 301.52C884.908 301.369 886.874 295.618 887.781 292.893C888.235 291.682 888.537 290.32 888.688 288.958C886.723 289.412 884.757 290.018 882.791 290.623C881.279 291.077 879.767 291.38 878.255 291.834C878.255 291.985 878.255 292.137 878.255 292.288ZM897.155 286.991C895.492 287.293 893.829 287.747 892.015 288.201C891.561 288.353 891.107 288.353 890.654 288.504C890.351 293.045 888.235 298.342 885.362 301.672C882.791 304.396 877.499 304.396 876.592 300.31C875.987 297.737 875.987 295.164 875.987 292.439C875.08 292.591 874.173 292.893 873.266 293.045C872.51 293.499 871.603 293.65 870.695 293.65C867.823 294.255 864.95 294.861 862.228 295.618C858.902 296.374 855.727 297.434 852.552 298.191C851.04 298.493 849.528 298.645 848.016 299.099C846.806 299.401 845.748 300.007 844.538 300.158C843.026 300.461 841.06 300.764 839.7 301.672C850.435 304.85 861.472 306.515 872.51 308.331C875.231 308.785 877.953 309.239 880.675 309.542C883.396 309.996 886.118 310.753 888.839 310.601C893.98 310.601 894.736 305.455 895.946 301.52C897.458 296.677 899.272 291.834 900.784 286.839C899.575 287.142 898.365 286.839 897.155 286.991ZM899.877 284.872H899.726C899.877 284.872 899.877 284.872 899.877 285.023C899.877 285.023 899.877 285.023 899.877 284.872ZM876.139 284.72C875.685 278.666 872.51 269.737 864.799 271.704C864.194 271.855 863.438 272.461 862.833 272.764C863.891 272.915 864.95 273.218 865.857 273.672C867.974 274.731 869.788 276.245 871.3 278.212C873.568 281.088 876.29 286.688 875.08 290.623C875.383 290.472 875.836 290.472 876.139 290.32C876.139 288.353 876.139 286.537 876.139 284.72ZM901.238 284.418C901.238 284.418 901.389 284.418 901.389 284.569C901.389 284.418 901.389 284.418 901.54 284.266C901.389 284.266 901.238 284.418 901.238 284.418ZM821.707 303.185C828.057 304.093 834.256 305.455 840.456 306.969C853.156 310.299 865.857 314.385 878.86 316.504C892.166 318.623 905.774 317.715 919.23 317.261C934.502 316.655 949.622 315.445 964.893 314.082C972.755 313.326 980.617 312.569 988.48 311.812C992.26 311.358 996.04 311.055 999.82 310.601C1002.99 310.299 1007.98 310.601 1010.25 308.028C1014.94 301.52 1017.21 293.65 1020.08 286.234C1023.1 278.515 1026.13 270.796 1029 262.926C1033.54 250.212 1038.38 237.65 1043.21 225.088C1046.09 217.52 1049.11 209.953 1052.13 202.537C1052.13 202.385 1052.29 202.234 1052.44 202.234C1052.44 202.082 1052.44 201.931 1052.44 201.931C1052.89 199.509 1048.66 199.812 1047.15 199.812C1043.37 199.812 1039.43 199.812 1035.65 199.812C1026.88 199.661 1018.27 199.358 1009.5 199.055C992.26 198.299 975.174 197.391 957.938 196.937C953.099 196.785 948.261 196.785 943.422 196.785C941.003 196.785 938.433 196.785 936.014 196.785C934.35 196.785 932.536 196.785 932.234 198.753C932.234 199.055 932.082 199.207 931.78 199.358C929.814 204.958 928.454 210.558 926.942 216.31C925.127 222.666 923.01 228.872 920.894 234.926C918.777 240.98 916.66 247.034 914.543 253.088C913.636 255.812 912.578 258.537 911.671 261.412C910.612 264.591 910.007 267.769 908.949 270.947C908.193 273.672 907.135 276.245 906.076 278.818C905.623 279.877 905.018 280.937 904.564 281.996C903.657 283.812 903.355 285.628 902.75 287.596C901.087 293.347 898.97 298.947 897.307 304.85C896.399 308.028 894.887 311.51 891.561 312.72C887.63 314.082 882.489 312.266 878.558 311.661C864.647 309.391 850.586 307.726 837.129 303.488C836.222 303.185 836.222 302.277 836.676 301.672C836.676 301.52 836.827 301.52 836.827 301.369C838.339 299.553 841.363 298.645 843.631 298.342C845.748 298.039 847.864 297.131 849.981 296.677C853.459 296.072 856.785 294.861 860.111 294.104C862.531 293.499 864.799 293.045 867.218 292.439C866.462 291.985 865.857 291.228 865.403 290.623C863.438 288.05 862.984 285.477 859.658 284.418C856.785 283.51 853.308 283.964 850.737 285.326C848.469 286.537 846.504 288.504 844.992 290.472C843.026 292.893 841.665 295.92 839.095 297.737C837.28 299.099 835.315 299.704 833.047 300.007C828.964 300.461 824.882 301.218 820.8 301.823C818.078 302.277 815.356 302.58 812.786 303.034C815.81 302.882 818.834 302.731 821.707 303.185ZM639.36 298.039C641.477 300.915 643.291 302.428 646.769 303.488C653.119 305.455 659.772 305.001 666.274 305.607C673.834 306.212 681.091 307.12 688.651 306.818C695.909 306.515 703.318 306.515 710.575 306.515C740.815 306.666 771.206 307.877 801.295 302.58H801.446C798.876 301.369 796.305 299.704 793.886 298.342C791.013 296.828 788.594 295.92 786.024 293.953C783.756 292.137 781.488 290.169 779.673 287.899C777.859 285.477 776.196 282.904 774.684 280.18C772.869 277.001 770.45 274.58 768.333 271.553C768.182 271.401 768.031 271.099 767.88 270.947C766.368 270.645 765.007 270.039 763.949 268.98C763.797 268.828 763.797 268.828 763.646 268.677C763.495 268.677 763.344 268.677 763.344 268.677C757.749 267.618 752.155 266.104 746.712 264.288C741.42 262.623 736.128 260.655 730.836 258.537C725.544 256.569 719.95 253.693 714.204 252.937C711.634 252.634 709.063 252.482 706.644 251.423C704.527 250.515 702.713 249.304 700.898 248.093C696.211 244.915 691.373 242.493 685.779 241.131C682.603 240.374 679.428 240.072 676.404 240.223C675.951 240.526 675.497 240.828 674.892 241.131C672.624 242.796 670.356 244.461 668.239 246.428C663.855 250.818 660.226 256.266 656.597 261.412C653.119 266.255 649.793 271.099 646.618 276.093C644.955 278.666 642.989 281.088 641.628 283.812C640.57 285.78 639.663 287.899 638.604 289.866C638.604 291.682 637.395 292.742 635.883 293.499V293.65C637.395 295.012 638.302 296.526 639.36 298.039Z" fill="#010080"/>
</g>
<defs>
<clipPath id="clip0_1689_5472">
<rect width="1103" height="336" fill="white" transform="matrix(-1 0 0 1 1103 0.180176)"/>
</clipPath>
<clipPath id="clip1_1689_5472">
<rect width="74.9339" height="61.9001" fill="white" transform="translate(1029.92 137.18) rotate(5.48351)"/>
</clipPath>
<clipPath id="clip2_1689_5472">
<rect width="74.9339" height="61.9001" fill="white" transform="translate(1029.92 137.18) rotate(5.48351)"/>
</clipPath>
<clipPath id="clip3_1689_5472">
<rect width="1103" height="336" fill="white" transform="matrix(-1 0 0 1 1103 0.180176)"/>
</clipPath>
</defs>
</svg>
