<svg width="220" height="51" viewBox="0 0 220 51" fill="none" xmlns="http://www.w3.org/2000/svg">
<g clip-path="url(#clip0_1216_1914)">
<path d="M5.73455 19.8268C5.78689 21.9531 7.37007 23.2878 10.1343 23.2878C12.9541 23.2878 14.4851 22.1526 14.4851 20.3731C14.4851 19.1366 13.8307 18.2468 11.6684 17.7561L7.26874 16.7159C2.86894 15.7346 0.742575 13.6507 0.742575 9.74813C0.742575 4.95251 4.79567 2.08374 10.432 2.08374C15.9178 2.08374 19.6273 5.25019 19.6764 9.99347H13.942C13.8929 7.91951 12.5091 6.58488 10.1833 6.58488C7.85745 6.58488 6.42793 7.67097 6.42793 9.49959C6.42793 10.8833 7.51396 11.7894 9.59119 12.267L13.9911 13.3072C18.0932 14.246 20.1705 16.1237 20.1705 19.8824C20.1705 24.8252 15.9701 27.8904 9.93796 27.8904C3.90581 27.8904 0 24.6192 0 19.8302L5.73455 19.8268Z" fill="#1B8EE4"/>
<path d="M45.7588 16.0453V27.8806H42.1997V22.7088C42.1933 22.3286 42.1122 21.9534 41.9607 21.6046C41.8093 21.2558 41.5906 20.9402 41.3172 20.6759C41.0438 20.4117 40.721 20.2039 40.3673 20.0643C40.0136 19.9248 39.6358 19.8563 39.2556 19.8628C38.8754 19.8563 38.4976 19.9248 38.1439 20.0643C37.7901 20.2039 37.4674 20.4117 37.194 20.6759C36.9206 20.9402 36.702 21.2558 36.5506 21.6046C36.3992 21.9534 36.3179 22.3286 36.3115 22.7088V27.8675H32.7131V22.7088C32.7067 22.3286 32.6256 21.9534 32.4742 21.6046C32.3228 21.2558 32.104 20.9402 31.8306 20.6759C31.5572 20.4117 31.2345 20.2039 30.8807 20.0643C30.527 19.9248 30.1492 19.8563 29.769 19.8628C29.3888 19.8563 29.011 19.9248 28.6573 20.0643C28.3036 20.2039 27.9808 20.4117 27.7074 20.6759C27.434 20.9402 27.2155 21.2558 27.064 21.6046C26.9126 21.9534 26.8313 22.3286 26.8249 22.7088V27.8675H23.2266V16.0355C24.8622 16.2122 25.9417 15.5808 26.4978 14.0728C26.9819 15.3813 27.8718 16.1336 29.3242 16.0584C30.6327 15.9897 31.4079 15.2406 31.8135 14.0597C32.3827 15.4271 33.2528 16.0747 34.4796 16.0715C35.7063 16.0682 36.5798 15.4172 37.1195 14.0629C37.5873 15.3452 38.4673 16.1074 39.9001 16.0584C41.2086 16.0158 42.0068 15.2602 42.4353 14.0662C43.0372 15.571 44.1166 16.2252 45.7588 16.0453Z" fill="#1B8EE4"/>
<path d="M48.4102 22.2151C48.4102 18.8621 50.8439 16.7619 55.1521 16.4315L60.6052 16.0258V15.6203C60.6052 13.1505 59.13 12.1561 56.8467 12.1561C54.1937 12.1561 52.7215 13.2617 52.7215 15.1786H48.8909C48.8909 11.2531 52.1327 8.659 57.069 8.659C62.0053 8.659 64.9886 11.3088 64.9886 16.3563V27.8808H60.736V24.7176C59.964 26.5985 57.4942 27.8874 54.6581 27.8874C50.7686 27.8874 48.4102 25.6532 48.4102 22.2151ZM60.6412 20.0396V19.0812L56.8467 19.3756C54.0465 19.6341 52.98 20.5565 52.98 22.0285C52.98 23.6871 54.0825 24.4984 56.1106 24.4984C58.8716 24.4984 60.6412 22.8398 60.6412 20.0396Z" fill="#1B8EE4"/>
<path d="M68 27.8809V5.99957H72.0301V27.8809H68Z" fill="#81888C"/>
<path d="M78.3832 27.8874L72.7305 8.48888L77.0583 7.19684L82.6489 26.6999L78.3832 27.8874Z" fill="#81888C"/>
<path d="M86.5703 27.8807V6.10352e-05H90.6332V11.8615C91.6996 9.83657 93.9043 8.61978 96.4003 8.61978C101.101 8.61978 103.967 12.6728 103.967 18.4335C103.967 24.0305 100.866 27.9004 96.1321 27.9004C93.6656 27.9004 91.5523 26.6834 90.6004 24.5833L90.5776 27.8938L86.5703 27.8807ZM95.3078 23.759C98.1733 23.759 99.8875 21.4691 99.8875 18.2338C99.8875 14.9986 98.1864 12.6727 95.3078 12.6727C92.5043 12.6727 90.6724 14.9626 90.6724 18.2338C90.6724 21.505 92.5043 23.759 95.3078 23.759Z" fill="#1B8EE4"/>
<path d="M123.376 8.55444L123.177 27.8809H118.924L118.895 24.8747C117.789 26.6673 115.431 27.8874 113.007 27.8874C108.806 27.8874 106.34 24.9433 106.34 20.3374V8.56099H110.831V18.7018C110.831 22.3002 112.195 23.7363 114.701 23.7363C117.537 23.7363 118.901 22.0221 118.901 18.4368V8.56099L123.376 8.55444Z" fill="#1B8EE4"/>
<path d="M129.27 21.8815C129.306 23.4648 130.487 24.4592 132.541 24.4592C134.596 24.4592 135.783 23.6119 135.783 22.287C135.783 21.3678 135.306 20.7038 133.683 20.3243L130.412 19.5523C127.141 18.8163 125.551 17.2625 125.551 14.3577C125.551 10.7855 128.57 8.64929 132.771 8.64929C136.86 8.64929 139.621 11.0046 139.66 14.5375H135.384C135.348 12.9902 134.318 11.9958 132.587 11.9958C130.857 11.9958 129.787 12.807 129.787 14.1711C129.787 15.2015 130.595 15.8657 132.142 16.2321L135.414 17.0072C138.469 17.7073 140.016 19.1073 140.016 21.9141C140.016 25.5975 136.886 27.8841 132.391 27.8841C127.896 27.8841 124.988 25.4503 124.988 21.8781L129.27 21.8815Z" fill="#1B8EE4"/>
<path d="M141.57 3.05529C141.57 2.51789 141.729 1.99252 142.027 1.54522C142.325 1.09792 142.748 0.748746 143.244 0.541487C143.74 0.334228 144.286 0.278223 144.814 0.380481C145.341 0.48274 145.827 0.738691 146.209 1.11619C146.592 1.49369 146.854 1.9758 146.963 2.50199C147.073 3.02818 147.024 3.57489 146.823 4.07339C146.622 4.57189 146.278 4.99992 145.835 5.30362C145.392 5.60732 144.869 5.77315 144.331 5.78025C143.97 5.78501 143.612 5.71811 143.277 5.5833C142.943 5.4485 142.638 5.24853 142.381 4.99502C142.124 4.74151 141.92 4.43943 141.781 4.10646C141.642 3.77348 141.57 3.41618 141.57 3.05529ZM142.084 8.55424H146.569V27.8807H142.074L142.084 8.55424Z" fill="#1B8EE4"/>
<path d="M148.984 27.8447V8.54443H153.495L153.515 11.5376C154.657 9.64353 156.868 8.54443 159.335 8.54443C163.914 8.54443 166.26 11.4624 166.26 16.3136V27.8348H161.768V17.4127C161.768 14.2658 160.257 12.7512 157.935 12.7512C155.174 12.7512 153.479 14.7139 153.479 17.7529L153.378 27.8707L148.984 27.8447Z" fill="#1B8EE4"/>
<path d="M168.355 18.2536C168.355 12.5159 172.078 8.55444 177.417 8.55444C182.87 8.55444 186.331 12.2215 186.331 17.9233V19.2906L172.628 19.3299C172.955 22.5487 174.656 24.1779 177.639 24.1779C180.106 24.1779 181.728 23.2161 182.242 21.4758H186.406C185.631 25.4765 182.317 27.8809 177.574 27.8809C172.15 27.8809 168.355 23.9194 168.355 18.2536ZM172.739 16.4413H181.875C181.875 13.9225 180.145 12.2574 177.456 12.2574C174.767 12.2574 173.18 13.7 172.739 16.4413Z" fill="#1B8EE4"/>
<path d="M192.54 21.4692C192.576 23.0623 193.757 24.4361 195.812 24.4361C197.866 24.4361 199.053 23.5857 199.053 22.2511C199.053 21.3253 198.576 20.6612 196.953 20.2883L193.682 19.513C190.411 18.7704 188.821 17.2231 188.821 14.279C188.821 10.6807 191.84 8.53809 196.041 8.53809C200.13 8.53809 202.891 10.9096 202.93 14.4654H198.654C198.618 12.9083 197.588 11.9107 195.857 11.9107C194.127 11.9107 193.057 12.7252 193.057 14.0958C193.057 15.1328 193.868 15.7968 195.416 16.1697L198.687 16.945C201.742 17.6516 203.29 19.0583 203.29 21.8715C203.29 25.5746 200.159 27.8709 195.664 27.8709C191.17 27.8709 188.262 25.11 188.262 21.5182L192.54 21.4692Z" fill="#1B8EE4"/>
<path d="M209.243 21.4692C209.279 23.0623 210.46 24.4361 212.514 24.4361C214.568 24.4361 215.756 23.5857 215.756 22.2511C215.756 21.3253 215.278 20.6612 213.656 20.2883L210.385 19.513C207.113 18.7704 205.524 17.2231 205.524 14.279C205.524 10.6807 208.543 8.53809 212.743 8.53809C216.832 8.53809 219.593 10.9096 219.632 14.4654H215.357C215.321 12.9083 214.291 11.9107 212.557 11.9107C210.823 11.9107 209.76 12.7252 209.76 14.0958C209.76 15.1328 210.568 15.7968 212.115 16.1697L215.386 16.945C218.442 17.6516 219.989 19.0583 219.989 21.8715C219.989 25.5746 216.858 27.8709 212.364 27.8709C207.869 27.8709 204.961 25.11 204.961 21.5182L209.243 21.4692Z" fill="#1B8EE4"/>
<path d="M150.275 48.4795C150.55 48.5664 150.838 48.6074 151.126 48.6006C151.98 48.6006 152.264 48.1132 152.264 47.0991L152.303 35.4732H154.75V47.3838C154.75 49.5133 153.533 50.8938 151.365 50.8938C150.862 50.8956 150.363 50.8206 149.883 50.6713L150.275 48.4795ZM151.999 32.4505C151.999 32.0523 152.158 31.6704 152.439 31.3888C152.721 31.1072 153.103 30.949 153.501 30.949C153.899 30.949 154.281 31.1072 154.563 31.3888C154.844 31.6704 155.002 32.0523 155.002 32.4505C155.002 32.8487 154.844 33.2306 154.563 33.5122C154.281 33.7938 153.899 33.9521 153.501 33.9521C153.103 33.9521 152.721 33.7938 152.439 33.5122C152.158 33.2306 151.999 32.8487 151.999 32.4505Z" fill="#091A27"/>
<path d="M161.246 35.4667C164.35 35.4667 166.601 37.6552 166.601 40.8348C166.601 44.0144 164.35 46.2028 161.246 46.2028C158.141 46.2028 155.891 44.0144 155.891 40.8348C155.891 37.6552 158.144 35.4667 161.246 35.4667ZM161.246 43.9522C162.95 43.9522 164.124 42.6929 164.124 40.8348C164.124 38.9768 162.95 37.7172 161.246 37.7172C159.541 37.7172 158.367 38.9768 158.367 40.8348C158.367 42.6929 159.541 43.9719 161.246 43.9719V43.9522Z" fill="#091A27"/>
<path d="M176.781 35.4667V46.1897H174.298V44.6196C173.69 45.5715 172.391 46.2224 171.053 46.2224C168.74 46.2224 167.383 44.6589 167.383 42.2054V35.4667H169.856V41.3549C169.856 43.2587 170.605 44.0308 171.985 44.0308C173.546 44.0308 174.298 43.1181 174.298 41.211V35.4667H176.781Z" fill="#091A27"/>
<path d="M184.811 38.1982H183.898C182.115 38.1982 181 39.1501 181 41.0964V46.1962H178.523V35.4667H180.97L181 37.4294C181.425 36.448 182.377 35.7676 183.715 35.7676C184.085 35.768 184.453 35.8153 184.811 35.9083V38.1982Z" fill="#091A27"/>
<path d="M185.684 46.1962V35.4667H188.144L188.176 37.2365C188.808 36.2224 190.021 35.6368 191.382 35.6368C193.898 35.6368 195.193 37.1972 195.193 39.7913V46.1897H192.72V40.3735C192.72 38.6921 191.889 37.8808 190.61 37.8808C189.089 37.8808 188.157 38.9342 188.157 40.5567V46.1831L185.684 46.1962Z" fill="#091A27"/>
<path d="M196.371 43.0561C196.371 41.1817 197.709 40.0073 200.084 39.8208L203.084 39.5951V39.3694C203.084 37.989 202.272 37.4327 201.016 37.4327C199.554 37.4327 198.743 38.0478 198.743 39.1207H196.636C196.636 36.9159 198.419 35.4733 201.137 35.4733C203.856 35.4733 205.498 36.9584 205.498 39.7815V46.1963H203.162V44.4561C202.737 45.5062 201.376 46.2291 199.816 46.2291C197.67 46.2291 196.371 44.973 196.371 43.0561ZM203.103 41.8391V41.306L201.016 41.4695C199.475 41.6135 198.887 42.1237 198.887 42.9513C198.887 43.8803 199.495 44.3318 200.611 44.3318C202.132 44.3318 203.103 43.406 203.103 41.8391Z" fill="#091A27"/>
<path d="M207.16 46.1831V31.093H209.614V46.1831H207.16Z" fill="#091A27"/>
<path d="M212.978 42.8695C212.998 43.756 213.632 44.3122 214.781 44.3122C215.929 44.3122 216.567 43.8378 216.567 43.0952C216.567 42.5816 216.302 42.2121 215.412 42.006L213.606 41.5709C211.801 41.1588 210.927 40.295 210.927 38.666C210.927 36.6705 212.592 35.4733 214.905 35.4733C217.156 35.4733 218.677 36.7818 218.696 38.7708H216.344C216.321 37.9039 215.755 37.3477 214.8 37.3477C213.845 37.3477 213.26 37.8025 213.26 38.5647C213.26 39.1404 213.708 39.5133 214.568 39.7194L216.374 40.1511C218.055 40.5437 218.909 41.3256 218.909 42.8925C218.909 44.9501 217.185 46.2291 214.712 46.2291C212.239 46.2291 210.633 44.8683 210.633 42.8695H212.978Z" fill="#091A27"/>
<path d="M25.7496 9.74841C25.5905 9.95255 25.5083 10.2061 25.5174 10.4648C25.5174 11.4462 25.5174 12.408 25.5174 13.3829C25.5189 13.5977 25.4781 13.8106 25.3973 14.0096C25.3165 14.2087 25.1972 14.3897 25.0463 14.5427C24.8955 14.6956 24.7161 14.8173 24.5183 14.9009C24.3204 14.9845 24.1079 15.0283 23.8931 15.0298C23.6783 15.0313 23.4653 14.9905 23.2663 14.9097C23.0673 14.8289 22.8863 14.7098 22.7333 14.5589C22.5804 14.4081 22.4586 14.2286 22.375 14.0307C22.2915 13.8329 22.2477 13.6205 22.2461 13.4057C22.2461 12.4014 22.2461 11.3972 22.2461 10.3929C22.2446 10.2415 22.2746 10.0915 22.3343 9.95239C22.394 9.81327 22.482 9.68804 22.5928 9.58485L23.3877 8.77359C23.4546 8.70399 23.5348 8.64866 23.6236 8.61099C23.7125 8.57332 23.8081 8.55411 23.9046 8.55445H26.6524C26.3427 8.95354 26.0419 9.35151 25.7496 9.74841Z" fill="#81888C"/>
<path d="M46.7701 13.5496C46.7654 13.9834 46.5884 14.3975 46.2783 14.7009C45.9682 15.0043 45.5504 15.1719 45.1166 15.1671C44.6828 15.1624 44.2687 14.9855 43.9653 14.6753C43.6619 14.3652 43.4941 13.9474 43.4989 13.5136C43.4825 12.4668 43.4989 11.4167 43.4989 10.3699C43.4916 10.1795 43.4292 9.99549 43.3191 9.84006C43.0116 9.40389 42.7008 8.9785 42.3867 8.56415H45.1607C45.2481 8.5645 45.3345 8.58243 45.4148 8.6167C45.4952 8.65097 45.5679 8.70101 45.6286 8.76381C45.9557 9.09093 46.2598 9.41805 46.5738 9.74518C46.7032 9.90183 46.7748 10.0981 46.7767 10.3012C46.7963 11.3807 46.7963 12.4603 46.7701 13.5496Z" fill="#81888C"/>
<path d="M31.0548 9.43438C30.8935 9.8706 30.8169 10.3335 30.8291 10.7985C30.8487 11.6719 30.8291 12.5453 30.8291 13.4154C30.8326 13.6312 30.7926 13.8455 30.7117 14.0456C30.6307 14.2456 30.5105 14.4273 30.3579 14.5799C30.2053 14.7325 30.0235 14.8529 29.8234 14.9338C29.6234 15.0148 29.4092 15.0546 29.1935 15.0511C28.9787 15.0532 28.7655 15.0131 28.5662 14.9329C28.367 14.8527 28.1855 14.7341 28.0321 14.5837C27.8787 14.4333 27.7564 14.2542 27.6722 14.0566C27.588 13.859 27.5435 13.6467 27.5414 13.4319C27.5414 12.3851 27.5414 11.3383 27.5414 10.2915C27.5316 10.1629 27.5529 10.0339 27.6035 9.91533C27.8587 9.46062 28.1172 9.00914 28.3757 8.55444H31.3426C31.2608 8.85213 31.1627 9.14652 31.0548 9.43438Z" fill="#81888C"/>
<path d="M41.4672 13.4482C41.4711 13.8464 41.3295 14.2324 41.069 14.5337C40.8086 14.835 40.4471 15.0308 40.0525 15.0846C39.6579 15.1384 39.2574 15.0464 38.9258 14.8258C38.5942 14.6053 38.3545 14.2712 38.2516 13.8865C38.2078 13.7089 38.187 13.5265 38.1895 13.3436C38.1895 12.3949 38.2123 11.443 38.173 10.4943C38.1314 10.0786 38.0414 9.66907 37.9048 9.27418C37.8394 9.03211 37.7576 8.79651 37.6758 8.55444H40.6363C40.885 8.99061 41.1281 9.4192 41.3658 9.84009C41.4358 9.97424 41.4707 10.1239 41.4672 10.2752C41.4771 11.3318 41.4836 12.3883 41.4672 13.4482Z" fill="#81888C"/>
<path d="M36.158 13.337C36.1754 13.7403 36.043 14.1358 35.7863 14.4474C35.5297 14.7591 35.1669 14.9647 34.7677 15.0249C34.5471 15.0682 34.3198 15.0638 34.101 15.0121C33.8823 14.9603 33.677 14.8624 33.4992 14.7249C33.3214 14.5873 33.1749 14.4133 33.0698 14.2146C32.9648 14.0158 32.9035 13.7969 32.89 13.5725C32.8376 11.8976 32.7231 10.2097 33.1516 8.55444H35.8996C35.9977 9.25122 36.1121 9.91526 36.1481 10.5859C36.1972 11.4985 36.1678 12.4178 36.158 13.337Z" fill="#81888C"/>
<path d="M72.0302 9.24445H68V9.74821H72.0302V9.24445Z" fill="white"/>
<path d="M72.0302 10.216H68V10.409H72.0302V10.216Z" fill="white"/>
<path d="M77.7791 10.153L73.4766 11.4299L73.6199 11.9129L77.9224 10.636L77.7791 10.153Z" fill="white"/>
<path d="M78.0565 11.0851L73.7539 12.3621L73.8088 12.547L78.1114 11.2701L78.0565 11.0851Z" fill="white"/>
<path d="M81.4189 22.8401L77.1602 24.1041L77.3035 24.587L81.5622 23.3231L81.4189 22.8401Z" fill="white"/>
<path d="M81.6923 23.7693L77.4336 25.0332L77.4885 25.2182L81.7472 23.9543L81.6923 23.7693Z" fill="white"/>
<path d="M72.0302 24.0338H68V24.5375H72.0302V24.0338Z" fill="white"/>
<path d="M72.0302 25.0053H68V25.1983H72.0302V25.0053Z" fill="white"/>
</g>
<defs>
<clipPath id="clip0_1216_1914">
<rect width="220" height="50.8905" fill="white"/>
</clipPath>
</defs>
</svg>
